<svg width="237" height="237" viewBox="0 0 237 237" fill="none" xmlns="http://www.w3.org/2000/svg">
<path d="M237 181.258H0V181.376H237V181.258Z" fill="#EBEBEB"/>
<path d="M213.252 185.772H200.93V185.89H213.252V185.772Z" fill="#EBEBEB"/>
<path d="M168.761 184.486H143.117V184.604H168.761V184.486Z" fill="#EBEBEB"/>
<path d="M204.771 190.174H187.984V190.292H204.771V190.174Z" fill="#EBEBEB"/>
<path d="M36.0943 189.377H24.8672V189.495H36.0943V189.377Z" fill="#EBEBEB"/>
<path d="M52.5607 189.377H40.3125V189.495H52.5607V189.377Z" fill="#EBEBEB"/>
<path d="M125.676 187.375H99.8164V187.494H125.676V187.375Z" fill="#EBEBEB"/>
<path d="M112.344 160.118H20.815C19.3233 160.118 18.1094 158.904 18.1094 157.412V28.7537C18.1094 27.262 19.3233 26.0481 20.815 26.0481H112.344C113.835 26.0481 115.049 27.262 115.049 28.7537V157.412C115.049 158.904 113.835 160.118 112.344 160.118ZM20.815 26.1671C19.3882 26.1671 18.2279 27.3274 18.2279 28.7542V157.413C18.2279 158.84 19.3882 160 20.815 160H112.344C113.77 160 114.931 158.84 114.931 157.413V28.7537C114.931 27.3274 113.77 26.1666 112.344 26.1666L20.815 26.1671Z" fill="#EBEBEB"/>
<path d="M214.87 160.118H123.342C121.85 160.118 120.637 158.904 120.637 157.412V28.7537C120.637 27.262 121.851 26.0481 123.342 26.0481H214.87C216.362 26.0481 217.576 27.262 217.576 28.7537V157.412C217.576 158.904 216.362 160.118 214.87 160.118ZM123.342 26.1671C121.916 26.1671 120.755 27.3274 120.755 28.7542V157.413C120.755 158.84 121.916 160 123.342 160H214.87C216.297 160 217.457 158.84 217.457 157.413V28.7537C217.457 27.3274 216.297 26.1666 214.87 26.1666L123.342 26.1671Z" fill="#EBEBEB"/>
<path d="M58.7607 178.845H64.5625L64.5625 109.126H58.7607L58.7607 178.845Z" fill="#F0F0F0"/>
<path d="M30.8926 181.25H63.0312V178.845H30.8926V181.25Z" fill="#F0F0F0"/>
<path d="M58.7578 109.126H29.3594V178.845H58.7578V109.126Z" fill="#F5F5F5"/>
<path d="M55.622 145.43H32.4922V157.879H55.622V145.43Z" fill="#F0F0F0"/>
<path d="M55.622 161.724H32.4922V174.173H55.622V161.724Z" fill="#F0F0F0"/>
<path d="M40.8137 152.508H47.3085C47.6872 152.508 47.9972 152.198 47.9972 151.819V151.49C47.9972 151.111 47.6872 150.801 47.3085 150.801H40.8137C40.435 150.801 40.125 151.111 40.125 151.49V151.819C40.125 152.198 40.435 152.508 40.8137 152.508Z" fill="#F5F5F5"/>
<path d="M40.8137 168.802H47.3085C47.6872 168.802 47.9972 168.492 47.9972 168.113V167.784C47.9972 167.405 47.6872 167.095 47.3085 167.095H40.8137C40.435 167.095 40.125 167.405 40.125 167.784V168.113C40.125 168.492 40.435 168.802 40.8137 168.802Z" fill="#F5F5F5"/>
<path d="M55.622 112.97H32.4922V125.42H55.622V112.97Z" fill="#F0F0F0"/>
<path d="M55.622 129.136H32.4922V141.585H55.622V129.136Z" fill="#F0F0F0"/>
<path d="M40.8137 120.049H47.3085C47.6872 120.049 47.9972 119.739 47.9972 119.36V119.031C47.9972 118.652 47.6872 118.342 47.3085 118.342H40.8137C40.435 118.342 40.125 118.652 40.125 119.031V119.36C40.125 119.739 40.435 120.049 40.8137 120.049Z" fill="#F5F5F5"/>
<path d="M40.8137 136.214H47.3085C47.6872 136.214 47.9972 135.904 47.9972 135.526V135.196C47.9972 134.818 47.6872 134.508 47.3085 134.508H40.8137C40.435 134.508 40.125 134.818 40.125 135.196V135.526C40.125 135.904 40.435 136.214 40.8137 136.214Z" fill="#F5F5F5"/>
<path d="M90.9314 178.845H108.344L108.344 109.126H90.9314V178.845Z" fill="#F0F0F0"/>
<path d="M63.064 181.25H106.562V178.845H63.064V181.25Z" fill="#F0F0F0"/>
<path d="M90.9297 109.126H61.5312V178.845H90.9297V109.126Z" fill="#F5F5F5"/>
<path d="M87.7938 145.43H64.6641V157.879H87.7938V145.43Z" fill="#F0F0F0"/>
<path d="M87.7938 161.724H64.6641V174.173H87.7938V161.724Z" fill="#F0F0F0"/>
<path d="M72.9817 152.508H79.4764C79.8552 152.508 80.1652 152.198 80.1652 151.819V151.49C80.1652 151.111 79.8552 150.801 79.4764 150.801H72.9817C72.603 150.801 72.293 151.111 72.293 151.49V151.819C72.293 152.198 72.603 152.508 72.9817 152.508Z" fill="#F5F5F5"/>
<path d="M72.9817 168.802H79.4764C79.8552 168.802 80.1652 168.492 80.1652 168.113V167.784C80.1652 167.405 79.8552 167.095 79.4764 167.095H72.9817C72.603 167.095 72.293 167.405 72.293 167.784V168.113C72.293 168.492 72.603 168.802 72.9817 168.802Z" fill="#F5F5F5"/>
<path d="M87.7938 112.97H64.6641V125.42H87.7938V112.97Z" fill="#F0F0F0"/>
<path d="M87.7938 129.136H64.6641V141.585H87.7938V129.136Z" fill="#F0F0F0"/>
<path d="M72.9817 120.049H79.4764C79.8552 120.049 80.1652 119.739 80.1652 119.36V119.031C80.1652 118.652 79.8552 118.342 79.4764 118.342H72.9817C72.603 118.342 72.293 118.652 72.293 119.031V119.36C72.293 119.739 72.603 120.049 72.9817 120.049Z" fill="#F5F5F5"/>
<path d="M72.9817 136.214H79.4764C79.8552 136.214 80.1652 135.904 80.1652 135.526V135.196C80.1652 134.818 79.8552 134.508 79.4764 134.508H72.9817C72.603 134.508 72.293 134.818 72.293 135.196V135.526C72.293 135.904 72.603 136.214 72.9817 136.214Z" fill="#F5F5F5"/>
<path d="M130.195 176.087H203.414L203.414 37.5424H130.195V176.087Z" fill="#E6E6E6"/>
<path d="M128.738 176.087H201.957L201.957 37.5424H128.738V176.087Z" fill="#F5F5F5"/>
<path d="M199.344 173.15L199.344 40.4795L131.354 40.4795L131.354 173.15H199.344Z" fill="white"/>
<path d="M132.457 173.15L132.457 40.48H131.356L131.356 173.15H132.457Z" fill="#E6E6E6"/>
<path d="M129.819 83.5098L200.875 83.5098V79.5666L129.819 79.5666V83.5098Z" fill="#F5F5F5"/>
<path d="M48.8367 92.9336H88.2422L88.2422 34.5079L48.8367 34.5079L48.8367 92.9336Z" fill="#E0E0E0"/>
<path d="M46.4425 92.9336H87.4805L87.4805 34.5079L46.4425 34.5079L46.4425 92.9336Z" fill="#F5F5F5"/>
<path d="M49.8828 39.1118V88.3291H84.0449V39.1118H49.8828Z" fill="white"/>
<path d="M69.0694 69.7508C67.937 70.7158 65.9846 73.538 61.5532 69.1066C57.1213 64.6747 59.944 62.7228 60.909 61.5904C61.8736 60.4575 56.8526 53.5438 54.3451 57.2433C51.8376 60.9429 53.7753 65.3928 59.5212 71.1391C65.267 76.8849 69.7174 78.8227 73.417 76.3152C77.1161 73.8073 70.2018 68.7862 69.0694 69.7508Z" fill="#F5F5F5"/>
<path d="M72.1304 68.2858C71.8683 68.2858 71.6564 68.0734 71.6564 67.8118C71.6564 62.9552 67.7056 59.0044 62.849 59.0044C62.5869 59.0044 62.375 58.792 62.375 58.5304C62.375 58.2687 62.5869 58.0564 62.849 58.0564C68.2284 58.0564 72.6044 62.4328 72.6044 67.8118C72.6044 68.0734 72.392 68.2858 72.1304 68.2858Z" fill="#F5F5F5"/>
<path d="M76.1204 67.7397C75.8583 67.7397 75.6464 67.5273 75.6464 67.2657C75.6464 60.5107 70.1508 55.0151 63.3959 55.0151C63.1338 55.0151 62.9219 54.8028 62.9219 54.5411C62.9219 54.2795 63.1338 54.0671 63.3959 54.0671C70.6737 54.0671 76.5944 59.9879 76.5944 67.2657C76.5944 67.5273 76.3821 67.7397 76.1204 67.7397Z" fill="#F5F5F5"/>
<path d="M80.6098 67.7654C80.3477 67.7654 80.1358 67.5531 80.1358 67.2914C80.1358 58.0456 72.6139 50.5237 63.3685 50.5237C63.1064 50.5237 62.8945 50.3113 62.8945 50.0497C62.8945 49.788 63.1064 49.5757 63.3685 49.5757C73.1367 49.5757 81.0838 57.5228 81.0838 67.2914C81.0838 67.5536 80.8719 67.7654 80.6098 67.7654Z" fill="#F5F5F5"/>
<path d="M30.3712 81.7492C31.4311 82.1616 34.3059 81.7189 33.3475 83.2281C32.8972 83.9377 32.1639 84.6952 31.3827 85.4426C30.3124 86.467 30.5144 87.578 31.7785 87.9819C32.0852 88.08 32.3355 88.2013 32.4772 88.3587C33.0593 89.0062 31.6842 89.8745 31.0092 90.523C30.357 91.1496 30.0617 91.8099 30.5608 92.2924C31.1116 92.8252 32.2596 92.6294 33.1711 92.7901C35.3639 93.1769 33.109 95.5232 33.3418 96.7286C33.501 97.5538 34.3632 97.7837 35.5354 97.9003C36.4915 97.9956 37.767 98.062 37.8201 98.8222C37.8661 99.4802 36.7617 100.226 36.4721 100.918C36.1905 101.59 36.2863 102.243 36.6844 102.74C37.0399 103.184 37.6277 103.485 38.405 103.614C39.491 103.793 41.1334 103.607 41.2116 104.558C41.2467 104.982 40.8656 105.358 41.1305 105.749C41.3543 106.079 41.8624 106.246 42.4051 106.33C43.2773 106.465 44.5353 106.429 45.5349 106.287C46.8095 106.106 48.6918 105.234 48.0002 104.394C47.8064 104.158 47.4328 104.021 47.0143 103.955C46.7086 103.906 45.8179 103.981 45.7032 103.821C45.5885 103.66 45.8957 103.043 45.9089 102.818C45.9464 102.172 45.7975 101.564 45.5373 101.004C45.1847 100.243 44.6268 99.5593 43.8921 98.9815C43.5906 98.7445 43.1076 98.5706 43.046 98.2245C42.9872 97.8946 43.265 97.4969 43.5745 97.1595C44.0627 96.6272 44.8178 96.1181 45.0918 95.5479C45.5217 94.652 44.4803 94.3681 43.5167 94.1647C42.645 93.9808 41.4979 93.7443 41.7941 92.9233C42.0079 92.3303 42.9711 91.845 43.2593 91.2672C43.6465 90.4912 42.7028 90.4609 42.0259 90.1841C41.1476 89.8243 40.9258 89.183 41.2448 88.3691C41.7704 87.0277 44.9391 85.1345 43.3171 84.2629C42.9052 84.0415 42.5231 83.9671 42.2752 83.6339C42.0103 83.2779 41.9714 82.8347 41.6273 82.5119C41.0808 81.9995 39.9522 81.9137 39.362 81.4378C38.1519 80.4623 40.7665 78.7318 38.3799 78.3199C37.8348 78.226 37.3513 78.1369 36.9859 77.8724C36.7674 77.7146 36.5906 76.9495 36.3441 76.896C35.2496 76.659 33.2749 78.3075 32.6545 78.8166C31.9003 79.4347 29.1056 81.2568 30.3712 81.7492Z" fill="#E0E0E0"/>
<path d="M49.1558 104.488C48.5054 103.555 45.6633 102.623 47.5499 101.539C48.4367 101.03 49.6061 100.608 50.811 100.218C52.4619 99.6852 53.0502 98.4505 52.2135 97.4276C52.0102 97.1792 51.8732 96.9341 51.8571 96.7047C51.7898 95.761 53.6028 95.5344 54.6456 95.196C55.6534 94.8689 56.3696 94.3352 56.262 93.6C56.1435 92.789 54.9955 92.4359 54.3025 91.8325C52.6345 90.3792 56.2425 89.0638 56.8687 87.7172C57.2972 86.7953 56.6952 86.1445 55.7415 85.46C54.9637 84.9021 53.8839 84.2186 54.3617 83.4147C54.775 82.7189 56.2639 82.4871 56.9967 81.9188C57.7086 81.3661 58.0746 80.6513 58.0665 79.9503C58.0594 79.3236 57.7484 78.7325 57.1512 78.2263C56.3165 77.5196 54.739 76.9181 55.3258 75.907C55.588 75.4553 56.1833 75.2543 56.2193 74.7263C56.2497 74.2807 55.9164 73.8646 55.4955 73.5171C54.8196 72.9578 53.6844 72.389 52.7041 72.0525C51.4547 71.6235 49.1927 71.6093 49.2231 72.8028C49.2316 73.1374 49.4667 73.4579 49.79 73.7276C50.0265 73.9248 50.8641 74.2769 50.8546 74.4964C50.8451 74.7163 50.1474 75.2008 49.981 75.425C49.5023 76.0687 49.215 76.7621 49.0577 77.4613C48.8439 78.4107 48.8643 79.3796 49.1145 80.3252C49.2169 80.7129 49.5231 81.1243 49.3387 81.5078C49.1629 81.8737 48.6439 82.1472 48.1376 82.3439C47.3399 82.6539 46.3222 82.8108 45.6875 83.263C44.6902 83.9731 45.4131 84.7661 46.1231 85.4387C46.7654 86.0473 47.6139 86.8422 46.7867 87.5404C46.189 88.0448 45.0045 88.0775 44.3513 88.5301C43.4744 89.1383 44.2864 89.6241 44.6921 90.2342C45.2187 91.0257 44.9718 91.7898 44.1295 92.4691C42.7402 93.5896 38.6382 94.0006 39.4682 95.6757C39.6786 96.1009 39.9644 96.3611 39.9535 96.8218C39.9422 97.3138 39.6701 97.7864 39.7511 98.2831C39.8796 99.0714 40.8162 99.7033 41.0087 100.475C41.4035 102.057 37.9025 102.569 39.7241 104.141C40.1403 104.5 40.5053 104.825 40.6456 105.271C40.7295 105.539 40.3574 106.407 40.5385 106.581C41.3405 107.35 44.2205 106.614 45.1187 106.392C46.2103 106.121 49.9327 105.602 49.1558 104.488Z" fill="#E6E6E6"/>
<path d="M52.6877 99.3447C52.6877 99.3447 52.4389 109.126 42.9024 109.126C33.366 109.126 33.1172 99.3447 33.1172 99.3447H52.6877Z" fill="#F0F0F0"/>
<path d="M118.497 202.664C169.254 202.664 210.401 200.261 210.401 197.297C210.401 194.333 169.254 191.93 118.497 191.93C67.7403 191.93 26.5938 194.333 26.5938 197.297C26.5938 200.261 67.7403 202.664 118.497 202.664Z" fill="#F5F5F5"/>
<path d="M92.9896 37.1252H92.5156C92.5156 35.6932 92.8024 34.3054 93.3688 33.0009C95.0212 29.19 98.7682 26.7275 102.914 26.7275V27.2015C98.9568 27.2015 95.381 29.5521 93.804 33.1896C93.2636 34.4343 92.9896 35.7582 92.9896 37.1252Z" fill="#003CFF"/>
<path d="M92.9896 40.0781H92.5156V46.4402H92.9896V40.0781Z" fill="#003CFF"/>
<path d="M133.703 55.1789H102.911C98.1042 55.1789 94.1719 51.2465 94.1719 46.4402V37.1251C94.1719 32.3188 98.1042 28.3865 102.911 28.3865H133.703C138.51 28.3865 142.442 32.3188 142.442 37.1251V46.4402C142.442 51.2465 138.509 55.1789 133.703 55.1789Z" fill="#003CFF"/>
<path d="M123.859 53.1838C126.853 60.2403 134.993 62.9715 139.71 63.5815C135.082 57.1375 135.283 51.4736 135.283 51.4736L123.859 53.1838Z" fill="#003CFF"/>
<path d="M109.144 35.9019L104.92 34.8743L101.918 38.0188L103.14 42.1905L107.364 43.2176L110.366 40.0736L109.144 35.9019Z" fill="#E0E0E0"/>
<path d="M107.664 35.5418L103.439 34.5142L100.438 37.6587L101.66 41.8303L105.884 42.858L108.886 39.7135L107.664 35.5418Z" fill="white"/>
<path d="M132.45 42.8447L117.474 39.2015C117.058 36.758 115.235 34.6743 112.677 34.0525C110.612 33.5505 108.536 34.1084 107.03 35.3882L112.038 36.6064L113.258 40.7776L110.258 43.9226L105.25 42.7044C106.002 44.5274 107.588 45.9821 109.653 46.4845C112.211 47.1069 114.788 46.0935 116.279 44.1136C116.28 44.1126 116.28 44.1122 116.28 44.1112L131.256 47.7539C132.606 48.0824 133.979 47.2462 134.308 45.8963C134.636 44.5463 133.8 43.1732 132.45 42.8447Z" fill="white"/>
<path d="M131.781 46.9473C132.692 46.9473 133.43 46.2092 133.43 45.2987C133.43 44.3882 132.692 43.6501 131.781 43.6501C130.871 43.6501 130.133 44.3882 130.133 45.2987C130.133 46.2092 130.871 46.9473 131.781 46.9473Z" fill="#003CFF"/>
<path d="M147.083 173.411H142.578V184.79H147.083V173.411Z" fill="#E0E0E0"/>
<path d="M147.973 180.878H141.69L141.244 191.838C141.196 193.013 142.136 193.992 143.312 193.992H146.35C147.526 193.992 148.466 193.013 148.418 191.838L147.973 180.878Z" fill="#263238"/>
<path d="M160.479 193.695C160.219 193.695 159.964 193.568 159.81 193.335C158.536 191.399 156.392 190.243 154.075 190.243H135.587C133.27 190.243 131.126 191.398 129.851 193.335C129.609 193.703 129.113 193.806 128.743 193.563C128.374 193.32 128.272 192.824 128.515 192.455C130.086 190.068 132.73 188.643 135.587 188.643H154.075C156.932 188.643 159.576 190.068 161.147 192.455C161.39 192.824 161.288 193.32 160.918 193.563C160.782 193.652 160.63 193.695 160.479 193.695Z" fill="#263238"/>
<path d="M152.422 174.211H137.241C135.552 174.211 134.095 173.024 133.754 171.37L133.273 169.046H156.389L155.909 171.37C155.568 173.024 154.11 174.211 152.422 174.211Z" fill="#263238"/>
<path d="M111.641 168.078L129.828 168.077C144.024 168.076 156.12 157.535 158.125 143.418L163.111 108.304L195.237 108.302L190.251 143.416C188.246 157.534 176.15 168.075 161.953 168.075L143.767 168.076L111.641 168.078Z" fill="#263238"/>
<path d="M111.64 170.745C110.167 170.745 108.973 169.551 108.973 168.078C108.973 166.604 110.167 165.41 111.64 165.41L129.86 165.41C142.662 165.391 153.674 155.782 155.483 143.043L160.469 107.929C160.657 106.614 161.782 105.637 163.11 105.637L195.235 105.635C196.008 105.635 196.743 105.97 197.249 106.554C197.756 107.137 197.985 107.912 197.876 108.677L192.89 143.791C190.708 159.156 177.408 170.742 161.952 170.742L129.875 170.744C129.859 170.744 129.842 170.744 129.826 170.744L111.64 170.745ZM165.426 110.971L160.765 143.793C159.48 152.839 154.341 160.576 147.177 165.409L161.953 165.408C174.769 165.408 185.799 155.792 187.609 143.041L192.163 110.97L165.426 110.971Z" fill="#263238"/>
<path opacity="0.2" d="M143.765 170.744C142.292 170.744 141.098 169.55 141.098 168.077C141.098 166.604 142.292 165.41 143.765 165.41L161.952 165.409C174.768 165.408 185.798 155.793 187.608 143.042L192.594 107.928C192.802 106.47 194.153 105.455 195.61 105.663C197.069 105.87 198.083 107.22 197.876 108.678L192.89 143.792C190.707 159.156 177.407 170.743 161.951 170.743L143.765 170.744Z" fill="white"/>
<path d="M131.521 193.626C131.521 192.359 130.494 191.332 129.227 191.332C127.96 191.332 126.934 192.359 126.934 193.626C126.934 194.892 127.96 195.919 129.227 195.919C130.494 195.919 131.521 194.892 131.521 193.626Z" fill="#263238"/>
<path d="M162.728 193.626C162.728 192.359 161.701 191.332 160.434 191.332C159.167 191.332 158.141 192.359 158.141 193.626C158.141 194.892 159.167 195.919 160.434 195.919C161.701 195.919 162.728 194.892 162.728 193.626Z" fill="#263238"/>
<path d="M160.479 193.695C160.219 193.695 159.964 193.568 159.81 193.335C158.536 191.399 156.392 190.243 154.075 190.243H135.587C133.27 190.243 131.126 191.398 129.851 193.335C129.609 193.703 129.113 193.806 128.743 193.563C128.374 193.32 128.272 192.824 128.515 192.455C130.086 190.068 132.73 188.643 135.587 188.643H154.075C156.932 188.643 159.576 190.068 161.147 192.455C161.39 192.824 161.288 193.32 160.918 193.563C160.782 193.652 160.63 193.695 160.479 193.695Z" fill="#263238"/>
<path d="M152.655 195.044C152.318 195.044 152.005 194.831 151.894 194.494C151.314 192.731 150.356 191.592 149.453 191.592H140.209C139.306 191.592 138.347 192.731 137.767 194.494C137.629 194.913 137.177 195.142 136.757 195.004C136.337 194.866 136.109 194.414 136.247 193.994C137.072 191.488 138.552 189.992 140.209 189.992H149.453C151.109 189.992 152.59 191.488 153.415 193.994C153.553 194.414 153.325 194.866 152.905 195.004C152.822 195.031 152.737 195.044 152.655 195.044Z" fill="#263238"/>
<path d="M139.302 194.975C139.302 193.708 138.276 192.681 137.009 192.681C135.742 192.681 134.715 193.708 134.715 194.975C134.715 196.241 135.742 197.268 137.009 197.268C138.276 197.268 139.302 196.241 139.302 194.975Z" fill="#263238"/>
<path d="M154.951 194.975C154.951 193.708 153.924 192.681 152.657 192.681C151.39 192.681 150.363 193.708 150.363 194.975C150.363 196.241 151.39 197.268 152.657 197.268C153.924 197.268 154.951 196.241 154.951 194.975Z" fill="#263238"/>
<path d="M95.4566 163.492L103.526 166.999L98.8997 172.397L92.1523 169.473L95.4566 163.492Z" fill="#FFB573"/>
<path opacity="0.2" d="M95.4574 163.494L103.53 167.002L100.937 170.025L93.6055 166.844L95.4574 163.494Z" fill="black"/>
<path d="M100.049 175.206L99.1356 174.998C98.5919 174.874 98.1464 174.487 97.9473 173.967L97.3652 174.24C97.0282 174.399 96.6485 174.44 96.2854 174.358L83.832 171.526C83.8643 170.409 84.8516 169.166 84.8516 169.166C84.8516 169.166 90.3898 170.118 91.9919 168.795C92.1152 168.693 92.2801 168.66 92.4257 168.726C93.4301 169.187 97.3936 170.912 99.9348 170.669C100.272 170.637 100.535 170.948 100.468 171.28C100.104 173.106 100.049 175.206 100.049 175.206Z" fill="#263238"/>
<path d="M92.2123 169.13C92.1763 169.13 92.1412 169.116 92.1151 169.089C92.0616 169.032 90.7993 167.683 90.8368 166.893C90.8453 166.724 90.9074 166.588 91.023 166.486C91.1823 166.346 91.3643 166.317 91.5331 166.403C92.0763 166.679 92.4185 168.2 92.3455 169.008C92.3408 169.061 92.3057 169.105 92.2564 169.123C92.2412 169.128 92.227 169.13 92.2123 169.13ZM91.3382 166.621C91.3003 166.621 91.2548 166.638 91.1984 166.687C91.1387 166.74 91.1079 166.811 91.1031 166.906C91.0809 167.37 91.6824 168.181 92.0867 168.656C92.0597 167.875 91.7582 166.818 91.4117 166.641C91.3904 166.63 91.3667 166.621 91.3382 166.621Z" fill="#263238"/>
<path d="M91.2284 169.189C90.6681 169.189 90.0211 169.125 89.7016 168.868C89.5708 168.762 89.4969 168.631 89.4831 168.479C89.4642 168.267 89.5471 168.104 89.7163 168.017C90.2581 167.741 91.6896 168.361 92.3001 168.897C92.3394 168.932 92.3551 168.986 92.3395 169.036C92.3243 169.087 92.2811 169.123 92.229 169.13C92.1916 169.134 91.7474 169.189 91.2284 169.189ZM90.0704 168.211C89.9761 168.211 89.8965 168.225 89.8372 168.255C89.787 168.281 89.7367 168.324 89.749 168.455C89.7562 168.534 89.7955 168.601 89.869 168.661C90.2311 168.952 91.2412 168.944 91.8626 168.898C91.326 168.534 90.5259 168.211 90.0704 168.211Z" fill="#263238"/>
<path d="M167.954 138.094L164.497 145.333C159.398 156.018 146.83 161.39 136.796 157.187C130.939 154.727 124.543 149.537 120.19 147.163C116.466 155.319 109.5 164.319 104.165 170.581L93.3789 165.151C97.4065 155.906 103.68 141.466 107.659 132.088C109.105 128.691 112.482 126.359 116.045 126.263C133.98 125.777 167.954 138.094 167.954 138.094Z" fill="#003CFF"/>
<path d="M156.814 63.177C154.789 62.5091 152.482 63.7922 152.453 68.3156C152.424 72.839 156.533 75.2569 158.27 69.411C159.312 65.9067 158.293 63.6657 156.814 63.177Z" fill="#E0E0E0"/>
<path d="M115.523 187.167L124.312 186.756L122.54 193.641L115.195 193.992L115.523 187.167Z" fill="#FFB573"/>
<path opacity="0.2" d="M115.525 187.169L124.317 186.758L123.323 190.614L115.34 190.992L115.525 187.169Z" fill="black"/>
<path d="M123.886 197.269H122.95C122.393 197.269 121.872 196.99 121.563 196.527L121.056 196.922C120.762 197.151 120.401 197.276 120.028 197.276H107.257C107.041 196.18 107.728 194.749 107.728 194.749C107.728 194.749 113.339 194.449 114.608 192.804C114.706 192.677 114.859 192.608 115.016 192.641C116.098 192.868 120.345 193.671 122.769 192.871C123.09 192.765 123.416 193.009 123.425 193.348C123.475 195.209 123.886 197.269 123.886 197.269Z" fill="#263238"/>
<path d="M114.873 193.085C114.847 193.085 114.821 193.077 114.798 193.062C114.733 193.018 113.204 191.983 113.065 191.204C113.036 191.039 113.067 190.892 113.157 190.767C113.281 190.596 113.449 190.526 113.635 190.573C114.226 190.721 114.897 192.129 115.005 192.934C115.012 192.986 114.988 193.037 114.943 193.064C114.921 193.078 114.897 193.085 114.873 193.085ZM113.524 190.825C113.48 190.825 113.429 190.846 113.372 190.924C113.326 190.988 113.311 191.065 113.328 191.158C113.409 191.615 114.175 192.273 114.674 192.647C114.475 191.89 113.946 190.927 113.571 190.832C113.555 190.828 113.54 190.825 113.524 190.825Z" fill="#263238"/>
<path d="M112.973 193.487C112.75 193.487 112.549 193.457 112.395 193.382C112.244 193.309 112.143 193.197 112.096 193.051C112.03 192.849 112.075 192.671 112.221 192.55C112.688 192.161 114.222 192.447 114.936 192.835C114.982 192.86 115.009 192.909 115.005 192.962C115.001 193.014 114.967 193.059 114.918 193.077C114.86 193.098 113.779 193.487 112.973 193.487ZM112.967 192.626C112.709 192.626 112.499 192.665 112.392 192.754C112.348 192.79 112.309 192.844 112.349 192.969C112.374 193.044 112.427 193.101 112.512 193.143C112.929 193.346 113.913 193.115 114.508 192.932C114.042 192.75 113.427 192.626 112.967 192.626Z" fill="#263238"/>
<path d="M172.978 135.23L172.919 142.874C172.829 154.151 163.269 164.217 151.854 165.065C145.191 165.556 136.187 165.711 130.991 165.609C130.234 173.504 127.767 182.807 125.284 189.551L114.059 188.766C113.766 179.196 113.334 165.625 112.971 156.626C112.832 153.116 115.004 149.665 118.353 148.017C135.184 139.732 172.978 135.23 172.978 135.23Z" fill="#003CFF"/>
<path opacity="0.1" d="M122.896 189.65C122.87 189.65 122.844 189.646 122.818 189.638C122.677 189.596 122.597 189.446 122.641 189.306C124.337 183.728 127.393 166.311 127.531 158.317C127.532 158.241 127.566 158.169 127.623 158.12C127.681 158.07 127.757 158.047 127.832 158.058C144.228 160.238 155.332 159.497 159.944 155.914C168.045 149.619 167.929 139.43 165.876 134.117C165.823 133.98 165.89 133.825 166.028 133.772C166.166 133.719 166.319 133.787 166.372 133.925C168.484 139.387 168.602 149.862 160.271 156.335C155.504 160.039 144.667 160.809 128.057 158.626C127.85 166.784 124.833 183.926 123.15 189.461C123.116 189.576 123.01 189.65 122.896 189.65Z" fill="black"/>
<path opacity="0.2" d="M119.751 148.101C117.991 151.755 115.623 155.548 113.078 159.165C113.135 160.744 113.196 162.419 113.26 164.158C117.232 157.885 119.757 148.091 119.757 148.091C119.757 148.091 119.757 148.096 119.751 148.101Z" fill="black"/>
<path d="M142.9 101.45L142.477 101.72L142.133 101.928L141.469 102.313C141.03 102.562 140.592 102.784 140.152 103.007C139.275 103.451 138.375 103.833 137.464 104.199C135.635 104.91 133.729 105.499 131.723 105.876C130.723 106.07 129.694 106.211 128.649 106.306C127.604 106.392 126.527 106.401 125.444 106.36C124.36 106.316 123.252 106.191 122.152 105.979C121.049 105.762 119.946 105.451 118.871 105.053L118.434 104.892C117.759 104.642 117.162 104.235 116.694 103.749C115.549 102.549 114.812 101.184 114.383 99.9428C113.948 98.6923 113.758 97.5377 113.687 96.4731C113.546 94.3424 113.81 92.5147 114.182 90.7979C114.571 89.0863 115.09 87.495 115.711 85.9688C116.02 85.2061 116.365 84.4633 116.721 83.7305L117.289 82.6427C117.494 82.2739 117.684 81.9469 117.929 81.535C118.799 80.075 120.688 79.5968 122.148 80.4666C123.126 81.0496 123.664 82.09 123.65 83.1522L123.642 83.6068C123.637 83.8983 123.595 84.2804 123.575 84.6235L123.498 85.6806C123.442 86.3821 123.408 87.0846 123.373 87.7742C123.335 88.4629 123.325 89.1474 123.319 89.8143C123.309 90.4808 123.322 91.1339 123.362 91.7625C123.427 93.0115 123.596 94.1922 123.87 95.0222C124.006 95.435 124.167 95.7441 124.297 95.8758C124.431 96.0142 124.492 95.9484 124.421 95.791L122.243 94.4861C123.263 94.6742 124.337 94.7321 125.489 94.652C126.066 94.6036 126.652 94.5387 127.256 94.4169C127.859 94.3107 128.471 94.1841 129.091 94.0116C129.71 93.8372 130.336 93.6442 130.966 93.4347C131.597 93.2233 132.221 92.9645 132.852 92.7143C133.482 92.4611 134.102 92.1692 134.718 91.8862C135.023 91.7416 135.326 91.5904 135.618 91.443L136.044 91.2264L136.24 91.1235C136.286 91.1012 136.386 91.0453 136.351 91.0723C139.216 89.2645 143.004 90.1215 144.812 92.9868C146.622 95.8536 145.765 99.6418 142.9 101.45Z" fill="#FFB573"/>
<path d="M118.791 84.7634L122.329 84.9293C125.867 83.7756 123.596 79.4835 123.596 79.4835L123.338 76.9789C123.251 76.13 122.464 75.4678 121.48 75.4138L119.008 75.2787C117.881 75.2171 116.906 75.9684 116.846 76.9443L116.71 79.1375C116.671 79.7755 116.791 80.4135 117.057 80.9947L118.791 84.7634Z" fill="#FFB573"/>
<path d="M148.818 85.8591C147.324 83.8588 142.484 84.3295 139.686 87.4925C138.531 87.4437 133.989 91.5419 130.528 92.4216C127.067 93.3014 124.558 97.4944 125.526 99.8591C127.313 104.226 128.527 106.316 131.754 106.666C134.982 107.017 139.228 104.923 142.646 102.36C145.994 99.8506 151.47 89.4089 148.818 85.8591Z" fill="#E0E0E0"/>
<path d="M129.062 92.3351C126.363 90.6002 123.711 93.5134 123.688 97.1471C123.665 100.781 124.55 103.923 125.861 106.071C127.155 108.191 129.49 108.041 131.655 107.938C133.522 107.849 134.442 107.177 133.551 105.479C132.662 103.78 129.373 101.33 128.884 96.5584C128.639 94.1699 130.306 93.1352 129.062 92.3351Z" fill="#FAFAFA"/>
<path d="M128.368 126.248C127.791 126.849 127.371 129.161 128.546 132.628C129.359 135.027 132.547 133.828 132.547 133.828C132.547 133.828 133.11 138.185 137.081 139.118C143.626 140.656 168.316 140.244 172.51 136.984C159.352 136.851 128.368 126.248 128.368 126.248Z" fill="#FAFAFA"/>
<path d="M150.513 84.27C156.753 84.3079 163.964 84.9582 169.761 86.1361C174.185 87.0348 176.899 91.5008 175.749 95.8664C170.99 113.923 173.684 133.748 173.309 137.368C173.309 137.368 135.423 142.823 129.614 131.561C121.823 118.82 135.076 110.496 139.625 92.5943C140.826 87.8671 145.635 84.2401 150.513 84.27Z" fill="#263238"/>
<path opacity="0.1" d="M150.513 84.27C156.753 84.3079 163.964 84.9582 169.761 86.1361C174.185 87.0348 176.899 91.5008 175.749 95.8664C170.99 113.923 173.684 133.748 173.309 137.368C173.309 137.368 135.423 142.823 129.614 131.561C121.823 118.82 135.076 110.496 139.625 92.5943C140.826 87.8671 145.635 84.2401 150.513 84.27Z" fill="white"/>
<path opacity="0.4" d="M163.183 85.1075L163.113 85.0809L162.905 85.0061L162.852 85.0487C159.667 84.67 156.355 84.4245 153.196 84.3235C152.423 84.2965 151.66 84.2808 150.908 84.2751C150.017 84.7288 149.228 85.6303 148.758 86.7826C147.788 89.1777 148.481 91.8501 150.62 93.9305L150.796 94.1012L151.047 94.0746C155.693 93.6262 164.378 89.9034 164.74 87.0386C164.805 86.5532 164.682 85.6516 163.183 85.1075Z" fill="#FAFAFA"/>
<path d="M176.65 98.3576L177 99.0193L177.307 99.6269C177.508 100.029 177.692 100.433 177.879 100.833C178.255 101.633 178.584 102.448 178.921 103.26C179.568 104.892 180.167 106.546 180.672 108.241C180.931 109.086 181.17 109.942 181.399 110.802C181.612 111.669 181.814 112.54 181.995 113.422C182.375 115.178 182.63 116.998 182.811 118.837L182.857 119.297C182.927 120.012 182.83 120.729 182.61 121.367C182.243 122.422 181.653 123.413 180.981 124.194C180.308 124.984 179.571 125.576 178.868 126.024C177.452 126.915 176.177 127.323 175.008 127.605C172.681 128.136 170.682 128.146 168.755 128.058C166.835 127.946 165.012 127.691 163.23 127.327C162.34 127.148 161.462 126.93 160.59 126.702C159.708 126.458 158.883 126.209 157.961 125.884C156.352 125.318 155.508 123.555 156.075 121.947C156.491 120.764 157.556 119.994 158.73 119.895L158.911 119.881L161.301 119.685C162.108 119.626 162.911 119.546 163.703 119.469C164.496 119.396 165.279 119.295 166.047 119.194C166.815 119.097 167.567 118.98 168.291 118.837C169.726 118.57 171.106 118.199 172.014 117.764C172.454 117.551 172.759 117.311 172.731 117.238C172.718 117.204 172.618 117.231 172.474 117.363C172.33 117.489 172.155 117.73 172.047 117.982L171.846 120.512C171.492 119.132 171.115 117.746 170.659 116.346C170.435 115.648 170.19 114.949 169.937 114.252C169.692 113.551 169.441 112.851 169.167 112.152C168.619 110.759 168.072 109.355 167.478 107.968L166.587 105.897L165.728 103.945L165.616 103.69C164.253 100.59 165.66 96.9711 168.76 95.6079C171.718 94.3096 175.157 95.551 176.65 98.3576Z" fill="#FFB573"/>
<path d="M140.856 115.809H147.933C148.293 115.809 148.586 116.102 148.586 116.462V125.595C148.586 125.956 148.293 126.248 147.933 126.248H140.856C140.496 126.248 140.203 125.956 140.203 125.595V116.462C140.203 116.102 140.496 115.809 140.856 115.809Z" fill="#003CFF"/>
<path d="M147.932 117.831C149.696 117.831 151.13 119.265 151.13 121.029C151.13 122.792 149.696 124.227 147.932 124.227H147.872C146.108 124.227 144.674 122.792 144.674 121.029C144.674 119.265 146.108 117.831 147.872 117.831H147.932ZM147.932 116.868H147.872C145.574 116.868 143.711 118.731 143.711 121.029C143.711 123.327 145.574 125.189 147.872 125.189H147.932C150.23 125.189 152.093 123.327 152.093 121.029C152.093 118.731 150.23 116.868 147.932 116.868Z" fill="#003CFF"/>
<path d="M159.032 121.601L159.004 123.838C157.642 127.301 153.492 124.78 153.492 124.78L151.007 124.374C150.165 124.236 149.55 123.412 149.555 122.426L149.567 119.95C149.572 118.821 150.38 117.892 151.357 117.89L153.554 117.885C154.194 117.884 154.823 118.041 155.387 118.342L157.895 119.681C158.604 120.059 159.042 120.8 159.032 121.601Z" fill="#FFB573"/>
<path d="M171.238 88.0103C173.692 87.5482 176.937 91.1691 176.858 95.3915C177.742 96.1376 179.268 102.342 181.221 105.331C183.175 108.32 182.186 113.106 179.873 114.193C175.602 116.199 173.295 116.917 170.681 114.991C168.067 113.066 165.056 108.588 164.619 104.337C163.98 98.1028 166.884 88.8308 171.238 88.0103Z" fill="#E0E0E0"/>
<path d="M167.859 112.564C166.303 115.37 169.382 117.827 173.009 117.614C176.637 117.402 179.715 116.315 181.773 114.867C183.804 113.439 183.504 111.119 183.261 108.964C183.051 107.107 182.321 106.233 180.683 107.231C179.045 108.229 176.814 111.67 172.084 112.467C169.718 112.866 168.577 111.27 167.859 112.564Z" fill="#FAFAFA"/>
<path d="M149.871 86.5676C150.252 85.859 151.309 84.8015 152.36 84.4839C152.78 83.6108 152.89 82.6135 152.627 81.4209L164.344 78.4636C163.183 82.2063 162.272 85.1636 163.572 87.0952C161.229 88.3361 156.938 90.5596 152.431 90.1548C147.924 89.75 149.037 88.1162 149.871 86.5676Z" fill="#FFB573"/>
<path opacity="0.2" d="M152.695 81.7812L161.352 81.8026C158.478 84.5195 154.324 85.3538 152.531 84.0678C152.769 83.3876 152.833 82.6378 152.695 81.7812Z" fill="black"/>
<path d="M166.941 72.7418C165.273 78.0051 164.027 81.543 160.36 83.0243C153.074 85.9673 150.102 82.1256 150.165 76.4556C150.221 71.352 152.939 63.6021 158.702 62.8338C164.38 62.0768 168.608 67.479 166.941 72.7418Z" fill="#FFB573"/>
<path d="M163.455 76.8837C161.292 75.913 161.944 75.275 161.944 75.275C161.944 75.275 163.698 73.3264 163.977 72.1859C164.255 71.0455 162.566 68.6153 163.159 67.3412C163.752 66.0671 170.124 65.4447 172.82 68.7044C171.664 68.9414 170.894 68.9092 170.894 68.9092C170.894 68.9092 172.761 70.7876 171.516 73.406C170.272 76.0244 165.767 77.9213 163.455 76.8837Z" fill="#E0E0E0"/>
<path d="M151.664 77.4341C154.294 77.4786 157.264 77.5189 157.264 77.5189C157.264 77.5189 156.47 78.8717 154.12 79.0779C151.77 79.2846 151.664 77.4341 151.664 77.4341Z" fill="#263238"/>
<path d="M151.797 77.4331C151.97 77.7933 152.504 78.3361 154.11 78.192C155.32 78.0853 156.126 77.7791 156.624 77.5094C155.633 77.498 153.65 77.4682 151.797 77.4331Z" fill="white"/>
<path opacity="0.2" d="M159.664 72.0186C159.664 72.0186 160.812 71.7801 161.568 72.3987C160.494 72.3992 159.664 72.0186 159.664 72.0186Z" fill="black"/>
<path opacity="0.2" d="M159.602 72.4775C159.602 72.4775 160.671 72.4823 161.187 73.2421C160.24 73.0207 159.602 72.4775 159.602 72.4775Z" fill="black"/>
<path opacity="0.2" d="M152.28 70.2479C152.28 70.2479 151.914 69.6535 151.539 69.891C151.92 70.2669 152.28 70.2479 152.28 70.2479Z" fill="black"/>
<path opacity="0.2" d="M152.135 70.6615C152.135 70.6615 151.846 70.1302 151.543 70.5478C151.846 70.8251 152.135 70.6615 152.135 70.6615Z" fill="black"/>
<path opacity="0.2" d="M155.195 65.6963C155.195 65.6963 157.908 65.6925 160 66.5026C157.303 66.2025 155.195 65.6963 155.195 65.6963Z" fill="black"/>
<path opacity="0.2" d="M154.438 66.4373C154.438 66.4373 158.141 66.8515 159.853 67.9664C156.596 67.3374 154.438 66.4373 154.438 66.4373Z" fill="black"/>
<path d="M167.639 78.2757C166.719 79.4403 165.344 80.067 164.126 80.1831C162.295 80.358 161.686 78.6388 162.453 77.0765C163.143 75.6706 164.927 73.8855 166.642 74.4382C168.331 74.9824 168.69 76.9438 167.639 78.2757Z" fill="#FFB573"/>
<path d="M158.176 71.9468C158.067 72.3824 157.748 72.6753 157.464 72.6014C157.179 72.5274 157.037 72.1146 157.146 71.679C157.255 71.2433 157.574 70.9504 157.858 71.0244C158.143 71.0983 158.285 71.5112 158.176 71.9468Z" fill="#263238"/>
<path d="M153.543 70.8511C153.434 71.2867 153.115 71.5796 152.831 71.5057C152.546 71.4317 152.404 71.0189 152.513 70.5833C152.622 70.1476 152.941 69.8547 153.226 69.9287C153.51 70.0026 153.652 70.4155 153.543 70.8511Z" fill="#263238"/>
<path d="M154.953 71.572L154.066 75.2403C154.066 75.2403 152.589 75.2171 151.918 74.3904C152.857 72.6215 154.953 71.572 154.953 71.572Z" fill="#ED893E"/>
<path d="M159.971 70.8774C160.014 70.8826 160.06 70.8769 160.103 70.8589C160.237 70.803 160.299 70.6485 160.242 70.5134C159.672 69.1634 158.477 68.9264 158.426 68.917C158.283 68.8899 158.146 68.9847 158.121 69.1284C158.096 69.2715 158.191 69.409 158.333 69.4365C158.372 69.444 159.302 69.6388 159.757 70.7163C159.796 70.8077 159.88 70.8665 159.971 70.8774Z" fill="#E0E0E0"/>
<path d="M151.368 68.9025C151.451 68.9224 151.542 68.9016 151.609 68.8385C152.452 68.0422 153.379 68.2503 153.418 68.2593C153.559 68.2925 153.701 68.2057 153.734 68.0645C153.766 67.9232 153.68 67.781 153.539 67.746C153.488 67.7346 152.303 67.4549 151.246 68.4522C151.141 68.5518 151.136 68.7191 151.237 68.8257C151.274 68.8651 151.32 68.8907 151.368 68.9025Z" fill="#E0E0E0"/>
<path d="M123.215 85.2043C125.798 83.6022 125.532 80.8815 125.988 78.7129C126.065 78.3446 125.221 77.8033 124.723 78.2688C123.851 79.0845 123.642 79.6614 123.55 80.4108C122.61 80.552 120.191 81.8626 120.567 84.5203C121.641 85.4067 123.215 85.2043 123.215 85.2043Z" fill="#FFB573"/>
<path d="M153.537 75.8049C153.537 75.8049 153.283 76.7477 154.037 76.9529C154.791 77.1582 156.741 76.067 158.347 77.1132C157.783 76.2922 156.018 75.1773 153.537 75.8049Z" fill="#E0E0E0"/>
<path d="M152.727 75.645C152.727 75.645 152.599 76.5219 151.941 76.6191C151.282 76.7158 150.141 75.508 148.527 76.2617C149.251 75.5891 151.012 74.7928 152.727 75.645Z" fill="#E0E0E0"/>
<path d="M150.997 93.5456C157.18 92.9436 167.831 87.3594 163.007 85.6094C159.966 88.0235 154.863 88.9866 152.461 88.9885C151.565 88.132 151.286 85.7378 152.362 84.4832C149.846 84.268 146.686 89.3521 150.997 93.5456Z" fill="#FAFAFA"/>
<path d="M152.461 88.9884C154.695 87.4474 161.782 83.7089 163.77 83.7412C164.168 84.7451 163.88 86.1017 163.88 86.1017C163.88 86.1017 161.262 88.977 152.461 88.9884Z" fill="#E0E0E0"/>
<path d="M152.46 88.9884C152.46 88.9884 152.803 84.1607 152.367 83.1411C151.141 83.5341 150.93 84.8821 150.93 84.8821C150.93 84.8821 151.409 88.2489 152.46 88.9884Z" fill="#E0E0E0"/>
<path d="M169.266 67.2021C166.056 67.5828 156.545 66.6893 153.437 63.1035C150.329 59.5177 152.595 57.0875 155.922 59.1622C155.922 59.1622 153.711 56.1556 157.264 56.9097C160.615 57.6207 164.583 63.4414 169.622 63.1926C173.911 62.9802 172.437 66.8258 169.266 67.2021Z" fill="#E0E0E0"/>
<path d="M167.767 80.0778C166.276 81.286 164.31 81.3311 163.377 80.1788C162.443 79.0265 162.895 77.1125 164.386 75.9042C165.877 74.696 167.843 74.6505 168.777 75.8033C169.71 76.956 169.259 78.8696 167.767 80.0778Z" fill="#263238"/>
<path d="M155.405 81.9284C154.732 81.8582 154.231 81.3799 154.285 80.86C154.339 80.34 154.929 79.9755 155.601 80.0461C156.274 80.1163 156.775 80.5945 156.721 81.1145C156.667 81.634 156.077 81.9985 155.405 81.9284Z" fill="#263238"/>
<path d="M167.665 76.9005C167.505 76.9005 167.346 76.8285 167.241 76.691C167.062 76.4569 167.107 76.1222 167.341 75.9435C168.537 75.0301 169.269 72.7535 169.164 70.2783C169.097 68.6937 168.546 64.7562 164.892 62.4284C164.643 62.2701 164.57 61.9402 164.728 61.6918C164.887 61.4434 165.216 61.3704 165.465 61.5287C168.336 63.3579 170.073 66.5304 170.23 70.2333C170.352 73.0844 169.471 75.6587 167.989 76.7915C167.892 76.8645 167.778 76.9005 167.665 76.9005Z" fill="#263238"/>
<path d="M158.043 81.9266C157.317 81.9266 156.54 81.8797 155.716 81.7716C155.57 81.7527 155.467 81.6185 155.487 81.4725C155.506 81.3265 155.647 81.2237 155.786 81.2426C161.473 81.9892 164.87 79.6533 164.903 79.6296C165.025 79.5448 165.189 79.5742 165.274 79.6941C165.359 79.8145 165.33 79.9804 165.21 80.0657C165.086 80.1529 162.518 81.9266 158.043 81.9266Z" fill="#263238"/>
<path d="M142.676 120.657V119.824H142.296L142.493 118.746H141.714L141.521 119.824H140.92L141.117 118.746H140.338L140.203 119.482V123.313H140.28L140.472 122.254H141.079L140.886 123.313H141.661L141.854 122.254H142.676V121.422H142.008L142.147 120.656H142.676V120.657ZM141.228 121.422H140.626L140.766 120.657H141.367L141.228 121.422Z" fill="white"/>
<path d="M145.61 118.745V123.24H144.483V120.295C144.301 120.447 144.124 120.571 143.954 120.665C143.783 120.76 143.569 120.85 143.312 120.936V119.93C143.692 119.795 143.987 119.633 144.196 119.444C144.406 119.255 144.57 119.022 144.689 118.745H145.61Z" fill="white"/>
<path d="M186.21 126.248H50.4844V129.943H186.21V126.248Z" fill="#003CFF"/>
<path opacity="0.5" d="M186.21 126.248H50.4844V129.943H186.21V126.248Z" fill="white"/>
<path opacity="0.5" d="M186.209 126.248H155.305V129.942H186.209V126.248Z" fill="white"/>
<path d="M154.763 129.942H155.305V126.248H154.763V129.942Z" fill="white"/>
<path d="M183.902 129.941L187.996 198.685H186.37L181.457 132.4H160.055L155.141 198.685H153.516L157.611 129.941H183.902Z" fill="#003CFF"/>
<path opacity="0.5" d="M183.902 129.941L187.996 198.685H186.37L181.457 132.4H160.055L155.141 198.685H153.516L157.611 129.941H183.902Z" fill="white"/>
<path d="M79.1944 129.941L83.2892 198.685H81.6634L76.7495 132.4H55.3479L50.4344 198.685H48.8086L52.903 129.941H79.1944Z" fill="#003CFF"/>
<path opacity="0.2" d="M79.1944 129.941L83.2892 198.685H81.6634L76.7495 132.4H55.3479L50.4344 198.685H48.8086L52.903 129.941H79.1944Z" fill="white"/>
<path d="M111.845 116.684H61.8561L57.3242 86.3643H107.313L111.845 116.684Z" fill="#003CFF"/>
<path opacity="0.3" d="M84.0156 116.684H90.8943L89.2491 102.71L87.1246 108.599L84.0156 116.684Z" fill="black"/>
<path opacity="0.3" d="M111.844 116.684H111.27L106.738 86.3643H107.312L111.844 116.684Z" fill="black"/>
<path d="M93.7147 124.966H80.1133V126.247H94.8907L93.7147 124.966Z" fill="#003CFF"/>
<path opacity="0.3" d="M93.7147 124.966H80.1133V126.247H94.8907L93.7147 124.966Z" fill="black"/>
<path d="M81.8711 107.724L81.6834 109.125H81.1156C80.533 109.125 80.0372 109.548 79.941 110.121L78.7669 117.264C78.6512 117.99 79.2096 118.645 79.941 118.645H80.4221V119.223H77.2695V107.725H81.8711V107.724Z" fill="#003CFF"/>
<path opacity="0.3" d="M81.8711 107.724L81.6834 109.125H81.1156C80.533 109.125 80.0372 109.548 79.941 110.121L78.7669 117.264C78.6512 117.99 79.2096 118.645 79.941 118.645H80.4221V119.223H77.2695V107.725H81.8711V107.724Z" fill="black"/>
<path d="M77.277 101.525L73.2148 126.249H85.7621L89.8243 101.525H77.277ZM84.2316 110.506L83.057 117.649C82.9608 118.226 82.465 118.645 81.8829 118.645H79.4622C78.7308 118.645 78.1724 117.99 78.2881 117.264L79.4622 110.121C79.5584 109.549 80.0542 109.125 80.6367 109.125H83.0575C83.7936 109.125 84.3467 109.784 84.2316 110.506Z" fill="#003CFF"/>
<path opacity="0.3" d="M85.7634 126.247L85.1562 126.169L89.2042 101.525L89.8247 101.523L85.7634 126.247Z" fill="black"/>
<path opacity="0.3" d="M84.0376 95.4606H83.31L82.3672 89.1541H83.0948L84.0376 95.4606Z" fill="black"/>
<path opacity="0.3" d="M85.3886 95.4606H84.6611L83.7188 89.1541H84.4463L85.3886 95.4606Z" fill="black"/>
<path opacity="0.3" d="M86.7407 95.4606H86.0131L85.0703 89.1541H85.7979L86.7407 95.4606Z" fill="black"/>
<path opacity="0.3" d="M88.0918 95.4606H87.3642L86.4219 89.1541H87.1495L88.0918 95.4606Z" fill="black"/>
<path opacity="0.3" d="M89.4399 95.4606H88.7123L87.7695 89.1541H88.4971L89.4399 95.4606Z" fill="black"/>
<path opacity="0.3" d="M82.6899 95.4606H81.9623L81.0195 89.1541H81.7476L82.6899 95.4606Z" fill="black"/>
<path opacity="0.3" d="M81.3423 95.4606H80.6147L79.6719 89.1541H80.3995L81.3423 95.4606Z" fill="black"/>
<path opacity="0.3" d="M79.9907 95.4606H79.2631L78.3203 89.1541H79.0479L79.9907 95.4606Z" fill="black"/>
<path opacity="0.3" d="M78.6387 95.4606H77.9115L76.9688 89.1541H77.6963L78.6387 95.4606Z" fill="black"/>
</svg>
