<svg width="390" height="36" viewBox="0 0 390 36" fill="none" xmlns="http://www.w3.org/2000/svg">
<g clip-path="url(#clip0_102_2842)">
<path d="M663.333 0.12915H-273.333V35.8159H663.333V0.12915Z" fill="#00427A"/>
<path d="M166.819 21.8905H167.904V18.9795H170.753V21.8905H171.838V15.4549H170.753V18.0197H167.904V15.4549H166.819V21.8905Z" fill="white"/>
<path d="M176.984 15.4549H175.898V21.8905H176.984V15.4549Z" fill="white"/>
<path d="M180.901 21.8905H181.94V17.1543H181.971L184.804 21.8905H185.952V15.4549H184.929V20.2068H184.898L182.066 15.4549H180.901V21.8905Z" fill="white"/>
<path d="M189.996 21.8905H192.577C193.537 21.8905 194.229 21.56 194.669 20.9464C195.094 20.3484 195.315 19.5774 195.315 18.6805C195.315 17.7837 195.094 17.0126 194.669 16.399C194.229 15.7853 193.521 15.4706 192.577 15.4549H189.996V21.8905ZM191.098 16.3675H192.168C192.592 16.3675 192.939 16.4305 193.222 16.5406C193.505 16.6507 193.71 16.8238 193.851 17.0284C194.119 17.469 194.26 18.0039 194.245 18.6805C194.245 18.8379 194.245 18.9795 194.245 19.1369C194.245 19.2942 194.213 19.4358 194.182 19.5774C194.119 19.8607 194.024 20.1124 193.867 20.317C193.584 20.7575 193.017 20.9778 192.183 20.9778H191.113V16.3675H191.098Z" fill="white"/>
<path d="M198.997 19.5774C198.997 20.3956 199.233 21.0093 199.705 21.4341C200.161 21.8433 200.775 22.0478 201.561 22.0478C202.348 22.0478 202.962 21.8433 203.418 21.4341C203.874 21.0093 204.11 20.3956 204.126 19.5774V15.4549H203.04V19.2155C203.04 19.4201 203.04 19.6404 203.009 19.8607C202.977 20.0809 202.93 20.2855 202.836 20.4586C202.741 20.6474 202.6 20.789 202.395 20.8992C202.191 21.0093 201.923 21.0722 201.561 21.0722C201.199 21.0722 200.932 21.0093 200.743 20.8992C200.539 20.789 200.397 20.6317 200.303 20.4586C200.208 20.2698 200.161 20.0652 200.129 19.8607C200.114 19.6404 200.098 19.4201 200.098 19.2155V15.4549H199.012V19.5774H198.997Z" fill="white"/>
<path d="M211.474 15.4549H210.373V19.8764C210.373 20.2698 210.326 20.5687 210.2 20.789C210.074 21.0093 209.838 21.1195 209.492 21.1195C209.161 21.1195 208.941 21.025 208.831 20.8205C208.705 20.6159 208.642 20.3327 208.642 19.9708V19.6404H207.556V19.9865C207.556 20.5845 207.698 21.0722 207.997 21.4656C208.28 21.859 208.752 22.0478 209.413 22.0635C209.869 22.0635 210.231 22.0006 210.499 21.8747C210.766 21.7488 210.971 21.5758 211.112 21.3712C211.254 21.1667 211.349 20.9149 211.396 20.6631C211.443 20.3956 211.459 20.1282 211.459 19.8449V15.4864L211.474 15.4549Z" fill="white"/>
<path d="M214.779 21.8905H215.896L216.478 20.1911H218.964L219.546 21.8905H220.711L218.319 15.4549H217.155L214.763 21.8905H214.779ZM217.721 16.5721H217.752L218.681 19.3414H216.777L217.721 16.5721Z" fill="white"/>
<path d="M234.463 18.5075H231.804V19.3572H233.456C233.424 20.5059 232.842 21.088 231.709 21.1195C231.048 21.1195 230.576 20.852 230.262 20.3485C229.947 19.8607 229.805 19.2943 229.805 18.6649C229.805 18.0197 229.947 17.4533 230.262 16.9655C230.561 16.4777 231.048 16.226 231.709 16.2102C232.118 16.2102 232.465 16.3204 232.779 16.5249C233.078 16.7295 233.251 17.0599 233.314 17.5005H234.384C234.29 16.761 233.991 16.2102 233.503 15.8483C233.015 15.4864 232.417 15.2976 231.709 15.2976C230.781 15.2976 230.041 15.6438 229.506 16.2889C228.987 16.9183 228.72 17.7208 228.72 18.6649C228.72 19.609 228.987 20.3957 229.506 21.0408C230.041 21.686 230.765 22.0164 231.709 22.0321C232.417 22.0479 233.047 21.7489 233.582 21.1195L233.755 21.8748H234.447V18.4918L234.463 18.5075Z" fill="white"/>
<path d="M238.412 21.8905H239.498V19.2313H241.103C241.607 19.2313 241.937 19.3729 242.11 19.6404C242.267 19.9236 242.346 20.3485 242.346 20.9464C242.346 21.1037 242.346 21.2611 242.378 21.4342C242.393 21.5915 242.441 21.7489 242.519 21.9062H243.684C243.558 21.7646 243.479 21.5286 243.432 21.2296C243.369 20.9149 243.353 20.5845 243.353 20.2068C243.353 19.9551 243.322 19.7348 243.275 19.5617C243.212 19.3886 243.133 19.247 243.023 19.1526C242.928 19.0425 242.834 18.9638 242.724 18.9323C242.614 18.8851 242.504 18.8536 242.393 18.8536C242.393 18.8536 242.535 18.775 242.661 18.712C242.771 18.6491 242.897 18.5704 243.007 18.4603C243.133 18.3344 243.243 18.1613 243.322 17.9568C243.4 17.7679 243.448 17.5004 243.448 17.2015C243.448 16.0686 242.755 15.4864 241.386 15.4706H238.412V21.9062V21.8905ZM239.498 16.3675H241.276C241.434 16.3675 241.575 16.3675 241.701 16.399C241.827 16.4305 241.953 16.4777 242.031 16.5406C242.142 16.6036 242.22 16.698 242.283 16.8238C242.33 16.9497 242.362 17.1228 242.362 17.3431C242.362 18.0354 242 18.3659 241.292 18.3659H239.498V16.3518V16.3675Z" fill="white"/>
<path d="M249.946 16.2102C250.623 16.2102 251.095 16.4777 251.394 16.9655C251.693 17.4533 251.85 18.0197 251.85 18.6649C251.85 19.31 251.693 19.8607 251.394 20.3485C251.252 20.5845 251.063 20.7576 250.811 20.8992C250.56 21.0408 250.277 21.1195 249.946 21.1195C249.285 21.1195 248.797 20.852 248.499 20.3485C248.184 19.8607 248.042 19.2943 248.042 18.6649C248.042 18.0197 248.184 17.4533 248.499 16.9655C248.797 16.4777 249.285 16.226 249.946 16.2102ZM249.946 15.2976C249.002 15.2976 248.278 15.6438 247.759 16.2889C247.24 16.9183 246.972 17.7208 246.972 18.6649C246.972 19.609 247.24 20.3957 247.759 21.0408C248.278 21.686 249.018 22.0164 249.946 22.0321C250.89 22.0321 251.614 21.686 252.149 21.0408C252.668 20.3957 252.936 19.609 252.936 18.6649C252.936 17.7208 252.668 16.9183 252.149 16.2889C251.63 15.6438 250.89 15.3133 249.946 15.2976Z" fill="white"/>
<path d="M256.618 19.5774C256.618 20.3956 256.869 21.0093 257.326 21.4341C257.782 21.8433 258.396 22.0478 259.182 22.0478C259.969 22.0478 260.583 21.8433 261.039 21.4341C261.495 21.0093 261.731 20.3956 261.747 19.5774V15.4549H260.661V19.2155C260.661 19.4201 260.662 19.6404 260.63 19.8607C260.599 20.0809 260.551 20.2855 260.457 20.4586C260.363 20.6474 260.221 20.789 260.016 20.8992C259.812 21.0093 259.544 21.0722 259.182 21.0722C258.821 21.0722 258.553 21.0093 258.364 20.8992C258.16 20.789 258.018 20.6317 257.924 20.4586C257.829 20.2698 257.782 20.0652 257.751 19.8607C257.719 19.6404 257.719 19.4201 257.719 19.2155V15.4549H256.618V19.5774Z" fill="white"/>
<path d="M265.744 21.8905H266.83V19.4201H268.482C268.922 19.4201 269.284 19.3414 269.583 19.2155C269.851 19.0897 270.071 18.9323 270.228 18.7278C270.386 18.5232 270.48 18.3029 270.543 18.0826C270.59 17.8623 270.606 17.6578 270.606 17.4532C270.606 17.2487 270.59 17.0284 270.543 16.7924C270.48 16.5563 270.386 16.3518 270.228 16.163C270.071 15.9584 269.866 15.7853 269.583 15.6595C269.3 15.5336 268.938 15.4706 268.482 15.4706H265.728V21.9062L265.744 21.8905ZM266.83 16.3675H268.435C268.592 16.3675 268.733 16.3675 268.859 16.399C268.985 16.4305 269.111 16.4934 269.206 16.5721C269.41 16.7294 269.505 17.0127 269.52 17.4375C269.52 17.6263 269.489 17.7994 269.426 17.941C269.363 18.0826 269.268 18.1928 269.158 18.2715C269.048 18.3501 268.938 18.3973 268.812 18.4445C268.686 18.4917 268.545 18.5075 268.435 18.5075H266.845V16.3675H266.83Z" fill="white"/>
<path d="M135.317 15.9427C133.886 15.8955 132.485 15.7854 131.085 15.628C130.927 16.2731 130.849 16.9183 130.817 17.5319L135.302 17.5634C135.302 17.0284 135.302 16.4777 135.302 15.927M135.286 19.7978C133.87 19.7663 132.469 19.7978 131.085 19.8764C131.337 21.0093 131.793 22.1895 132.438 23.4797C133.382 23.3381 134.342 23.2594 135.302 23.2437V23.0077C135.302 21.8276 135.302 20.7891 135.302 19.7978H135.286ZM140.054 20.1282C138.59 19.9394 137.08 19.8292 135.585 19.782C135.585 20.7733 135.585 21.8276 135.585 23.0234V23.2594C136.655 23.2594 137.725 23.3538 138.763 23.5269C139.361 22.3311 139.786 21.2139 140.054 20.1282ZM145.325 21.151C143.751 20.7261 142.084 20.3957 140.353 20.1754C140.085 21.2768 139.66 22.394 139.078 23.5899C140.18 23.7944 141.234 24.1091 142.241 24.5182C143.641 23.4168 144.664 22.2839 145.341 21.1667L145.325 21.151ZM128.709 20.081C127.576 20.2069 126.49 20.3799 125.436 20.5845C126.16 22.3311 127.419 23.4954 128.756 24.4395C129.464 24.1563 130.219 23.936 130.99 23.7629C131.352 23.6843 131.714 23.6056 132.092 23.5427C131.447 22.2524 130.99 21.0565 130.739 19.9079C130.046 19.9551 129.37 20.018 128.709 20.0967V20.081ZM146.237 18.0669L140.667 17.9725V18.0512C140.652 18.6491 140.573 19.2628 140.447 19.8607C142.178 20.0967 143.877 20.4272 145.467 20.852C145.97 19.9236 146.222 18.9795 146.253 18.0512L146.237 18.0669ZM130.534 17.8466L124.744 17.7994C124.775 18.3344 124.87 18.9009 125.027 19.4988C125.09 19.7663 125.184 20.0338 125.279 20.2855C126.364 20.0652 127.497 19.8922 128.662 19.7663C129.323 19.6876 130.015 19.6247 130.691 19.5775C130.597 19.0739 130.534 18.5704 130.534 18.0669C130.534 17.9882 130.534 17.9253 130.534 17.8466ZM135.302 17.8938L130.817 17.8624C130.817 17.8624 130.817 18.004 130.817 18.0669C130.817 18.5704 130.88 19.0582 130.99 19.5775C132.407 19.4831 133.854 19.4673 135.302 19.4988C135.302 18.9481 135.302 18.4288 135.302 17.9096V17.8938ZM135.9 17.8938H135.616V19.4673C137.127 19.5145 138.638 19.6247 140.117 19.8135C140.243 19.2156 140.321 18.6176 140.337 18.0354V17.9568L135.9 17.8938ZM140.164 15.8798C138.653 15.9742 137.127 16.0056 135.601 15.9584C135.601 16.5092 135.601 17.0442 135.601 17.5791H135.9L140.384 17.6578C140.384 17.0756 140.305 16.4777 140.195 15.8798H140.164ZM145.608 15.2032C143.972 15.5179 142.241 15.7382 140.447 15.864C140.573 16.4777 140.636 17.0756 140.636 17.6735L146.269 17.768C146.238 16.9025 146.017 16.0529 145.608 15.2032ZM129.165 15.3763C127.922 15.1717 126.711 14.9199 125.562 14.621C125.121 15.4077 124.87 16.1158 124.775 16.8553C124.744 17.0756 124.728 17.2959 124.728 17.5162L130.518 17.5634C130.534 16.9183 130.629 16.2731 130.77 15.6123C130.219 15.5493 129.669 15.4707 129.134 15.3763H129.165ZM135.349 12.5597C134.342 12.5282 133.335 12.4496 132.359 12.2922C131.809 13.3779 131.415 14.385 131.164 15.3448C132.532 15.5021 133.917 15.6123 135.317 15.6437C135.317 14.6839 135.333 13.6769 135.349 12.5597ZM138.937 12.4024C137.898 12.5125 136.781 12.5754 135.648 12.5597C135.632 13.6926 135.616 14.6997 135.601 15.6595C137.111 15.691 138.622 15.6595 140.101 15.5808C139.881 14.5738 139.487 13.5195 138.937 12.4024ZM141.438 11.9775C140.778 12.1349 140.038 12.2607 139.251 12.3709C139.786 13.5038 140.18 14.558 140.4 15.5808C142.146 15.4549 143.862 15.2504 145.467 14.9514V14.9199C144.837 13.787 143.862 12.6856 142.603 11.6471C142.461 11.6943 142.32 11.7415 142.178 11.8044C141.958 11.8831 141.706 11.946 141.454 11.9933L141.438 11.9775ZM130.125 11.773C129.653 11.6156 129.197 11.4425 128.772 11.238C127.56 12.1034 126.506 13.079 125.735 14.3535C126.836 14.6367 128.017 14.8885 129.212 15.0773C129.763 15.1717 130.314 15.2504 130.865 15.3133C131.116 14.3378 131.51 13.3307 132.06 12.245C131.384 12.1191 130.739 11.9618 130.125 11.773ZM135.616 26.0917C136.214 26.1232 136.718 26.2019 137.174 26.3592C137.725 25.4466 138.213 24.5969 138.622 23.7787C137.631 23.6213 136.608 23.5427 135.601 23.5269V26.076L135.616 26.0917ZM137.457 26.4851C137.741 26.611 138.008 26.7683 138.276 26.9571L138.354 26.9099L138.496 26.8312C139.818 26.1232 140.966 25.4151 141.942 24.6756C140.998 24.2979 139.975 24.0147 138.937 23.8259C138.512 24.6598 138.024 25.5253 137.457 26.4693V26.4851ZM133.477 26.3592C133.477 26.3592 133.602 26.3277 133.665 26.312C133.13 25.4308 132.658 24.5969 132.265 23.8101C131.872 23.8731 131.478 23.9518 131.085 24.0462C130.392 24.2035 129.716 24.4081 129.071 24.6441C129.653 25.0375 130.251 25.3679 130.817 25.6983C131.431 26.0602 132.013 26.3907 132.517 26.7526L132.485 26.784C132.674 26.6739 132.879 26.5795 133.099 26.4851C133.225 26.4379 133.351 26.3907 133.492 26.3435L133.477 26.3592ZM135.286 26.0917H135.317V23.5427C134.389 23.5427 133.477 23.6213 132.58 23.7629C132.973 24.534 133.445 25.3522 133.98 26.2333C134.389 26.1389 134.83 26.0917 135.286 26.0917ZM133.807 9.25539C133.728 9.22392 133.65 9.19245 133.571 9.17671C133.288 9.06657 133.036 8.94069 132.816 8.78334C132.469 8.98789 132.123 9.19245 131.793 9.38126C130.849 9.93199 129.92 10.467 129.055 11.0492C129.417 11.2065 129.795 11.3639 130.204 11.4897C130.833 11.6943 131.51 11.8516 132.202 11.9618C132.611 11.175 133.083 10.3411 133.665 9.45994C133.665 9.45994 133.728 9.36553 133.791 9.30259L133.823 9.25539H133.807ZM135.396 9.57008C134.94 9.53861 134.499 9.47567 134.106 9.36553C134.074 9.397 134.043 9.4442 134.012 9.49141C134.012 9.49141 133.933 9.60155 133.901 9.63302C133.366 10.4827 132.894 11.2694 132.501 12.0247C133.429 12.1663 134.389 12.245 135.333 12.2765C135.333 11.4583 135.365 10.5614 135.38 9.57008H135.396ZM137.221 9.41273C136.749 9.52288 136.262 9.58582 135.742 9.58582H135.711C135.695 10.5771 135.679 11.4583 135.664 12.2922C136.749 12.2922 137.804 12.245 138.795 12.1349C138.37 11.2852 137.835 10.3883 137.221 9.42847V9.41273ZM138.402 8.98789C138.134 9.11377 137.851 9.22392 137.536 9.31833C138.15 10.2939 138.685 11.2065 139.11 12.0719C139.928 11.9775 140.699 11.8359 141.375 11.6786C141.611 11.6156 141.847 11.5527 142.068 11.4897C142.146 11.4583 142.225 11.4425 142.304 11.4111C141.281 10.6086 140.069 9.85331 138.685 9.12951L138.464 9.01936L138.386 8.98789H138.402ZM138.858 8.3585C138.858 8.3585 138.921 8.31129 138.952 8.27982C137.725 7.96512 135.679 7.90219 134.027 8.01233C133.681 8.02807 133.351 8.05953 133.052 8.091C132.863 8.12247 132.674 8.13821 132.517 8.16968C132.784 8.43717 133.178 8.68893 133.665 8.87775C133.791 8.92495 133.901 8.97216 134.027 9.00363C134.547 9.16098 135.144 9.25539 135.758 9.25539C136.828 9.25539 137.819 8.98789 138.512 8.59452C138.638 8.51585 138.763 8.43717 138.874 8.3585H138.858ZM132.139 8.18541C130.267 8.46864 128.52 8.97216 126.978 9.66449C127.356 10.0421 127.812 10.3883 128.315 10.6873C128.457 10.7659 128.599 10.8446 128.74 10.9075C129.653 10.2782 130.628 9.69596 131.636 9.11377C131.934 8.94069 132.233 8.7676 132.532 8.57879C132.375 8.45291 132.249 8.32703 132.139 8.18541ZM121.88 13.3779C120.904 14.621 120.306 16.0056 120.181 17.4847L124.46 17.5162C124.46 17.2802 124.46 17.0441 124.508 16.8239C124.602 16.0686 124.854 15.329 125.294 14.5423C124.083 14.2119 122.934 13.8185 121.896 13.3779H121.88ZM124.681 10.8918C123.658 11.5684 122.777 12.3237 122.069 13.1576C123.076 13.5825 124.177 13.9444 125.342 14.2591L125.436 14.2905L125.483 14.2119C126.254 12.9373 127.293 11.9618 128.473 11.0964C128.378 11.0492 128.284 10.9862 128.19 10.939C127.623 10.6086 127.12 10.2309 126.695 9.79037C125.971 10.1208 125.31 10.4984 124.681 10.9075V10.8918ZM120.165 17.941C120.165 19.1684 120.495 20.3485 121.125 21.4342C122.226 21.0408 123.422 20.6946 124.681 20.4271L125.011 20.3642C124.917 20.1125 124.838 19.8607 124.775 19.5932C124.602 18.9481 124.508 18.3659 124.476 17.8152L120.181 17.7837C120.181 17.7837 120.181 17.9096 120.181 17.9568L120.165 17.941ZM126.333 25.9816C127.875 26.7368 129.637 27.3033 131.541 27.6495L131.636 27.5236C131.777 27.319 131.982 27.1302 132.233 26.9571C131.761 26.6267 131.211 26.312 130.644 25.9816C130.015 25.6197 129.354 25.2263 128.693 24.7857C128.614 24.8172 128.552 24.8487 128.473 24.8801C127.702 25.1948 126.994 25.5567 126.333 25.9816ZM124.681 25.0217C125.106 25.305 125.562 25.5567 126.034 25.8085C126.742 25.3364 127.529 24.9273 128.363 24.5812H128.394C127.072 23.6213 125.829 22.4255 125.106 20.6474C124.98 20.6789 124.854 20.6946 124.744 20.7261C123.532 20.9936 122.383 21.324 121.313 21.7017C122.1 22.9447 123.249 24.0776 124.696 25.0217H124.681ZM139.141 27.7281C141.124 27.4134 142.965 26.8627 144.57 26.1074C143.877 25.6197 143.106 25.1948 142.288 24.8486C141.265 25.6354 140.054 26.3907 138.653 27.1302L138.543 27.1931C138.701 27.319 138.874 27.4764 139.031 27.6337C139.062 27.6652 139.094 27.7124 139.125 27.7281H139.141ZM136.561 27.9799C137.332 27.9484 138.071 27.8855 138.795 27.7753C138.291 27.3033 137.819 26.9571 137.284 26.7368C136.734 26.5008 136.104 26.3907 135.27 26.3907C134.657 26.3907 134.059 26.4851 133.539 26.6424C133.414 26.6739 133.288 26.7211 133.178 26.7683C132.627 26.9886 132.186 27.2718 131.919 27.5865C131.919 27.5865 131.919 27.618 131.919 27.6495V27.6809C132.123 27.7124 132.344 27.7439 132.595 27.7753C132.91 27.8068 133.256 27.8383 133.634 27.8697C134.562 27.9327 135.601 27.9799 136.561 27.9642V27.9799ZM149.463 22.2839C150.392 21.0251 150.927 19.6247 150.974 18.1613L146.568 18.0827C146.552 19.0425 146.285 20.0023 145.781 20.9621C147.087 21.324 148.33 21.7803 149.463 22.2839ZM146.474 25.0375C147.591 24.2979 148.551 23.464 149.29 22.5356C148.157 22.0321 146.93 21.5915 145.608 21.2296C144.947 22.3783 143.924 23.5269 142.524 24.6441C143.342 25.006 144.113 25.4308 144.821 25.9501L144.758 26.0288C145.372 25.7298 145.939 25.4151 146.474 25.0532V25.0375ZM150.989 17.8466C150.958 16.5249 150.533 15.2504 149.794 14.1017C148.598 14.5266 147.276 14.8727 145.891 15.156C146.3 16.0214 146.521 16.9025 146.552 17.7837L151.005 17.8466H150.989ZM144.68 9.88478C143.106 9.12951 141.313 8.56305 139.377 8.24835L139.33 8.31129C139.236 8.42144 139.141 8.51585 139.015 8.61026C138.937 8.67319 138.842 8.75187 138.732 8.81481L138.842 8.86201C140.305 9.61729 141.58 10.4355 142.666 11.3009H142.697C143.626 10.9075 144.334 10.404 144.68 9.88478ZM146.474 10.8918C145.986 10.5771 145.467 10.2782 144.932 10.0107C144.554 10.5614 143.83 11.0964 142.886 11.5055C144.129 12.544 145.073 13.6454 145.687 14.7626L145.75 14.8727C147.119 14.6052 148.425 14.2591 149.62 13.85C148.849 12.7485 147.78 11.7415 146.474 10.8918ZM135.585 7.32C140.038 7.32 144.066 8.50011 146.993 10.4198C149.935 12.3394 151.776 15.0144 151.776 17.9568C151.776 20.9149 149.951 23.5741 146.993 25.5095C144.9 26.8784 142.257 27.8697 139.283 28.3418C139.251 28.3418 139.22 28.3733 139.188 28.3733C138.559 28.5149 137.615 28.5778 136.592 28.5936C136.262 28.5936 135.931 28.6093 135.585 28.6093C131.132 28.6093 127.104 27.4134 124.177 25.4938C121.235 23.5584 119.41 20.8992 119.394 17.9568C119.394 14.9986 121.219 12.3394 124.177 10.404C127.104 8.48438 131.148 7.30426 135.585 7.30426V7.32Z" fill="white"/>
<path fill-rule="evenodd" clip-rule="evenodd" d="M132.296 23.4325C130.566 23.4325 130.833 23.4325 129.102 23.4325C129.559 19.7977 129.511 16.0371 129.087 12.3394H132.296C132.108 13.2363 132.013 14.9671 132.186 16.0056C132.454 17.5634 134.263 17.5634 134.531 16.0056C134.704 14.9671 134.625 13.2363 134.421 12.3394H137.631C137.473 13.7398 137.363 15.1402 137.316 16.5406C139.361 14.5895 142.021 15.8011 142.115 18.2872C142.178 19.9551 141.989 22.2524 142.603 23.4325H139.283C139.535 22.158 139.723 21.2296 139.692 19.9236C139.629 17.8309 137.237 18.2243 137.332 20.1911C137.379 21.2768 137.473 22.3625 137.599 23.4325C135.868 23.4325 136.136 23.4325 134.405 23.4325C134.798 22.4255 134.987 20.7261 134.405 19.7033C133.854 18.7435 132.69 18.775 132.202 19.8292C131.714 20.8677 131.966 22.3783 132.281 23.4168" fill="white"/>
</g>
<defs>
<clipPath id="clip0_102_2842">
<rect width="390" height="36" fill="white"/>
</clipPath>
</defs>
</svg>
