<svg width="390" height="42" viewBox="0 0 390 42" fill="none" xmlns="http://www.w3.org/2000/svg">
<rect width="390" height="42" fill="#B3D7C8"/>
<rect width="390" height="42" fill="white" fill-opacity="0.2"/>
<mask id="mask0_58169_38285" style="mask-type:alpha" maskUnits="userSpaceOnUse" x="108" y="9" width="24" height="24">
<rect x="108" y="9" width="24" height="24" fill="#D9D9D9"/>
</mask>
<g mask="url(#mask0_58169_38285)">
<path d="M109.75 22.05C109.55 21.85 109.454 21.6166 109.462 21.35C109.471 21.0833 109.575 20.85 109.775 20.65C109.975 20.4666 110.208 20.3708 110.475 20.3625C110.742 20.3541 110.975 20.45 111.175 20.65L115.425 24.9C115.625 25.1 115.721 25.3333 115.712 25.6C115.704 25.8666 115.6 26.1 115.4 26.3C115.2 26.4833 114.967 26.5791 114.7 26.5875C114.433 26.5958 114.2 26.5 114 26.3L109.75 22.05ZM120.35 24.175L128.85 15.675C129.05 15.475 129.283 15.3791 129.55 15.3875C129.817 15.3958 130.05 15.5 130.25 15.7C130.433 15.9 130.529 16.1333 130.537 16.4C130.546 16.6666 130.45 16.9 130.25 17.1L121.05 26.3C120.85 26.5 120.617 26.6 120.35 26.6C120.083 26.6 119.85 26.5 119.65 26.3L115.4 22.05C115.217 21.8666 115.125 21.6375 115.125 21.3625C115.125 21.0875 115.217 20.85 115.4 20.65C115.6 20.45 115.837 20.35 116.112 20.35C116.387 20.35 116.625 20.45 116.825 20.65L120.35 24.175ZM124.575 17.125L121.05 20.65C120.867 20.8333 120.637 20.925 120.362 20.925C120.087 20.925 119.85 20.8333 119.65 20.65C119.45 20.45 119.35 20.2125 119.35 19.9375C119.35 19.6625 119.45 19.425 119.65 19.225L123.175 15.7C123.358 15.5166 123.587 15.425 123.862 15.425C124.137 15.425 124.375 15.5166 124.575 15.7C124.775 15.9 124.875 16.1375 124.875 16.4125C124.875 16.6875 124.775 16.925 124.575 17.125Z" fill="#027A48"/>
</g>
<path d="M156.424 20.596C156.844 19.896 157.255 19.1867 157.656 18.468C158.057 17.7493 158.421 17.026 158.748 16.298H160.708C160.185 17.2873 159.639 18.272 159.07 19.252C158.51 20.2227 157.908 21.2027 157.264 22.192V26H155.5V22.22C154.856 21.2213 154.249 20.232 153.68 19.252C153.111 18.272 152.565 17.2873 152.042 16.298H154.114C154.441 17.026 154.8 17.7493 155.192 18.468C155.584 19.1867 155.995 19.896 156.424 20.596ZM167.739 22.332C167.739 22.9107 167.655 23.438 167.487 23.914C167.319 24.39 167.081 24.796 166.773 25.132C166.465 25.468 166.092 25.7293 165.653 25.916C165.224 26.1027 164.748 26.196 164.225 26.196C163.702 26.196 163.226 26.1027 162.797 25.916C162.368 25.7293 161.999 25.468 161.691 25.132C161.383 24.796 161.14 24.39 160.963 23.914C160.795 23.438 160.711 22.9107 160.711 22.332C160.711 21.7533 160.795 21.2307 160.963 20.764C161.14 20.288 161.383 19.882 161.691 19.546C162.008 19.21 162.382 18.9533 162.811 18.776C163.24 18.5893 163.712 18.496 164.225 18.496C164.738 18.496 165.21 18.5893 165.639 18.776C166.078 18.9533 166.451 19.21 166.759 19.546C167.067 19.882 167.305 20.288 167.473 20.764C167.65 21.2307 167.739 21.7533 167.739 22.332ZM166.003 22.332C166.003 21.604 165.844 21.03 165.527 20.61C165.219 20.1807 164.785 19.966 164.225 19.966C163.665 19.966 163.226 20.1807 162.909 20.61C162.601 21.03 162.447 21.604 162.447 22.332C162.447 23.0693 162.601 23.6527 162.909 24.082C163.226 24.5113 163.665 24.726 164.225 24.726C164.785 24.726 165.219 24.5113 165.527 24.082C165.844 23.6527 166.003 23.0693 166.003 22.332ZM175.49 25.776C175.164 25.86 174.739 25.944 174.216 26.028C173.694 26.1213 173.12 26.168 172.494 26.168C171.906 26.168 171.412 26.084 171.01 25.916C170.618 25.748 170.301 25.5147 170.058 25.216C169.825 24.9173 169.657 24.5627 169.554 24.152C169.452 23.732 169.4 23.2747 169.4 22.78V18.678H171.094V22.514C171.094 23.298 171.206 23.858 171.43 24.194C171.664 24.53 172.065 24.698 172.634 24.698C172.84 24.698 173.054 24.6887 173.278 24.67C173.512 24.6513 173.684 24.628 173.796 24.6V18.678H175.49V25.776ZM181.818 20.204C181.678 20.1573 181.482 20.1107 181.23 20.064C180.988 20.008 180.703 19.98 180.376 19.98C180.19 19.98 179.989 19.9987 179.774 20.036C179.569 20.0733 179.424 20.106 179.34 20.134V26H177.646V19.028C177.973 18.9067 178.379 18.7947 178.864 18.692C179.359 18.58 179.905 18.524 180.502 18.524C180.614 18.524 180.745 18.5333 180.894 18.552C181.044 18.5613 181.193 18.58 181.342 18.608C181.492 18.6267 181.636 18.6547 181.776 18.692C181.916 18.72 182.028 18.748 182.112 18.776L181.818 20.204ZM192.44 26C192.198 25.6267 191.918 25.2347 191.6 24.824C191.283 24.4133 190.947 24.0167 190.592 23.634C190.247 23.2513 189.888 22.8873 189.514 22.542C189.141 22.1967 188.772 21.898 188.408 21.646V26H186.644V16.298H188.408V20.302C188.716 19.994 189.038 19.6673 189.374 19.322C189.71 18.9673 190.042 18.6127 190.368 18.258C190.704 17.894 191.022 17.544 191.32 17.208C191.619 16.872 191.89 16.5687 192.132 16.298H194.246C193.938 16.6527 193.612 17.0213 193.266 17.404C192.921 17.7867 192.566 18.174 192.202 18.566C191.838 18.9487 191.47 19.3313 191.096 19.714C190.732 20.0967 190.373 20.4607 190.018 20.806C190.41 21.1047 190.807 21.4547 191.208 21.856C191.619 22.248 192.02 22.6727 192.412 23.13C192.804 23.578 193.178 24.0493 193.532 24.544C193.896 25.0293 194.228 25.5147 194.526 26H192.44ZM199.285 20.596C199.705 19.896 200.116 19.1867 200.517 18.468C200.919 17.7493 201.283 17.026 201.609 16.298H203.569C203.047 17.2873 202.501 18.272 201.931 19.252C201.371 20.2227 200.769 21.2027 200.125 22.192V26H198.361V22.22C197.717 21.2213 197.111 20.232 196.541 19.252C195.972 18.272 195.426 17.2873 194.903 16.298H196.975C197.302 17.026 197.661 17.7493 198.053 18.468C198.445 19.1867 198.856 19.896 199.285 20.596ZM208.579 26.21C207.851 26.21 207.198 26.098 206.619 25.874C206.041 25.65 205.551 25.3233 205.149 24.894C204.748 24.4553 204.44 23.9233 204.225 23.298C204.011 22.6727 203.903 21.954 203.903 21.142C203.903 20.33 204.025 19.6113 204.267 18.986C204.519 18.3607 204.86 17.8333 205.289 17.404C205.719 16.9653 206.223 16.634 206.801 16.41C207.38 16.186 208.001 16.074 208.663 16.074C209.065 16.074 209.429 16.1067 209.755 16.172C210.082 16.228 210.367 16.2933 210.609 16.368C210.852 16.4427 211.053 16.522 211.211 16.606C211.37 16.69 211.482 16.7507 211.547 16.788L211.029 18.23C210.805 18.09 210.483 17.9593 210.063 17.838C209.653 17.7073 209.205 17.642 208.719 17.642C208.299 17.642 207.907 17.7167 207.543 17.866C207.179 18.006 206.862 18.2207 206.591 18.51C206.33 18.7993 206.125 19.1633 205.975 19.602C205.826 20.0407 205.751 20.5493 205.751 21.128C205.751 21.6413 205.807 22.1127 205.919 22.542C206.041 22.9713 206.223 23.3447 206.465 23.662C206.708 23.97 207.016 24.2127 207.389 24.39C207.763 24.558 208.211 24.642 208.733 24.642C209.359 24.642 209.867 24.5813 210.259 24.46C210.651 24.3293 210.955 24.208 211.169 24.096L211.645 25.538C211.533 25.6127 211.379 25.6873 211.183 25.762C210.997 25.8367 210.773 25.9113 210.511 25.986C210.25 26.0513 209.956 26.1027 209.629 26.14C209.303 26.1867 208.953 26.21 208.579 26.21ZM218.087 26H216.393V18.678H218.087V26ZM218.269 16.536C218.269 16.8533 218.166 17.1053 217.961 17.292C217.755 17.4787 217.513 17.572 217.233 17.572C216.943 17.572 216.696 17.4787 216.491 17.292C216.285 17.1053 216.183 16.8533 216.183 16.536C216.183 16.2093 216.285 15.9527 216.491 15.766C216.696 15.5793 216.943 15.486 217.233 15.486C217.513 15.486 217.755 15.5793 217.961 15.766C218.166 15.9527 218.269 16.2093 218.269 16.536ZM222.082 24.782C222.53 24.782 222.857 24.7307 223.062 24.628C223.267 24.516 223.37 24.3293 223.37 24.068C223.37 23.8253 223.258 23.6247 223.034 23.466C222.819 23.3073 222.46 23.1347 221.956 22.948C221.648 22.836 221.363 22.7193 221.102 22.598C220.85 22.4673 220.631 22.318 220.444 22.15C220.257 21.982 220.108 21.7813 219.996 21.548C219.893 21.3053 219.842 21.0113 219.842 20.666C219.842 19.994 220.089 19.4667 220.584 19.084C221.079 18.692 221.751 18.496 222.6 18.496C223.029 18.496 223.44 18.538 223.832 18.622C224.224 18.6967 224.518 18.7713 224.714 18.846L224.406 20.218C224.219 20.134 223.981 20.0593 223.692 19.994C223.403 19.9193 223.067 19.882 222.684 19.882C222.339 19.882 222.059 19.9427 221.844 20.064C221.629 20.176 221.522 20.3533 221.522 20.596C221.522 20.7173 221.541 20.8247 221.578 20.918C221.625 21.0113 221.699 21.1 221.802 21.184C221.905 21.2587 222.04 21.338 222.208 21.422C222.376 21.4967 222.581 21.576 222.824 21.66C223.225 21.8093 223.566 21.9587 223.846 22.108C224.126 22.248 224.355 22.4113 224.532 22.598C224.719 22.7753 224.854 22.9807 224.938 23.214C225.022 23.4473 225.064 23.7273 225.064 24.054C225.064 24.754 224.803 25.286 224.28 25.65C223.767 26.0047 223.029 26.182 222.068 26.182C221.424 26.182 220.906 26.126 220.514 26.014C220.122 25.9113 219.847 25.8273 219.688 25.762L219.982 24.348C220.234 24.4507 220.533 24.5487 220.878 24.642C221.233 24.7353 221.634 24.782 222.082 24.782ZM232.77 26C232.07 24.488 231.393 22.906 230.74 21.254C230.096 19.602 229.494 17.95 228.934 16.298H230.88C231.104 16.9513 231.333 17.6187 231.566 18.3C231.799 18.9813 232.033 19.6533 232.266 20.316C232.499 20.9693 232.733 21.604 232.966 22.22C233.199 22.836 233.428 23.4007 233.652 23.914C233.867 23.4007 234.091 22.8407 234.324 22.234C234.557 21.618 234.791 20.9787 235.024 20.316C235.267 19.6533 235.505 18.9813 235.738 18.3C235.971 17.6187 236.195 16.9513 236.41 16.298H238.3C237.731 17.95 237.124 19.602 236.48 21.254C235.836 22.906 235.164 24.488 234.464 26H232.77ZM238.504 22.374C238.504 21.73 238.597 21.1653 238.784 20.68C238.98 20.1947 239.237 19.7933 239.554 19.476C239.871 19.1493 240.235 18.9067 240.646 18.748C241.057 18.58 241.477 18.496 241.906 18.496C242.914 18.496 243.698 18.8087 244.258 19.434C244.827 20.0593 245.112 20.9927 245.112 22.234C245.112 22.3273 245.107 22.4347 245.098 22.556C245.098 22.668 245.093 22.7707 245.084 22.864H240.254C240.301 23.452 240.506 23.9093 240.87 24.236C241.243 24.5533 241.78 24.712 242.48 24.712C242.891 24.712 243.264 24.6747 243.6 24.6C243.945 24.5253 244.216 24.446 244.412 24.362L244.636 25.748C244.543 25.7947 244.412 25.846 244.244 25.902C244.085 25.9487 243.899 25.9907 243.684 26.028C243.479 26.0747 243.255 26.112 243.012 26.14C242.769 26.168 242.522 26.182 242.27 26.182C241.626 26.182 241.066 26.0887 240.59 25.902C240.114 25.706 239.722 25.44 239.414 25.104C239.106 24.7587 238.877 24.3573 238.728 23.9C238.579 23.4333 238.504 22.9247 238.504 22.374ZM243.418 21.618C243.418 21.3847 243.385 21.1653 243.32 20.96C243.255 20.7453 243.157 20.5633 243.026 20.414C242.905 20.2553 242.751 20.134 242.564 20.05C242.387 19.9567 242.172 19.91 241.92 19.91C241.659 19.91 241.43 19.9613 241.234 20.064C241.038 20.1573 240.87 20.2833 240.73 20.442C240.599 20.6007 240.497 20.7827 240.422 20.988C240.347 21.1933 240.296 21.4033 240.268 21.618H243.418ZM251.08 20.204C250.94 20.1573 250.744 20.1107 250.492 20.064C250.249 20.008 249.965 19.98 249.638 19.98C249.451 19.98 249.251 19.9987 249.036 20.036C248.831 20.0733 248.686 20.106 248.602 20.134V26H246.908V19.028C247.235 18.9067 247.641 18.7947 248.126 18.692C248.621 18.58 249.167 18.524 249.764 18.524C249.876 18.524 250.007 18.5333 250.156 18.552C250.305 18.5613 250.455 18.58 250.604 18.608C250.753 18.6267 250.898 18.6547 251.038 18.692C251.178 18.72 251.29 18.748 251.374 18.776L251.08 20.204ZM254.263 26H252.569V18.678H254.263V26ZM254.445 16.536C254.445 16.8533 254.342 17.1053 254.137 17.292C253.931 17.4787 253.689 17.572 253.409 17.572C253.119 17.572 252.872 17.4787 252.667 17.292C252.461 17.1053 252.359 16.8533 252.359 16.536C252.359 16.2093 252.461 15.9527 252.667 15.766C252.872 15.5793 253.119 15.486 253.409 15.486C253.689 15.486 253.931 15.5793 254.137 15.766C254.342 15.9527 254.445 16.2093 254.445 16.536ZM263.774 26H262.08V18.678H263.774V26ZM263.97 16.536C263.97 16.8533 263.867 17.1053 263.662 17.292C263.456 17.4787 263.214 17.572 262.934 17.572C262.644 17.572 262.397 17.4787 262.192 17.292C261.986 17.1053 261.884 16.8533 261.884 16.536C261.884 16.2093 261.986 15.9527 262.192 15.766C262.397 15.5793 262.644 15.486 262.934 15.486C263.214 15.486 263.456 15.5793 263.662 15.766C263.867 15.9527 263.97 16.2093 263.97 16.536ZM259.434 15.136C259.788 15.136 260.087 15.164 260.33 15.22C260.582 15.276 260.778 15.332 260.918 15.388L260.652 16.76C260.521 16.7133 260.362 16.6713 260.176 16.634C259.998 16.5967 259.802 16.578 259.588 16.578C259.028 16.578 258.64 16.7273 258.426 17.026C258.22 17.3247 258.118 17.712 258.118 18.188V18.678H260.806V20.092H258.118V26H256.424V18.16C256.424 17.208 256.671 16.466 257.166 15.934C257.66 15.402 258.416 15.136 259.434 15.136ZM265.533 22.374C265.533 21.73 265.627 21.1653 265.813 20.68C266.009 20.1947 266.266 19.7933 266.583 19.476C266.901 19.1493 267.265 18.9067 267.675 18.748C268.086 18.58 268.506 18.496 268.935 18.496C269.943 18.496 270.727 18.8087 271.287 19.434C271.857 20.0593 272.141 20.9927 272.141 22.234C272.141 22.3273 272.137 22.4347 272.127 22.556C272.127 22.668 272.123 22.7707 272.113 22.864H267.283C267.33 23.452 267.535 23.9093 267.899 24.236C268.273 24.5533 268.809 24.712 269.509 24.712C269.92 24.712 270.293 24.6747 270.629 24.6C270.975 24.5253 271.245 24.446 271.441 24.362L271.665 25.748C271.572 25.7947 271.441 25.846 271.273 25.902C271.115 25.9487 270.928 25.9907 270.713 26.028C270.508 26.0747 270.284 26.112 270.041 26.14C269.799 26.168 269.551 26.182 269.299 26.182C268.655 26.182 268.095 26.0887 267.619 25.902C267.143 25.706 266.751 25.44 266.443 25.104C266.135 24.7587 265.907 24.3573 265.757 23.9C265.608 23.4333 265.533 22.9247 265.533 22.374ZM270.447 21.618C270.447 21.3847 270.415 21.1653 270.349 20.96C270.284 20.7453 270.186 20.5633 270.055 20.414C269.934 20.2553 269.78 20.134 269.593 20.05C269.416 19.9567 269.201 19.91 268.949 19.91C268.688 19.91 268.459 19.9613 268.263 20.064C268.067 20.1573 267.899 20.2833 267.759 20.442C267.629 20.6007 267.526 20.7827 267.451 20.988C267.377 21.1933 267.325 21.4033 267.297 21.618H270.447ZM275.267 22.318C275.267 23.0647 275.445 23.6527 275.799 24.082C276.154 24.502 276.644 24.712 277.269 24.712C277.54 24.712 277.769 24.7027 277.955 24.684C278.151 24.656 278.31 24.628 278.431 24.6V20.4C278.282 20.2973 278.081 20.204 277.829 20.12C277.587 20.0267 277.325 19.98 277.045 19.98C276.429 19.98 275.977 20.19 275.687 20.61C275.407 21.03 275.267 21.5993 275.267 22.318ZM280.125 25.776C279.789 25.8787 279.365 25.972 278.851 26.056C278.347 26.14 277.815 26.182 277.255 26.182C276.677 26.182 276.159 26.0933 275.701 25.916C275.244 25.7387 274.852 25.4867 274.525 25.16C274.208 24.824 273.961 24.4227 273.783 23.956C273.615 23.48 273.531 22.948 273.531 22.36C273.531 21.7813 273.601 21.2587 273.741 20.792C273.891 20.316 274.105 19.91 274.385 19.574C274.665 19.238 275.006 18.9813 275.407 18.804C275.809 18.6173 276.271 18.524 276.793 18.524C277.148 18.524 277.461 18.566 277.731 18.65C278.002 18.734 278.235 18.8273 278.431 18.93V15.416L280.125 15.136V25.776Z" fill="#027A48"/>
</svg>
