<svg width="390" height="42" viewBox="0 0 390 42" fill="none" xmlns="http://www.w3.org/2000/svg">
<rect width="390" height="42" fill="#003CFF"/>
<rect width="390" height="42" fill="white" fill-opacity="0.8"/>
<path d="M86.6004 28.5798C86.2942 28.5796 85.9935 28.4989 85.7284 28.3458L80.5284 25.3458C80.1268 25.1133 79.8339 24.7309 79.7139 24.2827C79.5939 23.8344 79.6566 23.3569 79.8884 22.9548L80.6384 21.6548C81.0349 21.103 81.5538 20.6506 82.1544 20.3329C82.7551 20.0152 83.4211 19.841 84.1004 19.8238C84.1343 19.8179 84.1665 19.8046 84.1947 19.7848C84.223 19.7651 84.2465 19.7393 84.2637 19.7095C84.2808 19.6796 84.2912 19.6463 84.2941 19.612C84.297 19.5777 84.2923 19.5431 84.2804 19.5108C83.955 18.9136 83.7724 18.2491 83.7471 17.5695C83.7218 16.8898 83.8543 16.2136 84.1344 15.5938L84.8844 14.2938C85.1171 13.8928 85.4992 13.6002 85.9471 13.48C86.3949 13.3599 86.8722 13.422 87.2744 13.6528L92.4744 16.6528C92.8759 16.8854 93.1689 17.2677 93.2888 17.716C93.4088 18.1642 93.3461 18.6418 93.1144 19.0438L92.3644 20.3438C91.9678 20.8961 91.4486 21.3489 90.8476 21.6667C90.2465 21.9846 89.58 22.1588 88.9004 22.1758C88.8664 22.1814 88.8341 22.1945 88.8057 22.2142C88.7774 22.2338 88.7538 22.2594 88.7366 22.2893C88.7194 22.3191 88.709 22.3524 88.7062 22.3867C88.7034 22.4211 88.7082 22.4556 88.7204 22.4878C89.0459 23.0852 89.2285 23.7498 89.2539 24.4297C89.2792 25.1095 89.1466 25.7859 88.8664 26.4058L88.1164 27.7058C87.9626 27.9717 87.7416 28.1925 87.4754 28.3459C87.2093 28.4993 86.9075 28.58 86.6004 28.5798ZM86.4004 14.9198C86.3564 14.9197 86.3132 14.9312 86.2751 14.9532C86.237 14.9751 86.2053 15.0067 86.1834 15.0448L85.4334 16.3448C85.2821 16.7666 85.2243 17.2163 85.264 17.6626C85.3037 18.109 85.44 18.5413 85.6634 18.9298C85.7648 19.1758 85.8083 19.4417 85.7907 19.7071C85.7731 19.9726 85.6947 20.2304 85.5616 20.4607C85.4286 20.6911 85.2444 20.8878 85.0233 21.0357C84.8022 21.1836 84.5501 21.2788 84.2864 21.3138C83.8384 21.3147 83.396 21.413 82.9897 21.6017C82.5834 21.7904 82.223 22.0651 81.9334 22.4068L81.1834 23.7068C81.1668 23.7352 81.1561 23.7666 81.1517 23.7992C81.1474 23.8318 81.1495 23.8649 81.1579 23.8967C81.1664 23.9285 81.181 23.9582 81.201 23.9844C81.221 24.0105 81.2459 24.0324 81.2744 24.0488L86.4744 27.0488C86.5319 27.0812 86.5999 27.0898 86.6637 27.0726C86.7274 27.0553 86.7819 27.0138 86.8154 26.9568L87.5654 25.6568C87.7166 25.235 87.7744 24.7854 87.7347 24.339C87.695 23.8927 87.5587 23.4603 87.3354 23.0718C87.2337 22.826 87.19 22.56 87.2075 22.2946C87.2251 22.0291 87.3034 21.7713 87.4365 21.5409C87.5696 21.3106 87.7539 21.1139 87.9751 20.9662C88.1964 20.8184 88.4486 20.7235 88.7124 20.6888C89.1603 20.6873 89.6026 20.5887 90.0088 20.3999C90.415 20.211 90.7755 19.9364 91.0654 19.5948L91.8154 18.2948C91.8319 18.2664 91.8426 18.235 91.847 18.2024C91.8513 18.1698 91.8492 18.1367 91.8408 18.1049C91.8323 18.0732 91.8177 18.0434 91.7977 18.0173C91.7777 17.9912 91.7528 17.9693 91.7244 17.9528L86.5244 14.9528C86.4865 14.9313 86.4438 14.92 86.4004 14.9198Z" fill="#003CFF"/>
<path d="M96.5 21.7499C96.3011 21.7499 96.1103 21.6709 95.9697 21.5302C95.829 21.3896 95.75 21.1988 95.75 20.9999C95.7501 19.1704 95.2077 17.3819 94.1913 15.8606C93.1749 14.3394 91.7302 13.1537 90.0399 12.4535C88.3496 11.7534 86.4897 11.5702 84.6953 11.9272C82.9009 12.2841 81.2526 13.1652 79.959 14.4589C79.6489 14.7695 79.3609 15.1013 79.097 15.4519C78.9777 15.611 78.8 15.7163 78.6031 15.7444C78.4062 15.7725 78.2061 15.7213 78.047 15.6019C77.8879 15.4826 77.7827 15.3049 77.7545 15.108C77.7264 14.9111 77.7777 14.711 77.897 14.5519C78.2039 14.1464 78.538 13.7622 78.897 13.4019C80.4001 11.8982 82.3154 10.8739 84.4007 10.4587C86.4859 10.0435 88.6475 10.2559 90.612 11.0692C92.5765 11.8825 94.2557 13.2601 95.4372 15.0277C96.6188 16.7954 97.2496 18.8737 97.25 20.9999C97.25 21.1988 97.171 21.3896 97.0303 21.5302C96.8897 21.6709 96.6989 21.7499 96.5 21.7499ZM86.5 31.7499C85.0882 31.7502 83.6902 31.4723 82.3858 30.9322C81.0815 30.392 79.8963 29.6002 78.898 28.6019C77.8997 27.6036 77.1079 26.4184 76.5678 25.1141C76.0276 23.8097 75.7497 22.4117 75.75 20.9999C75.75 20.801 75.829 20.6102 75.9697 20.4696C76.1103 20.3289 76.3011 20.2499 76.5 20.2499C76.6989 20.2499 76.8897 20.3289 77.0303 20.4696C77.171 20.6102 77.25 20.801 77.25 20.9999C77.2499 22.8295 77.7923 24.618 78.8087 26.1392C79.8251 27.6605 81.2698 28.8461 82.9601 29.5463C84.6504 30.2465 86.5103 30.4296 88.3047 30.0727C90.0991 29.7157 91.7474 28.8347 93.041 27.5409C93.3509 27.2309 93.6387 26.8994 93.902 26.5489C94.0253 26.4011 94.2006 26.3063 94.3918 26.284C94.5829 26.2617 94.7754 26.3136 94.9294 26.4291C95.0833 26.5446 95.1871 26.7148 95.2192 26.9046C95.2513 27.0943 95.2094 27.2892 95.102 27.4489C94.7955 27.8551 94.4614 28.2397 94.102 28.5999C93.106 29.6014 91.9213 30.3955 90.6164 30.9362C89.3116 31.4768 87.9124 31.7534 86.5 31.7499Z" fill="#003CFF"/>
<path d="M94.9846 30.2349C94.7857 30.2349 94.595 30.1559 94.4543 30.0152C94.3137 29.8746 94.2346 29.6838 94.2346 29.4849V27.4069H92.1556C91.9567 27.4069 91.766 27.3279 91.6253 27.1872C91.4847 27.0466 91.4056 26.8558 91.4056 26.6569C91.4056 26.458 91.4847 26.2672 91.6253 26.1266C91.766 25.9859 91.9567 25.9069 92.1556 25.9069H94.9846C95.1836 25.9069 95.3743 25.9859 95.515 26.1266C95.6556 26.2672 95.7346 26.458 95.7346 26.6569V29.4849C95.7346 29.6838 95.6556 29.8746 95.515 30.0152C95.3743 30.1559 95.1836 30.2349 94.9846 30.2349ZM80.8426 16.0929H78.0146C77.8157 16.0929 77.625 16.0139 77.4843 15.8732C77.3437 15.7326 77.2646 15.5418 77.2646 15.3429V12.5149C77.2646 12.316 77.3437 12.1252 77.4843 11.9846C77.625 11.8439 77.8157 11.7649 78.0146 11.7649C78.2136 11.7649 78.4043 11.8439 78.545 11.9846C78.6856 12.1252 78.7646 12.316 78.7646 12.5149V14.5929H80.8426C81.0416 14.5929 81.2323 14.6719 81.373 14.8126C81.5136 14.9532 81.5926 15.144 81.5926 15.3429C81.5926 15.5418 81.5136 15.7326 81.373 15.8732C81.2323 16.0139 81.0416 16.0929 80.8426 16.0929Z" fill="#003CFF"/>
<path d="M128.726 26C128.483 25.6267 128.203 25.2347 127.886 24.824C127.568 24.4133 127.232 24.0167 126.878 23.634C126.532 23.2513 126.173 22.8873 125.8 22.542C125.426 22.1967 125.058 21.898 124.694 21.646V26H122.93V16.298H124.694V20.302C125.002 19.994 125.324 19.6673 125.66 19.322C125.996 18.9673 126.327 18.6127 126.654 18.258C126.99 17.894 127.307 17.544 127.606 17.208C127.904 16.872 128.175 16.5687 128.418 16.298H130.532C130.224 16.6527 129.897 17.0213 129.552 17.404C129.206 17.7867 128.852 18.174 128.488 18.566C128.124 18.9487 127.755 19.3313 127.382 19.714C127.018 20.0967 126.658 20.4607 126.304 20.806C126.696 21.1047 127.092 21.4547 127.494 21.856C127.904 22.248 128.306 22.6727 128.698 23.13C129.09 23.578 129.463 24.0493 129.818 24.544C130.182 25.0293 130.513 25.5147 130.812 26H128.726ZM135.57 20.596C135.99 19.896 136.401 19.1867 136.802 18.468C137.204 17.7493 137.568 17.026 137.894 16.298H139.854C139.332 17.2873 138.786 18.272 138.216 19.252C137.656 20.2227 137.054 21.2027 136.41 22.192V26H134.646V22.22C134.002 21.2213 133.396 20.232 132.826 19.252C132.257 18.272 131.711 17.2873 131.188 16.298H133.26C133.587 17.026 133.946 17.7493 134.338 18.468C134.73 19.1867 135.141 19.896 135.57 20.596ZM144.865 26.21C144.137 26.21 143.483 26.098 142.905 25.874C142.326 25.65 141.836 25.3233 141.435 24.894C141.033 24.4553 140.725 23.9233 140.511 23.298C140.296 22.6727 140.189 21.954 140.189 21.142C140.189 20.33 140.31 19.6113 140.553 18.986C140.805 18.3607 141.145 17.8333 141.575 17.404C142.004 16.9653 142.508 16.634 143.087 16.41C143.665 16.186 144.286 16.074 144.949 16.074C145.35 16.074 145.714 16.1067 146.041 16.172C146.367 16.228 146.652 16.2933 146.895 16.368C147.137 16.4427 147.338 16.522 147.497 16.606C147.655 16.69 147.767 16.7507 147.833 16.788L147.315 18.23C147.091 18.09 146.769 17.9593 146.349 17.838C145.938 17.7073 145.49 17.642 145.005 17.642C144.585 17.642 144.193 17.7167 143.829 17.866C143.465 18.006 143.147 18.2207 142.877 18.51C142.615 18.7993 142.41 19.1633 142.261 19.602C142.111 20.0407 142.037 20.5493 142.037 21.128C142.037 21.6413 142.093 22.1127 142.205 22.542C142.326 22.9713 142.508 23.3447 142.751 23.662C142.993 23.97 143.301 24.2127 143.675 24.39C144.048 24.558 144.496 24.642 145.019 24.642C145.644 24.642 146.153 24.5813 146.545 24.46C146.937 24.3293 147.24 24.208 147.455 24.096L147.931 25.538C147.819 25.6127 147.665 25.6873 147.469 25.762C147.282 25.8367 147.058 25.9113 146.797 25.986C146.535 26.0513 146.241 26.1027 145.915 26.14C145.588 26.1867 145.238 26.21 144.865 26.21ZM154.54 26C154.073 25.0387 153.593 23.9373 153.098 22.696C152.613 21.4453 152.169 20.106 151.768 18.678H153.574C153.677 19.0887 153.793 19.532 153.924 20.008C154.064 20.4747 154.209 20.946 154.358 21.422C154.517 21.8887 154.675 22.346 154.834 22.794C155.002 23.2327 155.156 23.6293 155.296 23.984C155.436 23.6293 155.585 23.2327 155.744 22.794C155.903 22.346 156.057 21.8887 156.206 21.422C156.365 20.946 156.514 20.4747 156.654 20.008C156.794 19.532 156.915 19.0887 157.018 18.678H158.768C158.367 20.106 157.919 21.4453 157.424 22.696C156.939 23.9373 156.463 25.0387 155.996 26H154.54ZM159.463 22.374C159.463 21.73 159.556 21.1653 159.743 20.68C159.939 20.1947 160.196 19.7933 160.513 19.476C160.83 19.1493 161.194 18.9067 161.605 18.748C162.016 18.58 162.436 18.496 162.865 18.496C163.873 18.496 164.657 18.8087 165.217 19.434C165.786 20.0593 166.071 20.9927 166.071 22.234C166.071 22.3273 166.066 22.4347 166.057 22.556C166.057 22.668 166.052 22.7707 166.043 22.864H161.213C161.26 23.452 161.465 23.9093 161.829 24.236C162.202 24.5533 162.739 24.712 163.439 24.712C163.85 24.712 164.223 24.6747 164.559 24.6C164.904 24.5253 165.175 24.446 165.371 24.362L165.595 25.748C165.502 25.7947 165.371 25.846 165.203 25.902C165.044 25.9487 164.858 25.9907 164.643 26.028C164.438 26.0747 164.214 26.112 163.971 26.14C163.728 26.168 163.481 26.182 163.229 26.182C162.585 26.182 162.025 26.0887 161.549 25.902C161.073 25.706 160.681 25.44 160.373 25.104C160.065 24.7587 159.836 24.3573 159.687 23.9C159.538 23.4333 159.463 22.9247 159.463 22.374ZM164.377 21.618C164.377 21.3847 164.344 21.1653 164.279 20.96C164.214 20.7453 164.116 20.5633 163.985 20.414C163.864 20.2553 163.71 20.134 163.523 20.05C163.346 19.9567 163.131 19.91 162.879 19.91C162.618 19.91 162.389 19.9613 162.193 20.064C161.997 20.1573 161.829 20.2833 161.689 20.442C161.558 20.6007 161.456 20.7827 161.381 20.988C161.306 21.1933 161.255 21.4033 161.227 21.618H164.377ZM172.039 20.204C171.899 20.1573 171.703 20.1107 171.451 20.064C171.208 20.008 170.924 19.98 170.597 19.98C170.41 19.98 170.21 19.9987 169.995 20.036C169.79 20.0733 169.645 20.106 169.561 20.134V26H167.867V19.028C168.194 18.9067 168.6 18.7947 169.085 18.692C169.58 18.58 170.126 18.524 170.723 18.524C170.835 18.524 170.966 18.5333 171.115 18.552C171.264 18.5613 171.414 18.58 171.563 18.608C171.712 18.6267 171.857 18.6547 171.997 18.692C172.137 18.72 172.249 18.748 172.333 18.776L172.039 20.204ZM175.222 26H173.528V18.678H175.222V26ZM175.404 16.536C175.404 16.8533 175.301 17.1053 175.096 17.292C174.89 17.4787 174.648 17.572 174.368 17.572C174.078 17.572 173.831 17.4787 173.626 17.292C173.42 17.1053 173.318 16.8533 173.318 16.536C173.318 16.2093 173.42 15.9527 173.626 15.766C173.831 15.5793 174.078 15.486 174.368 15.486C174.648 15.486 174.89 15.5793 175.096 15.766C175.301 15.9527 175.404 16.2093 175.404 16.536ZM184.733 26H183.039V18.678H184.733V26ZM184.929 16.536C184.929 16.8533 184.826 17.1053 184.621 17.292C184.415 17.4787 184.173 17.572 183.893 17.572C183.603 17.572 183.356 17.4787 183.151 17.292C182.945 17.1053 182.843 16.8533 182.843 16.536C182.843 16.2093 182.945 15.9527 183.151 15.766C183.356 15.5793 183.603 15.486 183.893 15.486C184.173 15.486 184.415 15.5793 184.621 15.766C184.826 15.9527 184.929 16.2093 184.929 16.536ZM180.393 15.136C180.747 15.136 181.046 15.164 181.289 15.22C181.541 15.276 181.737 15.332 181.877 15.388L181.611 16.76C181.48 16.7133 181.321 16.6713 181.135 16.634C180.957 16.5967 180.761 16.578 180.547 16.578C179.987 16.578 179.599 16.7273 179.385 17.026C179.179 17.3247 179.077 17.712 179.077 18.188V18.678H181.765V20.092H179.077V26H177.383V18.16C177.383 17.208 177.63 16.466 178.125 15.934C178.619 15.402 179.375 15.136 180.393 15.136ZM186.492 22.346C186.492 21.8047 186.576 21.3007 186.744 20.834C186.912 20.358 187.15 19.9473 187.458 19.602C187.776 19.2567 188.158 18.986 188.606 18.79C189.054 18.594 189.558 18.496 190.118 18.496C190.809 18.496 191.462 18.622 192.078 18.874L191.714 20.26C191.518 20.176 191.294 20.106 191.042 20.05C190.8 19.994 190.538 19.966 190.258 19.966C189.596 19.966 189.092 20.176 188.746 20.596C188.401 21.0067 188.228 21.59 188.228 22.346C188.228 23.074 188.392 23.6527 188.718 24.082C189.045 24.502 189.596 24.712 190.37 24.712C190.66 24.712 190.944 24.684 191.224 24.628C191.504 24.572 191.747 24.502 191.952 24.418L192.19 25.818C192.004 25.9113 191.719 25.9953 191.336 26.07C190.963 26.1447 190.576 26.182 190.174 26.182C189.549 26.182 189.003 26.0887 188.536 25.902C188.079 25.706 187.696 25.44 187.388 25.104C187.09 24.7587 186.866 24.3527 186.716 23.886C186.567 23.41 186.492 22.8967 186.492 22.346ZM196.078 24.81C196.6 24.81 196.997 24.782 197.268 24.726V22.85C197.174 22.822 197.039 22.794 196.862 22.766C196.684 22.738 196.488 22.724 196.274 22.724C196.087 22.724 195.896 22.738 195.7 22.766C195.513 22.794 195.34 22.8453 195.182 22.92C195.032 22.9947 194.911 23.102 194.818 23.242C194.724 23.3727 194.678 23.5407 194.678 23.746C194.678 24.1473 194.804 24.4273 195.056 24.586C195.308 24.7353 195.648 24.81 196.078 24.81ZM195.938 18.496C196.498 18.496 196.969 18.566 197.352 18.706C197.734 18.846 198.038 19.042 198.262 19.294C198.495 19.546 198.658 19.854 198.752 20.218C198.854 20.5727 198.906 20.9647 198.906 21.394V25.832C198.644 25.888 198.248 25.9533 197.716 26.028C197.193 26.112 196.6 26.154 195.938 26.154C195.499 26.154 195.098 26.112 194.734 26.028C194.37 25.944 194.057 25.8087 193.796 25.622C193.544 25.4353 193.343 25.1927 193.194 24.894C193.054 24.5953 192.984 24.2267 192.984 23.788C192.984 23.368 193.063 23.0133 193.222 22.724C193.39 22.4347 193.614 22.2013 193.894 22.024C194.174 21.8373 194.496 21.7067 194.86 21.632C195.233 21.548 195.62 21.506 196.022 21.506C196.208 21.506 196.404 21.52 196.61 21.548C196.815 21.5667 197.034 21.604 197.268 21.66V21.38C197.268 21.184 197.244 20.9973 197.198 20.82C197.151 20.6427 197.067 20.4887 196.946 20.358C196.834 20.218 196.68 20.1107 196.484 20.036C196.297 19.9613 196.059 19.924 195.77 19.924C195.378 19.924 195.018 19.952 194.692 20.008C194.365 20.064 194.099 20.1293 193.894 20.204L193.684 18.832C193.898 18.7573 194.211 18.6827 194.622 18.608C195.032 18.5333 195.471 18.496 195.938 18.496ZM200.896 16.746L202.59 16.466V18.678H205.194V20.092H202.59V23.074C202.59 23.662 202.684 24.082 202.87 24.334C203.057 24.586 203.374 24.712 203.822 24.712C204.13 24.712 204.401 24.6793 204.634 24.614C204.877 24.5487 205.068 24.488 205.208 24.432L205.488 25.776C205.292 25.86 205.036 25.944 204.718 26.028C204.401 26.1213 204.028 26.168 203.598 26.168C203.076 26.168 202.637 26.098 202.282 25.958C201.937 25.818 201.662 25.6173 201.456 25.356C201.251 25.0853 201.106 24.7633 201.022 24.39C200.938 24.0073 200.896 23.5733 200.896 23.088V16.746ZM208.54 26H206.846V18.678H208.54V26ZM208.722 16.536C208.722 16.8533 208.619 17.1053 208.414 17.292C208.209 17.4787 207.966 17.572 207.686 17.572C207.397 17.572 207.149 17.4787 206.944 17.292C206.739 17.1053 206.636 16.8533 206.636 16.536C206.636 16.2093 206.739 15.9527 206.944 15.766C207.149 15.5793 207.397 15.486 207.686 15.486C207.966 15.486 208.209 15.5793 208.414 15.766C208.619 15.9527 208.722 16.2093 208.722 16.536ZM217.323 22.332C217.323 22.9107 217.239 23.438 217.071 23.914C216.903 24.39 216.665 24.796 216.357 25.132C216.049 25.468 215.676 25.7293 215.237 25.916C214.808 26.1027 214.332 26.196 213.809 26.196C213.286 26.196 212.81 26.1027 212.381 25.916C211.952 25.7293 211.583 25.468 211.275 25.132C210.967 24.796 210.724 24.39 210.547 23.914C210.379 23.438 210.295 22.9107 210.295 22.332C210.295 21.7533 210.379 21.2307 210.547 20.764C210.724 20.288 210.967 19.882 211.275 19.546C211.592 19.21 211.966 18.9533 212.395 18.776C212.824 18.5893 213.296 18.496 213.809 18.496C214.322 18.496 214.794 18.5893 215.223 18.776C215.662 18.9533 216.035 19.21 216.343 19.546C216.651 19.882 216.889 20.288 217.057 20.764C217.234 21.2307 217.323 21.7533 217.323 22.332ZM215.587 22.332C215.587 21.604 215.428 21.03 215.111 20.61C214.803 20.1807 214.369 19.966 213.809 19.966C213.249 19.966 212.81 20.1807 212.493 20.61C212.185 21.03 212.031 21.604 212.031 22.332C212.031 23.0693 212.185 23.6527 212.493 24.082C212.81 24.5113 213.249 24.726 213.809 24.726C214.369 24.726 214.803 24.5113 215.111 24.082C215.428 23.6527 215.587 23.0693 215.587 22.332ZM219.068 18.916C219.395 18.8227 219.82 18.734 220.342 18.65C220.865 18.566 221.444 18.524 222.078 18.524C222.676 18.524 223.175 18.608 223.576 18.776C223.978 18.9347 224.295 19.1633 224.528 19.462C224.771 19.7513 224.939 20.106 225.032 20.526C225.135 20.9367 225.186 21.3893 225.186 21.884V26H223.492V22.15C223.492 21.758 223.464 21.4267 223.408 21.156C223.362 20.876 223.278 20.652 223.156 20.484C223.044 20.3067 222.886 20.1807 222.68 20.106C222.484 20.022 222.242 19.98 221.952 19.98C221.738 19.98 221.514 19.994 221.28 20.022C221.047 20.05 220.874 20.0733 220.762 20.092V26H219.068V18.916ZM232.233 26H230.539V18.678H232.233V26ZM232.415 16.536C232.415 16.8533 232.313 17.1053 232.107 17.292C231.902 17.4787 231.659 17.572 231.379 17.572C231.09 17.572 230.843 17.4787 230.637 17.292C230.432 17.1053 230.329 16.8533 230.329 16.536C230.329 16.2093 230.432 15.9527 230.637 15.766C230.843 15.5793 231.09 15.486 231.379 15.486C231.659 15.486 231.902 15.5793 232.107 15.766C232.313 15.9527 232.415 16.2093 232.415 16.536ZM236.228 24.782C236.676 24.782 237.003 24.7307 237.208 24.628C237.414 24.516 237.516 24.3293 237.516 24.068C237.516 23.8253 237.404 23.6247 237.18 23.466C236.966 23.3073 236.606 23.1347 236.102 22.948C235.794 22.836 235.51 22.7193 235.248 22.598C234.996 22.4673 234.777 22.318 234.59 22.15C234.404 21.982 234.254 21.7813 234.142 21.548C234.04 21.3053 233.988 21.0113 233.988 20.666C233.988 19.994 234.236 19.4667 234.73 19.084C235.225 18.692 235.897 18.496 236.746 18.496C237.176 18.496 237.586 18.538 237.978 18.622C238.37 18.6967 238.664 18.7713 238.86 18.846L238.552 20.218C238.366 20.134 238.128 20.0593 237.838 19.994C237.549 19.9193 237.213 19.882 236.83 19.882C236.485 19.882 236.205 19.9427 235.99 20.064C235.776 20.176 235.668 20.3533 235.668 20.596C235.668 20.7173 235.687 20.8247 235.724 20.918C235.771 21.0113 235.846 21.1 235.948 21.184C236.051 21.2587 236.186 21.338 236.354 21.422C236.522 21.4967 236.728 21.576 236.97 21.66C237.372 21.8093 237.712 21.9587 237.992 22.108C238.272 22.248 238.501 22.4113 238.678 22.598C238.865 22.7753 239 22.9807 239.084 23.214C239.168 23.4473 239.21 23.7273 239.21 24.054C239.21 24.754 238.949 25.286 238.426 25.65C237.913 26.0047 237.176 26.182 236.214 26.182C235.57 26.182 235.052 26.126 234.66 26.014C234.268 25.9113 233.993 25.8273 233.834 25.762L234.128 24.348C234.38 24.4507 234.679 24.5487 235.024 24.642C235.379 24.7353 235.78 24.782 236.228 24.782ZM245.768 26H244.074V18.678H245.768V26ZM245.95 16.536C245.95 16.8533 245.848 17.1053 245.642 17.292C245.437 17.4787 245.194 17.572 244.914 17.572C244.625 17.572 244.378 17.4787 244.172 17.292C243.967 17.1053 243.864 16.8533 243.864 16.536C243.864 16.2093 243.967 15.9527 244.172 15.766C244.378 15.5793 244.625 15.486 244.914 15.486C245.194 15.486 245.437 15.5793 245.642 15.766C245.848 15.9527 245.95 16.2093 245.95 16.536ZM247.93 18.916C248.256 18.8227 248.681 18.734 249.204 18.65C249.726 18.566 250.305 18.524 250.94 18.524C251.537 18.524 252.036 18.608 252.438 18.776C252.839 18.9347 253.156 19.1633 253.39 19.462C253.632 19.7513 253.8 20.106 253.894 20.526C253.996 20.9367 254.048 21.3893 254.048 21.884V26H252.354V22.15C252.354 21.758 252.326 21.4267 252.27 21.156C252.223 20.876 252.139 20.652 252.018 20.484C251.906 20.3067 251.747 20.1807 251.542 20.106C251.346 20.022 251.103 19.98 250.814 19.98C250.599 19.98 250.375 19.994 250.142 20.022C249.908 20.05 249.736 20.0733 249.624 20.092V26H247.93V18.916ZM264.245 22.374C264.245 21.618 264.072 21.03 263.727 20.61C263.391 20.19 262.845 19.98 262.089 19.98C261.93 19.98 261.762 19.9893 261.585 20.008C261.417 20.0173 261.249 20.0453 261.081 20.092V24.278C261.23 24.3807 261.426 24.4787 261.669 24.572C261.921 24.656 262.187 24.698 262.467 24.698C263.083 24.698 263.531 24.488 263.811 24.068C264.1 23.648 264.245 23.0833 264.245 22.374ZM265.981 22.346C265.981 22.906 265.906 23.4193 265.757 23.886C265.617 24.3527 265.411 24.754 265.141 25.09C264.87 25.426 264.529 25.6873 264.119 25.874C263.717 26.0607 263.26 26.154 262.747 26.154C262.401 26.154 262.084 26.112 261.795 26.028C261.505 25.944 261.267 25.8507 261.081 25.748V28.59H259.387V18.916C259.732 18.8227 260.157 18.734 260.661 18.65C261.165 18.566 261.697 18.524 262.257 18.524C262.835 18.524 263.353 18.6127 263.811 18.79C264.268 18.9673 264.655 19.224 264.973 19.56C265.299 19.8867 265.547 20.288 265.715 20.764C265.892 21.2307 265.981 21.758 265.981 22.346ZM271.898 20.204C271.758 20.1573 271.562 20.1107 271.31 20.064C271.068 20.008 270.783 19.98 270.456 19.98C270.27 19.98 270.069 19.9987 269.854 20.036C269.649 20.0733 269.504 20.106 269.42 20.134V26H267.726V19.028C268.053 18.9067 268.459 18.7947 268.944 18.692C269.439 18.58 269.985 18.524 270.582 18.524C270.694 18.524 270.825 18.5333 270.974 18.552C271.124 18.5613 271.273 18.58 271.422 18.608C271.572 18.6267 271.716 18.6547 271.856 18.692C271.996 18.72 272.108 18.748 272.192 18.776L271.898 20.204ZM279.995 22.332C279.995 22.9107 279.911 23.438 279.743 23.914C279.575 24.39 279.337 24.796 279.029 25.132C278.721 25.468 278.348 25.7293 277.909 25.916C277.48 26.1027 277.004 26.196 276.481 26.196C275.958 26.196 275.482 26.1027 275.053 25.916C274.624 25.7293 274.255 25.468 273.947 25.132C273.639 24.796 273.396 24.39 273.219 23.914C273.051 23.438 272.967 22.9107 272.967 22.332C272.967 21.7533 273.051 21.2307 273.219 20.764C273.396 20.288 273.639 19.882 273.947 19.546C274.264 19.21 274.638 18.9533 275.067 18.776C275.496 18.5893 275.968 18.496 276.481 18.496C276.994 18.496 277.466 18.5893 277.895 18.776C278.334 18.9533 278.707 19.21 279.015 19.546C279.323 19.882 279.561 20.288 279.729 20.764C279.906 21.2307 279.995 21.7533 279.995 22.332ZM278.259 22.332C278.259 21.604 278.1 21.03 277.783 20.61C277.475 20.1807 277.041 19.966 276.481 19.966C275.921 19.966 275.482 20.1807 275.165 20.61C274.857 21.03 274.703 21.604 274.703 22.332C274.703 23.0693 274.857 23.6527 275.165 24.082C275.482 24.5113 275.921 24.726 276.481 24.726C277.041 24.726 277.475 24.5113 277.783 24.082C278.1 23.6527 278.259 23.0693 278.259 22.332ZM283.07 22.15C283.07 22.8687 283.224 23.396 283.532 23.732C283.849 24.0587 284.255 24.222 284.75 24.222C285.021 24.222 285.273 24.1847 285.506 24.11C285.749 24.0353 285.945 23.9467 286.094 23.844V20.05C285.973 20.022 285.823 19.9987 285.646 19.98C285.469 19.952 285.245 19.938 284.974 19.938C284.358 19.938 283.887 20.1433 283.56 20.554C283.233 20.9553 283.07 21.4873 283.07 22.15ZM287.788 25.258C287.788 26.4247 287.489 27.2787 286.892 27.82C286.304 28.3613 285.399 28.632 284.176 28.632C283.728 28.632 283.289 28.5947 282.86 28.52C282.44 28.4453 282.057 28.3473 281.712 28.226L282.02 26.784C282.309 26.9053 282.636 27.0033 283 27.078C283.373 27.1527 283.775 27.19 284.204 27.19C284.885 27.19 285.371 27.05 285.66 26.77C285.949 26.49 286.094 26.0747 286.094 25.524V25.244C285.926 25.328 285.702 25.412 285.422 25.496C285.151 25.58 284.839 25.622 284.484 25.622C284.017 25.622 283.588 25.5473 283.196 25.398C282.813 25.2487 282.482 25.0293 282.202 24.74C281.931 24.4507 281.717 24.0913 281.558 23.662C281.409 23.2233 281.334 22.7193 281.334 22.15C281.334 21.618 281.413 21.128 281.572 20.68C281.74 20.232 281.978 19.8493 282.286 19.532C282.603 19.2147 282.986 18.9673 283.434 18.79C283.882 18.6127 284.391 18.524 284.96 18.524C285.511 18.524 286.033 18.566 286.528 18.65C287.023 18.734 287.443 18.8227 287.788 18.916V25.258ZM294.115 20.204C293.975 20.1573 293.779 20.1107 293.527 20.064C293.285 20.008 293 19.98 292.673 19.98C292.487 19.98 292.286 19.9987 292.071 20.036C291.866 20.0733 291.721 20.106 291.637 20.134V26H289.943V19.028C290.27 18.9067 290.676 18.7947 291.161 18.692C291.656 18.58 292.202 18.524 292.799 18.524C292.911 18.524 293.042 18.5333 293.191 18.552C293.341 18.5613 293.49 18.58 293.639 18.608C293.789 18.6267 293.933 18.6547 294.073 18.692C294.213 18.72 294.325 18.748 294.409 18.776L294.115 20.204ZM295.184 22.374C295.184 21.73 295.277 21.1653 295.464 20.68C295.66 20.1947 295.916 19.7933 296.234 19.476C296.551 19.1493 296.915 18.9067 297.326 18.748C297.736 18.58 298.156 18.496 298.586 18.496C299.594 18.496 300.378 18.8087 300.938 19.434C301.507 20.0593 301.792 20.9927 301.792 22.234C301.792 22.3273 301.787 22.4347 301.778 22.556C301.778 22.668 301.773 22.7707 301.764 22.864H296.934C296.98 23.452 297.186 23.9093 297.55 24.236C297.923 24.5533 298.46 24.712 299.16 24.712C299.57 24.712 299.944 24.6747 300.28 24.6C300.625 24.5253 300.896 24.446 301.092 24.362L301.316 25.748C301.222 25.7947 301.092 25.846 300.924 25.902C300.765 25.9487 300.578 25.9907 300.364 26.028C300.158 26.0747 299.934 26.112 299.692 26.14C299.449 26.168 299.202 26.182 298.95 26.182C298.306 26.182 297.746 26.0887 297.27 25.902C296.794 25.706 296.402 25.44 296.094 25.104C295.786 24.7587 295.557 24.3573 295.408 23.9C295.258 23.4333 295.184 22.9247 295.184 22.374ZM300.098 21.618C300.098 21.3847 300.065 21.1653 300 20.96C299.934 20.7453 299.836 20.5633 299.706 20.414C299.584 20.2553 299.43 20.134 299.244 20.05C299.066 19.9567 298.852 19.91 298.6 19.91C298.338 19.91 298.11 19.9613 297.914 20.064C297.718 20.1573 297.55 20.2833 297.41 20.442C297.279 20.6007 297.176 20.7827 297.102 20.988C297.027 21.1933 296.976 21.4033 296.948 21.618H300.098ZM305.422 24.782C305.87 24.782 306.196 24.7307 306.402 24.628C306.607 24.516 306.71 24.3293 306.71 24.068C306.71 23.8253 306.598 23.6247 306.374 23.466C306.159 23.3073 305.8 23.1347 305.296 22.948C304.988 22.836 304.703 22.7193 304.442 22.598C304.19 22.4673 303.97 22.318 303.784 22.15C303.597 21.982 303.448 21.7813 303.336 21.548C303.233 21.3053 303.182 21.0113 303.182 20.666C303.182 19.994 303.429 19.4667 303.924 19.084C304.418 18.692 305.09 18.496 305.94 18.496C306.369 18.496 306.78 18.538 307.172 18.622C307.564 18.6967 307.858 18.7713 308.054 18.846L307.746 20.218C307.559 20.134 307.321 20.0593 307.032 19.994C306.742 19.9193 306.406 19.882 306.024 19.882C305.678 19.882 305.398 19.9427 305.184 20.064C304.969 20.176 304.862 20.3533 304.862 20.596C304.862 20.7173 304.88 20.8247 304.918 20.918C304.964 21.0113 305.039 21.1 305.142 21.184C305.244 21.2587 305.38 21.338 305.548 21.422C305.716 21.4967 305.921 21.576 306.164 21.66C306.565 21.8093 306.906 21.9587 307.186 22.108C307.466 22.248 307.694 22.4113 307.872 22.598C308.058 22.7753 308.194 22.9807 308.278 23.214C308.362 23.4473 308.404 23.7273 308.404 24.054C308.404 24.754 308.142 25.286 307.62 25.65C307.106 26.0047 306.369 26.182 305.408 26.182C304.764 26.182 304.246 26.126 303.854 26.014C303.462 25.9113 303.186 25.8273 303.028 25.762L303.322 24.348C303.574 24.4507 303.872 24.5487 304.218 24.642C304.572 24.7353 304.974 24.782 305.422 24.782ZM311.82 24.782C312.268 24.782 312.595 24.7307 312.8 24.628C313.006 24.516 313.108 24.3293 313.108 24.068C313.108 23.8253 312.996 23.6247 312.772 23.466C312.558 23.3073 312.198 23.1347 311.694 22.948C311.386 22.836 311.102 22.7193 310.84 22.598C310.588 22.4673 310.369 22.318 310.182 22.15C309.996 21.982 309.846 21.7813 309.734 21.548C309.632 21.3053 309.58 21.0113 309.58 20.666C309.58 19.994 309.828 19.4667 310.322 19.084C310.817 18.692 311.489 18.496 312.338 18.496C312.768 18.496 313.178 18.538 313.57 18.622C313.962 18.6967 314.256 18.7713 314.452 18.846L314.144 20.218C313.958 20.134 313.72 20.0593 313.43 19.994C313.141 19.9193 312.805 19.882 312.422 19.882C312.077 19.882 311.797 19.9427 311.582 20.064C311.368 20.176 311.26 20.3533 311.26 20.596C311.26 20.7173 311.279 20.8247 311.316 20.918C311.363 21.0113 311.438 21.1 311.54 21.184C311.643 21.2587 311.778 21.338 311.946 21.422C312.114 21.4967 312.32 21.576 312.562 21.66C312.964 21.8093 313.304 21.9587 313.584 22.108C313.864 22.248 314.093 22.4113 314.27 22.598C314.457 22.7753 314.592 22.9807 314.676 23.214C314.76 23.4473 314.802 23.7273 314.802 24.054C314.802 24.754 314.541 25.286 314.018 25.65C313.505 26.0047 312.768 26.182 311.806 26.182C311.162 26.182 310.644 26.126 310.252 26.014C309.86 25.9113 309.585 25.8273 309.426 25.762L309.72 24.348C309.972 24.4507 310.271 24.5487 310.616 24.642C310.971 24.7353 311.372 24.782 311.82 24.782Z" fill="#003CFF"/>
</svg>
