<svg width="20" height="47" viewBox="0 0 20 47" fill="none" xmlns="http://www.w3.org/2000/svg">
<mask id="mask0_59957_26014" style="mask-type:alpha" maskUnits="userSpaceOnUse" x="0" y="0" width="19" height="18">
<rect x="0.5" width="18" height="18" fill="#D9D9D9"/>
</mask>
<g mask="url(#mask0_59957_26014)">
<path d="M8.75156 16.4624V15.7124C7.18906 15.5374 5.84844 14.8905 4.72969 13.7717C3.61094 12.653 2.96406 11.3124 2.78906 9.74985H2.03906C1.82656 9.74985 1.64844 9.67798 1.50469 9.53423C1.36094 9.39048 1.28906 9.21235 1.28906 8.99985C1.28906 8.78735 1.36094 8.60923 1.50469 8.46548C1.64844 8.32173 1.82656 8.24985 2.03906 8.24985H2.78906C2.96406 6.68735 3.61094 5.34673 4.72969 4.22798C5.84844 3.10923 7.18906 2.46235 8.75156 2.28735V1.53735C8.75156 1.32485 8.82344 1.14673 8.96719 1.00298C9.11094 0.859229 9.28906 0.787354 9.50156 0.787354C9.71406 0.787354 9.89219 0.859229 10.0359 1.00298C10.1797 1.14673 10.2516 1.32485 10.2516 1.53735V2.28735C11.8141 2.46235 13.1547 3.10923 14.2734 4.22798C15.3922 5.34673 16.0391 6.68735 16.2141 8.24985H16.9641C17.1766 8.24985 17.3547 8.32173 17.4984 8.46548C17.6422 8.60923 17.7141 8.78735 17.7141 8.99985C17.7141 9.21235 17.6422 9.39048 17.4984 9.53423C17.3547 9.67798 17.1766 9.74985 16.9641 9.74985H16.2141C16.0391 11.3124 15.3922 12.653 14.2734 13.7717C13.1547 14.8905 11.8141 15.5374 10.2516 15.7124V16.4624C10.2516 16.6749 10.1797 16.853 10.0359 16.9967C9.89219 17.1405 9.71406 17.2124 9.50156 17.2124C9.28906 17.2124 9.11094 17.1405 8.96719 16.9967C8.82344 16.853 8.75156 16.6749 8.75156 16.4624ZM9.50156 14.2499C10.9516 14.2499 12.1891 13.7374 13.2141 12.7124C14.2391 11.6874 14.7516 10.4499 14.7516 8.99985C14.7516 7.54985 14.2391 6.31235 13.2141 5.28735C12.1891 4.26235 10.9516 3.74985 9.50156 3.74985C8.05156 3.74985 6.81406 4.26235 5.78906 5.28735C4.76406 6.31235 4.25156 7.54985 4.25156 8.99985C4.25156 10.4499 4.76406 11.6874 5.78906 12.7124C6.81406 13.7374 8.05156 14.2499 9.50156 14.2499ZM9.50156 11.9999C8.67656 11.9999 7.97031 11.7061 7.38281 11.1186C6.79531 10.5311 6.50156 9.82485 6.50156 8.99985C6.50156 8.17485 6.79531 7.4686 7.38281 6.8811C7.97031 6.2936 8.67656 5.99985 9.50156 5.99985C10.3266 5.99985 11.0328 6.2936 11.6203 6.8811C12.2078 7.4686 12.5016 8.17485 12.5016 8.99985C12.5016 9.82485 12.2078 10.5311 11.6203 11.1186C11.0328 11.7061 10.3266 11.9999 9.50156 11.9999Z" fill="#027A48"/>
</g>
<mask id="mask1_59957_26014" style="mask-type:alpha" maskUnits="userSpaceOnUse" x="0" y="29" width="19" height="18">
<rect x="0.5" y="29" width="18" height="18" fill="#D9D9D9"/>
</mask>
<g mask="url(#mask1_59957_26014)">
<path d="M9.5 43.5125C11.025 42.1125 12.1563 40.8406 12.8938 39.6969C13.6313 38.5531 14 37.5375 14 36.65C14 35.2875 13.5656 34.1719 12.6969 33.3031C11.8281 32.4344 10.7625 32 9.5 32C8.2375 32 7.17188 32.4344 6.30313 33.3031C5.43438 34.1719 5 35.2875 5 36.65C5 37.5375 5.36875 38.5531 6.10625 39.6969C6.84375 40.8406 7.975 42.1125 9.5 43.5125ZM9.5 44.9938C9.325 44.9938 9.15 44.9625 8.975 44.9C8.8 44.8375 8.64375 44.7438 8.50625 44.6188C7.69375 43.8688 6.975 43.1375 6.35 42.425C5.725 41.7125 5.20313 41.0219 4.78438 40.3531C4.36563 39.6844 4.04688 39.0406 3.82813 38.4219C3.60937 37.8031 3.5 37.2125 3.5 36.65C3.5 34.775 4.10313 33.2812 5.30938 32.1688C6.51563 31.0563 7.9125 30.5 9.5 30.5C11.0875 30.5 12.4844 31.0563 13.6906 32.1688C14.8969 33.2812 15.5 34.775 15.5 36.65C15.5 37.2125 15.3906 37.8031 15.1719 38.4219C14.9531 39.0406 14.6344 39.6844 14.2156 40.3531C13.7969 41.0219 13.275 41.7125 12.65 42.425C12.025 43.1375 11.3063 43.8688 10.4938 44.6188C10.3563 44.7438 10.2 44.8375 10.025 44.9C9.85 44.9625 9.675 44.9938 9.5 44.9938ZM9.5 38C9.9125 38 10.2656 37.8531 10.5594 37.5594C10.8531 37.2656 11 36.9125 11 36.5C11 36.0875 10.8531 35.7344 10.5594 35.4406C10.2656 35.1469 9.9125 35 9.5 35C9.0875 35 8.73438 35.1469 8.44063 35.4406C8.14688 35.7344 8 36.0875 8 36.5C8 36.9125 8.14688 37.2656 8.44063 37.5594C8.73438 37.8531 9.0875 38 9.5 38Z" fill="#E31B25"/>
</g>
<line x1="9.9" y1="21.391" x2="9.9" y2="27.6088" stroke="#B6B6B6" stroke-width="0.8" stroke-linecap="round" stroke-dasharray="2 2"/>
</svg>
