<svg width="237" height="237" viewBox="0 0 237 237" fill="none" xmlns="http://www.w3.org/2000/svg">
<path d="M213.253 188.887H197.553V189.005H213.253V188.887Z" fill="#EBEBEB"/>
<path d="M156.997 190.173H152.877V190.291H156.997V190.173Z" fill="#EBEBEB"/>
<path d="M197.079 184.484H187.982V184.603H197.079V184.484Z" fill="#EBEBEB"/>
<path d="M45.3387 185.281H24.8652V185.4H45.3387V185.281Z" fill="#EBEBEB"/>
<path d="M52.5604 185.281H49.5586V185.4H52.5604V185.281Z" fill="#EBEBEB"/>
<path d="M106.719 187.283H62.3164V187.402H106.719V187.283Z" fill="#EBEBEB"/>
<path d="M113.002 160.118H21.4732C19.9815 160.118 18.7676 158.904 18.7676 157.412V28.7534C18.7676 27.2618 19.9815 26.0479 21.4732 26.0479H113.002C114.493 26.0479 115.707 27.2618 115.707 28.7534V157.412C115.707 158.904 114.493 160.118 113.002 160.118ZM21.4732 26.1668C20.0464 26.1668 18.8861 27.3272 18.8861 28.7539V157.413C18.8861 158.839 20.0464 160 21.4732 160H113.002C114.428 160 115.589 158.839 115.589 157.413V28.7534C115.589 27.3272 114.428 26.1664 113.002 26.1664L21.4732 26.1668Z" fill="#EBEBEB"/>
<path d="M215.527 160.118H123.998C122.507 160.118 121.293 158.904 121.293 157.412V28.7534C121.293 27.2618 122.507 26.0479 123.998 26.0479H215.527C217.019 26.0479 218.233 27.2618 218.233 28.7534V157.412C218.233 158.904 217.019 160.118 215.527 160.118ZM123.998 26.1668C122.572 26.1668 121.411 27.3272 121.411 28.7539V157.413C121.411 158.839 122.572 160 123.998 160H215.527C216.954 160 218.114 158.839 218.114 157.413V28.7534C218.114 27.3272 216.954 26.1664 215.527 26.1664L123.998 26.1668Z" fill="#EBEBEB"/>
<path d="M237 181.257H0V181.375H237V181.257Z" fill="#EBEBEB"/>
<path d="M85.6347 62.4628L65.8125 64.8522V55.1262L85.6347 57.5157V62.4628Z" fill="#E6E6E6"/>
<path d="M85.0117 52.877L92.1246 59.9898L85.0117 67.1022V52.877Z" fill="#E6E6E6"/>
<path d="M38.6952 83.7504L28.0938 85.0283V79.8271L38.6952 81.1046V83.7504Z" fill="#E6E6E6"/>
<path d="M38.3633 78.6235L42.1671 82.4274L38.3633 86.2317V78.6235Z" fill="#E6E6E6"/>
<path d="M54.4475 149.174L34.5703 151.569V141.817L54.4475 144.213V149.174Z" fill="#E6E6E6"/>
<path d="M53.8242 139.561L60.9565 146.693L53.8242 153.825V139.561Z" fill="#E6E6E6"/>
<path d="M50.7693 51.2873L41.2656 52.433V47.7703L50.7693 48.9154V51.2873Z" fill="#E6E6E6"/>
<path d="M50.4707 46.6914L53.8807 50.1014L50.4707 53.5118V46.6914Z" fill="#E6E6E6"/>
<path d="M118.501 202.405C169.258 202.405 210.404 200.002 210.404 197.038C210.404 194.074 169.258 191.671 118.501 191.671C67.7442 191.671 26.5977 194.074 26.5977 197.038C26.5977 200.002 67.7442 202.405 118.501 202.405Z" fill="#F5F5F5"/>
<path d="M199.977 49.7747H131.062V197.089H199.977V49.7747Z" fill="#263238"/>
<path opacity="0.4" d="M131.156 50.545L130.98 196.736L133.271 196.738L133.447 50.5477L131.156 50.545Z" fill="black"/>
<path d="M202.177 47.3002L201.998 196.736L204.289 196.739L204.468 47.303L202.177 47.3002Z" fill="#003CFF"/>
<g opacity="0.4">
<path d="M202.177 47.3002L201.998 196.736L204.289 196.739L204.468 47.303L202.177 47.3002Z" fill="black"/>
</g>
<path d="M128.674 47.2961V197.09H131.063V49.7752H199.693V197.09H202.077V47.2961H128.674Z" fill="#003CFF"/>
<path d="M182.599 37.5356H148.156V49.8677H182.599V37.5356Z" fill="#003CFF"/>
<path opacity="0.8" d="M182.599 37.5356H148.156V49.8677H182.599V37.5356Z" fill="white"/>
<path d="M161.05 46.1413V47.2969H156.232V41.0747H160.935V42.2303H157.663V43.5817H160.552V44.7018H157.663V46.1418L161.05 46.1413Z" fill="#263238"/>
<path d="M166.057 47.2969L164.555 45.1369L163.079 47.2969H161.426L163.728 44.1325L161.541 41.0747H163.177L164.609 43.0925L166.013 41.0747H167.569L165.4 44.0789L167.72 47.2969H166.057Z" fill="#263238"/>
<path d="M168.291 41.0747H169.731V47.2969H168.291V41.0747Z" fill="#263238"/>
<path d="M172.495 42.2479H170.504V41.0747H175.926V42.2479H173.935V47.2969H172.495V42.2479H172.495Z" fill="#263238"/>
<g opacity="0.4">
<path d="M199.379 178.366V192.729L199.099 192.25L195.421 185.884L188.609 174.1L174.84 150.277H142.518C140.532 150.277 138.92 148.675 138.92 146.684C138.92 144.698 140.532 143.091 142.518 143.091H178.982L195.094 170.948L195.421 171.517L199.099 177.878L199.379 178.366Z" fill="white"/>
</g>
<path opacity="0.2" d="M150.648 150.279H143.836V196.993H150.648V150.279Z" fill="white"/>
<path opacity="0.2" d="M174.752 150.279H167.939V196.993H174.752V150.279Z" fill="white"/>
<path opacity="0.2" d="M195.421 185.885V197.09H188.609V174.101L195.421 185.885Z" fill="white"/>
<path d="M172.633 92.6535L165.518 99.7687L158.408 92.6535H160.675L160.66 83.0654H170.381L170.446 92.6535H172.633Z" fill="white"/>
<path d="M52.7206 118.461L51.7413 117.864L59.4272 104.643C60.6492 102.541 60.807 100.33 58.2133 98.7633C55.7874 97.2977 53.4548 98.1907 52.2267 100.284L44.5028 113.452L43.5273 112.857L51.2564 99.6961C52.685 97.2631 54.7583 95.8401 58.574 98.1447C62.3963 100.454 61.8209 102.787 60.4008 105.232L52.7206 118.461Z" fill="#003CFF"/>
<path d="M53.59 127.777L34.3418 116.004L41.9068 103.208C42.6482 101.954 44.2408 101.541 45.4652 102.284L59.5079 110.806C61.0939 111.769 61.6186 113.869 60.6777 115.499L53.59 127.777Z" fill="#003CFF"/>
<path opacity="0.4" d="M51.4573 126.473L36.4576 117.298C35.2887 116.584 34.9199 115.026 35.6324 113.822L41.9072 103.208C42.6485 101.954 44.2412 101.541 45.4655 102.284L59.5082 110.806C61.0942 111.769 61.6189 113.869 60.678 115.499L54.864 125.572C54.161 126.789 52.6352 127.193 51.4573 126.473Z" fill="white"/>
<g opacity="0.3">
<path d="M52.721 118.462L51.7336 119.02L51.7417 117.865L59.4276 104.644C60.6496 102.542 60.8074 100.332 58.2137 98.7645C55.7877 97.2989 53.4552 98.1919 52.2271 100.285L44.5032 113.453L43.4922 113.994L43.5277 112.858L51.2568 99.6973C52.6854 97.2643 54.7587 95.8413 58.5744 98.1459C62.3967 100.455 61.8213 102.788 60.4012 105.233L52.721 118.462Z" fill="white"/>
</g>
<path d="M47.767 108.523L46.1602 107.546L46.5185 106.935L48.1249 107.912L47.767 108.523Z" fill="#003CFF"/>
<path d="M45.4452 112.482L43.8359 111.501L44.1962 110.888L45.8049 111.868L45.4452 112.482Z" fill="#003CFF"/>
<path d="M56.0232 113.542L54.4102 112.561L54.7666 111.948L56.3792 112.928L56.0232 113.542Z" fill="#003CFF"/>
<path d="M53.7155 117.518L52.0996 116.534L52.458 115.919L54.0729 116.902L53.7155 117.518Z" fill="#003CFF"/>
<path d="M52.7501 112.023L49.3008 109.926L50.0653 108.619L53.5127 110.714L52.7501 112.023Z" fill="white"/>
<path d="M87.6641 78.9592C88.7363 78.38 87.9598 76.7992 88.6149 75.181C90.7882 69.8129 93.6455 72.1293 94.9499 71.5677C98.5078 70.0357 102.346 71.9303 104.58 73.4058C107.328 75.2217 109.174 78.5971 108.567 81.835C108.352 82.9844 107.843 84.0775 107.102 84.9819C106.283 85.9806 105.195 86.7394 104.016 87.2651C100.599 88.7881 98.804 87.6533 95.3068 88.9824L87.6641 78.9592Z" fill="#263238"/>
<path d="M100.738 87.9566C96.8445 87.0944 92.3467 88.4515 89.0059 90.255C88.3314 90.6191 87.5 90.6537 86.7421 90.5423C85.9842 90.4304 85.2286 89.9171 85.0879 89.1639C84.9471 88.4107 86.0349 87.4234 86.7625 87.6632C85.6889 88.004 84.5992 88.3481 83.4734 88.3922C82.3477 88.4363 81.1622 88.1448 80.3498 87.3646C80.0924 87.1172 79.8715 86.8124 79.8075 86.4611C79.7435 86.1099 79.8682 85.7089 80.172 85.5212C80.3294 85.424 80.5171 85.3909 80.6996 85.3596C82.3439 85.079 84.0872 84.6931 85.7315 84.412C83.7872 84.896 81.7798 85.1273 79.7762 85.0984C79.1937 85.0899 78.5888 85.0534 78.0769 84.7756C77.565 84.4978 77.1749 83.912 77.3043 83.3437C77.4048 82.9014 77.7944 82.5701 78.2201 82.4141C78.6462 82.2582 79.1093 82.2478 79.5629 82.2388C81.1717 82.208 82.7762 81.842 84.3849 81.8107C84.429 81.8311 84.4736 81.851 84.5181 81.8709C84.0474 81.8349 83.6137 81.4988 83.4616 81.0519C83.3094 80.6054 83.4478 80.074 83.7986 79.7583C84.1811 79.4142 84.7305 79.3483 85.2424 79.2985C85.9126 79.2331 86.5824 79.1677 87.2526 79.1023C87.7972 79.0492 88.2632 78.4752 88.2513 77.9282C91.2124 77.1124 94.4522 77.795 96.8772 79.6796C99.3026 81.5652 100.798 84.886 100.738 87.9566Z" fill="#263238"/>
<path d="M129.152 93.3919C129.812 92.3268 130.728 91.4215 131.801 90.774C132.544 90.3256 133.597 90.117 134.384 90.0227C134.66 89.9895 134.936 90.0634 135.164 90.2232C135.696 90.5967 136.117 91.0953 136.379 91.6831C136.524 92.0064 136.371 92.3879 136.054 92.5467C135.334 92.9074 134.556 93.3445 133.875 93.654C132.833 94.9807 130.756 95.668 129.201 95.013C129.202 94.5053 129.153 93.8991 129.152 93.3919Z" fill="#FFB573"/>
<path d="M127.982 93.2787L130.455 91.176C130.455 91.176 132.526 92.3696 132.207 94.0741C131.888 95.7786 131.058 96.0848 131.058 96.0848C131.058 96.0848 129.614 96.546 127.4 95.7278C125.185 94.9097 127.982 93.2787 127.982 93.2787Z" fill="#003CFF"/>
<path opacity="0.2" d="M127.982 93.2787L130.455 91.176C130.455 91.176 132.526 92.3696 132.207 94.0741C131.888 95.7786 131.058 96.0848 131.058 96.0848C131.058 96.0848 129.614 96.546 127.4 95.7278C125.185 94.9097 127.982 93.2787 127.982 93.2787Z" fill="black"/>
<path d="M100.842 91.7784C103.872 92.1922 111.65 93.3663 115.351 94.101C117.057 94.4394 123.485 92.9094 126.333 92.5951C127.107 92.5098 128.544 92.8786 128.544 92.8786L128.507 95.0936C128.507 95.0936 128.275 96.1416 127.427 96.4696C124.234 97.7025 116.148 99.7847 114.313 99.6511C108.972 99.2619 100.032 98.4419 99.1707 97.2621C97.8805 95.4983 98.5095 91.4613 100.842 91.7784Z" fill="#003CFF"/>
<path opacity="0.2" d="M102.732 94.8547L104.755 98.7103L107.765 99.0733C107.765 99.0733 104.178 97.8703 102.732 94.8547Z" fill="black"/>
<path d="M103.893 92.1262C103.928 92.3552 105.367 97.5028 104.565 100.752C103.571 104.782 102.009 108.948 99.5458 113.44C99.5439 113.443 99.543 113.447 99.543 113.451L99.5875 114.791C99.624 115.894 99.1747 116.957 98.3584 117.7L97.9679 118.055C97.9622 118.06 97.9546 118.062 97.9475 118.06L81.0219 113.848C81.0171 113.846 81.0134 113.844 81.01 113.841L80.9351 113.752C79.8326 112.439 79.8141 110.528 80.8915 109.194C83.4497 105.984 86.1198 99.8173 86.5449 87.7621C86.5454 87.7493 86.5563 87.7393 86.5686 87.7403C88.7576 87.8669 90.9347 88.1527 93.0823 88.5944C95.3713 89.041 97.6256 89.6505 99.8274 90.4184C101.876 91.2142 101.931 91.1147 103.88 92.1125C103.888 92.1158 103.892 92.1186 103.893 92.1262Z" fill="#003CFF"/>
<path d="M95.7959 81.1836C95.6357 83.474 94.9887 87.5674 93.0742 88.6079L96.8188 93.7583L99.8282 90.4318C97.5758 89.1985 98.9442 86.9811 99.341 84.5049L95.7959 81.1836Z" fill="#FFB573"/>
<path opacity="0.2" d="M95.7963 81.1885C95.6693 83.0252 95.2261 86.0356 94.043 87.6818C95.3906 87.8079 97.56 87.3761 98.1639 86.3579C98.4716 85.6294 98.7204 84.8771 98.9081 84.1088L95.7963 81.1885Z" fill="black"/>
<path d="M104.789 80.8425C103.213 84.2643 102.621 85.7451 100.155 86.8561C96.4446 88.5275 92.5891 85.8456 93.1076 82.0266C93.5745 78.5853 96.0697 73.5728 100.042 73.5069C102.88 73.4509 105.225 75.7067 105.281 78.5445C105.297 79.3385 105.128 80.1249 104.789 80.8425Z" fill="#FFB573"/>
<path d="M104.757 83.093C98.5481 82.3265 101.733 76.6845 96.498 73.7367C100.057 72.273 103.929 72.6067 105.379 73.9979C106.828 75.389 104.757 83.093 104.757 83.093Z" fill="#263238"/>
<path d="M104.748 84.6858C104.183 85.1465 103.458 85.3641 102.732 85.2915C101.775 85.1854 101.652 84.2435 102.218 83.5264C102.726 82.8765 103.838 82.1693 104.658 82.613C105.247 82.9618 105.442 83.7216 105.093 84.3104C105.005 84.4578 104.887 84.5857 104.748 84.6858Z" fill="#FFB573"/>
<path d="M99.0962 79.7619C98.9858 80.0453 98.7445 80.2131 98.5601 80.1467C98.3757 80.0804 98.3108 79.7846 98.4212 79.5012C98.5317 79.2177 98.7729 79.0499 98.9573 79.1163C99.1417 79.1826 99.2067 79.4784 99.0962 79.7619Z" fill="#263238"/>
<path d="M95.8742 78.5125C95.7595 78.7959 95.5225 78.9637 95.3334 78.8974C95.1443 78.831 95.0841 78.5352 95.1988 78.2475C95.3135 77.9593 95.5462 77.7963 95.7349 77.8626C95.9245 77.929 95.9979 78.2243 95.8742 78.5125Z" fill="#263238"/>
<path d="M95.8103 77.9109L95.2012 77.4658C95.2012 77.4658 95.3443 78.1024 95.8103 77.9109Z" fill="#263238"/>
<path d="M96.534 79.3342C96.0268 79.885 95.4471 80.3647 94.8105 80.7595C95.0234 81.0833 95.368 81.2961 95.7524 81.3416L96.534 79.3342Z" fill="#EC837E"/>
<path d="M97.3196 82.5358C97.4997 82.5884 97.6737 82.6595 97.8391 82.7476C97.877 82.7661 97.8926 82.8121 97.8742 82.8495L97.8737 82.8505C97.8519 82.8846 97.8083 82.8979 97.7713 82.8803C97.0906 82.5049 96.2706 82.4784 95.5672 82.8102C95.5354 82.8339 95.4909 82.8292 95.4643 82.7998C95.4383 82.7732 95.4392 82.7306 95.4658 82.7045C95.4686 82.7016 95.4714 82.6993 95.4748 82.6969C96.0455 82.4049 96.7072 82.3471 97.3196 82.5358Z" fill="#263238"/>
<path d="M100.123 78.0922C100.115 78.0514 100.082 78.0178 100.037 78.0031C99.6252 77.8808 99.309 77.5959 99.1886 77.2395C99.1706 77.1764 99.0972 77.1371 99.0228 77.1499C98.9488 77.1631 98.9014 77.2252 98.917 77.2883C98.917 77.2892 98.9175 77.2906 98.9175 77.2906C99.0574 77.7239 99.4375 78.0718 99.9352 78.2216C100.006 78.2439 100.085 78.2149 100.114 78.1557C100.123 78.1358 100.127 78.114 100.123 78.0922Z" fill="#263238"/>
<path d="M95.2332 75.8399C95.1806 75.8399 95.1322 75.8688 95.1071 75.9152C95.0668 75.9863 95.0919 76.0769 95.163 76.1172L95.164 76.1176C95.6536 76.4063 96.2537 76.4371 96.7704 76.1996C96.8424 76.166 96.8737 76.0807 96.8401 76.0086C96.8386 76.0048 96.8367 76.0015 96.8344 75.9977C96.7955 75.9257 96.7059 75.8986 96.6339 75.9375L96.6329 75.938C96.2044 76.1257 95.7119 76.0958 95.309 75.8579C95.2863 75.8456 95.2597 75.8394 95.2332 75.8399Z" fill="#263238"/>
<path d="M99.0344 79.1609L98.4258 78.7158C98.4258 78.7158 98.5689 79.3704 99.0344 79.1609Z" fill="#263238"/>
<path d="M98.3655 118.971C98.2356 117.838 97.4421 115.409 96.0803 114.573C94.2711 113.463 93.8876 113.225 85.9372 111.406C82.1879 110.548 80.8322 113.224 80.4573 114.738C80.407 114.942 80.4137 115.152 80.4753 115.352L80.5578 115.621C80.8772 115.875 97.9251 119.389 98.0564 119.542C98.0564 119.542 98.4086 119.343 98.3655 118.971Z" fill="#003CFF"/>
<path d="M61.8043 96.8776L58.6626 100.285L56.752 96.8074C56.752 96.8074 59.1476 95.493 60.5008 95.1641L61.8043 96.8776Z" fill="#FFB573"/>
<path d="M55.6909 100.601L55.2022 99.4366C55.0785 99.1423 55.1274 98.8038 55.3288 98.5559L56.7517 96.8069L58.6624 100.284L56.8266 101.063C56.3853 101.25 55.8763 101.043 55.6909 100.601Z" fill="#FFB573"/>
<path d="M60.2688 98.6956L57.0352 96.5806L60.912 94.304L62.717 96.3877L60.2688 98.6956Z" fill="#003CFF"/>
<path opacity="0.2" d="M60.2688 98.6956L57.0352 96.5806L60.912 94.304L62.717 96.3877L60.2688 98.6956Z" fill="black"/>
<path opacity="0.2" d="M85.9929 93.3839C86.3384 93.5133 85.4862 97.9613 85.262 98.9283C85.0378 99.8953 87.5964 95.9848 87.5514 94.8562C87.4789 93.0265 85.9929 93.3839 85.9929 93.3839Z" fill="black"/>
<path d="M60.9189 93.9456C60.9189 93.9456 65.9855 85.3738 86.3044 87.5537C92.9371 88.2652 89.5381 94.093 85.0768 93.2157C81.7664 92.5644 74.3592 91.8122 69.7742 93.4043C65.1892 94.996 65.4465 97.2632 62.7168 96.3882C59.9875 95.5136 60.9189 93.9456 60.9189 93.9456Z" fill="#003CFF"/>
<path d="M81.0336 122.237C81.0336 122.237 70.2681 148.72 66.9591 156.178C66.7648 156.616 66.5387 157.036 66.2846 157.443C59.8548 167.729 44.5996 189.05 44.5996 189.05L47.246 191.408C47.246 191.408 66.6705 172.863 73.6421 160.173C79.933 150.502 91.8233 125.684 91.8233 125.684L81.0336 122.237Z" fill="#FFB573"/>
<path d="M48.9724 190.897C49.0932 192.145 48.3528 194.488 50.9897 195.879C51.8931 196.356 51.5618 197.575 50.0052 197.238C48.4491 196.9 45.935 193.715 45.0898 192.939C43.7157 191.676 43.3782 191.23 42.27 190.244C42.2401 190.217 42.2136 190.187 42.1899 190.155C42.0088 189.904 42.0657 189.554 42.3164 189.373L45.1301 187.405C45.2628 187.308 45.4463 187.32 45.5648 187.434L48.6865 190.311C48.852 190.463 48.9534 190.673 48.9724 190.897Z" fill="#003CFF"/>
<path d="M50.241 191.847C50.2618 191.826 50.2817 191.804 50.2993 191.781C50.3713 191.694 50.3893 191.575 50.3453 191.472C50.1822 191.035 48.8697 190.768 48.6047 190.72C48.5483 190.708 48.4933 190.745 48.4824 190.802C48.4772 190.829 48.4824 190.856 48.4976 190.88C48.7739 191.294 49.311 191.989 49.8125 192.011C49.9727 192.023 50.1296 191.963 50.241 191.847ZM48.8422 190.983C49.411 191.112 50.1054 191.343 50.158 191.549C50.1547 191.57 50.1727 191.6 50.1429 191.652C50.0727 191.746 49.9618 191.801 49.8442 191.8C49.575 191.809 49.2148 191.487 48.8422 190.983Z" fill="#003CFF"/>
<path d="M50.3101 190.637C50.3309 190.614 50.3508 190.591 50.3689 190.566C50.4442 190.441 50.4205 190.279 50.3125 190.181C50.221 190.072 50.0864 190.007 49.9442 190.003C49.3697 189.97 48.5605 190.714 48.516 190.746C48.4738 190.785 48.471 190.851 48.5098 190.894C48.524 190.91 48.543 190.92 48.5639 190.925C48.9781 191.03 49.983 190.947 50.3101 190.637ZM48.8445 190.751C49.1459 190.47 49.5232 190.283 49.9299 190.215C50.0153 190.216 50.0958 190.254 50.1518 190.318C50.2229 190.4 50.1958 190.435 50.1883 190.455C50.0664 190.653 49.3227 190.783 48.8445 190.751Z" fill="#003CFF"/>
<path opacity="0.1" d="M84.0598 141.326L80.655 147.871C80.655 147.871 78.3187 148.281 75.9373 146.114C73.5559 143.948 72.3008 143.526 72.3008 143.526L76.3829 133.619L84.0598 141.326Z" fill="black"/>
<path d="M60.8532 166.076C67.4238 169.941 75.4457 174.211 83.062 173.896C90.6782 173.58 100.403 171.671 108.685 173.912C108.685 173.912 115.207 160.498 114.345 152.401C113.053 140.28 105.431 127.815 97.4014 118.644C97.0341 118.225 94.4569 117.386 89.3998 116.578C79.5553 132.438 69.7051 149.519 60.6797 165.859C60.7626 165.522 60.8461 165.184 60.929 164.846" fill="#263238"/>
<path opacity="0.2" d="M108.684 173.912C108.684 173.912 114.596 163.518 112.32 153.645C110.044 143.772 104.581 138.095 104.581 138.095L88.8848 173.47C88.8848 173.47 100.323 172.341 103.574 173.022C106.825 173.703 108.684 173.912 108.684 173.912Z" fill="black"/>
<path d="M86.8008 133.612C86.8008 133.612 96.7609 142.179 103.672 151.345C104.721 152.736 104.968 154.572 104.323 156.19C100.546 165.669 95.63 177.314 96.1277 177.088L98.0753 179.971C98.0753 179.971 115.025 156.823 111.945 152.173C108.059 141.463 97.134 127.32 97.134 127.32L86.8008 133.612Z" fill="#FFB573"/>
<path opacity="0.1" d="M102.428 134.631L106.487 141.157C106.487 141.157 104.377 146.063 101.042 146.065C99.3401 146.065 97.5143 144.045 97.5143 144.045L92.8027 139.195L102.428 134.631Z" fill="black"/>
<path d="M99.1105 179.665C99.0688 180.915 100.184 183.596 101.572 186.235C101.883 186.822 100.548 187.67 99.5262 186.461C98.5038 185.252 95.9921 182.081 95.2517 181.211C94.0477 179.776 93.5145 179.28 92.5399 178.166C92.5096 178.132 92.484 178.095 92.4627 178.055C92.3191 177.781 92.4243 177.442 92.6983 177.298L95.7409 175.702C95.8783 175.629 96.0485 175.662 96.149 175.781L98.8863 179.03C99.0371 179.206 99.1172 179.433 99.1105 179.665Z" fill="#003CFF"/>
<path d="M100.229 180.752C100.254 180.734 100.277 180.714 100.299 180.692C100.384 180.62 100.421 180.505 100.395 180.397C100.291 179.941 99.0201 179.526 98.7642 179.429C98.7239 179.417 98.6803 179.429 98.6514 179.46C98.6296 179.496 98.6291 179.541 98.6509 179.577C98.8713 180.011 99.3216 180.776 99.816 180.86C99.9629 180.884 100.113 180.844 100.229 180.752ZM98.9547 179.716C99.5012 179.921 100.139 180.231 100.19 180.444C100.19 180.444 100.19 180.496 100.151 180.539C100.072 180.626 99.9549 180.668 99.8383 180.651C99.5823 180.608 99.2661 180.264 98.9547 179.716Z" fill="#003CFF"/>
<path d="M100.453 179.537C100.477 179.519 100.498 179.499 100.518 179.476C100.612 179.363 100.612 179.2 100.519 179.086C100.441 178.966 100.317 178.884 100.176 178.859C99.6124 178.758 98.7123 179.394 98.6729 179.42C98.6421 179.444 98.626 179.482 98.6293 179.52C98.6345 179.56 98.6616 179.593 98.6985 179.608C99.0844 179.76 100.1 179.805 100.453 179.537ZM98.9853 179.469C99.319 179.224 99.7191 179.086 100.132 179.072C100.215 179.085 100.289 179.132 100.336 179.202C100.393 179.289 100.367 179.324 100.336 179.341C100.21 179.523 99.4541 179.561 98.9853 179.469Z" fill="#003CFF"/>
<path d="M80.7536 114.798C74.685 121.949 72.032 131.298 69.4146 140.304C66.7976 149.31 63.8579 158.632 57.4062 165.439C59.5933 169.492 63.0473 172.647 67.2972 174.423C77.3033 178.607 91.8229 175.663 91.8229 175.663C98.4238 175.456 110.132 157.026 110.491 150.472C111.417 133.569 95.8434 118.499 95.7946 117.943C90.9057 116.807 85.696 115.675 80.7536 114.798Z" fill="#263238"/>
<path d="M99.9696 93.3086C99.305 94.3107 97.9162 94.67 96.7563 94.3382C95.5964 94.0116 94.6759 93.102 94.0607 92.0672C93.489 91.087 93.0587 90.003 92.7373 88.9137C92.7103 88.8431 92.6937 88.7777 92.6719 88.7066C92.8245 88.7066 92.9657 88.6359 93.0696 88.5212C93.3089 88.8042 93.6194 88.9896 94.001 89.1095C95.7875 89.6489 97.6991 90.2314 99.5506 90.0954C99.725 90.2641 99.9155 90.4111 100.117 90.5419C100.144 90.5637 100.172 90.5855 100.199 90.6016C100.291 91.4894 100.46 92.5626 99.9696 93.3086Z" fill="#003CFF"/>
<path opacity="0.2" d="M100.339 89.9924C100.078 90.0469 99.8159 90.0796 99.5491 90.0957C99.7235 90.2645 99.914 90.4114 100.115 90.5422C99.8595 90.5967 99.6244 90.729 99.3671 90.7797C97.9631 91.0556 95.348 90.8233 93.7539 89.854C92.823 89.288 92.5452 88.5543 92.5234 88.4837C92.5234 88.4837 92.9647 88.6363 93.0681 88.5221C92.9752 88.413 92.8936 88.2879 92.823 88.1462C92.9045 87.9447 92.9865 87.7376 93.0681 87.5361C94.2388 87.9883 95.3717 88.4946 96.6079 88.7453C97.8389 88.9904 99.1348 89.034 100.338 88.6799C100.371 88.9193 100.344 89.5293 100.339 89.9924Z" fill="black"/>
<path d="M100.557 89.5241C100.557 89.7725 100.373 89.981 100.127 90.0161C99.9153 90.046 99.6816 90.0787 99.5503 90.0957C97.7022 90.3394 94.7875 89.5696 93.8196 89.1008C93.4598 88.9264 93.3086 88.805 93.0693 88.5216C92.9764 88.4126 92.8948 88.2874 92.8242 88.1457C92.8242 87.8788 92.928 87.4906 93.0626 87.2366C93.148 87.0764 93.339 87.0053 93.5082 87.0716C94.6012 87.5001 95.6687 87.9599 96.8267 88.1945C97.8624 88.4007 98.9445 88.4642 99.9788 88.2685C100.29 88.2097 100.574 88.4538 100.569 88.77C100.565 89.0207 100.558 89.2942 100.557 89.5241Z" fill="#003CFF"/>
<path d="M85.4733 79.3543C86.5587 80.1553 84.1271 82.4969 84.4257 83.5302C84.6343 84.2412 85.3737 83.6297 85.3737 83.6297C85.3737 83.6297 85.1652 85.8386 83.5204 84.7484C81.0888 83.132 83.9328 78.2024 85.4733 79.3543Z" fill="#263238"/>
<path d="M68.2139 76.0066C67.0369 76.0066 65.8647 76.0047 64.6973 76.0004L64.6987 75.6449C70.5768 75.6662 76.5942 75.634 82.5794 75.552L82.5846 75.9075C77.7854 75.9734 72.9662 76.0066 68.2139 76.0066Z" fill="#003CFF"/>
<path d="M61.803 75.9862C59.2766 75.9701 56.6947 75.9435 54.1289 75.9075L54.1341 75.552C56.6989 75.588 59.2799 75.6146 61.8053 75.6307L61.803 75.9862Z" fill="#003CFF"/>
<path d="M51.5521 75.552H48.6777V75.9075H51.5521V75.552Z" fill="#003CFF"/>
<path d="M68.1257 133.443H50.0938V133.798H68.1257V133.443Z" fill="#003CFF"/>
<path d="M48.1496 133.443H46.6816V133.798H48.1496V133.443Z" fill="#003CFF"/>
<path d="M81.0929 102.724H72.8984V103.079H81.0929V102.724Z" fill="#003CFF"/>
<path d="M70.8096 102.724H66.1914V103.079H70.8096V102.724Z" fill="#003CFF"/>
</svg>
