<svg width="20" height="21" viewBox="0 0 20 21" fill="none" xmlns="http://www.w3.org/2000/svg">
<g clip-path="url(#clip0_59957_26105)">
<path d="M7.6725 13.8793C7.6725 15.0502 6.74583 16.0002 5.60333 16.0002C4.46083 16.0002 3.53417 15.0502 3.53417 13.8785M7.6725 13.8793C7.6725 12.7085 6.74583 11.7577 5.60333 11.7577C4.46083 11.7577 3.53417 12.7077 3.53417 13.8785M7.6725 13.8793L12.3275 13.8785M3.53417 13.8785H2.5V5.16683C2.5 4.94582 2.5878 4.73385 2.74408 4.57757C2.90036 4.42129 3.11232 4.3335 3.33333 4.3335H11.4942C11.7152 4.3335 11.9271 4.42129 12.0834 4.57757C12.2397 4.73385 12.3275 4.94582 12.3275 5.16683V6.98516M12.3275 13.8785H12.845M12.3275 13.8785V6.98516M12.3275 6.98516H14.2117C14.4339 6.98519 14.6539 7.02966 14.8587 7.11595C15.0635 7.20225 15.2489 7.32863 15.4042 7.48766L17.5 9.63683V13.8785H16.9825M16.9825 13.8785C16.9825 15.0502 16.0567 16.0002 14.9142 16.0002C13.7717 16.0002 12.845 15.0502 12.845 13.8785M16.9825 13.8785C16.9825 12.7077 16.0567 11.7577 14.9142 11.7577C13.7717 11.7577 12.845 12.7077 12.845 13.8785" stroke="#003CFF" stroke-width="1.25" stroke-linecap="round" stroke-linejoin="round"/>
</g>
<defs>
<clipPath id="clip0_59957_26105">
<rect width="20" height="20" fill="white" transform="translate(0 0.166748)"/>
</clipPath>
</defs>
</svg>
