<svg width="16" height="19" viewBox="0 0 16 19" fill="none" xmlns="http://www.w3.org/2000/svg">
<path fill-rule="evenodd" clip-rule="evenodd" d="M15.2923 16C15.2923 16.6075 15.0507 17.1908 14.6215 17.6208C14.1913 18.0502 13.6084 18.2914 13.0007 18.2917H3.00065C2.39315 18.2917 1.80982 18.05 1.37982 17.6208C0.95048 17.1906 0.70924 16.6078 0.708984 16V2.66667C0.708984 2.05917 0.950651 1.47583 1.37982 1.04583C1.81 0.616496 2.39288 0.375255 3.00065 0.375H10.1557C10.5423 0.375 10.9132 0.528333 11.1865 0.8025L14.8648 4.48083C15.139 4.75417 15.2923 5.125 15.2923 5.51167V16ZM14.0423 16V5.51167C14.0424 5.48429 14.037 5.45717 14.0266 5.43186C14.0161 5.40655 14.0008 5.38355 13.9815 5.36417L10.3032 1.68583C10.2838 1.6665 10.2608 1.65118 10.2355 1.64074C10.2101 1.6303 10.183 1.62495 10.1557 1.625H3.00065C2.72452 1.62544 2.45982 1.73533 2.26457 1.93058C2.06931 2.12584 1.95943 2.39053 1.95898 2.66667V16C1.95943 16.2761 2.06931 16.5408 2.26457 16.7361C2.45982 16.9313 2.72452 17.0412 3.00065 17.0417H13.0007C13.2768 17.0412 13.5415 16.9313 13.7367 16.7361C13.932 16.5408 14.0419 16.2761 14.0423 16Z" fill="#003CFF"/>
<path fill-rule="evenodd" clip-rule="evenodd" d="M9.8763 1.41675C9.8763 1.25099 9.94215 1.09202 10.0594 0.974806C10.1766 0.857596 10.3355 0.791748 10.5013 0.791748C10.6671 0.791748 10.826 0.857596 10.9432 0.974806C11.0605 1.09202 11.1263 1.25099 11.1263 1.41675V4.33341C11.1263 4.44841 11.2196 4.54175 11.3346 4.54175H14.2513C14.4171 4.54175 14.576 4.6076 14.6932 4.72481C14.8105 4.84202 14.8763 5.00099 14.8763 5.16675C14.8763 5.33251 14.8105 5.49148 14.6932 5.60869C14.576 5.7259 14.4171 5.79175 14.2513 5.79175H11.3346C10.9479 5.79175 10.5769 5.6381 10.3034 5.36461C10.0299 5.09112 9.8763 4.72019 9.8763 4.33341V1.41675ZM4.66797 8.70841C4.50221 8.70841 4.34324 8.64257 4.22603 8.52536C4.10882 8.40815 4.04297 8.24918 4.04297 8.08341C4.04297 7.91765 4.10882 7.75868 4.22603 7.64147C4.34324 7.52426 4.50221 7.45841 4.66797 7.45841H11.3346C11.5004 7.45841 11.6594 7.52426 11.7766 7.64147C11.8938 7.75868 11.9596 7.91765 11.9596 8.08341C11.9596 8.24918 11.8938 8.40815 11.7766 8.52536C11.6594 8.64257 11.5004 8.70841 11.3346 8.70841H4.66797ZM4.66797 11.6251C4.50221 11.6251 4.34324 11.5592 4.22603 11.442C4.10882 11.3248 4.04297 11.1658 4.04297 11.0001C4.04297 10.8343 4.10882 10.6754 4.22603 10.5581C4.34324 10.4409 4.50221 10.3751 4.66797 10.3751H11.3346C11.5004 10.3751 11.6594 10.4409 11.7766 10.5581C11.8938 10.6754 11.9596 10.8343 11.9596 11.0001C11.9596 11.1658 11.8938 11.3248 11.7766 11.442C11.6594 11.5592 11.5004 11.6251 11.3346 11.6251H4.66797ZM4.66797 14.5417C4.50221 14.5417 4.34324 14.4759 4.22603 14.3587C4.10882 14.2415 4.04297 14.0825 4.04297 13.9167C4.04297 13.751 4.10882 13.592 4.22603 13.4748C4.34324 13.3576 4.50221 13.2917 4.66797 13.2917H8.41797C8.58373 13.2917 8.7427 13.3576 8.85991 13.4748C8.97712 13.592 9.04297 13.751 9.04297 13.9167C9.04297 14.0825 8.97712 14.2415 8.85991 14.3587C8.7427 14.4759 8.58373 14.5417 8.41797 14.5417H4.66797Z" fill="#003CFF"/>
</svg>
