<svg width="30" height="32" viewBox="0 0 30 32" fill="none" xmlns="http://www.w3.org/2000/svg">
<path d="M4.16177 20.6451H3.12945C1.7042 20.6451 0.548828 19.4897 0.548828 18.0645C0.548828 17.2094 1.24208 16.5161 2.0972 16.5161H4.1617L4.16177 20.6451Z" fill="#BD4150"/>
<path d="M23.7749 0H4.67811L4.14648 1.03225V31.5H28.42L29.4523 30.9678V5.67744L23.7749 0Z" fill="#ECEAEC"/>
<path d="M4.67873 29.4194V0C4.10867 0 3.64648 0.462125 3.64648 1.03225V30.9678C3.64648 31.5379 4.10867 32 4.67873 32H28.4207C28.9907 32 29.4529 31.5378 29.4529 30.9678H6.22711C5.37192 30.9678 4.67873 30.2745 4.67873 29.4194ZM29.4529 5.58881C29.4529 5.31506 29.3442 5.0525 29.1505 4.85887L24.5938 0.302312C24.4002 0.108747 24.1377 2.50584e-06 23.8639 0L23.7755 0V5.16131C23.7755 5.2982 23.8299 5.42948 23.9267 5.52627C24.0234 5.62306 24.1547 5.67744 24.2916 5.67744H29.4529V5.58881Z" fill="#DAD8DB"/>
<path d="M18.0974 19.6128H2.09742C1.91642 19.6128 1.74261 19.5818 1.58111 19.5247L1.08398 20.3541V26.8749C1.08398 27.7301 1.77723 28.4233 2.63236 28.4233H18.0974L19.1297 27.8708V20.6451C19.1297 20.075 18.6675 19.6128 18.0974 19.6128Z" fill="#E15F78"/>
<path d="M1.58108 19.5247C0.981078 19.3114 0.548828 18.7377 0.548828 18.0645V27.3548C0.548828 28.2099 1.24208 28.9031 2.0972 28.9031H18.0972C18.6673 28.9031 19.1295 28.441 19.1295 27.8709H3.12945C2.27433 27.8709 1.58108 27.1776 1.58108 26.3225V19.5247Z" fill="#DB4655"/>
<path d="M15.2786 23.7032H14.2655V22.7249H15.4107C15.696 22.7249 15.9268 22.4937 15.9268 22.2087C15.9268 21.9237 15.6959 21.6926 15.4107 21.6926H13.7494C13.6816 21.6926 13.6145 21.7059 13.5518 21.7319C13.4892 21.7578 13.4323 21.7958 13.3844 21.8437C13.3364 21.8917 13.2984 21.9486 13.2725 22.0112C13.2466 22.0738 13.2332 22.141 13.2332 22.2087V26.3076C13.2332 26.5926 13.4641 26.8237 13.7494 26.8237C14.0346 26.8237 14.2655 26.5926 14.2655 26.3076V24.7355H15.2786C15.5639 24.7355 15.7947 24.5044 15.7947 24.2194C15.7947 23.9344 15.5639 23.7032 15.2786 23.7032ZM5.81236 21.6775H4.66267C4.59478 21.6775 4.52756 21.6909 4.46485 21.717C4.40215 21.743 4.34519 21.7811 4.29723 21.8292C4.20093 21.926 4.14687 22.057 4.14686 22.1936H4.14648V26.3227C4.14648 26.6077 4.37736 26.8388 4.66261 26.8388C4.94786 26.8388 5.17873 26.6077 5.17873 26.3227V25.0426C5.4103 25.0413 5.66486 25.0402 5.8123 25.0402C6.7518 25.0402 7.51642 24.2859 7.51642 23.359C7.51648 22.4317 6.75186 21.6775 5.81236 21.6775ZM5.81236 24.0079C5.60286 24.0081 5.39336 24.0089 5.18386 24.0101C5.18286 23.772 5.18036 22.7097 5.18036 22.7097H5.81242C6.17686 22.7097 6.4843 23.0071 6.4843 23.3589C6.4843 23.7107 6.1768 24.0079 5.81236 24.0079ZM10.1405 21.7385H9.00592C8.93805 21.7385 8.87083 21.7518 8.80812 21.7778C8.74542 21.8038 8.68845 21.8419 8.64048 21.8899C8.59252 21.938 8.55452 21.995 8.52866 22.0577C8.50281 22.1205 8.4896 22.1877 8.4898 22.2556L8.4928 24.2536C8.4928 24.8108 8.49786 26.2634 8.49786 26.2634C8.49813 26.3313 8.51175 26.3984 8.53796 26.461C8.56417 26.5235 8.60245 26.5803 8.65061 26.6281C8.74726 26.724 8.8779 26.7778 9.01405 26.7778H9.01605C9.01605 26.7778 9.8573 26.7746 10.1829 26.769C11.395 26.7476 12.2751 25.6916 12.2751 24.2582C12.275 22.7511 11.4172 21.7385 10.1405 21.7385ZM10.1647 25.7367C10.017 25.7392 9.76142 25.7415 9.52861 25.7427C9.52711 25.2702 9.52511 24.5943 9.52511 24.2536L9.52311 22.7707H10.1405C11.1899 22.7707 11.2429 24.0096 11.2429 24.2581C11.2428 24.9847 10.9096 25.7236 10.1647 25.7367Z" fill="white"/>
<path d="M11.3708 17.4602C10.9726 17.4602 10.6127 17.253 10.3597 16.8621C9.9837 16.282 10.0825 15.625 10.6304 15.0595C11.1828 14.4889 12.3133 13.9521 13.6738 13.5138C14.0981 12.714 14.5301 11.7777 14.9338 10.7426C15.1723 10.131 15.3648 9.57958 15.519 9.08639C14.8391 7.83989 14.4348 6.67939 14.5422 5.92583C14.6516 5.1612 15.2226 4.73076 16.0715 4.77764C16.3235 4.79126 16.9248 4.92283 17.07 5.8487C17.1808 6.55664 16.9943 7.70101 16.6203 9.00145C17.328 10.1953 18.2983 11.474 19.2473 12.4553C20.6818 12.3679 21.8975 12.4725 22.5089 12.8414C22.9877 13.1302 23.1757 13.6012 23.0119 14.101C22.7438 14.9178 22.0961 15.292 21.2775 15.1012C20.5885 14.9404 19.7347 14.3388 18.8688 13.5037C17.4761 13.6262 15.837 13.9097 14.399 14.3326C13.5406 15.8731 12.6127 17.0725 11.8335 17.3704C11.6763 17.4307 11.521 17.4602 11.3708 17.4602ZM11.2256 16.3012C11.3118 16.4338 11.3592 16.431 11.3814 16.4285C11.71 16.395 12.2574 15.8276 12.8824 14.8687C12.4691 15.0459 12.0986 15.2379 11.7871 15.4441C11.0059 15.9615 11.1717 16.217 11.2256 16.3012ZM20.3184 13.4355C20.7594 13.7803 21.1692 14.0159 21.512 14.0961C21.7796 14.1583 21.9172 14.1266 22.0311 13.7795C21.8789 13.5486 21.2312 13.4378 20.3184 13.4355ZM16.2191 10.253C15.8737 11.2335 15.4742 12.194 15.0225 13.1303C15.9898 12.8873 17.0094 12.696 17.9832 12.5746C17.3536 11.8611 16.7453 11.0598 16.2191 10.253ZM15.9706 5.78883C15.6041 5.78883 15.585 5.9262 15.5638 6.07133C15.5099 6.45264 15.644 6.99495 15.9086 7.6202C16.142 6.50601 16.0946 5.91658 15.9811 5.78883H15.9706Z" fill="#E15F78"/>
</svg>
