<svg width="201" height="135" viewBox="0 0 201 135" fill="none" xmlns="http://www.w3.org/2000/svg">
<g clip-path="url(#clip0_63871_2065)">
<path d="M58.9282 33.134L28.8574 53.2488L58.4756 97.5269L88.5464 77.4121L58.9282 33.134Z" fill="#F5F5F5"/>
<path d="M73.0087 75.3162L72.6673 77.4283L57.7188 75.275L58.0599 73.1628L73.0087 75.3162Z" fill="#E0E0E0"/>
<path d="M65.4803 67.782L67.6254 68.0913L65.2471 82.809L63.1018 82.5003L65.4803 67.782Z" fill="#E0E0E0"/>
<path d="M51.7113 49.0751C51.7327 49.1072 48.719 51.1604 44.9812 53.6606C41.2421 56.1615 38.1944 58.1624 38.173 58.1303C38.1515 58.0984 41.1644 56.0455 44.9038 53.5445C48.6416 51.0443 51.6898 49.0432 51.7113 49.0751Z" fill="#E0E0E0"/>
<path d="M62.7693 46.2993C62.7907 46.3315 57.7794 49.7209 51.5779 53.8687C45.374 58.0181 40.3291 61.355 40.3077 61.3228C40.2862 61.291 45.2965 57.9021 51.5002 53.7526C57.7017 49.6048 62.7479 46.2674 62.7693 46.2993Z" fill="#E0E0E0"/>
<path d="M64.9861 49.6133C65.0075 49.6454 59.9962 53.0348 53.7947 57.1827C47.5908 61.3321 42.5459 64.669 42.5245 64.6368C42.503 64.6046 47.5133 61.2161 53.717 57.0666C59.9188 52.9188 64.9647 49.5814 64.9861 49.6133Z" fill="#E0E0E0"/>
<path d="M67.2029 52.9277C67.2243 52.9599 62.213 56.3493 56.0115 60.4971C49.8075 64.6466 44.7627 67.9834 44.7413 67.9513C44.7198 67.9194 49.7301 64.5305 55.9338 60.3811C62.1356 56.233 67.1815 52.8956 67.2029 52.9277Z" fill="#E0E0E0"/>
<path d="M69.4197 56.2417C69.4411 56.2738 64.4298 59.663 58.2283 63.8111C52.0243 67.9605 46.9795 71.2974 46.9581 71.2652C46.9366 71.2331 51.9469 67.8445 58.1506 63.695C64.3521 59.5472 69.3983 56.2098 69.4197 56.2417Z" fill="#E0E0E0"/>
<path d="M159.481 62.8049L134.227 79.6978L159.101 116.884L184.355 99.9909L159.481 62.8049Z" fill="#F5F5F5"/>
<path d="M171.305 98.2357L171.018 100.009L158.464 98.2006L158.751 96.427L171.305 98.2357Z" fill="#E0E0E0"/>
<path d="M164.983 91.908L166.784 92.1676L164.787 104.528L162.985 104.269L164.983 91.908Z" fill="#E0E0E0"/>
<path d="M153.419 76.1975C153.441 76.2296 150.913 77.958 147.773 80.0577C144.633 82.1581 142.071 83.8344 142.049 83.8022C142.028 83.7701 144.555 82.042 147.696 79.9417C150.835 77.8422 153.398 76.1656 153.419 76.1975Z" fill="#E0E0E0"/>
<path d="M162.707 73.8662C162.728 73.8984 158.522 76.7488 153.314 80.2326C148.104 83.7174 143.864 86.5156 143.843 86.4834C143.821 86.4513 148.026 83.6013 153.237 80.1165C158.445 76.6331 162.685 73.8343 162.707 73.8662Z" fill="#E0E0E0"/>
<path d="M164.568 76.6497C164.59 76.6818 160.384 79.5326 155.176 83.016C149.965 86.5008 145.726 89.299 145.704 89.2669C145.683 89.2347 149.888 86.3848 155.098 82.9C160.306 79.4163 164.547 76.6175 164.568 76.6497Z" fill="#E0E0E0"/>
<path d="M166.429 79.4326C166.451 79.4648 162.245 82.3153 157.037 85.799C151.826 89.2838 147.587 92.082 147.566 92.0498C147.544 92.0179 151.749 89.1677 156.959 85.6829C162.167 82.1995 166.408 79.4008 166.429 79.4326Z" fill="#E0E0E0"/>
<path d="M168.292 82.2161C168.313 82.2483 164.107 85.0987 158.899 88.5824C153.689 92.0672 149.449 94.8654 149.428 94.8333C149.406 94.8014 153.611 91.9512 158.821 88.4664C164.03 84.9829 168.27 82.1839 168.292 82.2161Z" fill="#E0E0E0"/>
<path d="M119.526 34.7594L91.9707 20.0225L70.2711 60.5964L97.8263 75.3333L119.526 34.7594Z" fill="#F5F5F5"/>
<path d="M93.1095 62.6419L91.3614 63.2407L86.9238 50.9732L88.6723 50.3745L93.1095 62.6419Z" fill="#E0E0E0"/>
<path d="M95.7895 53.8411L96.4265 55.6016L84.2432 59.774L83.6064 58.0136L95.7895 53.8411Z" fill="#E0E0E0"/>
<path d="M104.446 35.7416C104.424 35.7821 101.629 34.3293 98.2042 32.4975C94.7778 30.6649 92.0185 29.1472 92.0402 29.1068C92.0619 29.0666 94.856 30.5189 98.2824 32.3512C101.708 34.1832 104.468 35.7014 104.446 35.7416Z" fill="#E0E0E0"/>
<path d="M111.058 43.0403C111.036 43.0808 106.411 40.6489 100.728 37.6098C95.0435 34.5694 90.454 32.0729 90.4757 32.0325C90.4974 31.9923 95.1217 34.4233 100.807 37.4638C106.489 40.5029 111.08 42.9998 111.058 43.0403Z" fill="#E0E0E0"/>
<path d="M109.434 46.0772C109.412 46.1177 104.787 43.6858 99.1043 40.6464C93.4194 37.606 88.8299 35.1096 88.8516 35.0691C88.8733 35.0289 93.4977 37.4599 99.1825 40.5004C104.865 43.5395 109.455 46.0367 109.434 46.0772Z" fill="#E0E0E0"/>
<path d="M107.81 49.1141C107.788 49.1545 103.163 46.7227 97.4802 43.6833C91.7954 40.6431 87.2059 38.1464 87.2276 38.106C87.2491 38.0655 91.8737 40.4968 97.5585 43.5373C103.241 46.5766 107.832 49.0739 107.81 49.1141Z" fill="#E0E0E0"/>
<path d="M106.186 52.1509C106.164 52.1914 101.539 49.7596 95.8562 46.7202C90.1714 43.68 85.5819 41.1833 85.6036 41.1428C85.6253 41.1026 90.2496 43.5337 95.9345 46.5741C101.617 49.6135 106.207 52.1107 106.186 52.1509Z" fill="#E0E0E0"/>
<path opacity="0.2" d="M106.33 0.367432H105.638V12.1549H106.33V0.367432Z" fill="black"/>
<path d="M89.8428 26.4142H122.126C122.126 26.4142 119.146 12.1477 105.74 12.1477C93.8159 12.1474 89.8428 26.4142 89.8428 26.4142Z" fill="#7098AD"/>
<path d="M106.331 0.367432H105.639V12.1549H106.331V0.367432Z" fill="#7098AD"/>
<path d="M177.863 118.241C177.863 118.28 143.223 118.311 100.504 118.311C57.7692 118.311 23.1375 118.28 23.1375 118.241C23.1375 118.203 57.7692 118.172 100.504 118.172C143.223 118.172 177.863 118.203 177.863 118.241Z" fill="#263238"/>
<path d="M31.7007 101.457C32.6068 101.489 33.4574 101.981 34.0551 102.663C34.6527 103.345 35.0191 104.202 35.2536 105.078C35.707 106.773 35.4283 108.773 34.9451 110.459C33.1104 109.803 31.9791 107.847 31.4675 106.818C30.6587 105.192 30.1846 101.763 31.7007 101.457Z" fill="#7098AD"/>
<path d="M37.5841 112.513C37.0052 111.682 36.9916 110.526 37.4493 109.622C37.9068 108.719 38.7861 108.067 39.7544 107.77C40.2022 107.632 40.7216 107.574 41.111 107.835C41.4752 108.078 41.6325 108.555 41.5853 108.99C41.5384 109.426 41.3179 109.824 41.0577 110.176C40.1655 111.384 39.0804 112.389 37.5841 112.513Z" fill="#7098AD"/>
<path d="M37.7864 118.176C37.7775 118.177 37.7497 118.051 37.7044 117.824C37.6553 117.572 37.5918 117.248 37.5157 116.858C37.371 116.046 37.1413 114.891 37.315 113.614C37.4819 112.343 37.9879 111.257 38.5183 110.608C38.7793 110.279 39.0294 110.047 39.2143 109.904C39.3038 109.829 39.3826 109.783 39.4327 109.747C39.4839 109.714 39.512 109.698 39.5147 109.701C39.5348 109.724 39.0859 110.001 38.5898 110.662C38.0873 111.313 37.6057 112.381 37.4412 113.631C37.2702 114.882 37.4819 116.026 37.6044 116.843C37.6701 117.253 37.7228 117.585 37.7534 117.816C37.7837 118.046 37.7949 118.175 37.7864 118.176Z" fill="#263238"/>
<path d="M32.2926 104.037C32.2966 104.035 32.322 104.083 32.3665 104.175C32.4153 104.281 32.478 104.416 32.5555 104.584C32.7176 104.94 32.9454 105.457 33.2217 106.099C33.7746 107.382 34.5132 109.166 35.2845 111.154C36.0555 113.143 36.7127 114.959 37.1696 116.28C37.3985 116.94 37.5789 117.476 37.6989 117.848C37.7547 118.024 37.7997 118.166 37.8345 118.277C37.8643 118.375 37.8777 118.428 37.8737 118.429C37.8694 118.431 37.8479 118.381 37.8104 118.285C37.7697 118.176 37.7171 118.037 37.6523 117.864C37.5129 117.482 37.3205 116.955 37.0849 116.31C36.6063 114.998 35.9363 113.188 35.1658 111.2C34.395 109.214 33.6698 107.426 33.1386 106.134C32.8776 105.499 32.6643 104.98 32.5096 104.603C32.441 104.432 32.3856 104.294 32.3424 104.186C32.306 104.09 32.2885 104.039 32.2926 104.037Z" fill="#263238"/>
<path d="M35.6086 114.429C34.5267 112.588 32.5065 111.333 30.3767 111.179C29.8343 111.139 29.182 111.231 28.9402 111.718C28.698 112.206 29.022 112.783 29.3915 113.183C30.9288 114.848 33.5295 115.429 35.629 114.575" fill="#7098AD"/>
<path d="M31.2031 112.631C31.2037 112.622 31.3243 112.627 31.5427 112.643C31.652 112.651 31.7858 112.66 31.9388 112.689C32.0916 112.717 32.2692 112.734 32.4584 112.787C32.649 112.833 32.8591 112.88 33.0767 112.959C33.2986 113.024 33.5264 113.119 33.7658 113.22C34.2385 113.435 34.7399 113.716 35.2175 114.081C35.6916 114.451 36.092 114.864 36.4176 115.269C36.5741 115.476 36.7237 115.673 36.8402 115.873C36.9692 116.065 37.0648 116.258 37.1546 116.433C37.2508 116.604 37.3076 116.773 37.3706 116.916C37.4341 117.058 37.4738 117.186 37.5054 117.291C37.5706 117.5 37.6022 117.617 37.5939 117.619C37.5668 117.628 37.4363 117.16 37.075 116.474C36.9812 116.304 36.8823 116.117 36.7515 115.93C36.6331 115.735 36.4825 115.544 36.3262 115.342C36.0009 114.948 35.6056 114.545 35.1401 114.182C34.6711 113.823 34.1803 113.544 33.7175 113.327C33.4833 113.225 33.2603 113.127 33.043 113.059C32.8302 112.977 32.6238 112.926 32.437 112.874C31.6853 112.684 31.2002 112.658 31.2031 112.631Z" fill="#263238"/>
<path d="M152.857 28.6347C152.069 28.8162 151.685 29.7228 151.611 30.5282C151.536 31.3332 151.639 32.1836 151.301 32.9182C150.92 33.745 150.011 34.3544 149.981 35.2643C149.962 35.8187 150.292 36.3403 150.276 36.895C150.25 37.806 149.321 38.4945 149.272 39.4046C149.237 40.0598 149.673 40.6888 149.569 41.3366C149.487 41.8407 149.094 42.2379 148.929 42.7208C148.598 43.6837 149.259 44.7437 150.121 45.2856C151.081 45.8896 152.311 46.0454 153.391 45.7002C154.472 45.355 155.383 44.5148 155.815 43.4661C156.292 42.3086 156.188 41.0053 156.084 39.7581C155.761 35.8705 155.521 31.9762 155.364 28.0784" fill="#263238"/>
<path d="M150.569 42.3535C150.552 42.3382 150.785 42.2691 150.929 41.9252C150.999 41.7572 151.035 41.531 151.021 41.271C151.012 41.0095 150.923 40.7246 150.826 40.4032C150.736 40.0849 150.619 39.7153 150.686 39.3044C150.753 38.8872 151.052 38.5444 151.324 38.2078C151.462 38.0371 151.599 37.8596 151.686 37.6578C151.778 37.4582 151.797 37.2296 151.728 37.0152C151.59 36.5773 151.161 36.2551 150.964 35.7497C150.866 35.4964 150.865 35.2182 150.921 34.9677C150.974 34.7147 151.076 34.485 151.179 34.2663C151.389 33.83 151.62 33.4299 151.712 33.0051C151.9 32.155 151.812 31.3435 151.94 30.677C152.056 30.0091 152.338 29.5072 152.618 29.2491C152.754 29.1156 152.886 29.0446 152.972 28.9966C153.064 28.9572 153.112 28.939 153.114 28.9436C153.123 28.9586 152.915 29.0223 152.656 29.2874C152.398 29.5487 152.139 30.0397 152.037 30.6933C151.984 31.0184 151.976 31.384 151.963 31.7763C151.949 32.1684 151.937 32.5943 151.837 33.0343C151.744 33.4803 151.506 33.8962 151.303 34.3247C151.101 34.7458 150.916 35.2394 151.094 35.7009C151.264 36.157 151.696 36.4811 151.858 36.9739C151.938 37.2191 151.912 37.4909 151.808 37.7106C151.71 37.9342 151.564 38.1169 151.424 38.2884C151.144 38.6272 150.863 38.9493 150.799 39.3245C150.732 39.6976 150.836 40.0575 150.92 40.3762C151.01 40.6948 151.097 40.995 151.099 41.2675C151.106 41.5377 151.06 41.773 150.979 41.9469C150.898 42.1219 150.787 42.2302 150.704 42.2851C150.622 42.3417 150.569 42.3535 150.569 42.3535Z" fill="#455A64"/>
<path d="M148.459 48.7056L146.04 55.6795L135.952 56.2203L134.27 59.9637L144.802 61.0293C146.902 61.8976 149.302 60.8334 150.068 58.6939L152.879 50.8482L148.459 48.7056Z" fill="#B78876"/>
<path d="M169.327 114.454C169.327 114.454 161.933 90.9729 161.777 90.2105C161.635 89.5214 164.46 72.6232 164.816 68.25L154.826 68.6225C154.826 68.6225 154.826 68.6493 154.825 68.6954L150.579 68.931L154.382 116.955H158.979L158.523 101.022C161.358 108.632 165.42 116.388 165.42 116.388L169.327 114.454Z" fill="#B78876"/>
<path d="M158.711 106.732C158.715 106.586 158.655 101.394 158.655 101.394C158.598 101.704 156.893 96.8852 156.934 96.5922C156.956 96.4405 158.711 106.732 158.711 106.732Z" fill="#A36957"/>
<path d="M156.739 94.3108C156.729 94.3105 156.719 94.414 156.71 94.6018C156.7 94.7894 156.698 95.0617 156.716 95.3981C156.723 95.5664 156.74 95.7502 156.762 95.9472C156.787 96.1436 156.814 96.3543 156.859 96.5727C156.943 97.0109 157.071 97.4853 157.235 97.9717C157.569 98.9429 157.937 99.7927 158.199 100.409C158.323 100.691 158.429 100.932 158.519 101.135C158.597 101.306 158.645 101.398 158.655 101.394C158.665 101.39 158.636 101.29 158.574 101.113C158.512 100.936 158.419 100.682 158.299 100.369C158.063 99.7421 157.711 98.8858 157.38 97.9232C157.218 97.4413 157.087 96.9752 156.998 96.5451C156.949 96.3307 156.918 96.1241 156.888 95.9308C156.861 95.7371 156.837 95.5565 156.824 95.3903C156.793 95.0588 156.778 94.7886 156.77 94.6018C156.76 94.4145 156.75 94.3108 156.739 94.3108Z" fill="#A36957"/>
<path d="M154.297 117.191L154.295 116.76L159.004 116.554L159.016 118.335L158.726 118.355C157.433 118.43 152.149 118.649 151.284 118.389C150.319 118.1 154.297 117.191 154.297 117.191Z" fill="#455A64"/>
<path d="M159.081 118.228C159.081 118.229 159.054 118.233 159.001 118.237C158.931 118.241 158.855 118.246 158.77 118.251C158.538 118.262 158.254 118.276 157.918 118.291C157.199 118.319 156.205 118.346 155.107 118.351C154.009 118.355 153.014 118.338 152.295 118.316C151.959 118.303 151.675 118.292 151.444 118.283C151.358 118.278 151.282 118.274 151.212 118.27C151.159 118.267 151.132 118.264 151.132 118.262C151.132 118.26 151.16 118.259 151.213 118.259C151.282 118.259 151.359 118.26 151.445 118.261C151.676 118.265 151.961 118.27 152.296 118.275C153.016 118.287 154.009 118.298 155.107 118.293C156.205 118.289 157.198 118.269 157.917 118.251C158.253 118.242 158.537 118.235 158.769 118.229C158.855 118.227 158.931 118.226 159.001 118.225C159.053 118.225 159.081 118.226 159.081 118.228Z" fill="#263238"/>
<path d="M152.77 118.379C152.753 118.381 152.739 118.178 152.61 117.974C152.484 117.766 152.309 117.663 152.319 117.649C152.322 117.634 152.523 117.722 152.658 117.944C152.796 118.164 152.785 118.383 152.77 118.379Z" fill="#263238"/>
<path d="M154.15 117.673C154.137 117.681 154.071 117.601 154.002 117.494C153.933 117.386 153.889 117.292 153.902 117.284C153.915 117.275 153.981 117.356 154.05 117.463C154.119 117.571 154.164 117.665 154.15 117.673Z" fill="#263238"/>
<path d="M154.529 117.471C154.519 117.483 154.445 117.434 154.363 117.361C154.282 117.289 154.225 117.221 154.236 117.21C154.246 117.198 154.32 117.247 154.401 117.319C154.482 117.391 154.539 117.46 154.529 117.471Z" fill="#263238"/>
<path d="M154.767 117.028C154.767 117.044 154.658 117.058 154.523 117.06C154.387 117.062 154.278 117.051 154.277 117.036C154.277 117.02 154.386 117.006 154.522 117.003C154.657 117.002 154.767 117.012 154.767 117.028Z" fill="#263238"/>
<path d="M154.848 116.716C154.854 116.73 154.735 116.784 154.576 116.796C154.417 116.81 154.291 116.774 154.294 116.76C154.297 116.744 154.42 116.752 154.571 116.74C154.722 116.728 154.843 116.7 154.848 116.716Z" fill="#263238"/>
<path d="M153.99 117.265C153.99 117.271 153.875 117.286 153.689 117.264C153.596 117.253 153.486 117.232 153.368 117.195C153.309 117.174 153.248 117.158 153.184 117.12C153.155 117.1 153.121 117.072 153.11 117.026C153.097 116.981 153.121 116.93 153.155 116.906C153.442 116.756 153.731 116.916 153.838 117.065C153.897 117.14 153.925 117.214 153.937 117.265C153.95 117.317 153.949 117.346 153.945 117.346C153.935 117.35 153.924 117.228 153.807 117.09C153.749 117.023 153.662 116.957 153.549 116.924C153.443 116.893 153.292 116.885 153.191 116.95C153.143 116.985 153.162 117.041 153.215 117.073C153.265 117.105 153.329 117.124 153.384 117.145C153.498 117.183 153.605 117.208 153.695 117.224C153.875 117.256 153.99 117.256 153.99 117.265Z" fill="#263238"/>
<path d="M153.912 117.28C153.907 117.283 153.863 117.207 153.876 117.071C153.883 117.005 153.907 116.926 153.958 116.851C154.011 116.784 154.079 116.692 154.208 116.697C154.278 116.706 154.312 116.785 154.301 116.835C154.296 116.888 154.272 116.933 154.25 116.97C154.206 117.045 154.156 117.107 154.109 117.153C154.015 117.245 153.94 117.281 153.937 117.275C153.932 117.268 153.997 117.221 154.08 117.126C154.121 117.078 154.165 117.017 154.205 116.944C154.246 116.881 154.274 116.766 154.198 116.753C154.123 116.746 154.046 116.821 154 116.881C153.953 116.947 153.927 117.017 153.916 117.078C153.894 117.2 153.922 117.278 153.912 117.28Z" fill="#263238"/>
<path d="M158.981 116.946C158.98 116.957 158.847 116.934 158.635 116.96C158.426 116.984 158.134 117.071 157.881 117.274C157.628 117.477 157.481 117.743 157.412 117.942C157.341 118.143 157.334 118.279 157.324 118.277C157.32 118.277 157.318 118.243 157.323 118.183C157.328 118.122 157.342 118.034 157.373 117.93C157.434 117.722 157.582 117.442 157.846 117.23C158.109 117.018 158.415 116.934 158.631 116.92C158.74 116.912 158.829 116.917 158.889 116.926C158.949 116.934 158.982 116.943 158.981 116.946Z" fill="#263238"/>
<path d="M156.726 117.854C156.728 117.869 156.422 117.918 156.041 117.92C155.661 117.922 155.355 117.877 155.356 117.862C155.358 117.846 155.664 117.865 156.041 117.863C156.418 117.861 156.724 117.838 156.726 117.854Z" fill="#263238"/>
<path d="M157.644 117.845C157.655 117.856 157.619 117.909 157.588 117.98C157.556 118.05 157.54 118.113 157.524 118.112C157.509 118.112 157.5 118.038 157.536 117.957C157.572 117.875 157.634 117.833 157.644 117.845Z" fill="#263238"/>
<path d="M157.989 117.413C158 117.424 157.97 117.472 157.922 117.522C157.873 117.571 157.825 117.602 157.814 117.591C157.803 117.58 157.833 117.531 157.881 117.482C157.929 117.433 157.977 117.402 157.989 117.413Z" fill="#263238"/>
<path d="M158.483 117.214C158.48 117.23 158.418 117.229 158.349 117.254C158.279 117.277 158.23 117.315 158.218 117.305C158.206 117.296 158.245 117.229 158.33 117.2C158.416 117.171 158.487 117.199 158.483 117.214Z" fill="#263238"/>
<path d="M158.835 117.12C158.841 117.135 158.814 117.159 158.775 117.174C158.736 117.189 158.7 117.19 158.694 117.175C158.689 117.16 158.716 117.136 158.754 117.121C158.793 117.106 158.829 117.105 158.835 117.12Z" fill="#263238"/>
<path d="M165.328 116.776L165.149 116.383L169.361 114.267L170.102 115.886L169.845 116.023C168.697 116.621 163.965 118.985 163.07 119.103C162.072 119.234 165.328 116.776 165.328 116.776Z" fill="#455A64"/>
<path d="M170.118 115.761C170.119 115.763 170.095 115.777 170.048 115.802C169.987 115.835 169.919 115.87 169.843 115.91C169.636 116.015 169.382 116.144 169.083 116.296C168.438 116.616 167.542 117.047 166.543 117.501C165.542 117.956 164.628 118.347 163.963 118.621C163.652 118.747 163.388 118.854 163.173 118.941C163.093 118.972 163.022 118.999 162.957 119.024C162.907 119.042 162.881 119.051 162.88 119.049C162.879 119.047 162.904 119.035 162.953 119.013C163.016 118.986 163.086 118.955 163.165 118.92C163.378 118.829 163.639 118.717 163.948 118.585C164.609 118.301 165.52 117.904 166.519 117.45C167.518 116.996 168.417 116.571 169.065 116.26C169.368 116.114 169.625 115.991 169.833 115.891C169.911 115.854 169.98 115.822 170.043 115.792C170.091 115.77 170.117 115.759 170.118 115.761Z" fill="#263238"/>
<path d="M164.423 118.484C164.408 118.493 164.312 118.314 164.11 118.18C163.911 118.042 163.708 118.02 163.711 118.003C163.708 117.988 163.928 117.986 164.142 118.133C164.358 118.277 164.437 118.482 164.423 118.484Z" fill="#263238"/>
<path d="M165.392 117.275C165.383 117.288 165.29 117.242 165.183 117.172C165.077 117.102 164.997 117.035 165.006 117.022C165.014 117.009 165.108 117.055 165.214 117.125C165.321 117.195 165.401 117.262 165.392 117.275Z" fill="#263238"/>
<path d="M165.655 116.936C165.65 116.951 165.563 116.936 165.459 116.904C165.356 116.871 165.276 116.832 165.28 116.817C165.285 116.802 165.373 116.817 165.476 116.849C165.58 116.882 165.66 116.921 165.655 116.936Z" fill="#263238"/>
<path d="M165.691 116.434C165.697 116.448 165.603 116.506 165.481 116.563C165.359 116.62 165.254 116.655 165.247 116.641C165.241 116.627 165.335 116.569 165.457 116.512C165.579 116.454 165.684 116.42 165.691 116.434Z" fill="#263238"/>
<path d="M165.637 116.116C165.647 116.126 165.561 116.225 165.421 116.301C165.282 116.378 165.153 116.397 165.149 116.383C165.145 116.367 165.262 116.324 165.394 116.251C165.527 116.179 165.626 116.104 165.637 116.116Z" fill="#263238"/>
<path d="M165.079 116.968C165.082 116.974 164.983 117.034 164.804 117.091C164.715 117.119 164.606 117.144 164.483 117.159C164.421 117.164 164.359 117.175 164.285 117.166C164.25 117.16 164.208 117.148 164.178 117.111C164.148 117.075 164.15 117.019 164.17 116.983C164.371 116.728 164.7 116.757 164.859 116.848C164.944 116.893 164.999 116.949 165.031 116.991C165.063 117.032 165.075 117.06 165.072 117.061C165.064 117.069 165.004 116.962 164.841 116.884C164.761 116.846 164.654 116.822 164.538 116.838C164.428 116.853 164.287 116.908 164.221 117.008C164.192 117.06 164.232 117.104 164.294 117.111C164.352 117.119 164.418 117.111 164.478 117.107C164.598 117.096 164.705 117.075 164.793 117.052C164.971 117.007 165.075 116.96 165.079 116.968Z" fill="#263238"/>
<path d="M165.014 117.014C165.012 117.019 164.939 116.967 164.896 116.838C164.875 116.775 164.865 116.693 164.88 116.604C164.901 116.521 164.925 116.409 165.045 116.361C165.112 116.34 165.269 116.475 165.28 116.526C165.297 116.576 165.2 116.55 165.195 116.593C165.186 116.68 165.165 116.756 165.141 116.817C165.093 116.94 165.04 117.003 165.035 116.999C165.027 116.995 165.067 116.925 165.103 116.804C165.121 116.744 165.137 116.67 165.143 116.588C165.155 116.513 165.133 116.397 165.059 116.416C164.987 116.44 164.948 116.54 164.931 116.614C164.915 116.693 164.92 116.768 164.934 116.828C164.964 116.949 165.022 117.008 165.014 117.014Z" fill="#263238"/>
<path d="M169.501 114.633C169.505 114.643 169.374 114.677 169.191 114.787C169.01 114.895 168.78 115.093 168.632 115.382C168.484 115.671 168.458 115.974 168.478 116.184C168.495 116.397 168.545 116.522 168.535 116.526C168.531 116.527 168.516 116.497 168.495 116.44C168.475 116.382 168.452 116.297 168.438 116.188C168.408 115.974 168.428 115.658 168.582 115.356C168.736 115.055 168.98 114.854 169.171 114.752C169.268 114.7 169.35 114.668 169.409 114.651C169.467 114.635 169.5 114.63 169.501 114.633Z" fill="#263238"/>
<path d="M167.817 116.386C167.824 116.398 167.566 116.568 167.219 116.725C166.873 116.883 166.575 116.967 166.571 116.953C166.565 116.938 166.853 116.83 167.196 116.674C167.539 116.518 167.808 116.371 167.817 116.386Z" fill="#263238"/>
<path d="M168.65 116C168.665 116.006 168.654 116.07 168.654 116.146C168.654 116.223 168.665 116.287 168.65 116.293C168.636 116.299 168.597 116.235 168.598 116.146C168.597 116.058 168.636 115.994 168.65 116Z" fill="#263238"/>
<path d="M168.787 115.465C168.802 115.47 168.794 115.527 168.771 115.592C168.747 115.657 168.715 115.705 168.701 115.7C168.686 115.694 168.694 115.637 168.718 115.572C168.741 115.508 168.773 115.46 168.787 115.465Z" fill="#263238"/>
<path d="M169.157 115.082C169.161 115.097 169.104 115.123 169.051 115.173C168.997 115.222 168.968 115.277 168.953 115.273C168.938 115.27 168.946 115.193 169.012 115.132C169.078 115.07 169.156 115.066 169.157 115.082Z" fill="#263238"/>
<path d="M169.439 114.851C169.451 114.862 169.436 114.895 169.407 114.925C169.378 114.955 169.345 114.97 169.334 114.959C169.323 114.948 169.337 114.915 169.366 114.886C169.395 114.856 169.428 114.84 169.439 114.851Z" fill="#263238"/>
<path d="M164.168 60.3016L163.384 50.7349L167.411 50.8067C167.411 50.8067 167.598 49.3962 167.005 46.3019C166.641 44.4044 165.377 43.2408 163.96 42.5493L163.96 42.5239L163.837 42.4917C162.035 41.648 160.148 41.5291 160.148 41.5291L155.204 41.5861C155.204 41.5861 151.428 41.115 149.337 43.8073C148.532 44.8445 146.04 51.9425 146.04 51.9425L151.974 54.8001L151.409 50.864C151.409 50.864 151.522 53.718 151.886 54.6222C152.089 55.126 152.676 56.6901 152.676 56.6901L152.6 61.4109L164.168 60.3016Z" fill="#7098AD"/>
<path d="M161.441 49.346L160.707 52.4725H167.63L167.175 47.231L161.441 49.346Z" fill="#7098AD"/>
<path d="M167.63 52.4725C167.631 52.4519 167.281 52.4152 166.713 52.382C166.146 52.3487 165.361 52.3206 164.493 52.3246C163.625 52.3289 162.84 52.3664 162.273 52.4114C161.706 52.4562 161.358 52.5042 161.359 52.5243C161.361 52.5462 161.712 52.5363 162.279 52.5192C162.846 52.5017 163.629 52.4814 164.494 52.4771C165.359 52.4733 166.142 52.4841 166.71 52.4897C167.277 52.4956 167.628 52.494 167.63 52.4725Z" fill="#263238"/>
<path d="M161.142 47.2053C161.121 47.2061 161.114 47.51 161.119 48.0005C161.124 48.4912 161.142 49.1682 161.171 49.9159C161.2 50.6636 161.235 51.3403 161.268 51.8299C161.301 52.3193 161.332 52.6216 161.353 52.6208C161.374 52.62 161.381 52.3161 161.376 51.8256C161.371 51.3352 161.353 50.6577 161.324 49.91C161.295 49.1623 161.26 48.4858 161.227 47.9962C161.194 47.5071 161.163 47.2045 161.142 47.2053Z" fill="#263238"/>
<g opacity="0.3">
<path d="M154.843 49.9131C154.843 49.9131 156.382 61.3213 160.707 61.0193C160.707 61.0193 162.654 60.9962 163.281 59.7018V59.1923L154.843 49.9131Z" fill="black"/>
</g>
<g opacity="0.3">
<path d="M161.142 47.8777L160.314 53.4703L160.85 54.4517L161.732 52.5328L161.359 52.524L161.142 47.8777Z" fill="black"/>
</g>
<path d="M152.676 56.6907C152.667 56.6939 152.626 56.5985 152.559 56.4235C152.492 56.2487 152.403 55.9931 152.299 55.6747C152.093 55.0382 151.837 54.1468 151.637 53.1434C151.438 52.1392 151.341 51.2157 151.309 50.5462C151.293 50.2115 151.288 49.9403 151.293 49.7529C151.297 49.5656 151.303 49.4622 151.313 49.4622C151.335 49.4619 151.35 49.8751 151.408 50.5395C151.464 51.2039 151.576 52.1186 151.774 53.1163C151.973 54.1136 152.212 55.0041 152.394 55.6463C152.479 55.944 152.551 56.1978 152.611 56.4068C152.661 56.5864 152.685 56.6874 152.676 56.6907Z" fill="#263238"/>
<path d="M154.426 59.9688C154.389 59.98 154.282 59.7338 154.187 59.4191C154.092 59.1042 154.044 58.8402 154.081 58.829C154.118 58.8177 154.225 59.064 154.32 59.3787C154.415 59.6933 154.463 59.9575 154.426 59.9688Z" fill="#263238"/>
<path d="M155.023 59.9251C154.988 59.9342 154.871 59.5649 154.865 59.0911C154.857 58.6173 154.963 58.2448 154.999 58.2528C155.038 58.26 154.996 58.6318 155.005 59.089C155.01 59.5462 155.063 59.9168 155.023 59.9251Z" fill="#263238"/>
<path d="M152.095 54.9312C152.078 54.9657 150.697 54.3105 149.011 53.4679C147.324 52.625 145.971 51.9143 145.989 51.8797C146.006 51.8452 147.387 52.5004 149.073 53.343C150.759 54.1856 152.112 54.8966 152.095 54.9312Z" fill="#263238"/>
<path d="M154.528 42.5114C154.559 41.1556 154.566 39.7277 154.566 39.7277C154.566 39.7277 152.827 39.3927 152.524 37.1045C152.235 34.9225 153.044 29.8023 153.044 29.8023C155.584 28.8421 158.224 29.7126 159.964 31.7708L159.532 42.7786C159.482 44.0565 158.343 45.0312 156.975 44.9671C155.593 44.9023 154.498 43.8032 154.528 42.5114Z" fill="#B78876"/>
<path d="M152.912 33.8944C152.902 34.0485 153.025 34.1835 153.186 34.1964C153.346 34.2093 153.484 34.0948 153.494 33.9407C153.503 33.7866 153.38 33.6513 153.22 33.6384C153.059 33.6256 152.921 33.7403 152.912 33.8944Z" fill="#263238"/>
<path d="M152.803 33.5104C152.839 33.5495 153.064 33.3914 153.379 33.4002C153.693 33.4045 153.919 33.5723 153.954 33.5347C153.972 33.5181 153.937 33.4484 153.838 33.3726C153.741 33.2973 153.574 33.222 153.378 33.2177C153.182 33.2137 153.015 33.2815 152.919 33.353C152.82 33.4249 152.786 33.4929 152.803 33.5104Z" fill="#263238"/>
<path d="M156.103 34.0931C156.093 34.2472 156.216 34.3826 156.377 34.3954C156.537 34.4083 156.676 34.2939 156.685 34.1398C156.694 33.9857 156.572 33.8503 156.411 33.8374C156.25 33.8243 156.112 33.939 156.103 34.0931Z" fill="#263238"/>
<path d="M156.081 33.7093C156.117 33.7485 156.343 33.5903 156.657 33.5992C156.971 33.6037 157.198 33.7715 157.233 33.7337C157.25 33.7171 157.215 33.6474 157.116 33.5716C157.019 33.4963 156.852 33.421 156.656 33.4167C156.46 33.4127 156.294 33.4805 156.197 33.552C156.099 33.6238 156.064 33.6919 156.081 33.7093Z" fill="#263238"/>
<path d="M154.88 36.012C154.881 35.994 154.687 35.9554 154.371 35.9066C154.291 35.8962 154.215 35.8785 154.203 35.8233C154.186 35.7649 154.222 35.6791 154.263 35.5866C154.344 35.3942 154.428 35.1927 154.516 34.9812C154.869 34.1191 155.126 33.4094 155.091 33.3955C155.056 33.3815 154.742 34.069 154.39 34.9311C154.305 35.1436 154.224 35.3465 154.147 35.5403C154.114 35.6309 154.059 35.733 154.097 35.8544C154.117 35.9149 154.175 35.96 154.226 35.9752C154.277 35.9924 154.322 35.9943 154.362 35.9978C154.68 36.0235 154.878 36.0299 154.88 36.012Z" fill="#263238"/>
<path d="M154.566 39.7278C154.566 39.7278 156.097 39.8661 157.639 38.9924C157.639 38.9924 156.858 40.5388 154.583 40.2665L154.566 39.7278Z" fill="#A36957"/>
<path d="M157.087 32.8022C157.022 32.9005 156.783 32.8568 156.515 32.8086C156.248 32.7547 156.01 32.7073 155.986 32.592C155.96 32.4816 156.236 32.3286 156.594 32.3972C156.951 32.4653 157.152 32.7092 157.087 32.8022Z" fill="#263238"/>
<path d="M153.961 32.3404C153.937 32.4551 153.681 32.4969 153.385 32.5119C153.09 32.524 152.831 32.5058 152.796 32.394C152.761 32.2857 153.011 32.1094 153.366 32.0939C153.721 32.0767 153.986 32.2292 153.961 32.3404Z" fill="#263238"/>
<path d="M154.884 36.7646C154.818 36.7461 154.744 36.7839 154.71 36.8442C154.671 36.9158 154.689 37.0144 154.752 37.0672C154.814 37.12 154.914 37.1213 154.978 37.0702C155.042 37.0192 155.063 36.9211 155.026 36.8485C154.988 36.7759 154.896 36.7362 154.818 36.7587" fill="#A36957"/>
<path d="M154.959 36.7959C154.973 36.7833 154.908 36.7061 154.771 36.7361C154.708 36.7501 154.625 36.8071 154.599 36.9047C154.574 36.9964 154.597 37.1151 154.694 37.1896C154.794 37.2603 154.916 37.2459 154.995 37.1915C155.081 37.1352 155.105 37.0323 155.092 36.9679C155.064 36.8267 154.96 36.8042 154.957 36.8238C154.945 36.8414 154.993 36.8905 154.984 36.9741C154.979 37.0151 154.96 37.0532 154.92 37.0725C154.881 37.0936 154.819 37.0936 154.784 37.0666C154.748 37.0403 154.728 36.9819 154.736 36.9369C154.742 36.8918 154.772 36.8583 154.808 36.8377C154.883 36.7954 154.949 36.8152 154.959 36.7959Z" fill="#263238"/>
<path d="M158.91 34.4593C158.639 35.0875 157.978 35.5715 158.069 36.2496C158.129 36.6872 158.409 37.0954 158.355 37.5338C158.286 38.0843 157.714 38.4659 157.633 39.0148C157.534 39.688 158.189 40.2112 158.45 40.8394C158.831 41.754 158.344 42.7829 158.332 43.7737C158.315 45.2914 159.605 46.7091 161.118 46.8337C161.73 46.8841 162.419 46.6994 162.736 46.1739C162.998 45.7403 162.946 45.1893 163.103 44.7077C163.336 43.9905 164.02 43.4655 164.164 42.725C164.427 41.3751 162.795 40.2581 162.903 38.887C162.949 38.3011 163.31 37.79 163.464 37.223C163.665 36.4801 163.481 35.6434 162.985 35.0543C162.583 34.5754 161.998 34.2605 161.656 33.7374C161.267 33.144 161.253 32.3917 161.107 31.6976C160.75 30.0063 159.479 28.5371 157.857 27.9389C156.235 27.3407 154.315 27.6334 152.945 28.6874C152.945 28.6874 152.555 30.4538 154.369 30.7492C156.182 31.0445 157.022 30.7036 157.227 31.4304C157.227 31.4304 157.02 32.2792 157.77 33.0901C158.52 33.9016 159.224 33.732 158.91 34.4593Z" fill="#263238"/>
<path d="M161.804 46.7102C161.803 46.7151 161.747 46.7089 161.639 46.6931C161.531 46.6762 161.373 46.6406 161.177 46.5687C160.79 46.4272 160.242 46.119 159.774 45.5302C159.542 45.2384 159.325 44.8846 159.178 44.4687C159.028 44.0552 158.942 43.5864 158.934 43.0928C158.923 42.5989 158.993 42.0808 159.128 41.5625C159.195 41.3031 159.283 41.0442 159.384 40.7872C159.484 40.5291 159.608 40.2804 159.678 40.0172C159.755 39.7548 159.744 39.4868 159.676 39.2312C159.606 38.9755 159.487 38.7351 159.371 38.4974C159.254 38.2599 159.135 38.023 159.059 37.7711C158.981 37.5213 158.952 37.252 159.003 37.0009C159.109 36.496 159.416 36.1224 159.597 35.7389C159.788 35.3591 159.848 34.9576 159.839 34.5974C159.807 33.8674 159.496 33.3277 159.242 33.0165C158.977 32.7051 158.776 32.5864 158.787 32.5732C158.787 32.5732 158.999 32.6737 159.283 32.9811C159.555 33.2883 159.891 33.8355 159.938 34.5932C159.954 34.9665 159.897 35.3894 159.701 35.7895C159.516 36.187 159.22 36.5632 159.129 37.0253C159.035 37.4908 159.255 37.9702 159.494 38.4368C159.611 38.6748 159.735 38.9208 159.81 39.1945C159.885 39.4662 159.896 39.7733 159.814 40.0531C159.738 40.3343 159.612 40.5862 159.514 40.8381C159.414 41.09 159.327 41.3433 159.261 41.5971C159.127 42.1041 159.056 42.6093 159.064 43.0904C159.067 44.0565 159.399 44.901 159.853 45.4686C160.298 46.0496 160.824 46.3632 161.198 46.5178C161.576 46.6714 161.807 46.6944 161.804 46.7102Z" fill="#455A64"/>
<path d="M161.537 33.1866C161.537 33.1954 161.396 33.2209 161.137 33.2461C160.88 33.2673 160.499 33.2973 160.033 33.2172C159.579 33.1341 159.005 32.9111 158.641 32.3722C158.462 32.1017 158.391 31.7745 158.275 31.4725C158.165 31.167 157.954 30.9024 157.664 30.7191C157.078 30.3474 156.388 30.3019 155.785 30.2284C155.178 30.1601 154.609 30.0314 154.223 29.742C153.834 29.4652 153.634 29.106 153.583 28.8471C153.554 28.7174 153.556 28.6135 153.562 28.5448C153.572 28.476 153.579 28.4409 153.584 28.4417C153.601 28.4419 153.566 28.5891 153.636 28.8337C153.701 29.076 153.902 29.4073 154.279 29.6611C154.651 29.9245 155.196 30.0395 155.8 30.1009C156.398 30.1684 157.112 30.2056 157.74 30.602C158.05 30.7955 158.29 31.0989 158.402 31.4234C158.522 31.7424 158.588 32.0562 158.749 32.3027C159.075 32.8015 159.616 33.0296 160.052 33.1207C160.5 33.211 160.877 33.1971 161.134 33.1925C161.392 33.1834 161.536 33.1764 161.537 33.1866Z" fill="#455A64"/>
<path d="M160.871 31.004C160.872 31.0107 160.763 31.045 160.557 31.0501C160.353 31.0557 160.047 31.0196 159.711 30.8596C159.543 30.78 159.371 30.6658 159.213 30.5133C159.052 30.3616 158.921 30.1654 158.797 29.9585C158.556 29.5509 158.323 29.0481 157.822 28.8404C157.331 28.6298 156.79 28.6767 156.32 28.7086C155.846 28.7552 155.401 28.7692 155.039 28.6979C154.674 28.6344 154.4 28.4832 154.248 28.3433C154.171 28.2742 154.119 28.2123 154.09 28.1664C154.06 28.1214 154.046 28.0967 154.05 28.0938C154.061 28.0852 154.126 28.1798 154.282 28.3012C154.438 28.4221 154.702 28.5515 155.055 28.6006C155.408 28.6569 155.833 28.6346 156.309 28.5805C156.781 28.5432 157.338 28.4837 157.878 28.7129C158.145 28.8262 158.363 29.027 158.518 29.2443C158.676 29.4617 158.789 29.6887 158.908 29.8937C159.026 30.099 159.148 30.2863 159.294 30.431C159.439 30.5776 159.599 30.6902 159.755 30.7714C160.069 30.9346 160.36 30.985 160.558 30.9957C160.758 31.0075 160.869 30.992 160.871 31.004Z" fill="#455A64"/>
<path d="M162.603 46.1319C162.59 46.1257 162.675 45.9531 162.774 45.6232C162.872 45.2944 162.97 44.8002 162.953 44.1868C162.932 43.5776 162.785 42.8406 162.381 42.1403C162.185 41.7892 161.887 41.4767 161.645 41.0911C161.524 40.8987 161.42 40.6829 161.375 40.4441C161.33 40.2051 161.357 39.9513 161.434 39.7208C161.584 39.2582 161.853 38.8686 161.911 38.4432C161.983 38.0166 161.768 37.6275 161.564 37.2812C161.46 37.1049 161.357 36.9307 161.277 36.7484C161.196 36.5662 161.145 36.3743 161.125 36.1888C161.084 35.8163 161.128 35.4741 161.155 35.1669C161.233 34.5548 161.176 34.0518 161.028 33.7428C160.886 33.43 160.698 33.3362 160.712 33.3234C160.713 33.3215 160.724 33.3266 160.744 33.3389C160.764 33.3518 160.796 33.3687 160.83 33.4C160.901 33.4582 160.997 33.5614 161.077 33.7192C161.247 34.032 161.319 34.5581 161.254 35.1755C161.232 35.484 161.196 35.8219 161.24 36.1749C161.275 36.5311 161.459 36.8671 161.674 37.2158C161.778 37.3922 161.888 37.5763 161.966 37.7853C162.045 37.9925 162.081 38.2294 162.046 38.462C161.981 38.9307 161.705 39.3274 161.567 39.7631C161.494 39.9808 161.471 40.2043 161.511 40.4192C161.551 40.6341 161.646 40.8343 161.76 41.0193C161.99 41.3896 162.29 41.7086 162.492 42.0763C162.903 42.8039 163.042 43.562 163.051 44.1846C163.056 44.8115 162.941 45.3118 162.825 45.6399C162.765 45.8036 162.715 45.929 162.671 46.01C162.631 46.092 162.608 46.134 162.603 46.1319Z" fill="#455A64"/>
<path d="M151.688 96.0671C151.688 96.0671 149.883 78.9574 149.779 72.6351C149.675 66.3129 152.621 60.075 152.621 60.075L164.168 59.5867C164.168 59.5867 166.45 66.0015 166.491 68.696C166.57 73.9324 165.1 79.1032 165.269 83.2572L165.655 96.0671" fill="#263238"/>
<path d="M166.042 75.033C166.044 75.0373 165.979 75.0866 165.853 75.1759C165.821 75.1986 165.786 75.2233 165.748 75.2501C165.712 75.2807 165.677 75.3192 165.636 75.3581C165.555 75.4358 165.461 75.5243 165.379 75.6462C165.006 76.1029 164.734 76.9187 164.476 77.9363C164.333 78.4417 164.189 79.0088 163.891 79.5641C163.811 79.6994 163.74 79.8431 163.635 79.9693C163.584 80.0336 163.539 80.1025 163.484 80.1644L163.306 80.3421C163.065 80.5793 162.76 80.758 162.438 80.8993C161.791 81.1825 161.062 81.3171 160.395 81.6513C159.724 81.978 159.221 82.6113 158.913 83.3405C158.588 84.0665 158.391 84.829 158.12 85.5408C157.853 86.2469 157.49 86.9346 156.914 87.3688C156.343 87.8188 155.637 87.9217 155.025 87.9611C154.403 87.9973 153.828 87.9793 153.311 88.0576C152.797 88.1288 152.341 88.2918 152.019 88.5453C151.696 88.7996 151.507 89.118 151.418 89.3909C151.326 89.6669 151.343 89.8998 151.374 90.048C151.403 90.1986 151.446 90.2704 151.436 90.2744C151.436 90.2744 151.386 90.2069 151.346 90.0547C151.306 89.9049 151.279 89.6637 151.366 89.375C151.45 89.0896 151.638 88.7557 151.97 88.4845C152.304 88.213 152.772 88.0396 153.297 87.96C153.823 87.8742 154.405 87.8866 155.017 87.8456C155.623 87.8016 156.299 87.6955 156.836 87.2667C157.38 86.8529 157.73 86.1915 157.992 85.4925C158.259 84.789 158.455 84.0255 158.786 83.2834C159.097 82.5413 159.631 81.8678 160.334 81.5296C161.027 81.1855 161.757 81.0552 162.387 80.7814C162.701 80.6455 162.992 80.4766 163.223 80.2523L163.393 80.0843C163.446 80.0256 163.491 79.9594 163.539 79.8983C163.641 79.7785 163.711 79.6394 163.789 79.5092C164.083 78.9732 164.233 78.4125 164.381 77.91C164.651 76.8978 164.942 76.0688 165.336 75.6127C165.423 75.4913 165.523 75.4037 165.608 75.3276C165.651 75.2898 165.689 75.2522 165.727 75.2228C165.766 75.1976 165.803 75.1743 165.837 75.1528C165.97 75.0697 166.04 75.0287 166.042 75.033Z" fill="#FAFAFA"/>
<path d="M166.112 67.1152C166.117 67.115 166.122 67.1935 166.127 67.3444C166.13 67.495 166.112 67.7185 166.047 67.9991C165.913 68.5571 165.506 69.323 164.743 70.0161C164.366 70.3642 163.911 70.7005 163.391 71.0036C162.873 71.3108 162.303 71.6029 161.718 71.9333C161.135 72.2646 160.534 72.6393 160.006 73.1367C159.471 73.6282 159.071 74.2743 158.71 74.9583C158.346 75.6414 158.023 76.3366 157.586 76.9385C157.369 77.2392 157.124 77.5139 156.853 77.7489C156.581 77.9824 156.283 78.1719 155.982 78.3294C155.376 78.6438 154.759 78.8381 154.187 79.0171C153.614 79.1943 153.08 79.3511 152.613 79.547C152.145 79.7399 151.74 79.9583 151.412 80.1902C151.084 80.4222 150.835 80.6653 150.658 80.8853C150.301 81.3275 150.226 81.6478 150.206 81.6371C150.201 81.6355 150.227 81.561 150.28 81.4197C150.342 81.2831 150.438 81.0791 150.615 80.8518C150.788 80.6227 151.037 80.3689 151.366 80.1269C151.695 79.8852 152.103 79.6574 152.574 79.4561C153.045 79.2519 153.582 79.0887 154.152 78.907C154.721 78.7237 155.331 78.5261 155.921 78.2158C156.216 78.0604 156.503 77.8746 156.766 77.6482C157.027 77.4198 157.263 77.1534 157.474 76.8589C157.9 76.2701 158.22 75.5803 158.586 74.8929C158.948 74.2057 159.36 73.5413 159.912 73.0372C160.454 72.5288 161.066 72.1515 161.654 71.8213C162.244 71.4922 162.815 71.2044 163.331 70.904C163.849 70.6081 164.299 70.2819 164.675 69.9432C165.435 69.2697 165.846 68.5287 165.994 67.9852C166.139 67.4366 166.091 67.1136 166.112 67.1152Z" fill="#FAFAFA"/>
<path d="M149.838 73.5412C149.835 73.542 149.827 73.5246 149.814 73.4892C149.803 73.4535 149.778 73.4018 149.762 73.3297C149.73 73.1866 149.709 72.9604 149.789 72.6873C149.938 72.1417 150.531 71.4626 151.486 71.1225C151.961 70.9593 152.501 70.8606 153.063 70.7135C153.618 70.564 154.223 70.3544 154.675 69.8899C154.899 69.6608 155.089 69.388 155.247 69.0881C155.4 68.7855 155.527 68.4607 155.647 68.1254C155.887 67.457 156.089 66.7308 156.497 66.0704C156.902 65.405 157.562 64.9427 158.245 64.7111C158.926 64.4608 159.613 64.3498 160.251 64.2027C160.89 64.0636 161.488 63.8835 161.995 63.6088C162.495 63.3247 162.894 62.9466 163.176 62.5457C163.754 61.7419 163.905 60.9186 163.926 60.3746C163.939 59.8217 163.851 59.5207 163.869 59.5181C163.869 59.5181 163.976 59.8139 163.98 60.3757C163.976 60.928 163.838 61.7711 163.256 62.6027C162.972 63.0173 162.567 63.4116 162.052 63.7099C161.532 63.9974 160.922 64.1848 160.28 64.3281C159.639 64.4793 158.956 64.5932 158.293 64.8392C157.626 65.0689 157.006 65.5065 156.615 66.1446C156.222 66.7806 156.019 67.4988 155.776 68.1715C155.655 68.5092 155.525 68.8394 155.365 69.15C155.202 69.4585 155.002 69.7425 154.766 69.9816C154.286 70.4683 153.654 70.6795 153.092 70.8258C152.522 70.9697 151.986 71.0619 151.518 71.2163C150.588 71.5336 149.999 72.184 149.841 72.7034C149.757 72.9639 149.767 73.1823 149.79 73.3244C149.82 73.4653 149.844 73.539 149.838 73.5412Z" fill="#FAFAFA"/>
<path d="M165.12 88.0085C165.125 88.008 165.131 88.0656 165.139 88.1769C165.145 88.2875 165.136 88.4534 165.09 88.6606C164.995 89.0733 164.676 89.6383 164.077 90.1086C163.781 90.3466 163.424 90.565 163.014 90.7397C162.605 90.915 162.152 91.0538 161.68 91.2012C161.208 91.3486 160.712 91.5027 160.23 91.7305C159.745 91.9527 159.297 92.2778 158.911 92.6927C158.52 93.1022 158.183 93.5494 157.809 93.9445C157.436 94.3419 157.013 94.6691 156.574 94.9109C155.692 95.3981 154.777 95.5651 154.025 95.5737C153.267 95.582 152.665 95.4228 152.271 95.2821C152.072 95.2127 151.924 95.1432 151.825 95.0912C151.726 95.0419 151.676 95.0138 151.678 95.0095C151.68 95.0052 151.735 95.0248 151.837 95.0655C151.938 95.1089 152.088 95.1698 152.288 95.2306C152.683 95.3539 153.279 95.4954 154.023 95.4748C154.761 95.4539 155.654 95.2794 156.51 94.7983C156.938 94.5587 157.345 94.2409 157.709 93.8504C158.075 93.4613 158.411 93.014 158.81 92.5959C159.202 92.173 159.674 91.831 160.171 91.6067C160.666 91.3752 161.168 91.2224 161.642 91.0782C162.115 90.9343 162.566 90.8003 162.969 90.6331C163.371 90.4672 163.723 90.2587 164.015 90.0311C164.608 89.5814 164.928 89.0441 165.037 88.6469C165.143 88.2452 165.101 88.008 165.12 88.0085Z" fill="#FAFAFA"/>
<path d="M163.803 52.4839L161.57 52.5367C161.424 53.2887 161.066 53.8032 161.066 53.8032C159.199 50.5626 157.751 46.221 157.392 44.476C157.444 44.3018 157.506 44.1089 157.584 43.8934C157.673 43.6447 157.596 43.1736 157.554 42.9123C157.491 42.5237 157.383 42.0011 157.35 41.759C157.251 41.0218 157.132 40.906 156.875 40.9894C156.525 41.1027 157.018 43.0599 156.731 43.1025C156.577 43.1253 156.389 42.4548 156.334 41.9046C156.28 41.3544 156.031 39.6619 155.849 39.5491C155.582 39.3838 155.35 39.6453 155.417 40.1931C155.485 40.7476 155.571 42.4014 155.28 42.4237C154.994 42.4457 154.754 39.64 154.754 39.64C154.754 39.64 154.799 39.0295 154.462 39.0442C153.855 39.0705 154.33 42.0287 154.382 42.309C154.418 42.5038 154.102 42.5397 154.075 42.328C154.046 42.1101 153.9 39.5221 153.281 39.5427C152.807 39.5588 153.649 41.9804 153.382 42.5419C153.116 43.1031 152.931 40.6353 152.478 40.6694C152.309 40.6822 152.185 40.7152 152.495 42.1117C152.661 42.8624 153.15 44.2423 153.578 45.3851C154.296 49.2577 157.447 61.6463 162.387 59.3784C165.151 58.1095 166.273 52.4855 166.273 52.4855L163.803 52.4839Z" fill="#B78876"/>
<path d="M154.276 42.4982C154.276 42.4982 154.299 42.5022 154.341 42.4893C154.378 42.4778 154.453 42.4306 154.441 42.3344C154.435 42.1683 154.409 41.9257 154.37 41.6124C154.342 41.297 154.247 40.9186 154.247 40.4708C154.243 40.2464 154.249 40.0052 154.262 39.7496C154.27 39.6217 154.273 39.4891 154.301 39.3636C154.322 39.2422 154.403 39.1034 154.497 39.12L154.507 39.1219L154.512 39.1216C154.607 39.1174 154.681 39.1916 154.712 39.3052C154.746 39.4138 154.754 39.5419 154.747 39.6641L154.747 39.6692L154.747 39.6726C154.81 40.3582 154.877 41.1089 155.034 41.9102C155.055 42.0104 155.078 42.1112 155.109 42.2128C155.124 42.2634 155.142 42.3146 155.164 42.3663C155.179 42.3928 155.188 42.418 155.21 42.4456C155.229 42.469 155.253 42.5097 155.322 42.5159C155.433 42.5076 155.465 42.4234 155.491 42.3752C155.515 42.3197 155.53 42.2647 155.541 42.2103C155.564 42.1013 155.575 41.9925 155.584 41.8831C155.613 41.446 155.598 41.0001 155.566 40.5426C155.555 40.3113 155.499 40.0808 155.538 39.8712C155.556 39.7681 155.599 39.6641 155.67 39.6212C155.704 39.6003 155.743 39.596 155.785 39.6067C155.806 39.6129 155.828 39.6215 155.849 39.6343C155.867 39.6512 155.863 39.6437 155.878 39.6737C155.968 39.8656 156.014 40.1154 156.064 40.3475C156.112 40.5847 156.153 40.8264 156.191 41.0708C156.229 41.3152 156.263 41.5626 156.292 41.8118C156.316 42.0608 156.352 42.3224 156.416 42.574C156.448 42.7008 156.484 42.8273 156.537 42.9527C156.564 43.0157 156.592 43.0779 156.647 43.1422C156.667 43.1695 156.73 43.2207 156.808 43.2006C156.883 43.1754 156.905 43.1154 156.917 43.0803C156.961 42.9262 156.948 42.7981 156.946 42.6633C156.94 42.5303 156.929 42.3987 156.918 42.2674C156.899 42.0418 156.877 41.8185 156.869 41.5985C156.866 41.4889 156.866 41.3793 156.877 41.2761C156.884 41.2257 156.893 41.1737 156.91 41.1365C156.918 41.1174 156.928 41.1035 156.936 41.0965C156.94 41.0922 156.943 41.0941 156.946 41.0898L156.981 41.0799C157.159 41.0065 157.218 41.2538 157.265 41.4532C157.307 41.6612 157.333 41.8759 157.374 42.0873C157.445 42.5094 157.535 42.9288 157.582 43.3322C157.601 43.5318 157.616 43.7395 157.558 43.9089C157.495 44.1027 157.432 44.2943 157.37 44.4838L157.365 44.5009L157.369 44.5189C157.695 45.9599 158.148 47.2493 158.568 48.3939C158.992 49.5375 159.416 50.5258 159.791 51.3339C160.164 52.143 160.499 52.7661 160.73 53.1914C160.848 53.3929 160.94 53.5521 161.009 53.6706C161.074 53.7786 161.109 53.8335 161.113 53.8316C161.116 53.8295 161.088 53.7705 161.03 53.6588C160.967 53.5379 160.881 53.375 160.772 53.1691C160.554 52.7376 160.233 52.1097 159.872 51.2974C159.509 50.4859 159.097 49.4959 158.682 48.3521C158.272 47.2088 157.827 45.916 157.509 44.4899L157.508 44.5251C157.57 44.338 157.632 44.1491 157.696 43.958C157.768 43.7393 157.747 43.5257 157.729 43.3166C157.681 42.8975 157.593 42.4901 157.523 42.0662C157.482 41.8566 157.456 41.6414 157.413 41.4216C157.388 41.312 157.364 41.2016 157.304 41.0898C157.275 41.0357 157.23 40.9741 157.156 40.9408C157.081 40.9084 157.004 40.9175 156.944 40.9322L156.899 40.9451C156.879 40.9542 156.854 40.9649 156.839 40.9797C156.804 41.0094 156.785 41.0435 156.771 41.0751C156.743 41.1394 156.735 41.1986 156.726 41.2581C156.713 41.3758 156.714 41.4902 156.717 41.6039C156.725 41.8311 156.747 42.056 156.766 42.2808C156.777 42.4116 156.788 42.5419 156.793 42.6702C156.798 42.7954 156.802 42.9337 156.773 43.0304C156.767 43.0586 156.754 43.0532 156.769 43.0669L156.769 43.0682C156.768 43.0591 156.772 43.0819 156.771 43.0781L156.771 43.0754C156.77 43.072 156.771 43.0687 156.771 43.0661C156.773 43.0637 156.779 43.0543 156.775 43.0537C156.773 43.0529 156.767 43.0494 156.759 43.039C156.73 43.005 156.7 42.9492 156.677 42.8937C156.629 42.7814 156.594 42.6595 156.563 42.5381C156.502 42.2923 156.467 42.0485 156.442 41.7952C156.412 41.543 156.377 41.2946 156.339 41.0486C156.3 40.8025 156.258 40.5592 156.209 40.3191C156.154 40.0773 156.118 39.845 156.006 39.6035C155.999 39.5791 155.951 39.525 155.922 39.5092C155.891 39.4912 155.858 39.4773 155.822 39.4671C155.75 39.4473 155.662 39.4564 155.595 39.4984C155.462 39.5864 155.421 39.726 155.397 39.8471C155.375 39.972 155.379 40.0953 155.392 40.2143C155.406 40.3287 155.417 40.4407 155.426 40.5541C155.46 41.0054 155.477 41.4495 155.45 41.874C155.443 41.9799 155.432 42.0846 155.412 42.1835C155.402 42.2331 155.388 42.2811 155.371 42.3224C155.362 42.3427 155.351 42.3618 155.342 42.3725C155.332 42.3947 155.323 42.3674 155.324 42.4036C155.338 42.376 155.325 42.3912 155.314 42.3682C155.303 42.3556 155.293 42.3315 155.282 42.3127C155.263 42.269 155.247 42.2229 155.232 42.1752C155.202 42.0801 155.179 41.9815 155.158 41.8842C154.999 41.0971 154.924 40.3445 154.855 39.6638V39.6724C154.861 39.5346 154.852 39.403 154.811 39.2739C154.791 39.2103 154.761 39.1455 154.706 39.0954C154.653 39.0437 154.576 39.0206 154.508 39.0227L154.523 39.0244C154.415 39.0053 154.336 39.0705 154.292 39.135C154.245 39.2015 154.225 39.2736 154.209 39.3433C154.18 39.484 154.18 39.6177 154.173 39.7461C154.164 40.0039 154.162 40.2464 154.169 40.4732C154.178 40.9304 154.281 41.3088 154.317 41.6205C154.364 41.9319 154.399 42.1736 154.414 42.3366C154.431 42.414 154.368 42.4639 154.335 42.477C154.298 42.4925 154.276 42.495 154.276 42.4982Z" fill="#A36957"/>
<path d="M136.823 56.1736C136.823 56.1736 136.081 56.1382 135.271 56.3515C133.887 56.7157 131.497 58.1635 131.398 59.9524H133.134C133.134 59.9524 132.162 62.0211 132.448 61.8295C133.188 61.3326 134.663 59.8337 134.663 59.8337L136.823 56.1736Z" fill="#B78876"/>
<path d="M160.494 25.0353C160.456 25.0388 160.298 23.6039 160.142 21.8311C159.986 20.0574 159.891 18.6175 159.929 18.6143C159.968 18.6108 160.125 20.0454 160.281 21.819C160.437 23.5916 160.532 25.0318 160.494 25.0353Z" fill="#263238"/>
<path d="M168.107 18.7016C168.139 18.7239 166.966 20.4257 165.489 22.5019C164.011 24.5789 162.788 26.244 162.756 26.2217C162.725 26.1995 163.897 24.4979 165.375 22.4209C166.852 20.3447 168.076 18.6794 168.107 18.7016Z" fill="#263238"/>
<path d="M171.271 26.4139C171.279 26.4516 169.91 26.7647 168.215 27.1131C166.519 27.4615 165.139 27.7134 165.131 27.6756C165.123 27.6378 166.491 27.3248 168.187 26.9764C169.882 26.6283 171.263 26.3763 171.271 26.4139Z" fill="#263238"/>
<path d="M80.1204 63.2253L70.6436 111.947L69.4031 118.326L132.668 118.013C135.507 117.999 138.023 115.478 138.937 111.733L150.155 65.734C150.849 62.8905 149.327 59.9331 147.172 59.9355L83.1402 60.0028C81.7265 60.0047 80.4905 61.3238 80.1204 63.2253Z" fill="#7098AD"/>
<g opacity="0.5">
<path d="M80.1204 63.2253L70.6436 111.947L69.4031 118.326L132.668 118.013C135.507 117.999 138.023 115.478 138.937 111.733L150.155 65.734C150.849 62.8905 149.327 59.9331 147.172 59.9355L83.1402 60.0028C81.7265 60.0047 80.4905 61.3238 80.1204 63.2253Z" fill="black"/>
</g>
<path d="M126.6 108.646L119.901 54.6691C119.627 52.4573 117.865 50.8075 115.785 50.8145L101.097 50.8624C100.01 50.8659 98.9675 51.3282 98.1951 52.1491L91.2204 59.5633L50.3702 59.7764C47.8738 59.7895 45.956 62.1514 46.287 64.8054L52.5062 114.694C52.7814 116.903 54.54 118.551 56.6173 118.546L127.811 118.406C135.74 118.57 136.497 116.228 136.497 116.228C127.41 118.242 126.6 108.653 126.6 108.646Z" fill="#7098AD"/>
<g opacity="0.5">
<path d="M95.9016 97.8436L93.5006 100.422L75.0078 83.7862L77.4091 81.2075L95.9016 97.8436Z" fill="white"/>
<path d="M92.4943 80.636L95.148 83.0231L78.4155 100.994L75.7617 98.607L92.4943 80.636Z" fill="white"/>
</g>
<path d="M136.766 28.1819C136.595 28.1085 136.472 27.9421 136.463 27.7435L136.356 25.2554C136.349 25.0989 136.416 24.9483 136.537 24.8486C136.657 24.7486 136.818 24.7113 136.97 24.7473C137.37 24.8416 137.811 24.7545 138.18 24.5082C138.52 24.2815 138.748 23.9475 138.806 23.5919C138.864 23.2376 138.754 22.8455 138.505 22.5159C138.239 22.1629 137.845 21.9252 137.449 21.8799C136.642 21.7869 135.771 22.4052 135.546 23.2301C135.474 23.4965 135.199 23.6541 134.933 23.5815C134.662 23.5069 134.509 23.2341 134.581 22.9677C134.934 21.6711 136.271 20.7374 137.564 20.8862C138.234 20.9634 138.869 21.3375 139.303 21.9126C139.716 22.4593 139.894 23.1299 139.793 23.7527C139.691 24.3812 139.305 24.9595 138.735 25.3398C138.324 25.6145 137.851 25.7662 137.379 25.7825L137.462 27.7003C137.474 27.9764 137.26 28.2095 136.984 28.2213C136.907 28.2248 136.833 28.2104 136.766 28.1819Z" fill="#7098AD"/>
<path d="M137.499 29.1982C137.515 29.4236 137.345 29.6189 137.119 29.6342C136.894 29.6498 136.698 29.4796 136.683 29.2542C136.667 29.0288 136.838 28.8334 137.063 28.8179C137.288 28.8023 137.484 28.9728 137.499 29.1982Z" fill="#7098AD"/>
<path d="M128.154 24.6735C128.157 24.6735 128.165 24.6183 128.178 24.5103C128.191 24.3937 128.208 24.235 128.23 24.0311C128.243 23.8191 128.297 23.5629 128.36 23.2608C128.396 23.1108 128.414 22.9438 128.469 22.775C128.521 22.605 128.576 22.4247 128.635 22.2339C128.894 21.4813 129.294 20.5787 129.968 19.6809C130.636 18.785 131.576 17.8998 132.782 17.2292C133.376 16.8749 134.056 16.6281 134.768 16.4102C135.491 16.239 136.258 16.0921 137.059 16.1111C137.46 16.0897 137.864 16.1484 138.275 16.183C138.481 16.2025 138.683 16.2575 138.89 16.2934C139.097 16.3314 139.304 16.3719 139.507 16.4421C140.334 16.6544 141.138 17.0446 141.904 17.5283C143.441 18.4955 144.736 20.0692 145.446 21.9768C145.802 22.9312 145.973 23.9775 145.971 25.0342C145.992 26.0931 145.787 27.1685 145.411 28.181L145.29 28.4871L145.274 28.5276L145.29 28.5654C145.962 30.1136 146.622 31.6321 147.26 33.1034L147.373 32.9753C145.989 32.4436 144.647 31.928 143.36 31.4332L143.31 31.4142L143.271 31.452C142.158 32.531 140.828 33.2602 139.481 33.6402C138.13 34.021 136.77 34.0406 135.533 33.8206C134.293 33.6011 133.176 33.1267 132.245 32.517C131.311 31.9073 130.563 31.166 129.985 30.4127C129.412 29.651 129.035 28.8701 128.75 28.1725C128.499 27.4596 128.345 26.8268 128.271 26.3032C128.239 26.0416 128.211 25.809 128.187 25.6061C128.181 25.4056 128.177 25.2352 128.173 25.094C128.169 24.9624 128.165 24.8584 128.163 24.7801C128.159 24.7096 128.157 24.6735 128.154 24.6735C128.151 24.6735 128.149 24.7091 128.147 24.7799C128.146 24.8584 128.145 24.9621 128.143 25.0945C128.143 25.2363 128.143 25.408 128.143 25.6096C128.163 25.8141 128.187 26.0486 128.214 26.3123C128.28 26.841 128.426 27.4816 128.672 28.2049C128.951 28.9127 129.326 29.7068 129.9 30.4829C130.479 31.2507 131.233 32.0075 132.176 32.632C133.117 33.2564 134.248 33.7445 135.507 33.9733C136.763 34.2022 138.146 34.188 139.522 33.8048C140.893 33.4226 142.251 32.6832 143.388 31.5855L143.299 31.6042C144.586 32.1008 145.927 32.6186 147.311 33.1524L147.513 33.2304L147.424 33.0243C146.786 31.5525 146.128 30.0337 145.456 28.4852L145.457 28.5632L145.58 28.2505C145.966 27.2157 146.174 26.1156 146.153 25.0334C146.154 23.9533 145.978 22.8838 145.613 21.909C144.885 19.9604 143.56 18.3591 141.992 17.3777C141.211 16.8867 140.391 16.4928 139.549 16.2789C139.343 16.2084 139.131 16.1679 138.921 16.1299C138.711 16.094 138.505 16.039 138.296 16.0197C137.877 15.9862 137.467 15.9286 137.06 15.9519C136.246 15.9364 135.467 16.0886 134.733 16.2668C134.011 16.4917 133.323 16.7466 132.722 17.1094C131.502 17.7974 130.556 18.7019 129.888 19.615C129.214 20.5296 128.819 21.447 128.568 22.2097C128.512 22.403 128.459 22.586 128.409 22.7578C128.356 22.9288 128.34 23.0974 128.307 23.249C128.249 23.5546 128.2 23.8129 128.194 24.0265C128.18 24.2315 128.168 24.3918 128.159 24.5089C128.153 24.6177 128.151 24.6732 128.154 24.6735Z" fill="#263238"/>
</g>
<defs>
<clipPath id="clip0_63871_2065">
<rect width="201" height="134" fill="white" transform="translate(0 0.367432)"/>
</clipPath>
</defs>
</svg>
