<svg width="82" height="175" viewBox="0 0 82 175" fill="none" xmlns="http://www.w3.org/2000/svg">
<path d="M5.41351 57.159C5.44251 55.833 5.39551 54.505 5.27351 53.184L3.82751 37.562C2.88751 27.405 6.34351 14.373 13.5565 7.16C19.7565 0.96 29.3995 0 38.8605 0H42.9525C52.4135 0 62.0565 0.96 68.2565 7.16C75.4695 14.373 78.9255 27.405 77.9855 37.562L76.5385 53.184C76.4165 54.505 76.3695 55.832 76.3985 57.159L78.2905 131.411C78.2905 142.762 69.0885 174.176 57.7365 174.176H24.0745C12.7235 174.176 3.52051 142.762 3.52051 131.411L5.41351 57.159Z" fill="#E13E26"/>
<path d="M70.9634 63.0702C70.9354 61.8062 74.7544 56.0302 74.8714 54.7702L76.2504 39.8792C77.1464 30.1972 73.8524 17.7742 66.9764 10.8992C61.0664 4.98922 51.8744 4.07422 42.8564 4.07422H38.9554C29.9374 4.07422 20.7454 4.98922 14.8354 10.8992C7.96041 17.7752 4.66542 30.1972 5.56142 39.8792L6.94041 54.7702C7.05741 56.0292 10.8754 61.8052 10.8474 63.0702V132.129C10.8474 142.949 14.0414 170.102 24.8614 170.102H56.9484C67.7694 170.102 70.9634 142.95 70.9634 132.129V63.0702Z" fill="#FB0102"/>
<path d="M7.85245 60.375V63.849L0.0664458 65.766C0.0664458 65.766 -1.25155 60.375 7.85245 60.375Z" fill="#E13E26"/>
<path d="M9.77053 96.9453C9.77053 97.1633 9.76953 97.3813 9.76953 97.5993C9.76953 114.879 10.8475 132.129 10.8475 132.129C10.8475 132.129 15.1595 119.551 15.1595 114.879V97.9593C13.3785 97.5363 11.5775 97.1903 9.77053 96.9453Z" fill="#45474A"/>
<path d="M15.1602 95.9633V80.2003C15.1602 77.5053 10.8482 63.0703 10.8482 63.0703C10.8482 63.0703 9.90123 78.2333 9.78223 94.3673C11.5992 94.8113 13.3862 95.3633 15.1602 95.9633Z" fill="#45474A"/>
<path d="M72.0404 96.9453C72.0404 97.1633 72.0414 97.3813 72.0414 97.5993C72.0414 114.879 70.9634 132.129 70.9634 132.129C70.9634 132.129 66.6504 119.551 66.6504 114.879V97.9593C68.4324 97.5363 70.2334 97.1903 72.0404 96.9453Z" fill="#45474A"/>
<path d="M66.6504 95.9633V80.2003C66.6504 77.5053 70.9634 63.0703 70.9634 63.0703C70.9634 63.0703 71.9104 78.2333 72.0294 94.3673C70.2114 94.8113 68.4244 95.3633 66.6504 95.9633Z" fill="#45474A"/>
<path d="M73.958 60.375V63.849L81.744 65.766C81.744 65.766 83.062 60.375 73.958 60.375Z" fill="#E13E26"/>
<path d="M17.136 75.5283L10.667 50.5523C10.667 50.5523 17.495 41.0293 40.905 41.0293C64.315 41.0293 71.143 50.5523 71.143 50.5523L64.674 75.5283C64.674 75.5283 51.636 72.4733 40.905 72.4733C30.174 72.4743 17.136 75.5283 17.136 75.5283ZM62.648 130.824C58.728 131.729 48.724 133.567 40.905 133.567C33.086 133.567 23.082 131.729 19.162 130.824C18.111 130.581 17.101 131.357 17.063 132.435L16.272 155.216C16.25 155.843 16.571 156.433 17.11 156.752C26.253 162.167 40.905 161.418 40.905 161.418C40.905 161.418 55.557 162.167 64.7 156.752C65.239 156.433 65.56 155.842 65.538 155.216L64.747 132.435C64.709 131.357 63.699 130.581 62.648 130.824Z" fill="url(#paint0_linear_2021_19144)"/>
<path d="M10.667 13.1032C16.022 11.7672 19.487 5.66422 19.27 4.07422C17.723 4.92222 16.295 5.96222 15.02 7.23622C13.354 8.90322 11.901 10.8992 10.667 13.1032Z" fill="#E9E8D8"/>
<path d="M71.1439 13.1032C65.7879 11.7672 62.3239 5.66422 62.5409 4.07422C64.0879 4.92222 65.5159 5.96222 66.7909 7.23622C68.4569 8.90322 69.9099 10.8992 71.1439 13.1032Z" fill="#E9E8D8"/>
<defs>
<linearGradient id="paint0_linear_2021_19144" x1="-4.5" y1="92" x2="82.5" y2="105" gradientUnits="userSpaceOnUse">
<stop/>
<stop offset="1" stop-color="#666666"/>
</linearGradient>
</defs>
</svg>
