<svg width="20" height="21" viewBox="0 0 20 21" fill="none" xmlns="http://www.w3.org/2000/svg">
<path d="M14.9993 5.28573H15.0068M14.9993 1.95239C16.8035 1.95239 18.3327 3.46489 18.3327 5.29989C18.3327 7.16323 16.7785 8.47156 15.3427 9.36073C15.2381 9.42051 15.1198 9.45196 14.9993 9.45196C14.8789 9.45196 14.7606 9.42051 14.656 9.36073C13.2227 8.46406 11.666 7.17073 11.666 5.29989C11.666 3.46489 13.1952 1.95239 14.9993 1.95239Z" stroke="#003CFF" stroke-width="1.5" stroke-linecap="round" stroke-linejoin="round"/>
<path d="M4.16602 18.6191C5.54673 18.6191 6.66602 17.4999 6.66602 16.1191C6.66602 14.7384 5.54673 13.6191 4.16602 13.6191C2.7853 13.6191 1.66602 14.7384 1.66602 16.1191C1.66602 17.4999 2.7853 18.6191 4.16602 18.6191Z" stroke="#003CFF" stroke-width="1.5" stroke-linecap="round" stroke-linejoin="round"/>
<path d="M9.16667 6.11914H7.91667C6.30583 6.11914 5 7.23831 5 8.61914C5 9.99997 6.30583 11.1191 7.91667 11.1191H10.4167C12.0275 11.1191 13.3333 12.2383 13.3333 13.6191C13.3333 15 12.0275 16.1191 10.4167 16.1191H9.16667" stroke="#003CFF" stroke-width="1.5" stroke-linecap="round" stroke-linejoin="round"/>
</svg>
