<svg width="20" height="21" viewBox="0 0 20 21" fill="none" xmlns="http://www.w3.org/2000/svg">
<path d="M10.0002 13.1339C11.2052 13.1339 12.182 12.1571 12.182 10.9521C12.182 9.7471 11.2052 8.77026 10.0002 8.77026C8.79519 8.77026 7.81836 9.7471 7.81836 10.9521C7.81836 12.1571 8.79519 13.1339 10.0002 13.1339Z" stroke="#003CFF" stroke-width="1.30909" stroke-linecap="round" stroke-linejoin="round"/>
<path d="M15.3818 13.1337C15.285 13.3531 15.2561 13.5964 15.2989 13.8323C15.3417 14.0683 15.4542 14.286 15.6218 14.4574L15.6655 14.501C15.8007 14.6361 15.908 14.7965 15.9812 14.9731C16.0544 15.1497 16.0921 15.3389 16.0921 15.5301C16.0921 15.7212 16.0544 15.9105 15.9812 16.0871C15.908 16.2637 15.8007 16.4241 15.6655 16.5592C15.5304 16.6944 15.3699 16.8017 15.1934 16.8749C15.0168 16.9481 14.8275 16.9858 14.6364 16.9858C14.4452 16.9858 14.2559 16.9481 14.0794 16.8749C13.9028 16.8017 13.7424 16.6944 13.6073 16.5592L13.5636 16.5155C13.3922 16.3479 13.1745 16.2354 12.9386 16.1926C12.7027 16.1499 12.4594 16.1787 12.24 16.2755C12.0249 16.3677 11.8414 16.5208 11.7122 16.7159C11.583 16.9111 11.5137 17.1397 11.5127 17.3737V17.4974C11.5127 17.8831 11.3595 18.2531 11.0867 18.5259C10.8139 18.7987 10.444 18.9519 10.0582 18.9519C9.67241 18.9519 9.30244 18.7987 9.02966 18.5259C8.75688 18.2531 8.60364 17.8831 8.60364 17.4974V17.4319C8.59801 17.1912 8.52009 16.9577 8.38001 16.7619C8.23993 16.566 8.04417 16.4168 7.81818 16.3337C7.59882 16.2369 7.3555 16.208 7.11957 16.2508C6.88365 16.2936 6.66595 16.4061 6.49455 16.5737L6.45091 16.6174C6.31582 16.7526 6.1554 16.8599 5.97882 16.9331C5.80224 17.0063 5.61297 17.044 5.42182 17.044C5.23067 17.044 5.04139 17.0063 4.86481 16.9331C4.68824 16.8599 4.52782 16.7526 4.39273 16.6174C4.25749 16.4823 4.1502 16.3219 4.077 16.1453C4.00381 15.9687 3.96613 15.7794 3.96613 15.5883C3.96613 15.3971 4.00381 15.2078 4.077 15.0313C4.1502 14.8547 4.25749 14.6943 4.39273 14.5592L4.43636 14.5155C4.60403 14.3441 4.7165 14.1264 4.75928 13.8905C4.80205 13.6546 4.77317 13.4113 4.67636 13.1919C4.58417 12.9768 4.43109 12.7933 4.23597 12.6641C4.04085 12.5349 3.81221 12.4656 3.57818 12.4646H3.45455C3.06878 12.4646 2.69881 12.3114 2.42603 12.0386C2.15325 11.7658 2 11.3959 2 11.0101C2 10.6243 2.15325 10.2543 2.42603 9.98157C2.69881 9.70879 3.06878 9.55554 3.45455 9.55554H3.52C3.76072 9.54991 3.99419 9.47199 4.19004 9.33191C4.38589 9.19183 4.53507 8.99608 4.61818 8.77009C4.71499 8.55073 4.74387 8.3074 4.70109 8.07148C4.65832 7.83555 4.54585 7.61785 4.37818 7.44645L4.33455 7.40281C4.19931 7.26773 4.09202 7.10731 4.01882 6.93073C3.94562 6.75415 3.90795 6.56487 3.90795 6.37372C3.90795 6.18257 3.94562 5.9933 4.01882 5.81672C4.09202 5.64014 4.19931 5.47972 4.33455 5.34463C4.46963 5.20939 4.63005 5.10211 4.80663 5.02891C4.98321 4.95571 5.17249 4.91803 5.36364 4.91803C5.55479 4.91803 5.74406 4.95571 5.92064 5.02891C6.09722 5.10211 6.25764 5.20939 6.39273 5.34463L6.43636 5.38827C6.60777 5.55593 6.82547 5.6684 7.06139 5.71118C7.29731 5.75396 7.54064 5.72508 7.76 5.62827H7.81818C8.03329 5.53608 8.21674 5.383 8.34596 5.18788C8.47518 4.99276 8.54452 4.76411 8.54545 4.53009V4.40645C8.54545 4.02068 8.6987 3.65071 8.97148 3.37793C9.24426 3.10515 9.61423 2.9519 10 2.9519C10.3858 2.9519 10.7557 3.10515 11.0285 3.37793C11.3013 3.65071 11.4545 4.02068 11.4545 4.40645V4.4719C11.4555 4.70593 11.5248 4.93458 11.654 5.1297C11.7833 5.32482 11.9667 5.47789 12.1818 5.57009C12.4012 5.6669 12.6445 5.69578 12.8804 5.653C13.1164 5.61022 13.3341 5.49775 13.5055 5.33009L13.5491 5.28645C13.6842 5.15121 13.8446 5.04393 14.0212 4.97073C14.1978 4.89753 14.387 4.85985 14.5782 4.85985C14.7693 4.85985 14.9586 4.89753 15.1352 4.97073C15.3118 5.04393 15.4722 5.15121 15.6073 5.28645C15.7425 5.42154 15.8498 5.58196 15.923 5.75854C15.9962 5.93512 16.0339 6.12439 16.0339 6.31554C16.0339 6.50669 15.9962 6.69597 15.923 6.87254C15.8498 7.04912 15.7425 7.20954 15.6073 7.34463L15.5636 7.38827C15.396 7.55967 15.2835 7.77737 15.2407 8.01329C15.1979 8.24922 15.2268 8.49255 15.3236 8.7119V8.77009C15.4158 8.98519 15.5689 9.16864 15.764 9.29786C15.9591 9.42708 16.1878 9.49643 16.4218 9.49736H16.5455C16.9312 9.49736 17.3012 9.65061 17.574 9.92339C17.8468 10.1962 18 10.5661 18 10.9519C18 11.3377 17.8468 11.7076 17.574 11.9804C17.3012 12.2532 16.9312 12.4065 16.5455 12.4065H16.48C16.246 12.4074 16.0173 12.4767 15.8222 12.6059C15.6271 12.7352 15.474 12.9186 15.3818 13.1337Z" stroke="#003CFF" stroke-width="1.30909" stroke-linecap="round" stroke-linejoin="round"/>
</svg>
