<svg width="20" height="21" viewBox="0 0 20 21" fill="none" xmlns="http://www.w3.org/2000/svg">
<g clip-path="url(#clip0_58169_41191)">
<path d="M5.07692 11.2627V8.02582C5.08654 7.38955 5.2216 6.76143 5.47439 6.17745C5.72717 5.59347 6.0927 5.06511 6.55003 4.62264C7.00736 4.18017 7.54751 3.8323 8.13951 3.59894C8.73152 3.36558 9.36376 3.25133 10 3.26274C10.6362 3.25133 11.2685 3.36558 11.8605 3.59894C12.4525 3.8323 12.9926 4.18017 13.45 4.62264C13.9073 5.06511 14.2728 5.59347 14.5256 6.17745C14.7784 6.76143 14.9135 7.38955 14.9231 8.02582V11.2627M12.4615 17.7243C13.1144 17.7243 13.7405 17.4649 14.2021 17.0033C14.6637 16.5417 14.9231 15.9156 14.9231 15.2627V12.4935M12.4615 17.7243C12.4615 18.1323 12.2995 18.5236 12.0109 18.8121C11.7224 19.1007 11.3311 19.2627 10.9231 19.2627H9.07692C8.6689 19.2627 8.27758 19.1007 7.98907 18.8121C7.70055 18.5236 7.53846 18.1323 7.53846 17.7243C7.53846 17.3163 7.70055 16.9249 7.98907 16.6364C8.27758 16.3479 8.6689 16.1858 9.07692 16.1858H10.9231C11.3311 16.1858 11.7224 16.3479 12.0109 16.6364C12.2995 16.9249 12.4615 17.3163 12.4615 17.7243ZM3.23077 9.41659H4.46154C4.62475 9.41659 4.78127 9.48142 4.89668 9.59683C5.01209 9.71224 5.07692 9.86876 5.07692 10.032V13.7243C5.07692 13.8875 5.01209 14.044 4.89668 14.1594C4.78127 14.2748 4.62475 14.3397 4.46154 14.3397H3.23077C2.90435 14.3397 2.5913 14.21 2.36048 13.9792C2.12967 13.7484 2 13.4353 2 13.1089V10.6474C2 10.3209 2.12967 10.0079 2.36048 9.77707C2.5913 9.54626 2.90435 9.41659 3.23077 9.41659ZM16.7692 14.3397H15.5385C15.3753 14.3397 15.2187 14.2748 15.1033 14.1594C14.9879 14.044 14.9231 13.8875 14.9231 13.7243V10.032C14.9231 9.86876 14.9879 9.71224 15.1033 9.59683C15.2187 9.48142 15.3753 9.41659 15.5385 9.41659H16.7692C17.0957 9.41659 17.4087 9.54626 17.6395 9.77707C17.8703 10.0079 18 10.3209 18 10.6474V13.1089C18 13.4353 17.8703 13.7484 17.6395 13.9792C17.4087 14.21 17.0957 14.3397 16.7692 14.3397Z" stroke="#003CFF" stroke-width="1.23077" stroke-linecap="round" stroke-linejoin="round"/>
</g>
<defs>
<clipPath id="clip0_58169_41191">
<rect width="20" height="20" fill="white" transform="translate(0 0.833252)"/>
</clipPath>
</defs>
</svg>
