<svg width="230" height="230" viewBox="0 0 230 230" fill="none" xmlns="http://www.w3.org/2000/svg">
<path d="M230 175.904H0V176.019H230V175.904Z" fill="#EBEBEB"/>
<path d="M79.6804 178.839H69.0176V178.954H79.6804V178.839Z" fill="#EBEBEB"/>
<path d="M211.033 181.305H184.965V181.42H211.033V181.305Z" fill="#EBEBEB"/>
<path d="M45.7186 181.305H19.6504V181.42H45.7186V181.305Z" fill="#EBEBEB"/>
<path d="M109.02 155.388H20.1982C18.7492 155.385 17.5762 154.21 17.5762 152.761V27.9034C17.5886 26.4636 18.7584 25.3021 20.1982 25.2998H109.02C110.47 25.2998 111.646 26.4756 111.646 27.9264V152.761C111.646 154.212 110.47 155.388 109.02 155.388ZM20.1982 25.3918C18.8127 25.3946 17.6912 26.5179 17.6912 27.9034V152.761C17.6912 154.147 18.8127 155.27 20.1982 155.273H109.02C110.406 155.271 111.528 154.147 111.531 152.761V27.9034C111.528 26.5174 110.406 25.3946 109.02 25.3918H20.1982Z" fill="#EBEBEB"/>
<path d="M208.523 155.388H119.697C118.247 155.385 117.073 154.211 117.07 152.761V27.9034C117.085 26.4627 118.256 25.3021 119.697 25.2998H208.523C209.961 25.3049 211.128 26.4654 211.14 27.9034V152.761C211.14 154.208 209.97 155.383 208.523 155.388ZM119.697 25.3918C118.311 25.3946 117.188 26.5174 117.185 27.9034V152.761C117.188 154.147 118.311 155.27 119.697 155.273H208.523C209.909 155.271 211.032 154.147 211.035 152.761V27.9034C211.032 26.5174 209.909 25.3946 208.523 25.3918H119.697Z" fill="#EBEBEB"/>
<path d="M45.4001 59.9863H83.7057C85.3267 59.9863 86.6405 61.3005 86.6405 62.9216V175.8H42.4805V62.9161C42.4837 61.3033 43.7873 59.9951 45.4001 59.9863Z" fill="#F5F5F5"/>
<path d="M51.8306 66.8301H46.1367V79.5072H51.8306V66.8301Z" fill="#EBEBEB"/>
<path d="M82.9712 66.8301H77.2773V79.5072H82.9712V66.8301Z" fill="#EBEBEB"/>
<path d="M62.2095 66.8301H56.5156V79.5072H62.2095V66.8301Z" fill="#EBEBEB"/>
<path d="M72.5923 66.8301H66.8984V79.5072H72.5923V66.8301Z" fill="#EBEBEB"/>
<path d="M51.8306 86.8428H46.1367V99.5199H51.8306V86.8428Z" fill="#EBEBEB"/>
<path d="M82.9712 86.8428H77.2773V99.5199H82.9712V86.8428Z" fill="#EBEBEB"/>
<path d="M62.2095 86.8428H56.5156V99.5199H62.2095V86.8428Z" fill="#EBEBEB"/>
<path d="M72.5923 86.8428H66.8984V99.5199H72.5923V86.8428Z" fill="#EBEBEB"/>
<path d="M51.8306 106.854H46.1367V119.532H51.8306V106.854Z" fill="#EBEBEB"/>
<path d="M82.9712 106.854H77.2773V119.532H82.9712V106.854Z" fill="#EBEBEB"/>
<path d="M62.2095 106.854H56.5156V119.532H62.2095V106.854Z" fill="#EBEBEB"/>
<path d="M72.5923 106.854H66.8984V119.532H72.5923V106.854Z" fill="#EBEBEB"/>
<path d="M51.8306 126.867H46.1367V139.544H51.8306V126.867Z" fill="#EBEBEB"/>
<path d="M82.9712 126.867H77.2773V139.544H82.9712V126.867Z" fill="#EBEBEB"/>
<path d="M62.2095 126.867H56.5156V139.544H62.2095V126.867Z" fill="#EBEBEB"/>
<path d="M72.5923 126.867H66.8984V139.544H72.5923V126.867Z" fill="#EBEBEB"/>
<path d="M51.8306 146.879H46.1367V159.556H51.8306V146.879Z" fill="#EBEBEB"/>
<path d="M82.9712 146.879H77.2773V159.556H82.9712V146.879Z" fill="#EBEBEB"/>
<path d="M62.2095 146.879H56.5156V159.556H62.2095V146.879Z" fill="#EBEBEB"/>
<path d="M72.5923 146.879H66.8984V159.556H72.5923V146.879Z" fill="#EBEBEB"/>
<path d="M181.21 70.5107H208.645C209.963 70.5107 211.032 71.5793 211.032 72.8972V175.8H178.85V72.9027C178.847 71.5922 179.9 70.525 181.21 70.5107Z" fill="#F5F5F5"/>
<path d="M188.106 76.7324H182.93V88.2554H188.106V76.7324Z" fill="#EBEBEB"/>
<path d="M197.542 76.7324H192.365V88.2554H197.542V76.7324Z" fill="#EBEBEB"/>
<path d="M206.979 76.7324H201.803V88.2554H206.979V76.7324Z" fill="#EBEBEB"/>
<path d="M188.106 94.9277H182.93V106.451H188.106V94.9277Z" fill="#EBEBEB"/>
<path d="M197.542 94.9277H192.365V106.451H197.542V94.9277Z" fill="#EBEBEB"/>
<path d="M206.979 94.9277H201.803V106.451H206.979V94.9277Z" fill="#EBEBEB"/>
<path d="M188.106 113.123H182.93V124.646H188.106V113.123Z" fill="#EBEBEB"/>
<path d="M197.542 113.123H192.365V124.646H197.542V113.123Z" fill="#EBEBEB"/>
<path d="M206.979 113.123H201.803V124.646H206.979V113.123Z" fill="#EBEBEB"/>
<path d="M188.106 131.313H182.93V142.836H188.106V131.313Z" fill="#EBEBEB"/>
<path d="M197.542 131.313H192.365V142.836H197.542V131.313Z" fill="#EBEBEB"/>
<path d="M206.979 131.313H201.803V142.836H206.979V131.313Z" fill="#EBEBEB"/>
<path d="M188.106 149.509H182.93V161.032H188.106V149.509Z" fill="#EBEBEB"/>
<path d="M197.542 149.509H192.365V161.032H197.542V149.509Z" fill="#EBEBEB"/>
<path d="M206.979 149.509H201.803V161.032H206.979V149.509Z" fill="#EBEBEB"/>
<path d="M118.364 41.0615H162.928C164.813 41.0615 166.34 42.5887 166.34 44.4729V175.8H114.953V44.4729C114.953 42.5892 116.48 41.0615 118.364 41.0615Z" fill="#F5F5F5"/>
<path d="M125.843 49.0234H119.217V63.771H125.843V49.0234Z" fill="#EBEBEB"/>
<path d="M162.073 49.0234H155.447V63.771H162.073V49.0234Z" fill="#EBEBEB"/>
<path d="M137.921 49.0234H131.295V63.771H137.921V49.0234Z" fill="#EBEBEB"/>
<path d="M149.997 49.0234H143.371V63.771H149.997V49.0234Z" fill="#EBEBEB"/>
<path d="M125.843 72.3066H119.217V87.0542H125.843V72.3066Z" fill="#EBEBEB"/>
<path d="M162.073 72.3066H155.447V87.0542H162.073V72.3066Z" fill="#EBEBEB"/>
<path d="M137.921 72.3066H131.295V87.0542H137.921V72.3066Z" fill="#EBEBEB"/>
<path d="M149.997 72.3066H143.371V87.0542H149.997V72.3066Z" fill="#EBEBEB"/>
<path d="M125.843 95.5898H119.217V110.337H125.843V95.5898Z" fill="#EBEBEB"/>
<path d="M162.073 95.5898H155.447V110.337H162.073V95.5898Z" fill="#EBEBEB"/>
<path d="M137.921 95.5898H131.295V110.337H137.921V95.5898Z" fill="#EBEBEB"/>
<path d="M149.997 95.5898H143.371V110.337H149.997V95.5898Z" fill="#EBEBEB"/>
<path d="M125.843 118.874H119.217V133.622H125.843V118.874Z" fill="#EBEBEB"/>
<path d="M162.073 118.874H155.447V133.622H162.073V118.874Z" fill="#EBEBEB"/>
<path d="M137.921 118.874H131.295V133.622H137.921V118.874Z" fill="#EBEBEB"/>
<path d="M149.997 118.874H143.371V133.622H149.997V118.874Z" fill="#EBEBEB"/>
<path d="M125.843 142.153H119.217V156.901H125.843V142.153Z" fill="#EBEBEB"/>
<path d="M162.073 142.153H155.447V156.901H162.073V142.153Z" fill="#EBEBEB"/>
<path d="M137.921 142.153H131.295V156.901H137.921V142.153Z" fill="#EBEBEB"/>
<path d="M149.997 142.153H143.371V156.901H149.997V142.153Z" fill="#EBEBEB"/>
<path d="M114.953 89.3164H86.6426V175.8H114.953V89.3164Z" fill="#E6E6E6"/>
<path d="M178.85 98.5771H166.344V175.8H178.85V98.5771Z" fill="#E6E6E6"/>
<path d="M42.4661 175.8H17.6914V139.694L42.4661 131.313V175.8Z" fill="#E6E6E6"/>
<path d="M115 196.678C164.258 196.678 204.189 193.405 204.189 189.367C204.189 185.329 164.258 182.056 115 182.056C65.742 182.056 25.8105 185.329 25.8105 189.367C25.8105 193.405 65.742 196.678 115 196.678Z" fill="#F5F5F5"/>
<path d="M132.334 160.506H124.517C120.446 160.506 117.146 166.408 117.146 173.687C117.146 180.967 120.446 186.865 124.517 186.865H132.334C136.405 186.865 139.704 180.967 139.704 173.687C139.704 166.408 136.405 160.506 132.334 160.506Z" fill="black"/>
<path d="M200.281 75.7627H63.3418V163.233H200.281V75.7627Z" fill="#407BFF"/>
<path opacity="0.3" d="M200.28 75.7627H107.469V163.372H200.28V75.7627Z" fill="#263238"/>
<path opacity="0.2" d="M107.47 75.7627H63.3418V165.051H107.47V75.7627Z" fill="white"/>
<path opacity="0.1" d="M63.6699 79.8301H200.28" stroke="white" stroke-width="0.92" stroke-miterlimit="10" stroke-linecap="round" stroke-linejoin="round"/>
<path opacity="0.1" d="M63.6699 83.6123H200.28" stroke="white" stroke-width="0.92" stroke-miterlimit="10" stroke-linecap="round" stroke-linejoin="round"/>
<path opacity="0.1" d="M63.6699 87.3955H200.28" stroke="white" stroke-width="0.92" stroke-miterlimit="10" stroke-linecap="round" stroke-linejoin="round"/>
<path opacity="0.1" d="M63.6699 91.1777H200.28" stroke="white" stroke-width="0.92" stroke-miterlimit="10" stroke-linecap="round" stroke-linejoin="round"/>
<path opacity="0.1" d="M63.6699 94.96H200.28" stroke="white" stroke-width="0.92" stroke-miterlimit="10" stroke-linecap="round" stroke-linejoin="round"/>
<path opacity="0.1" d="M63.6699 98.7432H200.28" stroke="white" stroke-width="0.92" stroke-miterlimit="10" stroke-linecap="round" stroke-linejoin="round"/>
<path opacity="0.1" d="M63.6699 102.525H200.28" stroke="white" stroke-width="0.92" stroke-miterlimit="10" stroke-linecap="round" stroke-linejoin="round"/>
<path opacity="0.1" d="M63.6699 106.309H200.28" stroke="white" stroke-width="0.92" stroke-miterlimit="10" stroke-linecap="round" stroke-linejoin="round"/>
<path opacity="0.1" d="M63.6699 110.09H200.28" stroke="white" stroke-width="0.92" stroke-miterlimit="10" stroke-linecap="round" stroke-linejoin="round"/>
<path opacity="0.1" d="M63.6699 113.873H200.28" stroke="white" stroke-width="0.92" stroke-miterlimit="10" stroke-linecap="round" stroke-linejoin="round"/>
<path opacity="0.1" d="M63.6699 117.655H200.28" stroke="white" stroke-width="0.92" stroke-miterlimit="10" stroke-linecap="round" stroke-linejoin="round"/>
<path opacity="0.1" d="M63.6699 121.438H200.28" stroke="white" stroke-width="0.92" stroke-miterlimit="10" stroke-linecap="round" stroke-linejoin="round"/>
<path opacity="0.1" d="M63.6699 125.221H200.28" stroke="white" stroke-width="0.92" stroke-miterlimit="10" stroke-linecap="round" stroke-linejoin="round"/>
<path opacity="0.1" d="M63.6699 129.003H200.28" stroke="white" stroke-width="0.92" stroke-miterlimit="10" stroke-linecap="round" stroke-linejoin="round"/>
<path opacity="0.1" d="M63.6699 132.785H200.28" stroke="white" stroke-width="0.92" stroke-miterlimit="10" stroke-linecap="round" stroke-linejoin="round"/>
<path opacity="0.1" d="M63.6699 136.568H200.28" stroke="white" stroke-width="0.92" stroke-miterlimit="10" stroke-linecap="round" stroke-linejoin="round"/>
<path opacity="0.1" d="M63.6699 140.351H200.28" stroke="white" stroke-width="0.92" stroke-miterlimit="10" stroke-linecap="round" stroke-linejoin="round"/>
<path opacity="0.1" d="M63.6699 144.134H200.28" stroke="white" stroke-width="0.92" stroke-miterlimit="10" stroke-linecap="round" stroke-linejoin="round"/>
<path opacity="0.1" d="M63.6699 147.916H200.28" stroke="white" stroke-width="0.92" stroke-miterlimit="10" stroke-linecap="round" stroke-linejoin="round"/>
<path opacity="0.1" d="M63.6699 151.698H200.28" stroke="white" stroke-width="0.92" stroke-miterlimit="10" stroke-linecap="round" stroke-linejoin="round"/>
<path opacity="0.1" d="M63.6699 155.48H200.28" stroke="white" stroke-width="0.92" stroke-miterlimit="10" stroke-linecap="round" stroke-linejoin="round"/>
<path opacity="0.1" d="M63.6699 159.264H200.28" stroke="white" stroke-width="0.92" stroke-miterlimit="10" stroke-linecap="round" stroke-linejoin="round"/>
<path d="M38.2148 162.222H30.9748C27.2042 162.222 24.1484 167.687 24.1484 174.43C24.1484 181.172 27.2042 186.634 30.9748 186.634H38.2143C41.9849 186.634 45.0407 181.171 45.0407 174.43C45.0407 167.688 41.9854 162.222 38.2148 162.222Z" fill="black"/>
<path d="M34.1868 138.385H30.763C30.0946 138.405 29.5408 137.686 29.5256 136.778C29.5242 136.682 29.5288 136.586 29.5394 136.491L30.4728 126.155C30.5873 125.093 31.2469 124.296 32.0363 124.266H35.4638C36.1321 124.248 36.6841 124.97 36.6975 125.878C36.6989 125.97 36.6943 126.063 36.6841 126.155L35.7508 136.491C35.6381 137.556 34.9775 138.356 34.1868 138.385Z" fill="#263238"/>
<path d="M37.6093 104.243L31.0078 139.853L102.872 167.994L102.371 97.8324L86.5652 97.3545H43.2705C40.6697 97.3517 38.3729 100.147 37.6093 104.243Z" fill="#407BFF"/>
<path d="M91.0962 109.969C88.4172 109.85 86.0096 112.047 85.2253 115.326L79.7876 138.105H69.3024L68.7324 168.156H103.156" fill="#407BFF"/>
<path d="M38.6539 136.191C37.6024 136.191 36.75 134.841 36.75 133.174C36.75 132.881 36.7771 132.589 36.83 132.307L40.7842 111.409C41.1145 109.672 42.1265 108.485 43.2714 108.492H81.0747C81.4855 108.49 81.819 109.016 81.8203 109.667C81.8203 109.785 81.8098 109.902 81.7881 110.014C80.9578 114.321 78.2673 128.582 77.2406 134.041C76.9977 135.318 76.2553 136.192 75.4135 136.191H38.6539Z" fill="#263238"/>
<path d="M73.4264 145.456C73.4264 145.823 73.3988 146.19 73.3464 146.553L73.149 147.901L73.034 148.697L72.1849 154.508L70.8067 163.964L70.4249 166.591H16.9297L16.9398 163.964L16.9771 154.508L16.9996 148.855L17.0047 147.607L17.0097 146.553C16.5654 143.514 18.0185 140.563 20.2532 139.961C20.5177 139.888 20.7877 139.854 21.0573 139.854H69.3016C71.5786 139.853 73.4264 142.36 73.4264 145.456Z" fill="#407BFF"/>
<path d="M100.614 111.325V133.729C100.614 135.09 99.9194 136.194 99.061 136.197H85.9887C85.129 136.197 84.4316 135.093 84.4316 133.73C84.4316 133.507 84.451 133.284 84.4887 133.069L88.5192 110.163C88.7106 109.064 89.3536 108.317 90.0726 108.361L99.1144 108.858C99.9516 108.906 100.615 109.996 100.614 111.325Z" fill="#263238"/>
<path opacity="0.1" d="M60.6903 108.493H53.4688L45.1777 136.192H52.402L60.6903 108.493Z" fill="white"/>
<path opacity="0.1" d="M66.311 108.493H62.8605L54.5723 136.192H58.02L66.311 108.493Z" fill="white"/>
<path d="M87.2822 154.508V163.964H16.9395L16.9772 154.508H87.2822Z" fill="black"/>
<path d="M77.4855 154.508H70.9811L59.2852 161.383V163.964H87.2831V154.508H77.4855Z" fill="white"/>
<path d="M29.0674 161.382V163.964H16.9395L16.9772 154.508H17.3714L29.0674 161.382Z" fill="white"/>
<path opacity="0.3" d="M102.905 168.157L102.372 97.8324L92.6932 97.3591C90.2855 97.2409 87.503 100.04 86.7983 103.288L79.8123 139.853H77.0854C74.0232 139.853 71.9256 142.086 71.9297 144.431L71.9693 168.157H102.905Z" fill="#263238"/>
<path d="M73.2447 148.231C73.2447 148.416 73.1646 148.583 73.0349 148.698C72.9227 148.795 72.7801 148.855 72.6204 148.855H17L17.0051 147.606H72.6204C72.8449 147.606 73.04 147.724 73.1499 147.901C73.2097 147.998 73.2447 148.111 73.2447 148.231Z" fill="white"/>
<path d="M26.8284 147.606V148.855H17L17.0051 147.606H26.8284Z" fill="#263238"/>
<path d="M73.2437 148.231C73.2437 148.416 73.1636 148.583 73.0339 148.698C72.9217 148.795 72.7791 148.855 72.6194 148.855H59.1309V147.606H72.6194C72.8439 147.606 73.039 147.724 73.1489 147.901C73.2087 147.998 73.2437 148.111 73.2437 148.231Z" fill="#263238"/>
<path d="M202.736 165.605V165.855C202.736 167.126 201.704 168.157 200.433 168.157H17.7245C16.4512 168.157 15.4199 167.126 15.4199 165.855V165.605C15.4199 164.334 16.4512 163.303 17.7245 163.303H200.434C201.705 163.303 202.736 164.334 202.736 165.605Z" fill="#263238"/>
<path d="M58.2407 165.189H31.0078V166.519H58.2407V165.189Z" fill="black"/>
<path d="M23.7641 165.855C23.7641 166.274 23.4242 166.614 23.0051 166.614C22.586 166.614 22.2461 166.274 22.2461 165.855C22.2461 165.436 22.586 165.096 23.0051 165.096C23.4242 165.096 23.7641 165.436 23.7641 165.855Z" fill="white"/>
<path d="M64.7465 165.855C64.7465 166.274 64.4066 166.614 63.9875 166.614C63.5685 166.614 63.2285 166.274 63.2285 165.855C63.2285 165.436 63.5685 165.096 63.9875 165.096C64.4066 165.096 64.7465 165.436 64.7465 165.855Z" fill="white"/>
<path d="M87.6711 173.387C87.6711 166.069 90.9882 160.136 95.0808 160.136H87.2222C83.1291 160.136 79.8125 166.069 79.8125 173.387C79.8125 180.705 83.1296 186.635 87.2222 186.635H95.0808C90.9882 186.648 87.6711 180.718 87.6711 173.387Z" fill="black"/>
<path opacity="0.7" d="M87.6711 173.387C87.6711 166.069 90.9882 160.136 95.0808 160.136H87.2222C83.1291 160.136 79.8125 166.069 79.8125 173.387C79.8125 180.705 83.1296 186.635 87.2222 186.635H95.0808C90.9882 186.648 87.6711 180.718 87.6711 173.387Z" fill="#263238"/>
<path d="M95.0816 186.651C99.1738 186.651 102.491 180.718 102.491 173.4C102.491 166.081 99.1738 160.148 95.0816 160.148C90.9893 160.148 87.6719 166.081 87.6719 173.4C87.6719 180.718 90.9893 186.651 95.0816 186.651Z" fill="#263238"/>
<path d="M95.6774 183.731C98.5799 183.731 100.933 179.105 100.933 173.4C100.933 167.695 98.5799 163.069 95.6774 163.069C92.7748 163.069 90.4219 167.695 90.4219 173.4C90.4219 179.105 92.7748 183.731 95.6774 183.731Z" fill="white"/>
<path d="M95.1959 182.342C97.9716 182.342 100.222 178.338 100.222 173.399C100.222 168.461 97.9716 164.457 95.1959 164.457C92.4201 164.457 90.1699 168.461 90.1699 173.399C90.1699 178.338 92.4201 182.342 95.1959 182.342Z" fill="#263238"/>
<path d="M94.0922 179.929C96.1193 179.929 97.7626 177.005 97.7626 173.399C97.7626 169.793 96.1193 166.87 94.0922 166.87C92.0651 166.87 90.4219 169.793 90.4219 173.399C90.4219 177.005 92.0651 179.929 94.0922 179.929Z" fill="black"/>
<path opacity="0.5" d="M202.735 165.605V165.854C202.735 167.125 201.704 168.157 200.433 168.157H107.471V163.303H200.433C201.704 163.302 202.735 164.334 202.735 165.605Z" fill="black"/>
<path d="M164.639 173.387C164.639 166.069 167.956 160.136 172.049 160.136H164.191C160.098 160.136 156.781 166.069 156.781 173.387C156.781 180.705 160.098 186.635 164.191 186.635H172.049C167.956 186.648 164.639 180.718 164.639 173.387Z" fill="black"/>
<path opacity="0.7" d="M164.639 173.387C164.639 166.069 167.956 160.136 172.049 160.136H164.191C160.098 160.136 156.781 166.069 156.781 173.387C156.781 180.705 160.098 186.635 164.191 186.635H172.049C167.956 186.648 164.639 180.718 164.639 173.387Z" fill="#263238"/>
<path d="M172.05 186.651C176.143 186.651 179.46 180.718 179.46 173.4C179.46 166.081 176.143 160.148 172.05 160.148C167.958 160.148 164.641 166.081 164.641 173.4C164.641 180.718 167.958 186.651 172.05 186.651Z" fill="#263238"/>
<path d="M172.644 183.731C175.547 183.731 177.9 179.105 177.9 173.4C177.9 167.695 175.547 163.069 172.644 163.069C169.742 163.069 167.389 167.695 167.389 173.4C167.389 179.105 169.742 183.731 172.644 183.731Z" fill="white"/>
<path d="M172.165 182.342C174.94 182.342 177.191 178.338 177.191 173.399C177.191 168.461 174.94 164.457 172.165 164.457C169.389 164.457 167.139 168.461 167.139 173.399C167.139 178.338 169.389 182.342 172.165 182.342Z" fill="#263238"/>
<path d="M171.061 179.929C173.088 179.929 174.731 177.005 174.731 173.399C174.731 169.793 173.088 166.87 171.061 166.87C169.034 166.87 167.391 169.793 167.391 173.399C167.391 177.005 169.034 179.929 171.061 179.929Z" fill="black"/>
<path d="M151.276 108.545C151.183 110.316 151.02 112.028 150.762 113.77C150.536 115.571 150.14 117.347 149.582 119.074C149.409 119.578 149.188 120.064 148.924 120.527C148.742 120.842 148.52 121.13 148.262 121.385L148.133 121.503L148.062 121.559L148.021 121.592L147.866 121.699L147.559 121.914C146.777 122.415 145.954 122.851 145.1 123.215C143.48 123.926 141.797 124.484 140.074 124.88L139.479 123.241C140.939 122.431 142.437 121.603 143.805 120.745C144.474 120.336 145.116 119.887 145.729 119.399L145.928 119.225L146.032 119.14V119.121C146.032 119.121 146.072 119.051 146.124 118.944C146.256 118.65 146.366 118.347 146.453 118.038C146.663 117.285 146.829 116.521 146.949 115.748C147.09 114.95 147.204 114.132 147.3 113.307C147.489 111.665 147.652 109.979 147.777 108.341L151.276 108.545Z" fill="#CE7A63"/>
<path d="M140.566 123.278L137.74 122.405L138.269 125.823C138.269 125.823 140.118 125.593 141.009 124.562L140.566 123.278Z" fill="#CE7A63"/>
<path d="M134.325 124.606L134.48 125.053C134.664 125.575 135.167 125.914 135.719 125.889L137.161 125.823L136.632 122.405L135.045 123.027C134.421 123.275 134.102 123.971 134.325 124.606Z" fill="#CE7A63"/>
<path d="M154.615 105.242C154.615 106.311 154.097 108.415 153.657 109.998C153.332 111.137 153.058 112.002 153.058 112.002L152.411 111.84L147.067 110.486C146.982 107.742 147.089 104.724 149.819 102.919C151.538 101.788 154.6 103.341 154.615 105.242Z" fill="#263238"/>
<path opacity="0.3" d="M154.609 105.427C154.261 105.057 153.47 104.994 151.746 105.541C149.276 106.321 148.584 109.028 148.551 110.863L152.412 111.839L152.745 111.924L153.059 112.002C153.059 112.002 153.195 111.569 153.388 110.911C153.466 110.641 153.562 110.33 153.654 109.997C154.076 108.504 154.564 106.536 154.609 105.427Z" fill="black"/>
<path d="M143.647 191.116L140.385 189.973L142.434 182.909L145.692 184.056L143.647 191.116Z" fill="#CE7A63"/>
<path d="M187.219 182.746L184.567 184.721L179.135 179.214L181.787 177.235L187.219 182.746Z" fill="#CE7A63"/>
<path d="M183.481 183.919L186.347 181.548C186.446 181.46 186.595 181.46 186.695 181.548L188.895 183.545C189.106 183.748 189.112 184.082 188.91 184.293C188.895 184.309 188.879 184.323 188.862 184.337C187.849 185.147 187.316 185.487 186.059 186.526C185.282 187.166 183.662 188.697 182.59 189.581C181.517 190.465 180.585 189.456 180.956 188.99C182.598 186.911 182.979 185.543 183.175 184.419C183.214 184.22 183.323 184.044 183.481 183.919Z" fill="#263238"/>
<path d="M140.162 188.956L143.787 190.468C143.918 190.527 143.996 190.665 143.979 190.809L143.569 194.004C143.536 194.272 143.293 194.462 143.025 194.43C142.978 194.424 142.932 194.411 142.888 194.393C141.605 193.871 141.002 193.612 139.412 192.947L134.526 190.913C133.202 190.358 133.487 188.905 134.086 189.012C136.767 189.496 138.494 189.337 139.552 188.938C139.75 188.864 139.969 188.87 140.162 188.956Z" fill="#263238"/>
<path opacity="0.2" d="M142.433 182.912L141.379 186.551L144.552 187.986L145.695 184.055L142.433 182.912Z" fill="black"/>
<path opacity="0.2" d="M181.79 177.235L179.135 179.214L181.934 182.054L184.59 180.076L181.79 177.235Z" fill="black"/>
<path d="M164.645 122.513L151.21 122.705C149.361 112.305 148.936 107.339 148.936 104.954C148.932 103.726 149.799 102.669 151.003 102.431C151.824 102.272 152.852 102.087 153.869 101.947C154.22 101.899 154.575 101.855 154.923 101.818C156.951 101.642 158.989 101.612 161.021 101.729C161.324 101.729 161.624 101.755 161.924 101.773C163.285 101.862 164.564 102.036 165.463 102.176C166.134 102.283 166.593 102.914 166.485 103.586C166.482 103.609 166.477 103.632 166.472 103.655C166.08 105.504 165.758 107.128 165.5 108.581C165.089 110.893 164.83 112.76 164.679 114.398C164.451 117.098 164.44 119.812 164.645 122.513Z" fill="#263238"/>
<path opacity="0.1" d="M164.679 114.41C164.002 112.383 164.039 108.174 164.768 106.81L165.507 108.592C165.089 110.904 164.831 112.772 164.679 114.41Z" fill="black"/>
<path d="M151.21 122.705C151.21 122.705 148.935 142.262 146.838 154.436C145.196 163.974 141.047 183.833 141.047 183.833L146.432 185.741C146.432 185.741 152.6 165.031 153.68 156.2C158.03 143.455 161.154 122.598 161.154 122.598L151.21 122.705Z" fill="#407BFF"/>
<path d="M140.17 185.176L146.405 187.373L147.237 185.372L140.477 182.787L140.17 185.176Z" fill="#263238"/>
<path opacity="0.1" d="M158.018 128.515L156.006 132.373C155.266 135.279 155.443 142.358 156.375 146.829C158.051 140.087 159.389 132.994 160.221 128.234L158.018 128.515Z" fill="black"/>
<path d="M154.127 122.705C154.127 122.705 156.535 144.591 161.028 156.728C163.28 162.827 180 180.893 180 180.893L183.772 177.875C183.772 177.875 173.169 159.646 168.535 154.883C166.645 144.295 169.019 128.44 164.63 122.505L154.127 122.705Z" fill="#407BFF"/>
<path d="M180.323 182.203L184.746 178.575L183.552 176.614L178.707 180.831L180.323 182.203Z" fill="#263238"/>
<path d="M164.852 121.725L165.473 122.916C165.521 123.008 165.414 123.108 165.259 123.108L151.165 123.311C151.043 123.311 150.943 123.252 150.932 123.178L150.795 121.976C150.795 121.895 150.891 121.821 151.02 121.821L164.63 121.625C164.716 121.617 164.8 121.655 164.852 121.725Z" fill="#263238"/>
<path d="M163.029 123.27H163.399C163.469 123.27 163.524 123.23 163.521 123.185L163.325 121.624C163.325 121.577 163.258 121.543 163.184 121.543H162.814C162.744 121.543 162.689 121.583 162.696 121.628L162.888 123.189C162.892 123.233 162.959 123.27 163.029 123.27Z" fill="#407BFF"/>
<path d="M152.175 123.426H152.545C152.619 123.426 152.671 123.385 152.667 123.341L152.475 121.78C152.475 121.732 152.404 121.695 152.33 121.698H151.96C151.886 121.698 151.831 121.739 151.839 121.784L152.031 123.344C152.038 123.389 152.105 123.426 152.175 123.426Z" fill="#407BFF"/>
<path d="M157.605 123.337H157.975C158.049 123.337 158.104 123.296 158.096 123.252L157.904 121.691C157.904 121.643 157.834 121.606 157.763 121.61H157.394C157.32 121.61 157.268 121.65 157.272 121.695L157.464 123.256C157.457 123.311 157.531 123.337 157.605 123.337Z" fill="#407BFF"/>
<path d="M133.232 108.938L153.17 106.199L155.932 125.77L136.353 128.46L133.232 108.938Z" fill="#407BFF"/>
<path opacity="0.8" d="M133.232 108.938L153.17 106.199L155.932 125.77L136.353 128.46L133.232 108.938Z" fill="white"/>
<path opacity="0.2" d="M153.138 105.932L147.811 106.664L150.586 126.87L155.914 126.138L153.138 105.932Z" fill="#407BFF"/>
<path d="M158.824 123.309L156.072 122.229L156.342 125.675C156.342 125.675 158.191 125.587 159.171 124.621L158.824 123.309Z" fill="#CE7A63"/>
<path d="M167.504 106.129C168.243 108.2 168.88 110.256 169.427 112.386C169.701 113.448 169.96 114.517 170.167 115.626C170.266 116.177 170.355 116.736 170.422 117.32C170.495 117.933 170.521 118.552 170.5 119.169C170.487 119.57 170.425 119.967 170.315 120.353C170.164 120.827 169.912 121.262 169.575 121.629C169.082 122.155 168.497 122.586 167.848 122.901C166.787 123.417 165.67 123.808 164.519 124.066C162.366 124.565 160.171 124.859 157.962 124.942L157.748 123.211C158.754 122.97 159.786 122.704 160.788 122.423C161.791 122.143 162.789 121.832 163.747 121.48C164.661 121.168 165.542 120.765 166.376 120.279C166.68 120.101 166.951 119.873 167.179 119.606C167.238 119.513 167.238 119.487 167.227 119.487C167.236 119.352 167.236 119.216 167.227 119.081C167.21 118.634 167.163 118.189 167.086 117.749C167.012 117.269 166.912 116.777 166.801 116.27C166.568 115.282 166.313 114.277 166.025 113.271C165.448 111.274 164.801 109.244 164.15 107.272L167.504 106.129Z" fill="#CE7A63"/>
<path d="M153.522 123.929L153.736 124.728C153.876 125.249 154.343 125.616 154.882 125.63L156.362 125.671L156.092 122.225L154.583 122.398C153.91 122.466 153.419 123.066 153.487 123.738C153.494 123.802 153.505 123.866 153.522 123.929Z" fill="#CE7A63"/>
<path d="M165.936 102.276C167.482 102.905 168.747 107.986 168.747 107.986L164.475 111.314C164.475 111.314 161.45 106.577 162.068 104.521C162.593 102.786 163.968 101.48 165.936 102.276Z" fill="#263238"/>
<path d="M182.435 185.354H182.379C182.222 185.345 182.081 185.253 182.009 185.113C181.954 185.034 181.945 184.931 181.987 184.843C182.176 184.473 183.363 184.326 183.496 184.31C183.528 184.305 183.559 184.322 183.574 184.351C183.591 184.377 183.591 184.41 183.574 184.436C183.322 184.773 182.841 185.324 182.435 185.354ZM183.333 184.492C182.86 184.563 182.224 184.714 182.135 184.914C182.112 184.95 182.112 184.996 182.135 185.032C182.179 185.127 182.271 185.19 182.375 185.195C182.605 185.206 182.974 184.947 183.344 184.493H183.333V184.492Z" fill="#263238"/>
<path d="M183.439 184.476C183.036 184.502 182.237 184.336 182.066 184.025C182.007 183.911 182.035 183.771 182.133 183.689C182.216 183.6 182.334 183.552 182.455 183.559C182.935 183.559 183.546 184.299 183.564 184.339C183.579 184.362 183.579 184.391 183.564 184.413C183.557 184.441 183.533 184.462 183.505 184.465L183.439 184.476ZM182.418 183.715C182.353 183.72 182.293 183.749 182.248 183.796C182.177 183.87 182.188 183.918 182.207 183.952C182.314 184.155 182.946 184.321 183.349 184.321C183.131 184.088 182.735 183.723 182.451 183.711L182.418 183.715Z" fill="#263238"/>
<path d="M138.305 188.882C138.052 188.798 137.83 188.639 137.669 188.427C137.592 188.298 137.578 188.142 137.632 188.001C137.657 187.921 137.724 187.86 137.806 187.842C138.228 187.761 139.226 188.834 139.422 189.052C139.44 189.078 139.44 189.114 139.422 189.14C139.405 189.171 139.371 189.187 139.337 189.181C138.984 189.116 138.639 189.015 138.305 188.882ZM137.991 188.017C137.943 187.993 137.889 187.983 137.835 187.987C137.835 187.987 137.795 187.987 137.78 188.043C137.742 188.14 137.752 188.249 137.806 188.339C137.95 188.587 138.442 188.819 139.141 188.971C138.808 188.596 138.42 188.275 137.991 188.017Z" fill="#263238"/>
<path d="M139.334 189.166C139.324 189.162 139.315 189.156 139.308 189.148C138.967 188.811 138.421 187.805 138.609 187.483C138.653 187.413 138.742 187.339 138.938 187.395C139.678 187.609 139.452 189.044 139.441 189.107C139.437 189.136 139.415 189.16 139.385 189.166C139.369 189.173 139.35 189.173 139.334 189.166ZM138.964 187.561H138.912C138.834 187.539 138.783 187.543 138.764 187.561C138.653 187.75 139.004 188.508 139.326 188.911C139.334 188.556 139.378 187.742 138.964 187.561Z" fill="#263238"/>
<path d="M153.214 87.9668C153.214 87.9668 151.376 91.0447 152.75 92.3915C154.123 93.7389 154.538 88.959 154.538 88.959L153.214 87.9668Z" fill="#263238"/>
<path d="M161.764 95.1861C161.764 95.1861 164.048 91.5893 163.105 88.0151C162.163 84.4409 157.677 86.7515 155.796 85.7731C155.098 85.4106 154.367 84.9501 153.599 84.7528C153.369 84.6939 153.053 84.7137 152.869 84.8802C152.424 85.285 153.209 86.0422 153.457 86.3283C153.306 86.1535 153.126 85.9851 152.932 85.8577C152.69 85.6981 152.359 85.6829 152.469 86.0951C152.58 86.5132 153.059 86.901 153.423 87.1048C153.246 87.0059 152.181 86.4649 152.108 86.8012C152.091 86.8803 152.129 86.9594 152.167 87.0307C152.858 88.3201 154.247 89.9379 155.839 89.9701C157.785 90.0088 159.64 95.4326 161.764 95.1861Z" fill="#263238"/>
<path d="M162.576 95.3498C162.458 96.5628 160.653 96.5775 160.653 96.5775C160.279 97.624 159.24 98.2859 159.24 98.2859C159.181 98.7666 159.217 100.114 159.317 100.484C159.62 101.63 160.007 102.027 160.488 102.286L160.102 102.665C159.433 103.038 158.582 103.345 157.676 103.341L157.17 103.05L156.508 103.153C154.677 102.554 155.135 101.306 155.135 101.306C155.679 99.7386 155.184 98.6779 155.184 98.6779C153.42 98.1268 152.698 96.5922 152.447 94.0033C152.196 91.4145 153.653 88.959 153.653 88.959C155.65 90.8859 159.607 89.6504 159.607 89.6504C159.437 93.2747 161.131 94.6133 161.131 94.6133C161.678 94.1105 162.695 94.1404 162.576 95.3498Z" fill="#CE7A63"/>
<path d="M156.156 95.6649C156.51 95.5761 156.93 95.3489 157.308 94.8181C157.356 94.7514 157.34 94.6584 157.273 94.6106C157.206 94.5628 157.114 94.5789 157.066 94.6456C156.354 95.6461 155.489 95.3917 155.453 95.3802C155.375 95.3553 155.292 95.399 155.267 95.4772C155.242 95.5554 155.285 95.6382 155.363 95.6635C155.387 95.6718 155.721 95.7739 156.156 95.6649Z" fill="#263238"/>
<path d="M156.68 92.5126C156.698 92.7491 156.586 92.9505 156.431 92.9625C156.275 92.9745 156.135 92.7918 156.117 92.5554C156.099 92.319 156.211 92.1175 156.366 92.106C156.522 92.0945 156.662 92.2762 156.68 92.5126Z" fill="#263238"/>
<path d="M153.868 92.3934C153.886 92.6299 153.774 92.8313 153.618 92.8428C153.463 92.8548 153.322 92.6722 153.305 92.4357C153.287 92.1993 153.398 91.9978 153.554 91.9859C153.709 91.9744 153.85 92.157 153.868 92.3934Z" fill="#263238"/>
<path d="M154.611 94.673L154.579 92.9678L153.732 94.403C153.732 94.403 154.044 94.7388 154.611 94.673Z" fill="#BA4D3C"/>
<path d="M157.966 91.087C157.985 91.0824 158.004 91.0746 158.021 91.0635C158.115 91.006 158.144 90.8841 158.086 90.7908C157.541 89.9057 156.62 90.0111 156.581 90.0161C156.47 90.0313 156.396 90.1293 156.41 90.2378C156.424 90.3459 156.522 90.4228 156.63 90.4099C156.659 90.4067 157.34 90.3358 157.749 90.9991C157.795 91.0741 157.884 91.1072 157.966 91.087Z" fill="#263238"/>
<path d="M152.974 90.891C153.025 90.8786 153.07 90.8464 153.098 90.7976C153.341 90.3763 153.849 90.4614 153.871 90.4655C153.978 90.4844 154.081 90.4135 154.101 90.3064C154.121 90.1992 154.05 90.0961 153.943 90.0759C153.911 90.0699 153.139 89.9338 152.755 90.5998C152.7 90.6946 152.733 90.816 152.828 90.8708C152.874 90.897 152.927 90.903 152.974 90.891Z" fill="#263238"/>
<path d="M161.238 102.444L160.251 103.413L158.49 105.14L157.824 104.09L157.17 103.051L159.466 100.307L161.142 102.33L161.238 102.444Z" fill="white"/>
<path d="M157.17 103.05L156.656 103.901L155.909 105.139L154.189 102.037L155.287 100.742L157.17 103.05Z" fill="white"/>
</svg>
