<svg width="230" height="230" viewBox="0 0 230 230" fill="none" xmlns="http://www.w3.org/2000/svg">
<path d="M230 175.903H0V176.018H230V175.903Z" fill="#EBEBEB"/>
<path d="M206.955 183.308H191.719V183.423H206.955V183.308Z" fill="#EBEBEB"/>
<path d="M152.362 184.557H148.363V184.672H152.362V184.557Z" fill="#EBEBEB"/>
<path d="M191.258 179.036H182.43V179.151H191.258V179.036Z" fill="#EBEBEB"/>
<path d="M43.9996 179.809H24.1309V179.924H43.9996V179.809Z" fill="#EBEBEB"/>
<path d="M51.0089 179.809H48.0957V179.924H51.0089V179.809Z" fill="#EBEBEB"/>
<path d="M103.568 181.752H60.4766V181.867H103.568V181.752Z" fill="#EBEBEB"/>
<path d="M109.027 155.388H20.2019C18.7542 155.388 17.5762 154.21 17.5762 152.763V27.904C17.5762 26.4564 18.7542 25.2783 20.2019 25.2783H109.027C110.475 25.2783 111.653 26.4564 111.653 27.904V152.763C111.653 154.21 110.475 155.388 109.027 155.388ZM20.2019 25.3938C18.8173 25.3938 17.6912 26.5199 17.6912 27.9045V152.763C17.6912 154.148 18.8173 155.274 20.2019 155.274H109.027C110.412 155.274 111.538 154.148 111.538 152.763V27.904C111.538 26.5199 110.412 25.3933 109.027 25.3933L20.2019 25.3938Z" fill="#EBEBEB"/>
<path d="M208.523 155.388H119.697C118.25 155.388 117.072 154.21 117.072 152.763V27.904C117.072 26.4564 118.25 25.2783 119.697 25.2783H208.523C209.971 25.2783 211.148 26.4564 211.148 27.904V152.763C211.149 154.21 209.971 155.388 208.523 155.388ZM119.697 25.3938C118.313 25.3938 117.187 26.5199 117.187 27.9045V152.763C117.187 154.148 118.313 155.274 119.697 155.274H208.523C209.907 155.274 211.033 154.148 211.033 152.763V27.904C211.033 26.5199 209.907 25.3933 208.523 25.3933L119.697 25.3938Z" fill="#EBEBEB"/>
<path d="M204.329 34.3398H128.684V101.464H204.329V34.3398Z" fill="#E6E6E6"/>
<path d="M202.338 36.1797H130.578V99.6597H202.338V36.1797Z" fill="#F0F0F0"/>
<path d="M147.419 36.1797L130.578 99.5217V69.7574L139.47 36.1797H147.419Z" fill="white"/>
<path d="M153.384 36.1797L136.395 99.6597H133.684L150.673 36.1797H153.384Z" fill="white"/>
<path d="M202.339 76.2363V86.3802L198.901 99.66H196.189L202.339 76.2363Z" fill="white"/>
<path d="M155.607 35.0391H154.398V101.078H155.607V35.0391Z" fill="#E6E6E6"/>
<path d="M179.033 35.0391H177.824V101.078H179.033V35.0391Z" fill="#E6E6E6"/>
<path d="M65.8404 138.484H24.1309V175.889H65.8404V138.484Z" fill="#F5F5F5"/>
<path d="M38.6466 138.484H24.1309V175.889H38.6466V138.484Z" fill="#EBEBEB"/>
<path d="M74.1412 101.851H32.4316V139.255H74.1412V101.851Z" fill="#EBEBEB"/>
<path d="M46.9474 101.851H32.4316V139.255H46.9474V101.851Z" fill="#E0E0E0"/>
<path d="M65.8404 64.5586H24.1309V101.963H65.8404V64.5586Z" fill="#F5F5F5"/>
<path d="M38.6466 64.5586H24.1309V101.963H38.6466V64.5586Z" fill="#EBEBEB"/>
<path d="M111.229 138.517H69.5195V175.921H111.229V138.517Z" fill="#EBEBEB"/>
<path d="M84.0353 138.517H69.5195V175.921H84.0353V138.517Z" fill="#E0E0E0"/>
<path d="M115.848 115.86H74.1387V139.288H115.848V115.86Z" fill="#F5F5F5"/>
<path d="M88.6544 115.86H74.1387V139.288H88.6544V115.86Z" fill="#E6E6E6"/>
<path d="M97.8462 78.8516H70.8984V116.256H97.8462V78.8516Z" fill="#EBEBEB"/>
<path d="M80.2769 78.8516H70.8984V116.256H80.2769V78.8516Z" fill="#E0E0E0"/>
<path d="M159.394 175.953H201.104V138.549H159.394V175.953Z" fill="#F5F5F5"/>
<path d="M186.588 175.953H201.104V138.549H186.588V175.953Z" fill="#E6E6E6"/>
<path d="M151.093 139.32H192.803V108.873H151.093V139.32Z" fill="#EBEBEB"/>
<path d="M178.287 139.32H192.803V108.873H178.287V139.32Z" fill="#E0E0E0"/>
<path d="M160.885 108.872H201.105V93.9699H160.885V108.872Z" fill="#F5F5F5"/>
<path d="M187.108 108.872H201.105V93.9699H187.108V108.872Z" fill="#E6E6E6"/>
<path d="M114.999 196.678C164.257 196.678 204.188 194.346 204.188 191.469C204.188 188.593 164.257 186.261 114.999 186.261C65.7418 186.261 25.8105 188.593 25.8105 191.469C25.8105 194.346 65.7418 196.678 114.999 196.678Z" fill="#F5F5F5"/>
<path d="M164.615 66.3581H151.811C150.661 66.3581 149.729 65.4257 149.729 64.2757V52.6625C149.729 51.5125 150.661 50.5801 151.811 50.5801H164.615C165.765 50.5801 166.697 51.5125 166.697 52.6625V64.2757C166.697 65.4257 165.765 66.3581 164.615 66.3581Z" fill="#407BFF"/>
<path d="M156.557 64.3516C156.557 64.3516 157.628 69.533 164.931 72.4085C164.931 72.4085 160.465 69.5546 160.744 64.3516H156.557Z" fill="#407BFF"/>
<path d="M154.541 58.0205L156.963 61.3886L161.884 55.5498" stroke="white" stroke-width="1.38" stroke-miterlimit="10" stroke-linecap="round" stroke-linejoin="round"/>
<path d="M180.563 68.7322C182.814 70.3491 184.844 73.1086 183.328 80.838C181.811 88.5679 181.422 90.4037 181.422 90.4037L166.707 88.7496C166.707 88.7496 166.017 81.9093 167.192 75.4735C168.71 67.1613 173.977 64.0006 180.563 68.7322Z" fill="#263238"/>
<path d="M165.828 111.434C165.828 111.434 160.843 138.005 159.512 148.915C157.775 163.147 150.668 183.968 150.668 183.968L153.509 184.702C153.509 184.702 163.529 167.01 165.482 151.09C173.44 134.82 174.083 114.785 174.083 114.785L165.828 111.434Z" fill="#EEC1BB"/>
<path d="M145.378 190.408C145.838 190.197 146.333 190.071 146.838 190.038C146.838 190.038 148.585 189.009 150.317 185.014L152.264 185.003C152.938 185.011 153.535 185.439 153.76 186.074C153.792 186.161 153.81 186.252 153.815 186.344C153.795 186.814 153.746 187.283 153.666 187.747C153.49 189.204 152.527 192.328 152.527 192.328L152.197 192.244L152.797 189.339C152.997 188.352 151.959 189.305 151.478 190.301C150.997 191.296 150.259 192.298 148.109 191.806C145.603 191.22 144.593 190.859 145.378 190.408Z" fill="#263238"/>
<path d="M153.814 186.124C154.182 185.18 154.651 183.495 154.651 183.495L150.48 182.912C150.48 182.912 150.48 184.964 149.707 186.309C151.887 186.293 153.814 186.124 153.814 186.124Z" fill="#263238"/>
<path d="M171.006 111.01C171.006 111.01 171.625 138.038 172.58 148.987C173.823 163.271 171.177 185.111 171.177 185.111L174.109 185.242C174.109 185.242 180.251 165.859 178.87 149.879C183.291 132.316 179.775 112.581 179.775 112.581L171.006 111.01Z" fill="#EEC1BB"/>
<path d="M166.614 191.298C167.048 191.039 167.526 190.86 168.025 190.772C168.025 190.772 169.651 189.561 170.94 185.402L172.875 185.18C173.546 185.115 174.187 185.476 174.478 186.084C174.519 186.167 174.548 186.255 174.562 186.346C174.593 186.816 174.594 187.287 174.565 187.757C174.548 189.224 173.928 192.435 173.928 192.435L173.591 192.387L173.873 189.434C173.965 188.43 173.037 189.491 172.666 190.532C172.296 191.574 171.67 192.649 169.479 192.393C166.925 192.081 165.881 191.832 166.614 191.298Z" fill="#263238"/>
<path d="M174.538 186.127C174.802 185.148 175.086 183.422 175.086 183.422L170.876 183.293C170.876 183.293 171.098 185.333 170.475 186.753C172.64 186.502 174.538 186.127 174.538 186.127Z" fill="#263238"/>
<path d="M164.768 106.999L159.297 144.822C159.297 144.822 177.111 147.586 184.242 145.969C184.242 145.969 185.991 124.13 178.549 108.251L164.768 106.999Z" fill="#263238"/>
<path d="M148.304 93.6287L143.545 88.927C143.545 88.927 143.38 87.6675 142.92 87.3165C142.46 86.9656 139.195 85.7815 138.796 86.0446C138.397 86.3078 137.842 88.9463 138.4 89.4284C138.959 89.9109 141.927 90.5292 142.232 90.4772L147.379 96.5883L148.304 93.6287Z" fill="#EEC1BB"/>
<path d="M165.341 85.0605C163.289 86.1489 156.005 96.331 154.932 96.8365C153.859 97.3421 145.658 90.6909 145.658 90.6909L144.275 93.0489C144.275 93.0489 151.004 102.556 154.808 102.096C158.612 101.636 165.895 93.5857 165.895 93.5857L165.341 85.0605Z" fill="#407BFF"/>
<path opacity="0.1" d="M165.341 85.0605C163.289 86.1489 156.005 96.331 154.932 96.8365C153.859 97.3421 145.658 90.6909 145.658 90.6909L144.275 93.0489C144.275 93.0489 151.004 102.556 154.808 102.096C158.612 101.636 165.895 93.5857 165.895 93.5857L165.341 85.0605Z" fill="white"/>
<path d="M146.11 90.9401L145.542 90.4033L144.047 92.9333L144.584 93.9683L146.11 90.9401Z" fill="#407BFF"/>
<path opacity="0.2" d="M162.971 96.5584C164.673 94.9346 165.897 93.5868 165.897 93.5868L165.768 91.5628L165.129 89.5986C165.129 89.5986 162.258 92.2436 162.971 96.5584Z" fill="black"/>
<path d="M164.653 106.614C164.078 96.4863 164.336 90.9194 164.597 88.1359C164.884 85.1694 165.342 85.0603 165.342 85.0603C165.342 85.0603 168.556 84.7466 171.353 84.7687C173.518 84.8428 175.678 85.0691 177.808 85.4481C179.83 85.7835 181.82 86.2669 183.776 86.8898C183.449 87.8222 183.153 88.7063 182.879 89.5384C182.513 90.636 182.186 91.6554 181.89 92.6048C181.337 94.3822 180.906 95.9196 180.562 97.2963C179.486 101.556 179.259 104.283 179.033 107.855C179.033 107.855 182.571 117.101 183.261 123.886L171.531 125.151L169.921 118.366L168.311 125.381L161.756 123.081L164.653 106.614Z" fill="#407BFF"/>
<path opacity="0.1" d="M164.653 106.614C164.078 96.4863 164.336 90.9194 164.597 88.1359C164.884 85.1694 165.342 85.0603 165.342 85.0603C165.342 85.0603 168.556 84.7466 171.353 84.7687C173.518 84.8428 175.678 85.0691 177.808 85.4481C179.83 85.7835 181.82 86.2669 183.776 86.8898C183.449 87.8222 183.153 88.7063 182.879 89.5384C182.513 90.636 182.186 91.6554 181.89 92.6048C181.337 94.3822 180.906 95.9196 180.562 97.2963C179.486 101.556 179.259 104.283 179.033 107.855C179.033 107.855 182.571 117.101 183.261 123.886L171.531 125.151L169.921 118.366L168.311 125.381L161.756 123.081L164.653 106.614Z" fill="white"/>
<path opacity="0.2" d="M179.995 99.7743C180.151 99.0015 180.335 98.1781 180.56 97.2949C180.703 96.7337 180.859 96.1449 181.034 95.5193C180.588 93.9507 180.127 95.1766 180.127 95.1766C180.127 95.1766 179.667 97.0741 179.995 99.7743Z" fill="black"/>
<path d="M171.517 85.386C171.644 85.3165 171.794 85.2553 171.954 85.1983C172.286 84.9365 172.688 84.3054 172.669 82.7718C172.662 82.2722 172.615 81.6807 172.503 80.9759L176.768 80.1797C176.768 80.1797 175.314 83.0496 176.527 85.1813C176.945 85.3671 177.193 85.6293 177.148 85.9766C176.829 88.4417 171.531 90.8236 171.531 90.8236C171.531 90.8236 168.944 86.7991 171.517 85.386Z" fill="#EEC1BB"/>
<path opacity="0.2" d="M172.504 80.9759C172.616 81.6807 172.664 82.2722 172.67 82.7718C175.551 82.7718 176.769 80.1797 176.769 80.1797L172.504 80.9759Z" fill="black"/>
<path d="M174.861 69.0508C171.154 68.8474 169.851 70.767 169.371 74.5731C168.77 79.329 169.643 82.7795 174.334 82.0136C180.706 80.9735 181.018 69.3879 174.861 69.0508Z" fill="#EEC1BB"/>
<path d="M171.778 74.4971C171.778 74.4971 171.211 75.4373 170.615 75.9755C170.615 75.9755 170.905 76.4971 171.57 76.4484L171.778 74.4971Z" fill="#D4827D"/>
<path d="M174.065 74.3178C174.041 74.6218 174.187 74.8813 174.389 74.8974C174.592 74.9135 174.775 74.6798 174.799 74.3753C174.823 74.0712 174.678 73.8118 174.475 73.7957C174.273 73.78 174.089 74.0137 174.065 74.3178Z" fill="#263238"/>
<path d="M174.559 73.8173L173.918 73.5059C173.918 73.5059 174.204 74.0882 174.559 73.8173Z" fill="#263238"/>
<path d="M170.288 73.9584C170.264 74.2625 170.409 74.5219 170.612 74.538C170.814 74.5536 170.998 74.32 171.022 74.0159C171.046 73.7118 170.9 73.4524 170.698 73.4363C170.496 73.4206 170.312 73.6543 170.288 73.9584Z" fill="#263238"/>
<path d="M170.782 73.4584L170.141 73.1475C170.141 73.1475 170.426 73.7294 170.782 73.4584Z" fill="#263238"/>
<path d="M174.242 71.7603C174.242 71.7603 175.291 71.6821 175.82 72.4089" stroke="#263238" stroke-width="0.315652" stroke-miterlimit="10" stroke-linecap="round" stroke-linejoin="round"/>
<path d="M171.555 71.4558C171.555 71.4558 170.913 71.1775 170.061 71.6798" stroke="#263238" stroke-width="0.315652" stroke-miterlimit="10" stroke-linecap="round" stroke-linejoin="round"/>
<path d="M178.57 75.5214C178.57 75.5214 177.003 72.3801 177.395 70.0428C177.395 70.0428 170.212 66.6388 169.441 74.0766C169.441 74.0766 169.086 67.4153 175.468 67.6168C181.839 67.8183 181.311 77.1411 177.867 79.7392C177.867 79.7392 179.539 77.4852 178.57 75.5214Z" fill="#263238"/>
<path d="M177.922 76.2708C177.98 75.6751 178.651 74.6985 179.754 74.8807C180.897 75.0688 181.315 77.4576 178.426 77.8684C178.012 77.9273 177.802 77.5137 177.922 76.2708Z" fill="#EEC1BB"/>
<path d="M174.465 77.3115C174.465 77.3115 173.603 78.2315 172.338 78.174" stroke="#263238" stroke-width="0.315652" stroke-miterlimit="10" stroke-linecap="round" stroke-linejoin="round"/>
<path d="M177.396 70.0431C177.396 70.0431 169.38 67.9611 168.711 75.4743" stroke="#263238" stroke-width="0.315652" stroke-miterlimit="10" stroke-linecap="round" stroke-linejoin="round"/>
<path d="M170.247 87.21C170.247 87.21 169.633 93.3004 170.634 98.8424C170.634 98.8424 173 90.2809 176.321 87.3696L172.502 87.9156L170.247 87.21Z" fill="#407BFF"/>
<path opacity="0.5" d="M170.247 87.21C170.247 87.21 169.633 93.3004 170.634 98.8424C170.634 98.8424 173 90.2809 176.321 87.3696L172.502 87.9156L170.247 87.21Z" fill="white"/>
<path d="M176.377 84.503L172.503 87.3693V84.3213C172.503 84.3213 169.37 85.4589 169.593 88.9162L172.164 87.7336V88.9162L172.767 87.7787L174.801 90.0989C174.801 90.0989 177.291 87.1977 177.55 86.3227C177.809 85.4478 176.377 84.503 176.377 84.503Z" fill="#407BFF"/>
<path opacity="0.7" d="M176.377 84.503L172.503 87.3693V84.3213C172.503 84.3213 169.37 85.4589 169.593 88.9162L172.164 87.7336V88.9162L172.767 87.7787L174.801 90.0989C174.801 90.0989 177.291 87.1977 177.55 86.3227C177.809 85.4478 176.377 84.503 176.377 84.503Z" fill="white"/>
<path d="M180.428 111.374L176.866 94.3871C176.79 94.0205 176.466 93.7578 176.091 93.7578H165.116C164.774 93.7578 164.515 94.0669 164.575 94.4032L167.541 111.04C167.607 111.409 167.923 111.682 168.297 111.693L179.873 112.035C180.229 112.046 180.501 111.722 180.428 111.374Z" fill="#263238"/>
<path opacity="0.1" d="M180.428 111.374L176.866 94.3871C176.79 94.0205 176.466 93.7578 176.091 93.7578H165.116C164.774 93.7578 164.515 94.0669 164.575 94.4032L167.541 111.04C167.607 111.409 167.923 111.682 168.297 111.693L179.873 112.035C180.229 112.046 180.501 111.722 180.428 111.374Z" fill="white"/>
<path d="M185.157 105.873L179.498 102.306C179.498 102.306 179.066 101.112 178.541 100.868C178.016 100.625 174.573 100.171 174.24 100.514C173.907 100.857 173.933 103.553 174.582 103.904C175.231 104.255 178.263 104.219 178.549 104.103L184.892 108.963L185.157 105.873Z" fill="#EEC1BB"/>
<path d="M183.778 86.8906C183.778 86.8906 180.081 92.2616 180.618 96.8616L185.525 104.988L182.228 103.302L180.733 106.119C180.733 106.119 184.528 111.965 189.358 110.585C194.188 109.205 183.778 86.8906 183.778 86.8906Z" fill="#407BFF"/>
<path opacity="0.1" d="M183.778 86.8906C183.778 86.8906 180.081 92.2616 180.618 96.8616L185.525 104.988L182.228 103.302L180.733 106.119C180.733 106.119 184.528 111.965 189.358 110.585C194.188 109.205 183.778 86.8906 183.778 86.8906Z" fill="white"/>
<path d="M182.571 103.148L180.693 106.636L180.271 105.64L181.766 102.803L182.571 103.148Z" fill="#407BFF"/>
<path d="M175.732 93.7578C175.301 93.7578 175.301 105.074 175.301 105.074L165.41 104.787C165.41 104.787 164.298 95.2211 165.41 93.7578H175.732Z" fill="white"/>
<path opacity="0.1" d="M175.732 93.7578C175.301 93.7578 175.301 105.074 175.301 105.074L165.41 104.787C165.41 104.787 164.298 95.2211 165.41 93.7578H175.732Z" fill="black"/>
<path d="M134.872 84.7928L144.223 88.7249C144.437 88.8151 144.536 89.063 144.442 89.2751C144.35 89.4825 144.109 89.5782 143.9 89.4894L134.489 85.4998C134.459 85.487 134.431 85.4709 134.404 85.4515L133.307 84.6396L134.746 84.762C134.79 84.7657 134.832 84.7758 134.872 84.7928Z" fill="#263238"/>
<path d="M103.845 104.177L94.7465 104.987L91.1033 102.931C91.1033 102.931 79.4193 96.4216 76.3787 94.3654C75.4541 93.7352 74.5985 92.3644 73.8579 90.7544C73.2323 89.402 72.6895 87.884 72.2571 86.5086C72.0501 85.86 71.8661 85.239 71.7097 84.687C71.3601 83.4588 71.1439 82.5388 71.0841 82.2904V82.2858C71.0795 82.2536 71.0749 82.2352 71.0703 82.226V82.2214L71.0933 82.2122L73.9729 81.2968L76.3787 80.5332C76.3787 80.5332 76.4891 81.1036 76.6777 81.973C76.7283 82.2076 76.7835 82.4652 76.8433 82.7412C76.8939 82.962 76.9445 83.1966 76.9997 83.4404C77.6069 86.1176 78.5407 89.77 79.2169 90.368C80.3071 91.3294 94.0151 100.672 94.5027 100.916C94.9857 101.16 99.3557 100.916 99.3557 100.916L103.845 104.177Z" fill="#E4897B"/>
<path d="M71.031 69.3127C75.2138 69.2515 77.8781 82.2212 77.8781 82.2212L72.3623 84.9923C72.3623 84.9923 69.8751 81.0469 69.9965 76.0586C70.1184 71.0713 71.031 69.3127 71.031 69.3127Z" fill="#407BFF"/>
<path opacity="0.5" d="M71.031 69.3127C75.2138 69.2515 77.8781 82.2212 77.8781 82.2212L72.3623 84.9923C72.3623 84.9923 69.8751 81.0469 69.9965 76.0586C70.1184 71.0713 71.031 69.3127 71.031 69.3127Z" fill="white"/>
<path d="M78.49 82.4749L76.9996 83.4409L75.0538 84.7013L72.257 86.5091L71.7556 86.8357L71.1484 84.9911L71.7096 84.6875L72.0776 84.4851L74.6352 83.0913L76.6776 81.9735L77.6988 81.4169L77.8782 81.3203L78.49 82.4749Z" fill="#407BFF"/>
<path opacity="0.2" d="M75.3022 86.8353C75.3344 88.4039 74.7088 89.7103 73.8578 90.7545C73.2322 89.4021 72.6894 87.8841 72.257 86.5087L71.7556 86.8353L71.1484 84.9907L71.7096 84.6871C71.36 83.4589 71.1438 82.5389 71.084 82.2905V82.2859L71.0886 82.2721L71.0932 82.2123L71.7556 77.1523C71.7556 77.1523 72.97 78.8957 73.9728 81.2969C74.212 81.8627 74.4374 82.4653 74.6352 83.0909C74.7042 83.3071 74.7686 83.5279 74.8284 83.7533C74.9158 84.0661 74.9894 84.3835 75.0538 84.7009C75.1964 85.4047 75.2884 86.1223 75.3022 86.8353Z" fill="black"/>
<path d="M70.4023 188.307L74.2516 188.713L74.9738 180.412L71.125 180.005L70.4023 188.307Z" fill="#E4897B"/>
<path d="M51.1973 188.027H54.9265L55.2347 179.387H51.5009L51.1973 188.027Z" fill="#E4897B"/>
<path d="M55.4441 187.594H50.9131C50.7604 187.595 50.6284 187.701 50.5953 187.85L49.8597 191.171C49.7967 191.468 49.9867 191.761 50.2843 191.824C50.3243 191.832 50.3648 191.836 50.4053 191.836C51.8713 191.812 52.939 191.721 54.7799 191.721C55.9138 191.721 59.3348 191.84 60.9002 191.84C62.4656 191.84 62.6698 190.294 62.0295 190.151C59.154 189.525 56.9906 188.657 56.0702 187.831C55.9 187.674 55.6755 187.59 55.4441 187.594Z" fill="#263238"/>
<path d="M55.7002 188.112C55.6648 188.102 55.6386 188.072 55.634 188.036C55.628 188.001 55.6455 187.967 55.6768 187.951C55.8097 187.865 57.0149 187.125 57.4275 187.338C57.5223 187.383 57.5821 187.48 57.5793 187.585C57.6042 187.764 57.5342 187.944 57.3944 188.059C57.1842 188.202 56.9312 188.269 56.6782 188.249C56.3479 188.24 56.0199 188.193 55.7002 188.112ZM55.9564 187.988C56.3916 188.135 56.8663 188.112 57.2849 187.922C57.3742 187.842 57.4188 187.723 57.4036 187.604C57.399 187.533 57.3705 187.5 57.3466 187.5C57.3116 187.481 57.272 187.473 57.2325 187.476C56.7785 187.564 56.3451 187.738 55.9564 187.988Z" fill="#407BFF"/>
<path d="M55.6756 188.131C55.6485 188.113 55.6324 188.083 55.6328 188.05C55.6374 187.998 55.7276 186.926 56.1595 186.575C56.2621 186.485 56.3987 186.443 56.5344 186.461C56.6729 186.461 56.792 186.558 56.8192 186.693C56.8951 187.087 56.1503 187.908 55.7658 188.117H55.723C55.7092 188.126 55.6926 188.131 55.6756 188.131ZM56.2736 186.679C56.0114 187.014 55.8573 187.422 55.8325 187.846C56.2166 187.557 56.6913 186.935 56.6439 186.693C56.6393 186.67 56.6296 186.603 56.5156 186.603H56.4728C56.3996 186.603 56.3288 186.63 56.2736 186.679Z" fill="#407BFF"/>
<path d="M74.659 187.476H70.128C69.9753 187.477 69.8432 187.583 69.8101 187.732L69.0746 191.053C69.0116 191.35 69.2015 191.642 69.4992 191.705C69.5392 191.714 69.5797 191.718 69.6201 191.717C71.0862 191.693 72.1538 191.604 73.9947 191.604C75.1286 191.604 78.5497 191.722 80.115 191.722C81.6804 191.722 81.8847 190.176 81.2443 190.033C78.3689 189.407 76.2055 188.539 75.285 187.713C75.1148 187.557 74.8903 187.472 74.659 187.476Z" fill="#263238"/>
<path d="M74.9151 187.994C74.8796 187.984 74.8534 187.954 74.8488 187.918C74.8428 187.883 74.8603 187.848 74.8916 187.832C75.0245 187.747 76.2297 187.006 76.6424 187.22C76.7371 187.265 76.7969 187.362 76.7942 187.467C76.819 187.646 76.7491 187.826 76.6092 187.941C76.399 188.084 76.1465 188.151 75.893 188.131C75.5627 188.121 75.2348 188.075 74.9151 187.994ZM75.1713 187.87C75.6064 188.017 76.0812 187.993 76.4998 187.804C76.589 187.724 76.6336 187.605 76.6184 187.486C76.6138 187.414 76.5853 187.381 76.5614 187.381C76.5264 187.362 76.4869 187.354 76.4473 187.357C75.9933 187.445 75.56 187.619 75.1713 187.87Z" fill="#407BFF"/>
<path d="M74.8904 188.012C74.8633 187.994 74.8472 187.964 74.8477 187.932C74.8523 187.88 74.9424 186.807 75.3744 186.456C75.4769 186.366 75.6136 186.324 75.7493 186.342C75.8877 186.341 76.0069 186.439 76.034 186.574C76.1099 186.968 75.3652 187.789 74.9806 187.997H74.9378C74.924 188.007 74.9075 188.013 74.8904 188.012ZM75.4884 186.56C75.2262 186.896 75.0721 187.303 75.0473 187.727C75.4314 187.438 75.9061 186.817 75.8587 186.575C75.8541 186.551 75.8445 186.484 75.7304 186.484H75.6876C75.6145 186.484 75.5436 186.512 75.4884 186.56Z" fill="#407BFF"/>
<path opacity="0.2" d="M71.1258 180.005L74.9746 180.412L74.5988 184.693L70.75 184.287L71.1258 180.005Z" fill="black"/>
<path opacity="0.2" d="M51.5013 179.392H55.2351L55.0741 183.847H51.3398L51.5013 179.392Z" fill="black"/>
<path d="M53.0403 103.603H72.8364C74.7187 113.881 80.6104 150.253 76.3835 182.66L69.6817 181.829C69.6817 181.829 70.3023 138.807 64.3848 122.901C63.7045 131.413 62.8962 140.471 62.1943 145.29C60.472 157.151 56.7856 183.074 56.7856 183.074H49.9629C49.9629 183.074 51.3576 158.261 52.003 146.603C52.7086 133.949 53.0132 106.202 53.0403 103.603Z" fill="#407BFF"/>
<path opacity="0.2" d="M64.3867 122.904C65.2598 125.248 65.9857 128.175 66.5979 131.468C67.1513 123.893 64.9373 115.859 64.9373 115.859L64.3867 122.904Z" fill="black"/>
<path d="M77.1502 184.222L68.8555 182.988L69.1089 180.69L77.7376 181.823L77.1502 184.222Z" fill="#407BFF"/>
<path opacity="0.6" d="M77.1502 184.222L68.8555 182.988L69.1089 180.69L77.7376 181.823L77.1502 184.222Z" fill="white"/>
<path d="M57.6073 183.129H49.5605V180.724L57.9114 180.567L57.6073 183.129Z" fill="#407BFF"/>
<path opacity="0.6" d="M57.6073 183.129H49.5605V180.724L57.9114 180.567L57.6073 183.129Z" fill="white"/>
<path d="M52.9996 107.041L52.9844 104.175L73.1563 102.931L73.2989 105.707L52.9996 107.041Z" fill="#263238"/>
<path d="M58.1071 103.448H57.1973V107.648H58.1071V103.448Z" fill="#407BFF"/>
<path d="M72.0539 102.043L71.1465 102.109L71.4522 106.298L72.3597 106.232L72.0539 102.043Z" fill="#407BFF"/>
<path d="M73.1587 102.931L52.9831 104.435C53.0061 102.669 52.9371 100.7 52.8037 98.621C52.5553 94.78 52.0815 90.5756 51.5525 86.6334C50.4301 78.2568 49.0547 71.067 49.0547 71.067C58.4387 68.698 71.0289 69.3144 71.0289 69.3144C74.2995 81.555 73.1587 102.931 73.1587 102.931Z" fill="#407BFF"/>
<path opacity="0.6" d="M73.1587 102.931L52.9831 104.435C53.0061 102.669 52.9371 100.7 52.8037 98.621C52.5553 94.78 52.0815 90.5756 51.5525 86.6334C50.4301 78.2568 49.0547 71.067 49.0547 71.067C58.4387 68.698 71.0289 69.3144 71.0289 69.3144C74.2995 81.555 73.1587 102.931 73.1587 102.931Z" fill="white"/>
<path d="M56.2168 69.7977C58.0338 71.4486 62.4861 70.8382 62.4861 70.8382C62.4861 70.8382 65.265 70.0774 64.6813 69.2093C63.0446 68.9389 62.252 68.1753 61.9245 67.1978C61.735 66.6283 61.7064 65.988 61.7584 65.3283C61.7823 64.9819 61.8343 64.631 61.896 64.2846L56.3925 60.209C57.1133 62.8991 57.9956 67.8477 56.2168 69.7977Z" fill="#E4897B"/>
<path opacity="0.2" d="M57.6641 62.7998C57.8821 66.1021 60.5966 67.0129 61.9246 67.1979C61.7351 66.6284 61.7065 65.9881 61.7585 65.3284L57.6641 62.7998Z" fill="black"/>
<path d="M67.1613 52.3617C68.4976 53.6332 67.9428 57.5018 65.2146 59.4784C62.4863 61.4555 62.4863 51.887 62.4863 51.887C62.4863 51.887 66.3099 51.5521 67.1613 52.3617Z" fill="#263238"/>
<path d="M57.2928 63.5628C58.6163 65.4653 60.7755 65.9635 62.6495 65.3706C63.8547 64.9911 64.9413 64.1557 65.6147 62.9556C65.7049 62.7992 65.7854 62.6331 65.8613 62.462C67.204 59.3211 67.6309 53.8269 64.3097 51.7679C61.9517 50.283 58.8297 50.99 57.3448 53.3526C56.9179 54.0214 56.6617 54.7855 56.5858 55.5776C56.1778 59.2498 55.7647 61.3897 57.2928 63.5628Z" fill="#E4897B"/>
<path d="M61.9391 57.5408C61.8683 57.831 62.0021 58.1029 62.1995 58.1365C62.3964 58.1696 62.5909 57.9534 62.6429 57.6585C62.6954 57.3637 62.5748 57.095 62.3826 57.0628C62.1903 57.0306 61.9925 57.2408 61.9391 57.5408Z" fill="#263238"/>
<path d="M65.2922 58.1128C65.2214 58.4031 65.3603 58.6763 65.5526 58.7085C65.7449 58.7407 65.944 58.5254 65.996 58.2306C66.0485 57.9357 65.9284 57.6671 65.7357 57.6349C65.5434 57.6027 65.341 57.8317 65.2922 58.1128Z" fill="#263238"/>
<path d="M64.202 58.0771C64.4002 59.0441 64.731 59.9793 65.1855 60.856C64.7227 61.0805 64.1845 61.0888 63.7148 60.8786L64.202 58.0771Z" fill="#DE5753"/>
<path d="M61.0855 56.2779C61.1485 56.2981 61.217 56.2829 61.2658 56.2388C61.5859 55.9237 62.0358 55.7778 62.4797 55.8459C62.574 55.8689 62.6688 55.8114 62.6922 55.7176C62.7152 55.6233 62.6577 55.5285 62.5639 55.5051H62.563C62.0041 55.4048 61.4309 55.5819 61.0261 55.9802C60.9534 56.0446 60.9465 56.1555 61.0109 56.2282C61.0119 56.2291 61.0128 56.2305 61.0137 56.2314C61.0349 56.2503 61.0592 56.2659 61.0855 56.2779Z" fill="#263238"/>
<path d="M62.9706 62.3318C62.0874 62.3152 61.2672 61.869 60.7741 61.1362C60.7488 61.0916 60.7635 61.0346 60.8072 61.0083C60.8491 60.9817 60.9047 60.9936 60.9319 61.0355C60.9332 61.0373 60.9342 61.0396 60.9355 61.0415C61.4057 61.7098 62.1637 62.1179 62.9802 62.1422C63.0299 62.1422 63.0704 62.1823 63.0709 62.2319C63.0709 62.2352 63.0709 62.2388 63.0704 62.2421C63.0709 62.2917 63.0304 62.3322 62.9807 62.3327C62.9775 62.3322 62.9743 62.3322 62.9706 62.3318Z" fill="#263238"/>
<path d="M66.9306 57.2031C66.961 57.2219 66.9964 57.2302 67.0318 57.2279C67.1252 57.2021 67.1804 57.1055 67.1546 57.0122C67.1542 57.0108 67.1542 57.0099 67.1537 57.0085C67.007 56.4579 66.6017 56.013 66.0672 55.8162C65.9743 55.7881 65.8763 55.8405 65.8482 55.9335C65.8229 56.0264 65.8744 56.123 65.9655 56.1533C66.3832 56.3212 66.6965 56.6764 66.8115 57.1115C66.8358 57.1575 66.8795 57.1911 66.9306 57.2031Z" fill="#263238"/>
<path d="M60.0341 51.4917V53.132C59.4697 53.3496 59.0768 53.909 59.2434 54.5755C59.5994 55.9988 58.5704 58.0136 57.4245 58.727C57.4245 58.727 57.4641 58.1341 56.9503 58.2127C56.436 58.2919 56.1991 61.3757 56.9898 62.9572C56.9898 62.9572 55.6853 61.4548 55.2501 58.1336C54.8481 55.0622 55.0555 52.5685 55.8081 51.4912L60.0341 51.4917Z" fill="#263238"/>
<path d="M54.4854 58.2925C54.7486 59.1854 55.3553 59.9375 56.1723 60.3837C57.2579 60.967 58.0698 60.0594 57.9962 58.8928C57.9207 57.8569 57.2767 56.2727 56.0738 56.182C54.8709 56.091 54.1763 57.1922 54.4854 58.2925Z" fill="#E4897B"/>
<path d="M55.083 54.2647C55.083 54.2647 53.9482 51.5383 56.9069 49.5368C59.8656 47.5349 66.9459 49.8671 67.4395 51.4913C67.9335 53.1156 62.6141 56.0812 55.083 54.2647Z" fill="#263238"/>
<path d="M56.912 68.0989L61.4163 70.5641L62.0309 67.1982L65.1856 69.2508V73.5485L61.8455 71.5567L59.5 75.0748L54.8691 69.9868L56.912 68.0989Z" fill="#407BFF"/>
<path d="M67.3243 106.516L63.7827 106.712C63.4879 106.728 63.2358 106.503 63.2192 106.208L63.0867 103.812C63.0706 103.517 63.296 103.265 63.5914 103.249L67.1329 103.053C67.4278 103.036 67.6803 103.262 67.6964 103.557L67.8289 105.952C67.845 106.248 67.6191 106.5 67.3243 106.516Z" fill="white"/>
<path opacity="0.5" d="M56.912 68.0989L61.4163 70.5641L62.0309 67.1982L65.1856 69.2508V73.5485L61.8455 71.5567L59.5 75.0748L54.8691 69.9868L56.912 68.0989Z" fill="white"/>
<path opacity="0.2" d="M60.0347 97.7303C58.6961 99.7451 54.413 99.7322 52.8039 98.6204C52.5555 94.7794 52.0817 90.575 51.5527 86.6328L60.0347 97.7303Z" fill="black"/>
<path d="M52.9854 82.2207C52.9854 82.2207 53.9372 88.4192 54.8696 89.6322C55.802 90.8452 75.0917 101.4 75.0917 101.4L81.764 100.915L84.8345 104.433C84.8345 104.433 75.9408 105.814 74.9702 105.548C73.9996 105.282 73.2572 104.882 73.2572 104.882C73.2572 104.882 53.0117 96.9108 51.3133 95.091C49.615 93.2713 47.6738 83.9186 47.6738 83.9186L52.9854 82.2207Z" fill="#E4897B"/>
<path d="M49.0562 71.0679C52.588 70.331 54.4129 84.9926 54.4129 84.9926L47.1886 86.8376C47.1886 86.8376 44.7092 71.9746 49.0562 71.0679Z" fill="#407BFF"/>
<path opacity="0.5" d="M49.0562 71.0679C52.588 70.331 54.4129 84.9926 54.4129 84.9926L47.1886 86.8376C47.1886 86.8376 44.7092 71.9746 49.0562 71.0679Z" fill="white"/>
<path d="M46.7637 86.4778L54.8693 84.5371V85.9323L47.128 88.1766L46.7637 86.4778Z" fill="#407BFF"/>
<path d="M74.5395 178.036V114.964C74.5395 112.234 73.7023 109.571 72.141 107.332L69.9395 104.175H109.085L111.287 107.332C112.848 109.571 113.685 112.234 113.685 114.964V177.421" stroke="#263238" stroke-width="2.76" stroke-miterlimit="10" stroke-linecap="round" stroke-linejoin="round"/>
<path d="M157.71 191.841C159.948 191.841 161.762 190.026 161.762 187.788C161.762 185.551 159.948 183.736 157.71 183.736C155.472 183.736 153.658 185.551 153.658 187.788C153.658 190.026 155.472 191.841 157.71 191.841Z" fill="#263238"/>
<path opacity="0.4" d="M159.736 187.788C159.736 186.669 158.829 185.762 157.71 185.762C156.591 185.762 155.684 186.669 155.684 187.788C155.684 188.907 156.591 189.814 157.71 189.814C158.829 189.814 159.736 188.907 159.736 187.788Z" fill="white"/>
<path d="M157.223 188.693C156.576 188.693 155.997 188.289 155.775 187.68L153.385 181.141H158.764V187.151C158.764 188.003 158.074 188.693 157.223 188.693Z" fill="#263238"/>
<path opacity="0.2" d="M157.223 188.693C156.576 188.693 155.997 188.289 155.775 187.68L153.385 181.141H158.764V187.151C158.764 188.003 158.074 188.693 157.223 188.693Z" fill="white"/>
<path d="M112.632 191.841C114.87 191.841 116.684 190.026 116.684 187.788C116.684 185.551 114.87 183.736 112.632 183.736C110.394 183.736 108.58 185.551 108.58 187.788C108.58 190.026 110.394 191.841 112.632 191.841Z" fill="#263238"/>
<path opacity="0.4" d="M114.658 187.788C114.658 186.669 113.751 185.762 112.632 185.762C111.513 185.762 110.605 186.669 110.605 187.788C110.605 188.907 111.513 189.814 112.632 189.814C113.751 189.814 114.658 188.907 114.658 187.788Z" fill="white"/>
<path d="M112.144 188.693C111.497 188.693 110.919 188.289 110.697 187.68L108.307 181.141H113.686V187.151C113.686 188.003 112.996 188.693 112.144 188.693Z" fill="#263238"/>
<path opacity="0.2" d="M112.144 188.693C111.497 188.693 110.919 188.289 110.697 187.68L108.307 181.141H113.686V187.151C113.686 188.003 112.996 188.693 112.144 188.693Z" fill="white"/>
<path d="M164.679 176.422V180.249C164.679 180.962 164.099 181.542 163.386 181.542H72.7985C72.0855 181.542 71.5059 180.962 71.5059 180.249V176.422H164.679Z" fill="#263238"/>
<path opacity="0.4" d="M164.679 176.422V180.249C164.679 180.962 164.099 181.542 163.386 181.542H72.7985C72.0855 181.542 71.5059 180.962 71.5059 180.249V176.422H164.679Z" fill="white"/>
<path opacity="0.2" d="M132.479 176.422V180.249C132.479 180.962 131.899 181.542 131.186 181.542H72.7985C72.0855 181.542 71.5059 180.962 71.5059 180.249V176.422H132.479Z" fill="white"/>
<path d="M125.05 191.841C127.288 191.841 129.102 190.026 129.102 187.788C129.102 185.551 127.288 183.736 125.05 183.736C122.812 183.736 120.998 185.551 120.998 187.788C120.998 190.026 122.812 191.841 125.05 191.841Z" fill="#263238"/>
<path opacity="0.6" d="M127.076 187.788C127.076 186.669 126.169 185.762 125.05 185.762C123.931 185.762 123.023 186.669 123.023 187.788C123.023 188.907 123.931 189.814 125.05 189.814C126.169 189.814 127.076 188.907 127.076 187.788Z" fill="white"/>
<path d="M124.563 188.693C123.916 188.693 123.337 188.289 123.115 187.68L120.725 181.141H126.104V187.151C126.104 188.003 125.414 188.693 124.563 188.693Z" fill="#263238"/>
<path opacity="0.4" d="M124.563 188.693C123.916 188.693 123.337 188.289 123.115 187.68L120.725 181.141H126.104V187.151C126.104 188.003 125.414 188.693 124.563 188.693Z" fill="white"/>
<path d="M79.9721 191.841C82.21 191.841 84.0242 190.026 84.0242 187.788C84.0242 185.551 82.21 183.736 79.9721 183.736C77.7341 183.736 75.9199 185.551 75.9199 187.788C75.9199 190.026 77.7341 191.841 79.9721 191.841Z" fill="#263238"/>
<path opacity="0.6" d="M81.9979 187.788C81.9979 186.669 81.0908 185.762 79.9716 185.762C78.8524 185.762 77.9453 186.669 77.9453 187.788C77.9453 188.907 78.8524 189.814 79.9716 189.814C81.0908 189.814 81.9979 188.907 81.9979 187.788Z" fill="white"/>
<path d="M79.4843 188.693C78.837 188.693 78.2588 188.289 78.0366 187.68L75.6465 181.141H81.0257V187.151C81.0257 188.003 80.3357 188.693 79.4843 188.693Z" fill="#263238"/>
<path opacity="0.4" d="M79.4843 188.693C78.837 188.693 78.2588 188.289 78.0366 187.68L75.6465 181.141H81.0257V187.151C81.0257 188.003 80.3357 188.693 79.4843 188.693Z" fill="white"/>
<path d="M125.619 146.729H82.7246V176.422H125.619V146.729Z" fill="#407BFF"/>
<path opacity="0.4" d="M125.619 146.729H82.7246V176.422H125.619V146.729Z" fill="white"/>
<path opacity="0.2" d="M102.629 146.729H82.7246V176.422H102.629V146.729Z" fill="white"/>
<path opacity="0.2" d="M100.748 174.389H98.2605C98.0259 174.389 97.8359 174.199 97.8359 173.964V170.567C97.8359 170.333 98.0259 170.143 98.2605 170.143H100.748C100.982 170.143 101.172 170.333 101.172 170.567V173.964C101.172 174.199 100.982 174.389 100.748 174.389Z" fill="black"/>
<path opacity="0.2" d="M96.2595 174.389H93.7722C93.5376 174.389 93.3477 174.199 93.3477 173.964V170.567C93.3477 170.333 93.5376 170.143 93.7722 170.143H96.2595C96.4941 170.143 96.684 170.333 96.684 170.567V173.964C96.684 174.199 96.4936 174.389 96.2595 174.389Z" fill="black"/>
<path opacity="0.4" d="M116.399 146.729H113.973V149.822H116.399V146.729Z" fill="black"/>
<path opacity="0.2" d="M123.025 159.406H106.326V163.289H123.025V159.406Z" fill="black"/>
<path opacity="0.2" d="M89.732 148.275H84.0234V153.984H89.732V148.275Z" fill="black"/>
<path d="M130 117.036H87.1055V146.729H130V117.036Z" fill="#407BFF"/>
<path opacity="0.4" d="M130 117.036H87.1055V146.729H130V117.036Z" fill="black"/>
<path opacity="0.2" d="M107.01 117.036H87.1055V146.729H107.01V117.036Z" fill="white"/>
<path opacity="0.2" d="M105.129 144.696H102.641C102.407 144.696 102.217 144.506 102.217 144.272V140.875C102.217 140.64 102.407 140.45 102.641 140.45H105.129C105.363 140.45 105.553 140.64 105.553 140.875V144.272C105.553 144.506 105.363 144.696 105.129 144.696Z" fill="black"/>
<path opacity="0.2" d="M100.64 144.696H98.1531C97.9185 144.696 97.7285 144.506 97.7285 144.272V140.875C97.7285 140.64 97.9185 140.45 98.1531 140.45H100.64C100.875 140.45 101.065 140.64 101.065 140.875V144.272C101.065 144.506 100.875 144.696 100.64 144.696Z" fill="black"/>
<path opacity="0.4" d="M120.78 117.036H118.354V120.13H120.78V117.036Z" fill="black"/>
<path opacity="0.2" d="M127.405 129.714H110.707V133.596H127.405V129.714Z" fill="black"/>
<path opacity="0.2" d="M94.1129 118.582H88.4043V124.291H94.1129V118.582Z" fill="black"/>
<path d="M156.258 117.036H113.363V146.729H156.258V117.036Z" fill="#407BFF"/>
<path opacity="0.4" d="M156.258 117.036H113.363V146.729H156.258V117.036Z" fill="white"/>
<path opacity="0.2" d="M133.268 117.036H113.363V146.729H133.268V117.036Z" fill="white"/>
<path opacity="0.2" d="M131.386 144.696H128.899C128.665 144.696 128.475 144.506 128.475 144.272V140.875C128.475 140.64 128.665 140.45 128.899 140.45H131.386C131.621 140.45 131.811 140.64 131.811 140.875V144.272C131.811 144.506 131.621 144.696 131.386 144.696Z" fill="black"/>
<path opacity="0.2" d="M126.898 144.696H124.411C124.176 144.696 123.986 144.506 123.986 144.272V140.875C123.986 140.64 124.176 140.45 124.411 140.45H126.898C127.133 140.45 127.323 140.64 127.323 140.875V144.272C127.323 144.506 127.133 144.696 126.898 144.696Z" fill="black"/>
<path opacity="0.4" d="M147.038 117.036H144.611V120.13H147.038V117.036Z" fill="black"/>
<path opacity="0.2" d="M153.663 129.714H136.965V133.596H153.663V129.714Z" fill="black"/>
<path opacity="0.2" d="M120.371 118.582H114.662V124.291H120.371V118.582Z" fill="black"/>
<path d="M141.422 87.3428H98.5273V117.036H141.422V87.3428Z" fill="#407BFF"/>
<path opacity="0.2" d="M118.432 87.3428H98.5273V117.036H118.432V87.3428Z" fill="white"/>
<path opacity="0.2" d="M116.55 115.003H114.063C113.829 115.003 113.639 114.813 113.639 114.579V111.181C113.639 110.947 113.829 110.757 114.063 110.757H116.55C116.785 110.757 116.975 110.947 116.975 111.181V114.579C116.975 114.813 116.785 115.003 116.55 115.003Z" fill="black"/>
<path opacity="0.2" d="M112.062 115.003H109.575C109.34 115.003 109.15 114.813 109.15 114.579V111.181C109.15 110.947 109.34 110.757 109.575 110.757H112.062C112.297 110.757 112.487 110.947 112.487 111.181V114.579C112.487 114.813 112.297 115.003 112.062 115.003Z" fill="black"/>
<path opacity="0.4" d="M132.202 87.3428H129.775V90.4363H132.202V87.3428Z" fill="black"/>
<path opacity="0.2" d="M138.828 100.021H122.129V103.903H138.828V100.021Z" fill="black"/>
<path opacity="0.2" d="M105.535 88.8896H99.8262V94.5982H105.535V88.8896Z" fill="black"/>
<path d="M152.916 146.729H110.021V176.422H152.916V146.729Z" fill="#263238"/>
<path opacity="0.2" d="M152.916 146.729H110.021V176.422H152.916V146.729Z" fill="white"/>
<path opacity="0.2" d="M129.926 146.729H110.021V176.422H129.926V146.729Z" fill="white"/>
<path opacity="0.2" d="M128.045 174.389H125.557C125.323 174.389 125.133 174.199 125.133 173.964V170.567C125.133 170.333 125.323 170.143 125.557 170.143H128.045C128.279 170.143 128.469 170.333 128.469 170.567V173.964C128.469 174.199 128.279 174.389 128.045 174.389Z" fill="black"/>
<path opacity="0.2" d="M123.556 174.389H121.069C120.835 174.389 120.645 174.199 120.645 173.964V170.567C120.645 170.333 120.835 170.143 121.069 170.143H123.556C123.791 170.143 123.981 170.333 123.981 170.567V173.964C123.981 174.199 123.791 174.389 123.556 174.389Z" fill="black"/>
<path opacity="0.4" d="M143.696 146.729H141.27V149.822H143.696V146.729Z" fill="black"/>
<path opacity="0.2" d="M150.322 159.406H133.623V163.289H150.322V159.406Z" fill="black"/>
<path opacity="0.2" d="M117.029 148.275H111.32V153.984H117.029V148.275Z" fill="black"/>
</svg>
