<svg width="20" height="21" viewBox="0 0 20 21" fill="none" xmlns="http://www.w3.org/2000/svg">
<path d="M15.6969 8.60171L15.7377 8.5609C16.1485 8.15003 16.1485 7.48386 15.7377 7.07299L11.4729 2.80815C11.062 2.39728 10.3958 2.39728 9.98497 2.80815L4.19141 8.60171" stroke="#003CFF" stroke-width="1.2" stroke-miterlimit="10" stroke-linejoin="round"/>
<path d="M12.8205 8.60161L12.8683 8.55385C12.4712 8.15669 12.4712 7.51279 12.8683 7.11567L11.4301 5.67749C11.033 6.07462 10.3891 6.07462 9.99196 5.67749L7.06784 8.60161M15.936 8.60161H4.30129C3.58262 8.60161 3 9.18424 3 9.90291V17.4698C3 18.1885 3.58262 18.7711 4.30129 18.7711H15.936C16.6547 18.7711 17.2373 18.1885 17.2373 17.4698V9.90291C17.2373 9.18424 16.6547 8.60161 15.936 8.60161Z" stroke="#003CFF" stroke-width="1.2" stroke-miterlimit="10" stroke-linejoin="round"/>
<path d="M17.2377 11.6523H15.1891C14.074 11.6523 13.1699 12.5563 13.1699 13.6715C13.1699 14.7867 14.0739 15.6907 15.1891 15.6907H17.2377" stroke="#003CFF" stroke-width="1.2" stroke-miterlimit="10" stroke-linejoin="round"/>
<path d="M15.2021 14.178C15.467 14.178 15.7207 13.9451 15.7085 13.6716C15.6962 13.3973 15.486 13.1653 15.2021 13.1653C14.9372 13.1653 14.6835 13.3982 14.6957 13.6716C14.708 13.946 14.9182 14.178 15.2021 14.178Z" fill="#003CFF"/>
</svg>
