<svg width="32" height="33" viewBox="0 0 32 33" fill="none" xmlns="http://www.w3.org/2000/svg">
<g clip-path="url(#clip0_59732_7897)">
<path d="M31.4841 22.4666C30.1553 22.2368 28.7881 22.4141 27.562 22.9754C28.6805 21.757 30.0409 20.7852 31.5561 20.122C31.7039 20.0593 31.8269 19.9494 31.9058 19.8096C31.9847 19.6697 32.0151 19.5077 31.9924 19.3487C31.9713 19.1921 31.8981 19.0471 31.7844 18.9373C31.6708 18.8274 31.5235 18.7591 31.3662 18.7434C29.2743 18.6211 27.1916 19.1056 25.3684 20.1386C23.5225 21.1701 21.932 22.6033 20.7145 24.3322C21.4306 21.6095 22.4415 18.9731 23.7294 16.4698C24.3227 16.4691 24.9042 16.3036 25.409 15.9919C25.9138 15.6803 26.3222 15.2345 26.5886 14.7044L28.9785 9.93589C29.22 9.45378 29.3358 8.91845 29.3151 8.37961C29.2944 7.84078 29.1379 7.31591 28.8601 6.85375L28.8884 6.80042C29.0761 6.46015 29.2654 6.11615 29.4617 5.76735C29.6792 5.38616 29.8127 4.96284 29.8532 4.52581C29.8937 4.08878 29.8402 3.64815 29.6964 3.23349C29.6216 3.01921 29.4685 2.84114 29.2679 2.735C29.0673 2.62886 28.834 2.60251 28.6148 2.66122C28.2032 2.774 27.8187 2.96895 27.4845 3.2343C27.1504 3.49966 26.8733 3.82993 26.6702 4.20522L26.0548 5.30015C25.4717 5.3117 24.9029 5.48235 24.4098 5.79367C23.9167 6.10499 23.518 6.54513 23.2569 7.06655L20.8676 11.8346C20.6777 12.2098 20.5642 12.619 20.5338 13.0384C20.5034 13.4578 20.5567 13.8791 20.6905 14.2778C20.7563 14.4739 20.8406 14.6634 20.9422 14.8436C19.5451 17.5912 18.4254 20.4712 17.5998 23.441V15.5338C18.0856 15.2533 18.4892 14.85 18.77 14.3644C19.0508 13.8787 19.1991 13.3278 19.1998 12.7668V7.43349C19.1991 6.87251 19.0508 6.32159 18.77 5.83595C18.4892 5.35032 18.0856 4.94704 17.5998 4.66655V4.23349C17.6486 3.10074 17.3881 1.97607 16.8462 0.980154C16.7584 0.83392 16.6342 0.712911 16.4857 0.628899C16.3373 0.544886 16.1696 0.500732 15.999 0.500732C15.8284 0.500732 15.6608 0.544886 15.5123 0.628899C15.3638 0.712911 15.2397 0.83392 15.1518 0.980154C14.6106 1.97628 14.3506 3.1009 14.3998 4.23349V4.66655C13.914 4.94704 13.5104 5.35032 13.2296 5.83595C12.9488 6.32159 12.8006 6.87251 12.7998 7.43349V12.7668C12.8006 13.3278 12.9488 13.8787 13.2296 14.3644C13.5104 14.85 13.914 15.2533 14.3998 15.5338V23.4404C13.5742 20.4717 12.4541 17.5929 11.0564 14.8468C11.3145 14.3902 11.4565 13.8772 11.4698 13.3529C11.4831 12.8285 11.3673 12.309 11.1326 11.8399L8.74276 7.07082C8.48183 6.54878 8.08326 6.10794 7.59008 5.79588C7.09689 5.48383 6.52784 5.31241 5.94436 5.30015L5.32889 4.20629C5.12533 3.83073 4.84781 3.5003 4.51305 3.23493C4.1783 2.96957 3.79326 2.77477 3.38116 2.66229C3.16175 2.60442 2.92858 2.6317 2.72845 2.73864C2.52832 2.84558 2.37606 3.02426 2.30222 3.23882C2.15862 3.65344 2.10545 4.09399 2.14629 4.53087C2.18714 4.96774 2.32105 5.39081 2.53902 5.77162C2.72942 6.10975 2.91236 6.44469 3.09742 6.77802L3.13956 6.85375C2.86172 7.31602 2.70523 7.84101 2.68463 8.37995C2.66402 8.91889 2.77996 9.45429 3.02169 9.93642L5.41102 14.7044C5.67759 15.2345 6.08607 15.6802 6.59098 15.9919C7.09588 16.3036 7.6774 16.469 8.27076 16.4698C9.56618 18.9877 10.5813 21.6402 11.298 24.3796C7.78276 19.5364 3.21156 18.4687 0.628088 18.7439C0.471853 18.7604 0.325713 18.829 0.213131 18.9386C0.100549 19.0482 0.0280546 19.1924 0.00728798 19.3482C-0.0155974 19.5072 0.0147851 19.6694 0.093699 19.8093C0.172613 19.9493 0.295624 20.0593 0.443555 20.122C1.9579 20.7847 3.31748 21.7557 4.43556 22.9732C3.2159 22.4138 1.85561 22.236 0.533155 22.4634C0.388829 22.4891 0.257504 22.5631 0.160634 22.6731C0.0637634 22.7832 0.00707235 22.9228 -0.000178691 23.0692C-0.0109498 23.2158 0.0275398 23.3618 0.109183 23.484C0.190827 23.6062 0.310948 23.6977 0.450488 23.7439C1.58094 24.1417 2.59901 24.8059 3.41869 25.6801C4.23837 26.5544 4.83557 27.6131 5.15982 28.7668H3.73316C3.45026 28.7668 3.17895 28.8792 2.97891 29.0792C2.77887 29.2793 2.66649 29.5506 2.66649 29.8335V31.4335C2.66649 31.7164 2.77887 31.9877 2.97891 32.1877C3.17895 32.3878 3.45026 32.5002 3.73316 32.5002H28.2665C28.5494 32.5002 28.8207 32.3878 29.0207 32.1877C29.2208 31.9877 29.3332 31.7164 29.3332 31.4335V29.8335C29.3332 29.5506 29.2208 29.2793 29.0207 29.0792C28.8207 28.8792 28.5494 28.7668 28.2665 28.7668H26.8393C27.1623 27.6165 27.7566 26.5604 28.5724 25.6874C29.3881 24.8144 30.4015 24.1499 31.5273 23.7498C31.6713 23.7063 31.7964 23.6155 31.8822 23.4919C31.968 23.3683 32.0095 23.2193 31.9998 23.0692C31.9941 22.9254 31.9402 22.7877 31.8466 22.6784C31.753 22.569 31.6253 22.4944 31.4841 22.4666ZM29.7545 19.8447C27.801 20.9932 26.1842 22.6356 25.0665 24.6068C23.8084 25.7881 22.7893 27.2005 22.0649 28.7668H19.4596C22.5065 21.6292 27.3246 20.1268 29.7545 19.8447ZM18.3081 28.7668H17.6052C18.252 24.2285 19.6321 19.8255 21.6916 15.73C21.8769 15.8861 22.0793 16.0208 22.2948 16.1316C22.4036 16.1858 22.5155 16.2339 22.6297 16.2756C20.8869 19.7477 19.6541 23.4531 18.9694 27.2772C18.7376 27.7551 18.5172 28.2516 18.3081 28.7668ZM27.5988 4.73269C27.8444 4.27474 28.2487 3.92219 28.7358 3.74122C28.867 4.25032 28.7943 4.79053 28.5332 5.24682C28.3892 5.50282 28.2505 5.75509 28.1113 6.00735C27.9383 5.86661 27.7511 5.74418 27.5529 5.64202C27.4319 5.58179 27.3072 5.52942 27.1796 5.48522L27.5988 4.73269ZM21.8206 12.3151L24.2105 7.54709C24.3361 7.29663 24.5098 7.07337 24.7217 6.89005C24.9336 6.70672 25.1795 6.56693 25.4455 6.47866C25.7114 6.39038 25.9921 6.35534 26.2716 6.37555C26.551 6.39575 26.8238 6.47081 27.0742 6.59642C27.3247 6.72203 27.5479 6.89575 27.7313 7.10765C27.9146 7.31955 28.0544 7.56548 28.1427 7.8314C28.2309 8.09732 28.266 8.37803 28.2458 8.65749C28.2256 8.93695 28.1505 9.2097 28.0249 9.46015L25.6356 14.2271C25.5115 14.4798 25.3385 14.7055 25.1268 14.891C24.9151 15.0766 24.6687 15.2184 24.4019 15.3084C24.1351 15.3983 23.8531 15.4345 23.5723 15.4149C23.2914 15.3953 23.0172 15.3203 22.7654 15.1942C22.5137 15.0682 22.2894 14.8935 22.1055 14.6804C21.9215 14.4672 21.7816 14.2197 21.6938 13.9522C21.606 13.6847 21.572 13.4025 21.5937 13.1218C21.6155 12.8411 21.6926 12.5674 21.8206 12.3167V12.3151ZM15.4665 4.23349C15.4272 3.34074 15.6105 2.45223 15.9998 1.64789C16.3888 2.45235 16.5721 3.34077 16.5332 4.23349V4.28149C16.1805 4.21748 15.8192 4.21748 15.4665 4.28149V4.23349ZM13.8665 7.43349C13.8665 6.86769 14.0913 6.32507 14.4913 5.92499C14.8914 5.52492 15.434 5.30015 15.9998 5.30015C16.5656 5.30015 17.1082 5.52492 17.5083 5.92499C17.9084 6.32507 18.1332 6.86769 18.1332 7.43349V12.7668C18.1332 13.3326 17.9084 13.8752 17.5083 14.2753C17.1082 14.6754 16.5656 14.9002 15.9998 14.9002C15.434 14.9002 14.8914 14.6754 14.4913 14.2753C14.0913 13.8752 13.8665 13.3326 13.8665 12.7668V7.43349ZM15.9998 15.9668C16.1786 15.9658 16.357 15.9497 16.5332 15.9188V28.7668H15.4665V15.9188C15.6426 15.9497 15.821 15.9658 15.9998 15.9668ZM3.26382 3.74122C3.75028 3.92202 4.15416 4.27394 4.39982 4.73109L4.82649 5.48575C4.69773 5.52984 4.57195 5.58222 4.44996 5.64255C4.25203 5.74479 4.0651 5.86703 3.89209 6.00735C3.75342 5.75562 3.61422 5.50389 3.47129 5.24949C3.20798 4.79306 3.13353 4.25179 3.26382 3.74122ZM6.36462 14.226L3.97529 9.46015C3.84538 9.20929 3.7666 8.93512 3.74351 8.65356C3.72042 8.372 3.75348 8.08866 3.84077 7.81998C3.92806 7.5513 4.06785 7.30264 4.25202 7.08842C4.43619 6.8742 4.66108 6.69869 4.91362 6.57208C5.16617 6.44548 5.44134 6.37029 5.72318 6.35089C6.00502 6.33148 6.2879 6.36825 6.55541 6.45905C6.82293 6.54986 7.06974 6.69289 7.28153 6.87985C7.49332 7.06681 7.66587 7.29397 7.78916 7.54815L10.179 12.3162C10.3089 12.5671 10.3876 12.8413 10.4106 13.1228C10.4336 13.4044 10.4005 13.6877 10.3131 13.9564C10.2257 14.225 10.0859 14.4737 9.90165 14.6878C9.71742 14.902 9.49249 15.0775 9.2399 15.204C8.98732 15.3305 8.71212 15.4057 8.43027 15.425C8.14843 15.4443 7.86555 15.4074 7.59806 15.3166C7.33057 15.2257 7.08379 15.0826 6.87206 14.8956C6.66032 14.7085 6.48784 14.4813 6.36462 14.2271V14.226ZM9.36996 16.2756C9.48436 16.2339 9.59635 16.1858 9.70542 16.1316C9.92131 16.0224 10.124 15.8889 10.3097 15.7338C12.3682 19.8282 13.7477 24.2299 14.3945 28.7668H13.691C13.4812 28.2498 13.2617 27.757 13.0324 27.2884C12.3481 23.4603 11.1146 19.7511 9.36996 16.2756ZM2.21422 19.826C3.58541 19.9811 4.91248 20.4054 6.11929 21.0746C8.83822 22.5604 10.9865 25.1556 12.5262 28.7668H9.93476C9.21011 27.2006 8.19108 25.7883 6.93316 24.6068C5.8094 22.6249 4.18135 20.9755 2.21422 19.826ZM2.42009 23.5108C4.09049 23.7615 6.68676 24.8378 8.74169 28.7668H6.27236C5.70138 26.5896 4.32434 24.7108 2.42009 23.5108ZM28.2665 31.4335H3.73316V29.8335H28.2665V31.4335ZM25.7262 28.7668H23.2574C25.3086 24.8458 27.8974 23.7658 29.5726 23.513C27.672 24.7143 26.2978 26.5919 25.7273 28.7668H25.7262Z" fill="#0369A1"/>
</g>
<defs>
<clipPath id="clip0_59732_7897">
<rect width="32" height="32" fill="white" transform="translate(0 0.5)"/>
</clipPath>
</defs>
</svg>
