<svg width="20" height="21" viewBox="0 0 20 21" fill="none" xmlns="http://www.w3.org/2000/svg">
<path d="M13.7297 1.25844C13.485 1.02486 13.1598 0.894531 12.8215 0.894531C12.4832 0.894531 12.158 1.02486 11.9133 1.25844L7.82371 5.34772C7.70355 5.46817 7.63607 5.63136 7.63607 5.8015C7.63607 5.97164 7.70355 6.13483 7.82371 6.25528L8.5067 6.9373C8.62967 7.05347 8.79243 7.1182 8.9616 7.1182C9.13077 7.1182 9.29353 7.05347 9.4165 6.9373C9.59984 6.76236 9.84351 6.66476 10.0969 6.66476C10.3503 6.66476 10.594 6.76236 10.7773 6.9373L11.0064 7.16636L7.15517 11.0153C6.97116 11.1907 6.72671 11.2886 6.4725 11.2886C6.21829 11.2886 5.97384 11.1907 5.78983 11.0153C5.54886 10.7745 5.22214 10.6393 4.88147 10.6393C4.54081 10.6393 4.21408 10.7745 3.97312 11.0153L0.564579 14.4223C0.384076 14.6033 0.282715 14.8485 0.282715 15.1041C0.282715 15.3598 0.384076 15.605 0.564579 15.786L1.03618 16.2573C1.20668 17.0267 1.59501 17.7307 2.1548 18.2854C2.71155 18.8439 3.41558 19.2326 4.18483 19.4063L4.65418 19.8756C4.74369 19.9652 4.84999 20.0363 4.96699 20.0848C5.08399 20.1333 5.2094 20.1583 5.33605 20.1583C5.46271 20.1583 5.58812 20.1333 5.70512 20.0848C5.82212 20.0363 5.92841 19.9652 6.01792 19.8756L9.42517 16.4652C9.54423 16.3459 9.63861 16.2043 9.70295 16.0486C9.76728 15.8928 9.8003 15.7259 9.80012 15.5574C9.79994 15.3888 9.76657 15.222 9.70191 15.0664C9.63724 14.9108 9.54255 14.7694 9.42325 14.6504C9.24335 14.469 9.14241 14.2238 9.14241 13.9683C9.14241 13.7129 9.24335 13.4677 9.42325 13.2863L13.2745 9.43508L13.5035 9.66446C13.593 9.75374 13.6639 9.85977 13.7123 9.9765C13.7607 10.0932 13.7857 10.2184 13.7857 10.3447C13.7857 10.4711 13.7607 10.5962 13.7123 10.7129C13.6639 10.8297 13.593 10.9357 13.5035 11.025C13.3831 11.1459 13.3155 11.3096 13.3155 11.4802C13.3155 11.6508 13.3831 11.8145 13.5035 11.9354L14.1849 12.6168C14.3054 12.7369 14.4685 12.8043 14.6385 12.8043C14.8086 12.8043 14.9717 12.7369 15.0922 12.6168L19.1818 8.52817C19.4225 8.28722 19.5577 7.96056 19.5577 7.61998C19.5577 7.27939 19.4225 6.95273 19.1818 6.71178L13.7297 1.25844ZM5.56334 19.4214C5.5335 19.4513 5.49805 19.475 5.45902 19.4912C5.41999 19.5074 5.37815 19.5157 5.33589 19.5157C5.29363 19.5157 5.25179 19.5074 5.21276 19.4912C5.17373 19.475 5.13828 19.4513 5.10844 19.4214L4.57226 18.8849C4.52748 18.8401 4.47048 18.8096 4.40842 18.7972C3.7265 18.6599 3.10049 18.3238 2.60938 17.8311C2.11574 17.3433 1.77998 16.7185 1.64561 16.0376C1.63354 15.9745 1.60289 15.9166 1.55759 15.8711L1.01787 15.3318C0.987955 15.3019 0.964219 15.2665 0.948024 15.2274C0.931828 15.1884 0.923492 15.1466 0.923492 15.1043C0.923492 15.0621 0.931828 15.0202 0.948024 14.9812C0.964219 14.9422 0.987955 14.9067 1.01787 14.8769L2.38097 13.5147L2.85257 13.9847C2.55797 14.3643 2.37568 14.8189 2.32638 15.2968C2.27709 15.7748 2.36276 16.257 2.57369 16.6887C2.78461 17.1204 3.11234 17.4844 3.51967 17.7392C3.92699 17.9941 4.39761 18.1297 4.8781 18.1306H4.88035C5.45138 18.1311 6.00606 17.9399 6.45547 17.5876L6.92547 18.0576L5.56334 19.4214ZM6.24473 16.922C6.066 17.1018 5.8534 17.2444 5.61921 17.3416C5.38502 17.4388 5.13389 17.4885 4.88035 17.488C4.56372 17.4872 4.25217 17.4084 3.97324 17.2585C3.69431 17.1087 3.45658 16.8925 3.28107 16.6289C3.10557 16.3654 2.99769 16.0627 2.96696 15.7475C2.93624 15.4324 2.98362 15.1145 3.10492 14.8221C3.22622 14.5296 3.4177 14.2715 3.66243 14.0706C3.90717 13.8697 4.19763 13.7322 4.50814 13.6702C4.81864 13.6083 5.13963 13.6237 5.44274 13.7153C5.74585 13.8068 6.02173 13.9716 6.24601 14.1951C6.60626 14.5575 6.80836 15.0478 6.80812 15.5588C6.80788 16.0698 6.60532 16.5599 6.24473 16.922ZM8.96803 12.833C8.66875 13.135 8.50085 13.543 8.50085 13.9682C8.50085 14.3934 8.66875 14.8013 8.96803 15.1033C9.02822 15.1628 9.07605 15.2335 9.10875 15.3115C9.14145 15.3895 9.15838 15.4733 9.15856 15.5578C9.15874 15.6424 9.14216 15.7262 9.10979 15.8044C9.07742 15.8825 9.02989 15.9535 8.96995 16.0131L7.37941 17.6037L6.90973 17.134C7.29424 16.64 7.48503 16.0225 7.44624 15.3977C7.40745 14.7729 7.14174 14.1838 6.69908 13.7411C6.25642 13.2985 5.6673 13.0328 5.04248 12.994C4.41767 12.9552 3.8002 13.146 3.30619 13.5305L2.83651 13.0608L4.42673 11.4712C4.54721 11.3509 4.71054 11.2832 4.88083 11.2832C5.05112 11.2832 5.21445 11.3509 5.33493 11.4712C5.6365 11.7722 6.04515 11.9412 6.47121 11.9412C6.89728 11.9412 7.30593 11.7722 7.6075 11.4712L11.4594 7.61998L12.8202 8.98082L8.96803 12.833ZM14.6389 12.1626L13.9578 11.4796C14.1069 11.3306 14.2251 11.1537 14.3058 10.959C14.3865 10.7643 14.4281 10.5556 14.4281 10.3449C14.4281 10.1341 14.3865 9.92544 14.3058 9.73075C14.2251 9.53605 14.1069 9.35917 13.9578 9.2102L11.2303 6.48273C10.9291 6.18159 10.5206 6.01243 10.0947 6.01243C9.66875 6.01243 9.26025 6.18159 8.95903 6.48273L8.27797 5.80262L11.6871 2.39408L18.048 8.75498L14.6389 12.1626ZM18.7275 8.07295L18.5004 8.30008L12.1395 1.93918L12.3666 1.71206C12.4889 1.59529 12.6515 1.53013 12.8205 1.53013C12.9896 1.53013 13.1522 1.59529 13.2745 1.71206L18.7275 7.16475C18.8478 7.28522 18.9153 7.44848 18.9153 7.61869C18.9153 7.78891 18.8478 7.95249 18.7275 8.07295Z" fill="black"/>
</svg>
