<svg width="21" height="18" viewBox="0 0 21 18" fill="none" xmlns="http://www.w3.org/2000/svg">
<path d="M20.0376 16.449L18.988 6.63053C18.9091 5.89347 18.3869 5.35847 17.7461 5.35847H16.358V4.66576C16.3581 3.99633 16.1162 3.34944 15.677 2.84427C15.2377 2.3391 14.6307 2.00969 13.9678 1.91673C13.3048 1.82377 12.6306 1.97352 12.0694 2.3384C11.5081 2.70327 11.0977 3.25869 10.9136 3.90231H10.0171V3.2096C10.0171 2.84505 9.94527 2.48407 9.80577 2.14727C9.66626 1.81047 9.46178 1.50444 9.204 1.24667C8.94623 0.98889 8.6402 0.784411 8.3034 0.644904C7.9666 0.505397 7.60563 0.433594 7.24108 0.433594C6.87653 0.433594 6.51555 0.505397 6.17875 0.644904C5.84195 0.784411 5.53592 0.98889 5.27815 1.24667C5.02037 1.50444 4.81589 1.81047 4.67638 2.14727C4.53688 2.48407 4.46507 2.84505 4.46507 3.2096V3.90231H3.07694C2.43618 3.90231 1.91394 4.43727 1.83511 5.17437L0.785461 14.9927C0.740925 15.4095 0.825481 15.7388 1.03683 15.9716C1.33775 16.3028 1.79031 16.3298 2.07966 16.3298C2.10978 16.3298 2.13836 16.3295 2.16463 16.3292C2.18489 16.329 2.20375 16.3288 2.2211 16.3288H7.13935L7.12651 16.449C7.08202 16.8657 7.16657 17.1951 7.37792 17.4278C7.71024 17.7937 8.22762 17.7885 8.50565 17.7854C8.52587 17.7852 8.54476 17.785 8.56212 17.785H18.6021C18.6194 17.785 18.6383 17.785 18.6586 17.7854C18.685 17.7857 18.7133 17.786 18.7436 17.786C19.0328 17.786 19.4854 17.759 19.7864 17.4277C19.9976 17.1951 20.0822 16.8657 20.0376 16.449ZM13.582 2.49219C14.1583 2.49282 14.7108 2.72203 15.1183 3.12953C15.5258 3.53703 15.755 4.08954 15.7557 4.66583V5.35854H11.4084V4.66583C11.409 4.08954 11.6382 3.53703 12.0457 3.12953C12.4532 2.72203 13.0057 2.49282 13.582 2.49219ZM10.8112 4.50474C10.8081 4.55808 10.8062 4.61173 10.8062 4.66583V5.35854H10.0171V4.50474H10.8112ZM5.06758 3.20967C5.06758 2.92422 5.1238 2.64157 5.23304 2.37785C5.34228 2.11413 5.50239 1.87451 5.70423 1.67267C5.90607 1.47083 6.14569 1.31072 6.40941 1.20149C6.67313 1.09225 6.95578 1.03603 7.24123 1.03603C7.52667 1.03603 7.80932 1.09225 8.07304 1.20149C8.33676 1.31072 8.57638 1.47083 8.77822 1.67267C8.98007 1.87451 9.14017 2.11413 9.24941 2.37785C9.35865 2.64157 9.41487 2.92422 9.41487 3.20967V3.90238H5.06743L5.06758 3.20967ZM2.22095 15.7265C2.20179 15.7265 2.18082 15.7267 2.15835 15.7269C1.96202 15.7292 1.63332 15.7323 1.48273 15.5666C1.392 15.4667 1.35891 15.2951 1.38443 15.0568L2.43408 5.23849C2.47172 4.88509 2.6891 4.50474 3.0769 4.50474H4.46507V5.72534C4.2483 5.79597 4.06376 5.9415 3.94455 6.13583C3.82533 6.33017 3.77922 6.56061 3.81448 6.78586C3.84975 7.01111 3.96408 7.21643 4.13699 7.36503C4.3099 7.51364 4.53008 7.5958 4.75807 7.59679C4.98606 7.59779 5.20695 7.51756 5.38115 7.37048C5.55536 7.22339 5.67148 7.01908 5.70872 6.79415C5.74595 6.56922 5.70186 6.33838 5.58435 6.14301C5.46683 5.94763 5.28358 5.8005 5.06743 5.72798V4.50444H9.41472V5.35839C8.77543 5.36012 8.25473 5.89453 8.17612 6.63038L7.20362 15.7265H2.22095ZM4.76234 6.28041C4.83292 6.28041 4.90192 6.30133 4.96061 6.34054C5.0193 6.37975 5.06505 6.43548 5.09206 6.50069C5.11908 6.5659 5.12615 6.63765 5.11238 6.70688C5.09861 6.77611 5.06462 6.8397 5.01471 6.88961C4.9648 6.93952 4.90121 6.97351 4.83198 6.98728C4.76276 7.00104 4.691 6.99397 4.62579 6.96696C4.56058 6.93994 4.50485 6.8942 4.46564 6.83551C4.42643 6.77682 4.40551 6.70782 4.40552 6.63723C4.40564 6.54264 4.44327 6.45195 4.51016 6.38506C4.57705 6.31816 4.66774 6.28053 4.76234 6.28041ZM19.3404 17.0228C19.1898 17.1885 18.8613 17.1854 18.6647 17.1832C18.6422 17.1829 18.6213 17.1827 18.6021 17.1827H8.56189C8.54269 17.1827 8.52176 17.1829 8.49929 17.1832C8.30288 17.1853 7.97426 17.1886 7.82367 17.0228C7.73294 16.9229 7.69985 16.7513 7.7253 16.513L8.77502 6.69457C8.81266 6.34118 9.03008 5.96082 9.41784 5.96082H10.806V7.18146C10.5892 7.25209 10.4047 7.39762 10.2855 7.59196C10.1663 7.78629 10.1202 8.01674 10.1554 8.24198C10.1907 8.46723 10.305 8.67256 10.4779 8.82116C10.6508 8.96976 10.871 9.05192 11.099 9.05292C11.327 9.05392 11.5479 8.97368 11.7221 8.8266C11.8963 8.67952 12.0124 8.4752 12.0497 8.25027C12.0869 8.02534 12.0428 7.7945 11.9253 7.59913C11.8078 7.40376 11.6245 7.25662 11.4084 7.1841V5.96097H15.7557V7.18429C15.5396 7.25682 15.3564 7.40394 15.239 7.59927C15.1215 7.79459 15.0775 8.02537 15.1147 8.25022C15.152 8.47508 15.2681 8.67932 15.4422 8.82634C15.6164 8.97337 15.8372 9.05356 16.0651 9.05255C16.2931 9.05153 16.5132 8.96939 16.686 8.82082C16.8589 8.67226 16.9732 8.467 17.0084 8.24182C17.0437 8.01664 16.9976 7.78627 16.8784 7.59199C16.7592 7.39771 16.5747 7.25223 16.358 7.18161V5.96097H17.7461C18.1339 5.96097 18.3512 6.34121 18.389 6.69472L19.4387 16.5131C19.4642 16.7513 19.4311 16.9229 19.3404 17.0228ZM11.1033 7.73661C11.1739 7.73657 11.2429 7.75748 11.3017 7.79668C11.3604 7.83588 11.4062 7.89161 11.4332 7.95683C11.4602 8.02205 11.4673 8.09383 11.4536 8.16308C11.4398 8.23232 11.4058 8.29593 11.3559 8.34586C11.306 8.39578 11.2424 8.42978 11.1731 8.44355C11.1039 8.45732 11.0321 8.45024 10.9669 8.42321C10.9016 8.39618 10.8459 8.35041 10.8067 8.2917C10.7675 8.23298 10.7466 8.16396 10.7466 8.09336C10.7467 7.99879 10.7844 7.90814 10.8512 7.84127C10.9181 7.7744 11.0087 7.73676 11.1033 7.73661ZM16.0608 7.73661C16.1313 7.73661 16.2003 7.75754 16.259 7.79676C16.3177 7.83598 16.3635 7.89172 16.3905 7.95694C16.4175 8.02215 16.4246 8.09392 16.4108 8.16315C16.397 8.23238 16.363 8.29597 16.3131 8.34589C16.2632 8.3958 16.1996 8.42979 16.1304 8.44355C16.0611 8.45732 15.9894 8.45024 15.9241 8.42323C15.8589 8.39621 15.8032 8.35046 15.764 8.29176C15.7248 8.23307 15.7038 8.16406 15.7039 8.09347C15.704 7.99885 15.7416 7.90814 15.8085 7.84124C15.8754 7.77434 15.9661 7.73671 16.0608 7.73661ZM17.6005 14.1969H14.6216C14.4417 14.1971 14.2691 14.2687 14.1419 14.3959C14.0147 14.5231 13.9431 14.6957 13.9429 14.8756V15.5536C13.9431 15.7335 14.0146 15.906 14.1419 16.0333C14.2691 16.1605 14.4416 16.2321 14.6216 16.2323H17.6006C17.7805 16.2321 17.953 16.1605 18.0803 16.0333C18.2075 15.906 18.2791 15.7335 18.2793 15.5536V14.8756C18.2791 14.6957 18.2075 14.5231 18.0803 14.3959C17.953 14.2687 17.7805 14.1971 17.6006 14.1969L17.6005 14.1969ZM17.6769 15.5536C17.6766 15.5738 17.6685 15.593 17.6542 15.6073C17.64 15.6216 17.6207 15.6297 17.6005 15.63H14.6216C14.6014 15.6297 14.5822 15.6216 14.5679 15.6073C14.5536 15.593 14.5455 15.5738 14.5453 15.5536V14.8756C14.5455 14.8554 14.5536 14.8361 14.5679 14.8219C14.5822 14.8076 14.6014 14.7995 14.6216 14.7992H17.6006C17.6208 14.7995 17.64 14.8076 17.6543 14.8219C17.6686 14.8361 17.6767 14.8554 17.677 14.8756L17.6769 15.5536Z" fill="black"/>
</svg>
