<svg width="32" height="33" viewBox="0 0 32 33" fill="none" xmlns="http://www.w3.org/2000/svg">
<path d="M28.8714 3.85602C28.8714 2.57952 27.8329 1.54102 26.5564 1.54102H5.44342C4.16692 1.54102 3.12842 2.57952 3.12842 3.85602C3.12842 5.00352 3.96992 5.95152 5.06642 6.13302V14.547C4.55042 14.55 4.06542 14.752 3.70042 15.117C3.33692 15.48 3.12842 15.985 3.12842 16.5025C3.12842 17.574 3.99692 18.4445 5.06642 18.4515V26.8675C3.96992 27.049 3.12842 27.997 3.12842 29.1445C3.12842 30.421 4.16692 31.4595 5.44342 31.4595H26.5564C27.8329 31.4595 28.8714 30.421 28.8714 29.1445C28.8714 27.997 28.0299 27.049 26.9334 26.8675V18.4515C27.4499 18.4485 27.9349 18.2465 28.2994 17.8815C28.6679 17.513 28.8714 17.0235 28.8714 16.5025C28.8714 15.428 28.0029 14.554 26.9334 14.547V6.13302C28.0299 5.95152 28.8714 5.00352 28.8714 3.85602ZM4.12842 3.85602C4.12842 3.13102 4.71842 2.54102 5.44342 2.54102H26.5564C27.2814 2.54102 27.8714 3.13102 27.8714 3.85602C27.8714 4.58102 27.2814 5.17102 26.5564 5.17102H26.4444C26.4404 5.17102 26.4374 5.16902 26.4334 5.16902H5.56642C5.56242 5.16902 5.55942 5.17102 5.55542 5.17102H5.44342C4.71842 5.17102 4.12842 4.58102 4.12842 3.85602ZM24.5684 9.35502C24.2919 9.35502 24.0684 9.57901 24.0684 9.85501V14.546H6.06642V6.17102H25.9334V14.546H25.0684V9.85501C25.0684 9.57901 24.8449 9.35502 24.5684 9.35502ZM25.9334 26.8295H6.06642V18.453H25.9334V26.8295ZM27.8714 29.1445C27.8714 29.8695 27.2814 30.4595 26.5564 30.4595H5.44342C4.71842 30.4595 4.12842 29.8695 4.12842 29.1445C4.12842 28.4195 4.71842 27.8295 5.44342 27.8295H5.56292C5.56292 27.8295 5.56542 27.83 5.56642 27.83H26.4334C26.4334 27.83 26.4359 27.8295 26.4369 27.8295H26.5564C27.2814 27.8295 27.8714 28.4195 27.8714 29.1445ZM27.8714 16.503C27.8714 16.7565 27.7724 16.995 27.5919 17.175C27.4129 17.3545 27.1744 17.4535 26.9209 17.4535H5.07842C4.55442 17.4535 4.12842 17.027 4.12842 16.5035C4.12842 16.2495 4.22992 16.003 4.40742 15.8255C4.58692 15.646 4.82542 15.547 5.07892 15.547H26.9214C27.4454 15.547 27.8714 15.9755 27.8714 16.503Z" fill="#0369A1"/>
<path d="M25.0684 7.72607C25.0684 7.45007 24.8449 7.22607 24.5684 7.22607C24.2919 7.22607 24.0684 7.45007 24.0684 7.72607V7.96807C24.0684 8.24407 24.2919 8.46807 24.5684 8.46807C24.8449 8.46807 25.0684 8.24407 25.0684 7.96807V7.72607Z" fill="#0369A1"/>
</svg>
