<svg width="32" height="33" viewBox="0 0 32 33" fill="none" xmlns="http://www.w3.org/2000/svg">
<g clip-path="url(#clip0_58169_39270)">
<path d="M30.6338 12.6536C30.1136 11.9071 29.7677 11.0533 29.622 10.1552C29.7825 9.97458 29.8715 9.7416 29.8723 9.5V5C29.8714 4.46945 29.6601 3.96093 29.2847 3.58598C28.9093 3.21104 28.4006 3.0003 27.87 3H26.8689C26.3384 3.0003 25.8296 3.21104 25.4542 3.58598C25.0789 3.96093 24.8676 4.46945 24.8667 5V9.5C24.8675 9.7416 24.9565 9.97459 25.117 10.1552C24.9712 11.0533 24.6254 11.9071 24.1051 12.6536C23.1186 14.0769 22.5977 15.7712 22.6141 17.5029V28.25C22.615 28.7805 22.8264 29.2891 23.2017 29.664C23.5771 30.039 24.0859 30.2497 24.6164 30.25H30.1226C30.6531 30.2497 31.1619 30.039 31.5372 29.664C31.9126 29.2891 32.1239 28.7805 32.1248 28.25V17.5029C32.1413 15.7712 31.6204 14.0769 30.6338 12.6536ZM25.8678 5C25.8679 4.8686 25.8938 4.73851 25.9442 4.61714C25.9945 4.49578 26.0683 4.38552 26.1613 4.29266C26.2542 4.1998 26.3646 4.12616 26.486 4.07595C26.6074 4.02573 26.7375 3.99993 26.8689 4H27.87C28.0014 3.99993 28.1316 4.02573 28.253 4.07595C28.3744 4.12616 28.4848 4.1998 28.5777 4.29266C28.6707 4.38552 28.7444 4.49578 28.7948 4.61714C28.8451 4.73851 28.8711 4.8686 28.8712 5V9.5H25.8678V5ZM24.9194 13.2354C25.4931 12.4159 25.8852 11.4833 26.0696 10.5H28.6694C28.8538 11.4833 29.2459 12.4159 29.8196 13.2354C30.5893 14.3466 31.0345 15.6501 31.1052 17H23.6338C23.7045 15.6501 24.1496 14.3466 24.9194 13.2354ZM31.1237 28.25C31.1236 28.3814 31.0977 28.5115 31.0473 28.6329C30.997 28.7542 30.9232 28.8645 30.8302 28.9573C30.7373 29.0502 30.6269 29.1238 30.5055 29.1741C30.3841 29.2243 30.254 29.2501 30.1226 29.25H24.6164C24.485 29.2501 24.3549 29.2243 24.2335 29.1741C24.112 29.1238 24.0017 29.0502 23.9087 28.9573C23.8158 28.8645 23.742 28.7542 23.6917 28.6329C23.6413 28.5115 23.6154 28.3814 23.6153 28.25V25.5H31.1237L31.1237 28.25ZM31.1237 24.5H23.6153V18H31.1237V24.5Z" fill="#0369A1"/>
<path d="M27.3697 23.5C27.8146 23.4995 28.2494 23.3671 28.6191 23.1196C28.9887 22.872 29.2767 22.5205 29.4466 22.1093C29.6166 21.6981 29.6607 21.2458 29.5736 20.8095C29.4865 20.3732 29.2721 19.9725 28.9573 19.6581C28.6425 19.3437 28.2416 19.1297 27.8052 19.0431C27.3688 18.9564 26.9166 19.0011 26.5056 19.1715C26.0946 19.3419 25.7433 19.6303 25.4962 20.0002C25.2491 20.3702 25.1172 20.8051 25.1172 21.25C25.1182 21.8469 25.3559 22.419 25.7782 22.8408C26.2005 23.2626 26.7728 23.4997 27.3697 23.5ZM27.3697 20C27.6169 20.0003 27.8584 20.0738 28.0638 20.2113C28.2692 20.3489 28.4292 20.5442 28.5236 20.7726C28.618 21.001 28.6425 21.2523 28.5941 21.4947C28.5457 21.7371 28.4266 21.9597 28.2517 22.1344C28.0768 22.3091 27.8541 22.428 27.6117 22.4761C27.3692 22.5242 27.118 22.4994 26.8896 22.4047C26.6613 22.3101 26.4662 22.1498 26.3289 21.9443C26.1916 21.7388 26.1183 21.4972 26.1183 21.25C26.1189 20.9184 26.251 20.6006 26.4856 20.3663C26.7202 20.1319 27.0381 20.0002 27.3697 20Z" fill="#0369A1"/>
<path d="M7.09893 21.3181L5.59725 20.4431C5.52067 20.3985 5.43364 20.375 5.34501 20.375C5.25639 20.375 5.16935 20.3985 5.09278 20.4431L3.5911 21.3181C3.51556 21.3621 3.45288 21.4251 3.40931 21.5009C3.36573 21.5767 3.34279 21.6626 3.34277 21.75V23.5C3.34279 23.5874 3.36573 23.6733 3.40931 23.7491C3.45288 23.8249 3.51556 23.8879 3.5911 23.9319L5.09278 24.8069C5.16935 24.8515 5.25639 24.875 5.34501 24.875C5.43364 24.875 5.52067 24.8515 5.59725 24.8069L7.09893 23.9319C7.17446 23.8879 7.23714 23.8249 7.28071 23.7491C7.32428 23.6733 7.34722 23.5874 7.34724 23.5V21.75C7.34722 21.6626 7.32428 21.5767 7.28071 21.5009C7.23714 21.4251 7.17446 21.3621 7.09893 21.3181ZM6.34613 23.2128L5.34501 23.7961L4.34389 23.2128V22.0372L5.34501 21.4539L6.34613 22.0372V23.2128Z" fill="#0369A1"/>
<path d="M20.8624 22.5V14.6665C21.789 11.8794 21.0812 9.42584 18.8602 7.71718V6.25C18.8602 6.22742 18.8554 6.20621 18.8539 6.18404C18.9314 6.14109 18.9961 6.07821 19.0412 6.0019C19.0863 5.9256 19.1102 5.83864 19.1105 5.75V4.25C19.1098 3.85209 18.9513 3.47068 18.6698 3.18947C18.3883 2.90826 18.0067 2.75021 17.6088 2.75H15.6065C15.2086 2.75021 14.827 2.90826 14.5455 3.18947C14.264 3.47068 14.1055 3.85209 14.1049 4.25V5.75C14.1051 5.83864 14.129 5.9256 14.1741 6.0019C14.2192 6.07821 14.2839 6.14108 14.3614 6.18404C14.3599 6.20621 14.3551 6.22742 14.3551 6.25V7.71706C12.135 9.42374 11.426 11.8784 12.3529 14.6666V22.5C12.3738 22.6709 12.3319 22.8435 12.2351 22.9858C11.8299 23.4781 11.6064 24.0948 11.6021 24.7324V27.5192C11.6135 28.2536 11.9157 28.9535 12.4424 29.4654C12.969 29.9773 13.6772 30.2595 14.4117 30.25H18.8037C19.5381 30.2595 20.2463 29.9773 20.773 29.4654C21.2996 28.9535 21.6018 28.2536 21.6133 27.5192V24.7324C21.6089 24.0948 21.3854 23.4781 20.9802 22.9858C20.8834 22.8435 20.8416 22.6709 20.8624 22.5ZM15.106 4.25C15.1062 4.11736 15.159 3.99023 15.2529 3.8965C15.3467 3.80276 15.4739 3.75008 15.6065 3.75H17.6088C17.7414 3.75008 17.8686 3.80276 17.9625 3.8965C18.0563 3.99023 18.1091 4.11736 18.1094 4.25V5.25H15.106V4.25ZM17.8591 6.25V7.5H15.3563V6.25H17.8591ZM14.9777 8.5H18.2376C19.1449 9.18963 20.9979 10.9453 19.9411 14.258C19.9147 14.2532 19.8881 14.2505 19.8613 14.25H13.354C13.3273 14.2505 13.3006 14.2532 13.2743 14.258C12.2174 10.9453 14.0704 9.18963 14.9777 8.5ZM19.8613 15.25V22.25H18.1093V15.25H19.8613ZM17.1082 15.25V22.25H16.1071V15.25H17.1082ZM15.106 15.25V22.25H13.354V15.25H15.106ZM20.6121 27.5192C20.6016 27.9885 20.4052 28.4344 20.0661 28.7589C19.727 29.0834 19.2729 29.2601 18.8037 29.25H14.4117C13.9424 29.2601 13.4883 29.0834 13.1492 28.7589C12.8101 28.4344 12.6137 27.9885 12.6032 27.5192V24.7324C12.6062 24.3247 12.7505 23.9306 13.0114 23.6173C13.1052 23.502 13.1801 23.3725 13.2333 23.2337C13.2727 23.2441 13.3133 23.2495 13.354 23.25H19.8613C19.902 23.2495 19.9426 23.2441 19.982 23.2337C20.0352 23.3725 20.1101 23.502 20.2039 23.6173C20.4648 23.9306 20.6091 24.3247 20.6121 24.7324L20.6121 27.5192Z" fill="#0369A1"/>
<path d="M9.35618 14.728C8.98248 14.0197 8.74477 13.2476 8.65533 12.4517L7.93458 6.24033C8.00023 6.22928 8.06299 6.20514 8.11912 6.16935C8.17525 6.13355 8.2236 6.08682 8.2613 6.03195C8.299 5.97708 8.32527 5.91518 8.33856 5.84994C8.35184 5.78471 8.35186 5.71747 8.33862 5.65222L8.01966 4.05493C7.97356 3.82785 7.8504 3.62368 7.67103 3.477C7.49166 3.33031 7.26711 3.25012 7.0354 3.25H3.65466C3.42296 3.25015 3.19843 3.33035 3.01906 3.47703C2.8397 3.62372 2.71654 3.82787 2.67041 4.05493L2.35145 5.65222C2.33821 5.71747 2.33823 5.78471 2.35151 5.84994C2.3648 5.91518 2.39107 5.97708 2.42877 6.03195C2.46647 6.08682 2.51482 6.13355 2.57095 6.16935C2.62708 6.20514 2.68984 6.22928 2.75549 6.24033L2.03474 12.4517C1.9453 13.2476 1.70759 14.0197 1.3339 14.728C0.728382 15.8814 0.394937 17.1581 0.35912 18.4603L0.0900523 27.9471C0.080196 28.2554 0.131901 28.5626 0.242143 28.8507C0.352386 29.1388 0.518955 29.402 0.732112 29.625C0.920539 29.8219 1.14677 29.9787 1.39725 30.0861C1.64773 30.1935 1.91731 30.2493 2.18984 30.25H8.50021C8.77275 30.2493 9.04233 30.1935 9.29281 30.0861C9.54329 29.9787 9.76952 29.8219 9.95794 29.625C10.171 29.4023 10.3374 29.1393 10.4477 28.8515C10.5579 28.5637 10.6097 28.2568 10.6 27.9487L10.331 18.4611C10.2952 17.1586 9.96179 15.8817 9.35618 14.728ZM3.65466 4.25L7.03808 4.2511L7.23753 5.25H3.45351L3.65466 4.25ZM3.76219 6.25H6.92787L7.65311 12.5H3.03695L3.76219 6.25ZM2.21853 15.1962C2.5016 14.6594 2.71711 14.0897 2.8601 13.5H7.82996C7.97295 14.0897 8.18844 14.6594 8.47151 15.1962C8.88994 15.9922 9.16066 16.8574 9.27051 17.75H1.41956C1.52941 16.8574 1.80011 15.9922 2.21853 15.1962ZM1.35242 18.75H9.33764L9.55744 26.5H1.13261L1.35242 18.75ZM8.50022 29.25H2.18984C2.03349 29.2399 1.88073 29.1987 1.74047 29.1288C1.60022 29.059 1.47528 28.9619 1.37296 28.8432C1.27064 28.7246 1.19299 28.5867 1.14454 28.4377C1.09609 28.2887 1.07781 28.1316 1.09077 27.9754L1.10426 27.5H9.58579L9.59929 27.9754C9.61226 28.1316 9.59398 28.2887 9.54553 28.4377C9.49708 28.5867 9.41942 28.7246 9.3171 28.8432C9.21478 28.9619 9.08985 29.059 8.94959 29.1288C8.80933 29.1987 8.65657 29.2399 8.50022 29.25Z" fill="#0369A1"/>
</g>
<defs>
<clipPath id="clip0_58169_39270">
<rect width="32" height="32" fill="white" transform="translate(0 0.5)"/>
</clipPath>
</defs>
</svg>
