<svg width="20" height="25" viewBox="0 0 20 25" fill="none" xmlns="http://www.w3.org/2000/svg">
<path d="M17.1429 4.28573H10.7143V2.63822C10.9288 2.51676 11.1077 2.34112 11.2331 2.12884C11.3584 1.91656 11.4258 1.6751 11.4286 1.42859C11.4286 1.04971 11.2781 0.686343 11.0102 0.418434C10.7422 0.150525 10.3789 1.52588e-05 10 1.52588e-05C9.62112 1.52588e-05 9.25776 0.150525 8.98985 0.418434C8.72194 0.686343 8.57143 1.04971 8.57143 1.42859C8.57418 1.6751 8.6416 1.91656 8.76695 2.12884C8.8923 2.34112 9.07118 2.51676 9.28571 2.63822V4.28573H2.85714C2.09965 4.2866 1.37342 4.58789 0.837794 5.12352C0.302163 5.65915 0.000865846 6.38538 0 7.14287V17.1429C0.000865846 17.9004 0.302163 18.6266 0.837794 19.1622C1.37342 19.6979 2.09965 19.9991 2.85714 20H4.28571V23.5714C4.28575 23.7127 4.32765 23.8508 4.40612 23.9682C4.48458 24.0856 4.59609 24.1772 4.72656 24.2313C4.81318 24.2675 4.90614 24.286 5 24.2857C5.0938 24.2857 5.18668 24.2672 5.27333 24.2313C5.35998 24.1954 5.43871 24.1428 5.50503 24.0765L9.58143 20H17.1429C17.9004 19.9991 18.6266 19.6979 19.1622 19.1622C19.6978 18.6266 19.9991 17.9004 20 17.1429V7.14287C19.9991 6.38538 19.6978 5.65915 19.1622 5.12352C18.6266 4.58789 17.9004 4.2866 17.1429 4.28573ZM4.28571 11.4286C4.28571 11.146 4.3695 10.8698 4.52647 10.6349C4.68345 10.4 4.90656 10.2169 5.1676 10.1088C5.42863 10.0006 5.71587 9.97234 5.99299 10.0275C6.2701 10.0826 6.52465 10.2186 6.72444 10.4184C6.92423 10.6182 7.06029 10.8728 7.11541 11.1499C7.17053 11.427 7.14224 11.7142 7.03411 11.9753C6.92599 12.2363 6.74288 12.4594 6.50796 12.6164C6.27303 12.7734 5.99683 12.8572 5.71429 12.8572C5.33541 12.8572 4.97204 12.7066 4.70413 12.4387C4.43622 12.1708 4.28571 11.8075 4.28571 11.4286ZM13.9383 15.5922C12.7498 16.3092 11.3881 16.6881 10 16.6881C8.61195 16.6881 7.25022 16.3092 6.06166 15.5922C5.98103 15.5441 5.91068 15.4806 5.85463 15.4053C5.79857 15.33 5.75792 15.2444 5.735 15.1534C5.71208 15.0623 5.70734 14.9677 5.72105 14.8748C5.73476 14.7819 5.76665 14.6927 5.8149 14.6121C5.86314 14.5316 5.9268 14.4614 6.00222 14.4055C6.07764 14.3496 6.16334 14.3091 6.25442 14.2864C6.3455 14.2636 6.44018 14.2591 6.53302 14.273C6.62586 14.2869 6.71505 14.3189 6.79549 14.3673C7.76608 14.9407 8.87272 15.2431 10 15.2431C11.1273 15.2431 12.2339 14.9407 13.2045 14.3673C13.2849 14.3189 13.3741 14.2869 13.467 14.273C13.5598 14.2591 13.6545 14.2636 13.7456 14.2864C13.8367 14.3091 13.9224 14.3496 13.9978 14.4055C14.0732 14.4614 14.1369 14.5316 14.1851 14.6121C14.2333 14.6927 14.2652 14.7819 14.2789 14.8748C14.2927 14.9677 14.2879 15.0623 14.265 15.1534C14.2421 15.2444 14.2014 15.33 14.1454 15.4053C14.0893 15.4806 14.019 15.5441 13.9383 15.5922ZM14.2857 12.8572C14.0032 12.8572 13.727 12.7734 13.492 12.6164C13.2571 12.4594 13.074 12.2363 12.9659 11.9753C12.8578 11.7142 12.8295 11.427 12.8846 11.1499C12.9397 10.8728 13.0758 10.6182 13.2756 10.4184C13.4754 10.2186 13.7299 10.0826 14.007 10.0275C14.2841 9.97234 14.5714 10.0006 14.8324 10.1088C15.0934 10.2169 15.3166 10.4 15.4735 10.6349C15.6305 10.8698 15.7143 11.146 15.7143 11.4286C15.7143 11.8075 15.5638 12.1708 15.2959 12.4387C15.028 12.7066 14.6646 12.8572 14.2857 12.8572Z" fill="white"/>
</svg>
