<svg width="50" height="50" viewBox="0 0 50 50" fill="none" xmlns="http://www.w3.org/2000/svg">
<circle cx="25" cy="25" r="24.5" stroke="#003CFF"/>
<path d="M29.723 25C29.723 24.0659 29.446 23.1529 28.9271 22.3762C28.4082 21.5996 27.6706 20.9943 26.8077 20.6368C25.9447 20.2794 24.9951 20.1859 24.079 20.3681C23.1629 20.5503 22.3214 21.0001 21.6609 21.6606C21.0005 22.3211 20.5507 23.1625 20.3685 24.0787C20.1862 24.9948 20.2798 25.9443 20.6372 26.8073C20.9946 27.6702 21.6 28.4078 22.3766 28.9267C23.1532 29.4457 24.0663 29.7227 25.0004 29.7227C26.2525 29.7212 27.4529 29.2232 28.3382 28.3379C29.2236 27.4525 29.7216 26.2521 29.723 25ZM21.0902 25C21.0902 24.2266 21.3195 23.4707 21.7492 22.8276C22.1788 22.1846 22.7895 21.6834 23.504 21.3875C24.2185 21.0915 25.0047 21.0141 25.7632 21.165C26.5217 21.3159 27.2184 21.6883 27.7653 22.2351C28.3121 22.7819 28.6845 23.4787 28.8354 24.2372C28.9863 24.9957 28.9088 25.7819 28.6129 26.4964C28.3169 27.2108 27.8158 27.8215 27.1727 28.2512C26.5297 28.6808 25.7737 28.9102 25.0004 28.9102C23.9637 28.909 22.9698 28.4966 22.2368 27.7636C21.5037 27.0306 21.0914 26.0367 21.0902 25ZM26.9075 23.6674L23.6676 26.9073C23.6299 26.945 23.5851 26.9749 23.5358 26.9953C23.4865 27.0158 23.4337 27.0263 23.3803 27.0263C23.327 27.0263 23.2742 27.0157 23.2249 26.9953C23.1756 26.9749 23.1308 26.945 23.0931 26.9072C23.0554 26.8695 23.0254 26.8247 23.005 26.7754C22.9846 26.7261 22.9741 26.6733 22.9741 26.62C22.9741 26.5666 22.9846 26.5138 23.005 26.4645C23.0255 26.4152 23.0554 26.3704 23.0931 26.3327L26.333 23.0929C26.4092 23.0167 26.5125 22.9739 26.6202 22.9739C26.728 22.9739 26.8313 23.0167 26.9075 23.0929C26.9837 23.1691 27.0265 23.2724 27.0265 23.3802C27.0265 23.4879 26.9837 23.5913 26.9075 23.6674ZM27.0265 26.6199C27.0265 26.7003 27.0027 26.7788 26.9581 26.8456C26.9135 26.9124 26.85 26.9645 26.7758 26.9952C26.7016 27.026 26.6199 27.034 26.5411 27.0184C26.4623 27.0027 26.3899 26.9641 26.3331 26.9073C26.2763 26.8505 26.2376 26.7781 26.2219 26.6993C26.2062 26.6205 26.2142 26.5389 26.2449 26.4646C26.2756 26.3904 26.3276 26.3269 26.3944 26.2823C26.4612 26.2376 26.5397 26.2137 26.62 26.2137H26.6203C26.728 26.2137 26.8314 26.2565 26.9076 26.3327C26.9837 26.4088 27.0265 26.5122 27.0265 26.6199ZM22.9742 23.3801C22.9742 23.2723 23.017 23.169 23.0932 23.0928C23.1694 23.0166 23.2727 22.9738 23.3804 22.9738C23.4608 22.9738 23.5393 22.9977 23.6061 23.0423C23.673 23.0869 23.725 23.1504 23.7558 23.2246C23.7865 23.2988 23.7946 23.3805 23.7789 23.4593C23.7632 23.5381 23.7245 23.6105 23.6677 23.6673C23.6109 23.7242 23.5385 23.7628 23.4597 23.7785C23.3809 23.7942 23.2992 23.7862 23.225 23.7554C23.1507 23.7247 23.0873 23.6726 23.0427 23.6058C22.998 23.539 22.9742 23.4604 22.9742 23.3801ZM17.8313 30.068H14.0551C13.8774 30.0681 13.707 30.1387 13.5814 30.2643C13.4557 30.39 13.385 30.5603 13.3848 30.738V37.33C13.385 37.5077 13.4557 37.678 13.5814 37.8036C13.707 37.9292 13.8774 37.9999 14.0551 38H17.8313C18.009 37.9999 18.1794 37.9292 18.3051 37.8036C18.4307 37.678 18.5014 37.5077 18.5016 37.33V37.0755H25.4044C26.008 37.0823 26.5966 36.8879 27.0773 36.5229L33.7241 31.5934C34.1652 31.2663 34.4724 30.754 34.5068 30.2884C34.5209 30.1374 34.5032 29.9852 34.455 29.8415C34.4068 29.6978 34.3291 29.5657 34.2269 29.4538C34.0134 29.1125 33.6759 28.8672 33.2854 28.7695C32.8948 28.6718 32.4816 28.7293 32.1325 28.9298L27.0158 31.884C26.9884 31.4216 26.7855 30.9872 26.4485 30.6693C26.1116 30.3515 25.6661 30.1743 25.2029 30.1738H20.1487C20.1409 30.1738 20.133 30.1738 20.1252 30.1745C19.5336 30.2097 18.967 30.4251 18.5014 30.7917V30.7381C18.5012 30.5604 18.4305 30.3901 18.3049 30.2645C18.1793 30.1388 18.009 30.0682 17.8313 30.068ZM17.6889 37.1875H14.1975V30.8805H17.6889V37.1875ZM18.5308 31.951C18.7075 31.6733 18.9472 31.4412 19.2304 31.2735C19.5136 31.1059 19.8325 31.0074 20.1609 30.9862H25.2027C25.4676 30.9881 25.7211 31.0946 25.9077 31.2826C26.0944 31.4706 26.1991 31.7248 26.1991 31.9897C26.1991 32.2546 26.0944 32.5088 25.9077 32.6968C25.7211 32.8848 25.4676 32.9913 25.2027 32.9932H21.1453C21.0376 32.9932 20.9342 33.036 20.858 33.1122C20.7819 33.1884 20.7391 33.2917 20.7391 33.3995C20.7391 33.5072 20.7819 33.6105 20.858 33.6867C20.9342 33.7629 21.0376 33.8057 21.1453 33.8057H25.2027C25.5075 33.8059 25.8074 33.7292 26.0747 33.5827C26.342 33.4362 26.5679 33.2246 26.7317 32.9676L26.7323 32.9666C26.7698 32.9575 26.8058 32.9431 26.8392 32.9239L32.5386 29.6332C32.7088 29.536 32.9105 29.51 33.0998 29.5607C33.2892 29.6115 33.4508 29.7349 33.5496 29.9042C33.5674 29.9349 33.5891 29.9632 33.6142 29.9883C33.6458 30.0191 33.6697 30.0568 33.684 30.0986C33.6983 30.1403 33.7025 30.1848 33.6963 30.2284C33.6791 30.4613 33.4914 30.7542 33.2398 30.9407L26.5931 35.8703C26.2525 36.1314 25.8336 36.2698 25.4044 36.263H18.5014V31.9913C18.512 31.9785 18.5218 31.965 18.5308 31.951ZM16.1349 35.9711C16.1349 35.8633 16.1777 35.76 16.2539 35.6838C16.33 35.6076 16.4334 35.5648 16.5411 35.5648H16.5414C16.6218 35.5648 16.7003 35.5887 16.7671 35.6333C16.8339 35.6779 16.886 35.7414 16.9168 35.8156C16.9475 35.8899 16.9555 35.9715 16.9399 36.0503C16.9242 36.1291 16.8855 36.2015 16.8287 36.2583C16.7719 36.3152 16.6995 36.3539 16.6207 36.3695C16.5419 36.3852 16.4602 36.3772 16.386 36.3464C16.3117 36.3157 16.2483 36.2636 16.2036 36.1968C16.159 36.13 16.1352 36.0514 16.1352 35.9711H16.1349ZM36.6157 19.262V12.67C36.6155 12.4924 36.5448 12.3221 36.4192 12.1965C36.2936 12.0709 36.1233 12.0002 35.9457 12H32.1694C31.9918 12.0002 31.8215 12.0708 31.6958 12.1964C31.5702 12.3221 31.4996 12.4924 31.4994 12.67V12.9245H24.5963C23.9928 12.9177 23.4041 13.1121 22.9234 13.4771L16.2769 18.4066C15.8357 18.7337 15.5285 19.246 15.4941 19.7116C15.48 19.8626 15.4976 20.0149 15.5458 20.1587C15.594 20.3024 15.6718 20.4345 15.7741 20.5465C15.9871 20.8883 16.3246 21.134 16.7154 21.2317C17.1061 21.3295 17.5195 21.2716 17.8684 21.0704L22.9851 18.1162C23.0126 18.5786 23.2155 19.013 23.5524 19.3309C23.8893 19.6487 24.3348 19.8259 24.798 19.8264H29.852C29.8599 19.8264 29.8678 19.8264 29.8756 19.8257C30.4671 19.7904 31.0338 19.575 31.4994 19.2084V19.262C31.4996 19.4397 31.5702 19.61 31.6958 19.7356C31.8215 19.8612 31.9918 19.9318 32.1694 19.932H35.9457C36.1233 19.9318 36.2936 19.8612 36.4192 19.7356C36.5448 19.61 36.6155 19.4397 36.6157 19.262ZM31.4699 18.049C31.2932 18.3267 31.0535 18.5588 30.7703 18.7264C30.4871 18.8941 30.1683 18.9925 29.8398 19.0138H24.7979C24.5329 19.0119 24.2795 18.9054 24.0929 18.7174C23.9062 18.5294 23.8015 18.2752 23.8015 18.0103C23.8015 17.7454 23.9062 17.4912 24.0929 17.3032C24.2795 17.1152 24.5329 17.0087 24.7979 17.0068H28.855C28.9627 17.0068 29.066 16.964 29.1422 16.8878C29.2184 16.8116 29.2612 16.7083 29.2612 16.6005C29.2612 16.4928 29.2184 16.3895 29.1422 16.3133C29.066 16.2371 28.9627 16.1943 28.855 16.1943H24.7979C24.4931 16.1941 24.1932 16.2708 23.926 16.4173C23.6587 16.5638 23.4328 16.7754 23.269 17.0324L23.2684 17.0335C23.2309 17.0425 23.1949 17.0569 23.1615 17.0761L17.4621 20.3668C17.2921 20.4647 17.0901 20.4911 16.9006 20.4403C16.7111 20.3895 16.5494 20.2656 16.4511 20.0958C16.4333 20.0651 16.4116 20.0368 16.3865 20.0117C16.3549 19.9809 16.331 19.9432 16.3167 19.9015C16.3024 19.8597 16.2982 19.8152 16.3044 19.7716C16.3216 19.5387 16.5093 19.2458 16.7609 19.0593L23.4076 14.1297C23.7483 13.8686 24.1671 13.7302 24.5963 13.737H31.4994V18.0088C31.4887 18.0216 31.4789 18.035 31.4699 18.049ZM35.8032 19.1195H32.3119V12.8125H35.8032V19.1195ZM33.0532 14.0289C33.0532 13.9486 33.077 13.87 33.1217 13.8032C33.1663 13.7364 33.2297 13.6844 33.3039 13.6536C33.3781 13.6229 33.4598 13.6148 33.5386 13.6304C33.6174 13.6461 33.6898 13.6848 33.7466 13.7415C33.8034 13.7983 33.8422 13.8707 33.8579 13.9495C33.8736 14.0283 33.8656 14.1099 33.8349 14.1842C33.8042 14.2584 33.7521 14.3219 33.6854 14.3666C33.6186 14.4112 33.5401 14.4351 33.4598 14.4352H33.4595C33.3517 14.4352 33.2484 14.3924 33.1722 14.3162C33.096 14.24 33.0532 14.1367 33.0532 14.0289Z" fill="#003CFF"/>
</svg>
