<svg width="24" height="25" viewBox="0 0 24 25" fill="none" xmlns="http://www.w3.org/2000/svg">
<mask id="mask0_58169_35849" style="mask-type:alpha" maskUnits="userSpaceOnUse" x="0" y="0" width="24" height="25">
<rect y="0.926514" width="24" height="24" fill="#D9D9D9"/>
</mask>
<g mask="url(#mask0_58169_35849)">
<path d="M11.25 20.4959V13.3574L5 9.73811V16.7036C5 16.7548 5.01283 16.8029 5.0385 16.8479C5.06417 16.8927 5.10258 16.9311 5.15375 16.9631L11.25 20.4959ZM12.75 20.4959L18.8462 16.9631C18.8974 16.9311 18.9358 16.8927 18.9615 16.8479C18.9872 16.8029 19 16.7548 19 16.7036V9.73811L12.75 13.3574V20.4959ZM12 12.0651L18.175 8.49586L12.1538 5.01311C12.1026 4.98111 12.0513 4.96511 12 4.96511C11.9487 4.96511 11.8974 4.98111 11.8463 5.01311L5.825 8.49586L12 12.0651ZM4.404 18.2804C4.11933 18.1164 3.8975 17.8972 3.7385 17.6229C3.5795 17.3484 3.5 17.047 3.5 16.7189V9.13436C3.5 8.80619 3.5795 8.50486 3.7385 8.23036C3.8975 7.95603 4.11933 7.73686 4.404 7.57286L11.0963 3.72086C11.3808 3.55669 11.682 3.47461 12 3.47461C12.318 3.47461 12.6193 3.55669 12.9038 3.72086L19.596 7.57286C19.8807 7.73686 20.1025 7.95603 20.2615 8.23036C20.4205 8.50486 20.5 8.80619 20.5 9.13436V16.7189C20.5 17.047 20.4205 17.3484 20.2615 17.6229C20.1025 17.8972 19.8807 18.1164 19.596 18.2804L12.9038 22.1324C12.6193 22.2965 12.318 22.3786 12 22.3786C11.682 22.3786 11.3808 22.2965 11.0963 22.1324L4.404 18.2804Z" fill="#0369A1"/>
</g>
</svg>
