<svg width="44" height="45" viewBox="0 0 44 45" fill="none" xmlns="http://www.w3.org/2000/svg">
<rect width="44" height="45" rx="22" fill="#673AB7" fill-opacity="0.2"/>
<path d="M14.7674 23.9213L16.9746 24.1999C17.1388 24.2213 17.3031 24.1642 17.4174 24.0499L23.9818 17.4856C24.0818 17.3856 24.1389 17.2498 24.1389 17.107V13.2141C24.1389 12.9141 23.9532 12.6498 23.6746 12.5426C23.3889 12.4426 23.0746 12.5212 22.8818 12.7498L14.3102 22.7499C14.1388 22.9499 14.0888 23.2285 14.1888 23.4713C14.2817 23.7142 14.5031 23.8928 14.7674 23.9213Z" fill="#6A0DAD"/>
<path d="M31.0749 13.4213C30.7964 13.1428 30.3464 13.1428 30.0678 13.4213L12.9248 30.5644C12.6462 30.8429 12.6462 31.2929 12.9248 31.5715C13.0605 31.7144 13.239 31.7858 13.4248 31.7858C13.6105 31.7858 13.789 31.7144 13.9319 31.5787L19.8534 25.65V31.7858C19.8534 32.0858 20.0391 32.3501 20.3177 32.4572C20.4034 32.4858 20.482 32.5001 20.5677 32.5001C20.7748 32.5001 20.9748 32.4144 21.1106 32.2501L29.6821 22.25C29.8535 22.05 29.9035 21.7714 29.8035 21.5286C29.7106 21.2857 29.4892 21.1071 29.2249 21.0786L24.9606 20.5428L31.0749 14.4285C31.3535 14.1571 31.3535 13.6999 31.0749 13.4213Z" fill="#6A0DAD"/>
</svg>
