<svg width="44" height="45" viewBox="0 0 44 45" fill="none" xmlns="http://www.w3.org/2000/svg">
<rect width="44" height="45" rx="22" fill="#FFE6E6"/>
<path d="M30.8 26.5L30.8 25.7L33.2 25.7C33.4122 25.7 33.6157 25.6157 33.7657 25.4657C33.9157 25.3156 34 25.1121 34 24.9L34 20.1C34 19.8878 33.9157 19.6843 33.7657 19.5343C33.6157 19.3843 33.4122 19.3 33.2 19.3L30.8 19.3L30.8 18.5C30.8 17.8635 30.5471 17.253 30.0971 16.8029C29.647 16.3528 29.0365 16.1 28.4 16.1L12.4 16.1C11.7635 16.1 11.153 16.3528 10.7029 16.8029C10.2529 17.253 10 17.8635 10 18.5L10 26.5C10 27.1365 10.2529 27.7469 10.7029 28.197C11.153 28.6471 11.7635 28.9 12.4 28.9L28.4 28.9C29.0365 28.9 29.647 28.6471 30.0971 28.197C30.5471 27.7469 30.8 27.1365 30.8 26.5ZM32.4 20.9L32.4 24.1L30.8 24.1L30.8 20.9L32.4 20.9ZM12.4 27.3C12.1878 27.3 11.9843 27.2157 11.8343 27.0657C11.6843 26.9156 11.6 26.7121 11.6 26.5L11.6 18.5C11.6 18.2878 11.6843 18.0843 11.8343 17.9343C11.9843 17.7843 12.1878 17.7 12.4 17.7L28.4 17.7C28.6122 17.7 28.8157 17.7843 28.9657 17.9343C29.1157 18.0843 29.2 18.2878 29.2 18.5L29.2 26.5C29.2 26.7121 29.1157 26.9156 28.9657 27.0657C28.8157 27.2157 28.6122 27.3 28.4 27.3L12.4 27.3Z" fill="#FF0000"/>
<path d="M14.7998 25.7L14.7998 19.3C14.7998 19.0878 14.7155 18.8843 14.5655 18.7343C14.4155 18.5843 14.212 18.5 13.9998 18.5C13.7876 18.5 13.5841 18.5843 13.4341 18.7343C13.2841 18.8843 13.1998 19.0878 13.1998 19.3L13.1998 25.7C13.1998 25.9122 13.2841 26.1157 13.4341 26.2657C13.5841 26.4157 13.7876 26.5 13.9998 26.5C14.212 26.5 14.4155 26.4157 14.5655 26.2657C14.7155 26.1157 14.7998 25.9122 14.7998 25.7Z" fill="#FF0000"/>
</svg>
