<svg width="30" height="31" viewBox="0 0 30 31" fill="none" xmlns="http://www.w3.org/2000/svg">
<rect width="30" height="30.6818" rx="15" fill="#BFFFBF"/>
<path d="M11.2443 16.8468H14.5292C14.5642 16.8468 14.5989 16.8594 14.6305 16.8835C14.6622 16.9077 14.6901 16.9429 14.7122 16.9866C14.7342 17.0302 14.7499 17.0812 14.7581 17.1358C14.7662 17.1903 14.7667 17.2472 14.7593 17.3021L13.6234 25.7892C13.6216 25.7977 13.6209 25.8067 13.6213 25.8156C13.6217 25.8245 13.6232 25.8332 13.6257 25.8412C13.6283 25.8491 13.6318 25.8562 13.6361 25.862C13.6404 25.8677 13.6453 25.872 13.6507 25.8747C13.6554 25.8794 13.6607 25.8826 13.6662 25.8839C13.6717 25.8853 13.6773 25.8848 13.6827 25.8826C13.6881 25.8803 13.6932 25.8763 13.6976 25.8708C13.702 25.8653 13.7056 25.8584 13.7083 25.8506L18.9518 14.4581C18.9788 14.3999 18.9951 14.3309 18.999 14.2587C19.0028 14.1865 18.9941 14.1141 18.9737 14.0494C18.9533 13.9847 18.9221 13.9304 18.8835 13.8924C18.845 13.8545 18.8006 13.8345 18.7553 13.8345H15.4705C15.4354 13.8345 15.4007 13.822 15.3691 13.7978C15.3374 13.7736 15.3095 13.7384 15.2874 13.6947C15.2653 13.651 15.2497 13.6 15.2415 13.5453C15.2334 13.4907 15.233 13.4338 15.2404 13.3789L16.3763 4.89175C16.3781 4.88328 16.3788 4.87431 16.3784 4.86539C16.378 4.85647 16.3765 4.84777 16.3739 4.83981C16.3714 4.83184 16.3679 4.82477 16.3636 4.81901C16.3593 4.81325 16.3544 4.80892 16.349 4.80628C16.3417 4.80058 16.3336 4.7975 16.3255 4.79724C16.3185 4.79779 16.3117 4.80111 16.3057 4.80689C16.2997 4.81267 16.2947 4.82074 16.2911 4.83038L11.0478 16.2237C11.021 16.2818 11.0047 16.3508 11.0009 16.4229C10.9971 16.495 11.0058 16.5674 11.0262 16.632C11.0466 16.6966 11.0777 16.7509 11.1163 16.7889C11.1548 16.8268 11.1991 16.8468 11.2443 16.8468Z" fill="#008000"/>
</svg>
