<svg width="31" height="32" viewBox="0 0 31 32" fill="none" xmlns="http://www.w3.org/2000/svg">
<rect y="0.61377" width="30.311" height="30.9999" rx="15.1555" fill="#FFE6E6"/>
<path d="M14.4733 13.357C15.2782 13.4107 16.0474 13.6253 16.745 13.9473C17.371 13.4643 18.0865 12.9277 18.9451 12.2838C17.5499 11.5683 15.9937 11.2284 14.4733 11.3179C12.2195 11.4431 10.091 12.4805 8.67788 14.0904C7.49733 15.3961 6.79973 17.0775 6.65663 18.7589C6.63875 18.9557 6.79973 19.1345 6.99649 19.1345C7.15747 19.1345 7.30057 19.0093 7.33634 18.8662C7.65831 17.3637 8.46323 15.9864 9.59012 15.0205C10.9495 13.8042 12.7561 13.2318 14.4733 13.357Z" fill="#FF0000"/>
<path d="M21.1637 13.9294C20.4661 14.8417 19.8758 15.6287 19.375 16.2905C19.858 17.0776 20.1441 17.954 20.2336 18.8305C20.2515 18.9915 20.3946 19.1346 20.5734 19.1346H23.3102C23.5248 19.1346 23.6858 18.9378 23.65 18.7232C23.3102 16.8987 22.4337 15.1994 21.1637 13.9294Z" fill="#FF0000"/>
<path d="M20.8053 12.6773C20.9484 12.4805 20.7159 12.248 20.5191 12.3911C19.0345 13.518 16.4408 15.4677 14.9741 16.6125C14.8131 16.5767 14.6521 16.5409 14.4732 16.5409C13.2748 16.5588 12.291 17.5426 12.291 18.741C12.291 19.9395 13.2569 20.9233 14.4732 20.9233C15.6896 20.9233 16.6555 19.9574 16.6555 18.741C16.6555 18.5622 16.6376 18.4012 16.5839 18.2402C17.7287 16.7556 19.6784 14.1798 20.8053 12.6773Z" fill="#FF0000"/>
</svg>
