<svg width="44" height="45" viewBox="0 0 44 45" fill="none" xmlns="http://www.w3.org/2000/svg">
<rect width="44" height="45" rx="22" fill="#FF9800" fill-opacity="0.2"/>
<path d="M22.0003 25.893C20.129 25.893 18.6074 24.3709 18.6074 22.5001C18.6074 20.6293 20.129 19.1073 22.0003 19.1073C23.8715 19.1073 25.3931 20.6293 25.3931 22.5001C25.3931 24.3709 23.8715 25.893 22.0003 25.893ZM22.0003 20.8037C21.0651 20.8037 20.3038 21.5646 20.3038 22.5001C20.3038 23.4357 21.0651 24.1965 22.0003 24.1965C22.9354 24.1965 23.6967 23.4357 23.6967 22.5001C23.6967 21.5646 22.9354 20.8037 22.0003 20.8037Z" fill="#FF9800"/>
<path d="M29.6341 30.9821C29.417 30.9821 29.2001 30.8993 29.0344 30.7336L26.4898 28.189C26.1585 27.8577 26.1585 27.3209 26.4898 26.9895L28.4346 25.0447L26.4897 23.0997C26.1584 22.7684 26.1584 22.2317 26.4897 21.9003L28.4346 19.9554L26.4897 18.0105C26.1584 17.6792 26.1584 17.1424 26.4897 16.811L29.0343 14.2664C29.3656 13.9351 29.9024 13.9351 30.2338 14.2664C30.5652 14.5977 30.5651 15.1345 30.2338 15.4659L28.2889 17.4108L30.2339 19.3558C30.5652 19.6871 30.5652 20.2238 30.2339 20.5552L28.2889 22.5001L30.2339 24.445C30.5652 24.7763 30.5652 25.3131 30.2339 25.6445L28.2889 27.5893L30.2339 29.5343C30.5652 29.8656 30.5652 30.4023 30.2339 30.7337C30.0681 30.8993 29.8511 30.9821 29.6341 30.9821Z" fill="#FF9800"/>
<path d="M33.0267 30.9821C32.8096 30.9821 32.5926 30.8993 32.427 30.7336L29.8824 28.189C29.551 27.8577 29.551 27.3209 29.8824 26.9895L31.8272 25.0447L29.8823 23.0997C29.551 22.7684 29.551 22.2317 29.8823 21.9003L31.8272 19.9554L29.8823 18.0105C29.551 17.6792 29.551 17.1424 29.8823 16.811L32.4269 14.2664C32.7582 13.9351 33.295 13.9351 33.6263 14.2664C33.9577 14.5977 33.9577 15.1345 33.6263 15.4659L31.6815 17.4108L33.6264 19.3558C33.9577 19.6871 33.9577 20.2238 33.6264 20.5552L31.6815 22.5001L33.6264 24.445C33.9577 24.7763 33.9577 25.3131 33.6264 25.6445L31.6815 27.5893L33.6264 29.5343C33.9577 29.8656 33.9577 30.4023 33.6264 30.7337C33.4607 30.8993 33.2437 30.9821 33.0267 30.9821Z" fill="#FF9800"/>
<path d="M14.3658 30.9822C14.1488 30.9822 13.9318 30.8993 13.7661 30.7337C13.4348 30.4023 13.4348 29.8656 13.7661 29.5342L15.711 27.5893L13.7661 25.6444C13.4348 25.3131 13.4348 24.7763 13.7661 24.445L15.711 22.5001L13.7661 20.5552C13.4348 20.2238 13.4348 19.6871 13.7661 19.3557L15.711 17.4108L13.7661 15.4659C13.4348 15.1346 13.4348 14.5979 13.7661 14.2665C14.0975 13.9351 14.6342 13.9351 14.9656 14.2665L17.5102 16.8111C17.8415 17.1424 17.8415 17.6791 17.5102 18.0105L15.5653 19.9555L17.5102 21.9004C17.8415 22.2317 17.8415 22.7685 17.5102 23.0999L15.5653 25.0447L17.5102 26.9897C17.8415 27.321 17.8415 27.8577 17.5102 28.1891L14.9656 30.7337C14.7999 30.8993 14.5829 30.9822 14.3658 30.9822Z" fill="#FF9800"/>
<path d="M10.9733 30.9822C10.7562 30.9822 10.5392 30.8993 10.3736 30.7337C10.0423 30.4023 10.0423 29.8656 10.3736 29.5342L12.3184 27.5893L10.3735 25.6444C10.0422 25.3131 10.0422 24.7763 10.3735 24.445L12.3184 22.5001L10.3735 20.5552C10.0422 20.2238 10.0422 19.6871 10.3735 19.3557L12.3184 17.4108L10.3736 15.4659C10.0423 15.1346 10.0423 14.5979 10.3736 14.2665C10.7049 13.9351 11.2416 13.9351 11.573 14.2665L14.1176 16.8111C14.449 17.1424 14.449 17.6791 14.1176 18.0105L12.1727 19.9555L14.1176 21.9004C14.449 22.2317 14.449 22.7685 14.1176 23.0999L12.1727 25.0447L14.1176 26.9897C14.449 27.321 14.449 27.8577 14.1176 28.1891L11.573 30.7337C11.4073 30.8993 11.1903 30.9822 10.9733 30.9822Z" fill="#FF9800"/>
</svg>
