<svg width="44" height="45" viewBox="0 0 44 45" fill="none" xmlns="http://www.w3.org/2000/svg">
<rect width="44" height="45" rx="22" fill="#FFA500" fill-opacity="0.23"/>
<path d="M21.5571 23.1527V22.7105C21.0098 21.7211 20.5466 20.8369 20.1887 20.0369C19.6624 20.7948 19.2413 21.8895 19.0098 23.1527H21.5571Z" fill="#FFA500"/>
<path d="M18.7783 25.7C18.7783 26.2684 18.8204 26.8368 18.8836 27.3842H21.5783V24.0157H18.8836C18.8204 24.5421 18.7783 25.1105 18.7783 25.7Z" fill="#FFA500"/>
<path d="M25.2209 25.7001C25.2209 25.1527 25.1788 24.6054 25.1156 24.1001C24.7788 24.5212 24.2946 24.7738 23.7472 24.7738C23.2209 24.7738 22.7577 24.5422 22.4209 24.1633V27.3843H25.1156C25.1788 26.8369 25.2209 26.2685 25.2209 25.7001Z" fill="#FFA500"/>
<path d="M22.4209 28.2263V32.5C23.5788 32.1632 24.5472 30.479 24.9683 28.2263H22.4209Z" fill="#FFA500"/>
<path d="M17.9152 25.7C17.9152 25.1105 17.9573 24.5631 18.0205 24.0157H15.3258C15.1994 24.5631 15.1152 25.1105 15.1152 25.7C15.1152 26.2894 15.1994 26.8368 15.3258 27.3842H17.9994C17.9573 26.8368 17.9152 26.2684 17.9152 25.7Z" fill="#FFA500"/>
<path d="M21.5782 32.5V28.2263H19.0098C19.4519 30.479 20.4203 32.1632 21.5782 32.5Z" fill="#FFA500"/>
<path d="M24.252 32.1842C26.1467 31.5316 27.6625 30.079 28.3993 28.2263H25.873C25.5783 29.8895 24.9888 31.2579 24.252 32.1842Z" fill="#FFA500"/>
<path d="M15.6201 28.2263C16.357 30.079 17.8727 31.5316 19.7464 32.1842C18.9885 31.2579 18.4201 29.8684 18.1254 28.2263H15.6201Z" fill="#FFA500"/>
<path d="M28.6727 24.0157H25.999C26.0622 24.5631 26.1043 25.1105 26.1043 25.7C26.1043 26.2894 26.0622 26.8368 25.999 27.3842H28.6727C28.799 26.8368 28.8832 26.2894 28.8832 25.7C28.8832 25.1105 28.799 24.5421 28.6727 24.0157Z" fill="#FFA500"/>
<path d="M25.8105 22.921C25.8316 23.0052 25.8527 23.0684 25.8527 23.1526H28.379C28.0421 22.2894 27.5158 21.5315 26.8842 20.8789C26.5895 21.5105 26.2316 22.1842 25.8105 22.921Z" fill="#FFA500"/>
<path d="M19.747 19.1948C17.8522 19.8475 16.3365 21.3001 15.5996 23.1527H18.1259C18.4207 21.5106 19.0101 20.1211 19.747 19.1948Z" fill="#FFA500"/>
<path d="M24.5261 23.4474C25.663 21.4895 27.6208 17.8895 27.6208 16.3737C27.6208 14.2474 25.8945 12.5 23.7472 12.5C21.5998 12.5 19.8945 14.2263 19.8945 16.3737C19.8945 17.8895 21.8524 21.4895 22.9893 23.4474C23.3261 24.0368 24.1893 24.0368 24.5261 23.4474ZM21.9998 16.3737C21.9998 15.4053 22.7787 14.6263 23.7472 14.6263C24.7156 14.6263 25.4945 15.4053 25.4945 16.3737C25.4945 17.3421 24.7156 18.1211 23.7472 18.1211C22.7787 18.1211 21.9998 17.3211 21.9998 16.3737Z" fill="#FFA500"/>
</svg>
