<svg width="23" height="24" viewBox="0 0 23 24" fill="none" xmlns="http://www.w3.org/2000/svg">
<path fill-rule="evenodd" clip-rule="evenodd" d="M17.2971 7.49854C16.8871 7.49854 16.5471 7.15854 16.5471 6.74854V5.52454C15.7731 5.49854 14.8641 5.49854 13.7971 5.49854H11.7971C10.7291 5.49854 9.82112 5.49854 9.04712 5.52454V6.74854C9.04712 7.15854 8.70712 7.49854 8.29712 7.49854C7.88712 7.49854 7.54712 7.15854 7.54712 6.74854V5.63253C6.60212 5.75553 5.95312 5.99253 5.49712 6.44853C4.89512 7.05054 4.67512 7.98853 4.59412 9.49853H21.0001C20.9191 7.98853 20.6981 7.05054 20.0971 6.44853C19.6411 5.99253 18.9921 5.75553 18.0471 5.63253V6.74854C18.0471 7.15854 17.7071 7.49854 17.2971 7.49854ZM21.0411 10.9985C21.0465 11.5272 21.0485 12.1105 21.0471 12.7485V13.7485C21.0471 14.1585 21.3871 14.4985 21.7971 14.4985C22.2071 14.4985 22.5471 14.1585 22.5471 13.7485V12.7485C22.5471 8.76854 22.5471 6.77853 21.1571 5.38854C20.3851 4.61653 19.4271 4.27354 18.0471 4.12054V3.24854C18.0471 2.83854 17.7071 2.49854 17.2971 2.49854C16.8871 2.49854 16.5471 2.83854 16.5471 3.24854V4.02354C15.7511 3.99854 14.8421 3.99854 13.7971 3.99854H11.7971C10.7511 3.99854 9.84312 3.99854 9.04712 4.02354V3.24854C9.04712 2.83854 8.70712 2.49854 8.29712 2.49854C7.88712 2.49854 7.54712 2.83854 7.54712 3.24854V4.12054C6.16712 4.27354 5.20912 4.61653 4.43712 5.38854C3.04712 6.77853 3.04712 8.77853 3.04712 12.7485V14.7485C3.04712 18.7285 3.04712 20.7185 4.43712 22.1085C5.82712 23.4985 7.81712 23.4985 11.7971 23.4985C12.2071 23.4985 12.5471 23.1585 12.5471 22.7485C12.5471 22.3385 12.2071 21.9985 11.7971 21.9985C8.23712 21.9985 6.44712 21.9985 5.49712 21.0485C4.54712 20.0985 4.54712 18.3085 4.54712 14.7485V12.7485C4.54645 12.1112 4.54812 11.5279 4.55212 10.9985H21.0411ZM17.7971 23.9985C15.1771 23.9985 13.0471 21.8685 13.0471 19.2485C13.0471 16.6285 15.1771 14.4985 17.7971 14.4985C20.4171 14.4985 22.5471 16.6285 22.5471 19.2485C22.5471 21.8685 20.4171 23.9985 17.7971 23.9985ZM17.7971 15.9985C16.0071 15.9985 14.5471 17.4585 14.5471 19.2485C14.5471 21.0385 16.0071 22.4985 17.7971 22.4985C19.5871 22.4985 21.0471 21.0385 21.0471 19.2485C21.0471 17.4585 19.5871 15.9985 17.7971 15.9985ZM18.2671 20.7785C18.4171 20.9285 18.6071 20.9985 18.7971 20.9985C18.9871 20.9985 19.1771 20.9285 19.3271 20.7785C19.6171 20.4885 19.6171 20.0085 19.3271 19.7185L18.5471 18.9385V17.2485C18.5471 16.8385 18.2071 16.4985 17.7971 16.4985C17.3871 16.4985 17.0471 16.8385 17.0471 17.2485V19.2485C17.0471 19.4485 17.1271 19.6385 17.2671 19.7785L18.2671 20.7785Z" fill="#0369A1"/>
</svg>
