<svg width="16" height="16" viewBox="0 0 16 16" fill="none" xmlns="http://www.w3.org/2000/svg">
<mask id="mask0_57445_11976" style="mask-type:alpha" maskUnits="userSpaceOnUse" x="0" y="0" width="16" height="16">
<rect width="16" height="16" fill="#D9D9D9"/>
</mask>
<g mask="url(#mask0_57445_11976)">
<path d="M4.83404 13C4.32493 13 3.89198 12.8218 3.53521 12.4653C3.17832 12.1088 2.99987 11.6759 2.99987 11.1667H2.03454C1.89287 11.1667 1.77409 11.1187 1.67821 11.0228C1.58243 10.9269 1.53454 10.8082 1.53454 10.6665C1.53454 10.5247 1.58243 10.406 1.67821 10.3103C1.77409 10.2146 1.89287 10.1667 2.03454 10.1667H3.34354C3.49821 9.91278 3.70654 9.71044 3.96854 9.55967C4.23043 9.40878 4.51865 9.33333 4.83321 9.33333C5.14776 9.33333 5.43604 9.40878 5.69804 9.55967C5.95993 9.71044 6.16826 9.91278 6.32304 10.1667H9.25371L10.6859 4H3.98704C3.84537 4 3.72665 3.95206 3.63087 3.85617C3.53498 3.76028 3.48704 3.6415 3.48704 3.49983C3.48704 3.35806 3.53498 3.23933 3.63087 3.14367C3.72665 3.04789 3.84537 3 3.98704 3H11.1794C11.3759 3 11.5345 3.07589 11.655 3.22767C11.7755 3.37933 11.8122 3.55006 11.7652 3.73983L11.3575 5.5H12.4229C12.6138 5.5 12.7945 5.54267 12.9652 5.628C13.136 5.71344 13.2766 5.83144 13.387 5.982L14.6114 7.6065C14.7208 7.74917 14.7911 7.9015 14.8222 8.0635C14.8534 8.22539 14.8545 8.39228 14.8255 8.56417L14.4012 10.6847C14.3721 10.8273 14.3017 10.9433 14.1899 11.0327C14.0781 11.122 13.9511 11.1667 13.8089 11.1667H13.2562C13.2562 11.6752 13.078 12.1079 12.7217 12.4647C12.3654 12.8216 11.9327 13 11.4237 13C10.9147 13 10.4818 12.8218 10.1249 12.4653C9.76809 12.1088 9.58971 11.6759 9.58971 11.1667H6.66654C6.66654 11.6752 6.48837 12.1079 6.13204 12.4647C5.77571 12.8216 5.34304 13 4.83404 13ZM10.6037 8.75H13.7627L13.855 8.27817L12.5255 6.5H11.128L10.6037 8.75ZM9.3512 9.77433L9.44871 9.33933C9.51359 9.04933 9.59604 8.69433 9.69604 8.27433C9.73793 8.1 9.77659 7.93889 9.81204 7.791C9.84748 7.64311 9.87632 7.51022 9.89854 7.39233L9.99604 6.95733C10.061 6.66733 10.1435 6.31233 10.2435 5.89233C10.3434 5.47233 10.4259 5.11733 10.4909 4.82733L10.5884 4.39233L10.6859 4L9.25371 10.1667L9.3512 9.77433ZM1.34604 8.77433C1.20615 8.77433 1.08893 8.72639 0.994372 8.6305C0.899817 8.53461 0.852539 8.41583 0.852539 8.27417C0.852539 8.13239 0.900428 8.01367 0.996206 7.918C1.09198 7.82222 1.21071 7.77433 1.35237 7.77433H3.67937C3.82104 7.77433 3.93976 7.82228 4.03554 7.91817C4.13143 8.01406 4.17937 8.13289 4.17937 8.27467C4.17937 8.41633 4.13143 8.53506 4.03554 8.63083C3.93976 8.7265 3.82104 8.77433 3.67937 8.77433H1.34604ZM2.67937 6.39233C2.53771 6.39233 2.41898 6.34439 2.32321 6.2485C2.22732 6.15261 2.17937 6.03383 2.17937 5.89217C2.17937 5.75039 2.22732 5.63161 2.32321 5.53583C2.41898 5.44017 2.53771 5.39233 2.67937 5.39233H5.67937C5.82104 5.39233 5.93976 5.44028 6.03554 5.53617C6.13143 5.63206 6.17937 5.75083 6.17937 5.8925C6.17937 6.03428 6.13143 6.153 6.03554 6.24867C5.93976 6.34444 5.82104 6.39233 5.67937 6.39233H2.67937ZM4.83321 12C5.06487 12 5.26165 11.919 5.42354 11.757C5.58554 11.5951 5.66654 11.3983 5.66654 11.1667C5.66654 10.935 5.58554 10.7382 5.42354 10.5763C5.26165 10.4143 5.06487 10.3333 4.83321 10.3333C4.60154 10.3333 4.40476 10.4143 4.24287 10.5763C4.08087 10.7382 3.99987 10.935 3.99987 11.1667C3.99987 11.3983 4.08087 11.5951 4.24287 11.757C4.40476 11.919 4.60154 12 4.83321 12ZM11.423 12C11.6546 12 11.8514 11.919 12.0134 11.757C12.1754 11.5951 12.2564 11.3983 12.2564 11.1667C12.2564 10.935 12.1754 10.7382 12.0134 10.5763C11.8514 10.4143 11.6546 10.3333 11.423 10.3333C11.1914 10.3333 10.9945 10.4143 10.8325 10.5763C10.6705 10.7382 10.5895 10.935 10.5895 11.1667C10.5895 11.3983 10.6705 11.5951 10.8325 11.757C10.9945 11.919 11.1914 12 11.423 12Z" fill="#2B2B2B"/>
</g>
</svg>
