<svg width="24" height="24" viewBox="0 0 24 24" fill="none" xmlns="http://www.w3.org/2000/svg">
<path d="M3.98593 15.0938C4.05296 15.1597 4.25448 15.358 4.55902 15.358H4.56784C4.87252 15.358 5.07409 15.1597 5.14093 15.0938L5.15274 15.0817C7.01227 13.1274 10.4736 9.48953 8.57462 5.87682L8.57265 5.87307C7.79982 4.43115 6.2664 3.51939 4.57112 3.49365H4.56329H4.55546C2.86004 3.51939 1.32676 4.43115 0.551962 5.87682C-1.3468 9.48981 2.11445 13.1274 3.97384 15.0817L3.98593 15.0938ZM1.46312 6.36034C2.05796 5.25048 3.2454 4.54773 4.56343 4.52504C5.88085 4.54773 7.06773 5.24973 7.66281 6.35865C9.06282 9.02584 6.83781 11.7969 4.56343 14.2043C2.28873 11.7963 0.0629617 9.02467 1.46312 6.36034Z" fill="black"/>
<path d="M7.09246 8.10536C7.09247 7.60514 6.94415 7.11615 6.66625 6.70023C6.38835 6.28431 5.99335 5.96014 5.53121 5.76871C5.06907 5.57727 4.56055 5.52718 4.06994 5.62476C3.57933 5.72235 3.12868 5.96322 2.77497 6.31692C2.42125 6.67063 2.18037 7.12128 2.08278 7.61189C1.98519 8.10249 2.03527 8.61102 2.2267 9.07316C2.41812 9.53531 2.74229 9.93031 3.1582 10.2082C3.57412 10.4861 4.0631 10.6345 4.56332 10.6345C5.23385 10.6337 5.8767 10.367 6.35084 9.89287C6.82498 9.41873 7.09169 8.77589 7.09246 8.10536ZM3.06557 8.10536C3.06556 7.80912 3.1534 7.51953 3.31798 7.27321C3.48255 7.02689 3.71648 6.83491 3.99016 6.72154C4.26385 6.60817 4.56501 6.5785 4.85556 6.63629C5.14611 6.69409 5.413 6.83674 5.62247 7.04621C5.83194 7.25569 5.9746 7.52257 6.03239 7.81312C6.09018 8.10367 6.06051 8.40483 5.94714 8.67852C5.83377 8.95221 5.64179 9.18613 5.39547 9.35071C5.14915 9.51528 4.85956 9.60312 4.56332 9.60311C4.16625 9.60264 3.78557 9.44469 3.50481 9.1639C3.22404 8.88312 3.06611 8.50243 3.06567 8.10536H3.06557Z" fill="black"/>
<path d="M18.859 15.0938C18.926 15.1597 19.1275 15.358 19.4321 15.358H19.4409C19.7456 15.358 19.9472 15.1597 20.014 15.0938L20.0258 15.0817C21.8853 13.1274 25.3466 9.48981 23.4477 5.87682L23.4457 5.87307C22.6729 4.43115 21.1395 3.51939 19.4442 3.49365H19.4364H19.4285C17.7331 3.51939 16.1998 4.43115 15.425 5.87682C13.5262 9.48976 16.9875 13.1274 18.8469 15.0817L18.859 15.0938ZM16.3362 6.36034C16.931 5.25048 18.1185 4.54773 19.4365 4.52504C20.7539 4.54773 21.9408 5.24973 22.5359 6.35865C23.9358 9.02584 21.7106 11.7969 19.4365 14.2043C17.1618 11.7963 14.936 9.02462 16.3362 6.36034Z" fill="black"/>
<path d="M21.9655 8.10536C21.9655 7.60514 21.8172 7.11615 21.5393 6.70023C21.2614 6.28431 20.8664 5.96013 20.4043 5.7687C19.9421 5.57727 19.4336 5.52718 18.943 5.62477C18.4524 5.72235 18.0017 5.96323 17.648 6.31694C17.2943 6.67065 17.0534 7.1213 16.9558 7.61191C16.8582 8.10252 16.9083 8.61105 17.0998 9.0732C17.2912 9.53534 17.6154 9.93034 18.0313 10.2082C18.4472 10.4861 18.9362 10.6345 19.4364 10.6345C20.1069 10.6337 20.7498 10.367 21.2239 9.89285C21.698 9.41872 21.9647 8.77588 21.9655 8.10536ZM17.9386 8.10536C17.9386 7.80912 18.0264 7.51953 18.191 7.27322C18.3556 7.0269 18.5895 6.83492 18.8632 6.72154C19.1369 6.60817 19.438 6.5785 19.7286 6.63629C20.0191 6.69408 20.286 6.83673 20.4955 7.04619C20.705 7.25566 20.8476 7.52255 20.9054 7.81309C20.9632 8.10364 20.9336 8.4048 20.8202 8.67848C20.7068 8.95217 20.5149 9.1861 20.2686 9.35068C20.0222 9.51526 19.7327 9.60311 19.4364 9.60311C19.0394 9.60259 18.6587 9.44461 18.378 9.16384C18.0973 8.88306 17.9394 8.5024 17.9389 8.10536H17.9386Z" fill="black"/>
<path d="M20.1162 17.0015C19.9015 16.9123 19.6714 16.8663 19.4389 16.866C19.2064 16.8658 18.9761 16.9114 18.7612 17.0001C18.5464 17.0889 18.3511 17.2191 18.1865 17.3833C18.022 17.5475 17.8914 17.7425 17.8022 17.9572C17.7798 18.0111 17.7602 18.0656 17.7434 18.1207H6.3613C6.34199 18.0534 6.31897 17.9872 6.29235 17.9225C6.12717 17.5225 5.82842 17.1922 5.447 16.9879C5.06559 16.7835 4.62512 16.7177 4.20063 16.8017C3.77615 16.8857 3.39392 17.1143 3.11908 17.4485C2.84424 17.7827 2.69379 18.2019 2.69336 18.6346C2.69294 19.0673 2.84256 19.4868 3.11675 19.8215C3.39093 20.1563 3.77271 20.3856 4.19703 20.4705C4.62135 20.5553 5.06195 20.4904 5.44376 20.2867C5.82558 20.0831 6.12497 19.7534 6.29094 19.3538C6.31812 19.288 6.3416 19.2207 6.36125 19.1522H17.7435C17.76 19.2061 17.7791 19.2595 17.8008 19.3124C17.912 19.5814 18.0878 19.8189 18.3127 20.0038C18.5376 20.1886 18.8046 20.3152 19.09 20.3722C19.3755 20.4293 19.6706 20.4151 19.9493 20.3308C20.2279 20.2466 20.4815 20.0949 20.6876 19.8893C20.8936 19.6836 21.0458 19.4303 21.1305 19.1518C21.2153 18.8733 21.2301 18.5782 21.1736 18.2927C21.1171 18.0071 20.9911 17.7398 20.8066 17.5146C20.6222 17.2894 20.385 17.1131 20.1162 17.0014V17.0015ZM5.33825 18.958C5.26379 19.1372 5.1295 19.285 4.95826 19.3763C4.78702 19.4676 4.58944 19.4967 4.39916 19.4586C4.20888 19.4206 4.03769 19.3177 3.91475 19.1676C3.7918 19.0174 3.72471 18.8293 3.72491 18.6353C3.72511 18.4412 3.79258 18.2533 3.91583 18.1034C4.03908 17.9535 4.21049 17.851 4.40084 17.8133C4.59119 17.7756 4.78872 17.8051 4.95977 17.8968C5.13082 17.9884 5.26481 18.1365 5.33891 18.3158C5.38128 18.4176 5.40304 18.5268 5.40292 18.637C5.40281 18.7472 5.38083 18.8563 5.33825 18.958ZM19.7192 19.3192C19.5841 19.375 19.4355 19.3895 19.2922 19.3609C19.1488 19.3322 19.0172 19.2617 18.914 19.1582C18.8108 19.0548 18.7405 18.923 18.7121 18.7797C18.6838 18.6363 18.6986 18.4877 18.7546 18.3527C18.8107 18.2178 18.9055 18.1024 19.0271 18.0214C19.1488 17.9403 19.2917 17.8971 19.4378 17.8972C19.584 17.8974 19.7268 17.9409 19.8483 18.0222C19.9697 18.1035 20.0643 18.219 20.1201 18.3541C20.1947 18.5353 20.1944 18.7387 20.1192 18.9196C20.0441 19.1005 19.9002 19.2443 19.7192 19.3192Z" fill="black"/>
</svg>
