<svg width="20" height="24" viewBox="0 0 20 24" fill="none" xmlns="http://www.w3.org/2000/svg">
<path d="M4 9H7C7.41455 9 7.75 8.66419 7.75 8.25V5.25C7.75 4.83581 7.41455 4.5 7 4.5H4C3.58545 4.5 3.25 4.83581 3.25 5.25V8.25C3.25 8.66419 3.58545 9 4 9ZM4.75 6H6.25V7.5H4.75V6Z" fill="#003CFF"/>
<path d="M10 9H13C13.4145 9 13.75 8.66419 13.75 8.25C13.75 7.83581 13.4145 7.5 13 7.5H10C9.58545 7.5 9.25 7.83581 9.25 8.25C9.25 8.66419 9.58545 9 10 9Z" fill="#003CFF"/>
<path d="M10 6H13C13.4145 6 13.75 5.66419 13.75 5.25C13.75 4.83581 13.4145 4.5 13 4.5H10C9.58545 4.5 9.25 4.83581 9.25 5.25C9.25 5.66419 9.58545 6 10 6Z" fill="#003CFF"/>
<path d="M4 12H13C13.4145 12 13.75 11.6642 13.75 11.25C13.75 10.8358 13.4145 10.5 13 10.5H4C3.58545 10.5 3.25 10.8358 3.25 11.25C3.25 11.6642 3.58545 12 4 12Z" fill="#003CFF"/>
<path d="M17.5 3H16.75V2.25C16.75 1.00927 15.7407 0 14.5 0H2.5C1.25927 0 0.25 1.00927 0.25 2.25V18.75C0.25 19.9907 1.25927 21 2.5 21H3.25V21.75C3.25 22.9907 4.25927 24 5.5 24H17.5C18.7407 24 19.75 22.9907 19.75 21.75V5.25C19.75 4.00927 18.7407 3 17.5 3ZM2.5 19.5C2.08618 19.5 1.75 19.1635 1.75 18.75V2.25C1.75 1.83655 2.08618 1.5 2.5 1.5H14.5C14.9138 1.5 15.25 1.83655 15.25 2.25V15H11.5C11.0855 15 10.75 15.3358 10.75 15.75V19.5H2.5ZM14.1895 16.5L12.25 18.4395V16.5H14.1895ZM18.25 21.75C18.25 22.1635 17.9138 22.5 17.5 22.5H5.5C5.08618 22.5 4.75 22.1635 4.75 21.75V21H11.5C11.6859 21 11.8994 20.9115 12.0309 20.7796C12.0309 20.7796 16.5298 16.2808 16.5327 16.277C16.6624 16.1458 16.75 15.9357 16.75 15.75V4.5H17.5C17.9138 4.5 18.25 4.83655 18.25 5.25V21.75Z" fill="#003CFF"/>
<path d="M7.75 13.5H4C3.58545 13.5 3.25 13.8358 3.25 14.25C3.25 14.6642 3.58545 15 4 15H7.75C8.16455 15 8.5 14.6642 8.5 14.25C8.5 13.8358 8.16455 13.5 7.75 13.5Z" fill="#003CFF"/>
</svg>
