<svg width="50" height="50" viewBox="0 0 50 50" fill="none" xmlns="http://www.w3.org/2000/svg">
<circle cx="25" cy="25" r="24.5" stroke="#003CFF"/>
<path fill-rule="evenodd" clip-rule="evenodd" d="M40.3206 29.3294L37.1624 24.9883C36.8482 24.5566 36.3812 24.3188 35.8472 24.3188H31.3269C31.0853 24.3188 30.8894 24.5146 30.8894 24.7563V32.123H29.3595V24.2779H30.4802C30.8297 24.2779 31.1325 24.0291 31.2 23.6862L31.324 23.0573L32.3844 22.618L32.9167 22.975C33.207 23.1697 33.597 23.1318 33.8442 22.8845L34.9693 21.7593C35.2164 21.5122 35.2544 21.1223 35.0599 20.832L34.7028 20.2996L35.1421 19.2392L35.7709 19.1152C36.1138 19.0476 36.3627 18.7449 36.3627 18.3954V16.8042C36.3627 16.4548 36.1139 16.152 35.771 16.0844L35.1421 15.9604L34.7028 14.9L35.0599 14.3675C35.2545 14.0773 35.2164 13.6873 34.9693 13.4403L33.8442 12.3151C33.597 12.068 33.2071 12.0299 32.9168 12.2246L32.3844 12.5816L31.3239 12.1422L31.1999 11.5134C31.1324 11.1706 30.8297 10.9216 30.4802 10.9216H28.889C28.5395 10.9216 28.2368 11.1705 28.1693 11.5133L28.0452 12.1422L26.9848 12.5816L26.4524 12.2245C26.1621 12.0299 25.7721 12.0679 25.5251 12.3151L24.4 13.4401C24.1528 13.6872 24.1147 14.0773 24.3094 14.3675L24.6664 14.8999L24.2271 15.9603L23.5982 16.0843C23.2553 16.1519 23.0065 16.4546 23.0065 16.8041V18.3953C23.0065 18.7448 23.2554 19.0475 23.5983 19.1151L24.2271 19.2391L24.3939 19.6416H16.4409C16.1993 19.6416 16.0034 19.8375 16.0034 20.0791V32.1228H14.4721C14.2304 32.1228 14.0346 32.3187 14.0346 32.5603V36.2281C14.0346 36.4698 14.2304 36.6656 14.4721 36.6656H17.3397C17.3394 36.6804 17.3386 36.695 17.3386 36.7099C17.3386 38.0158 18.401 39.0783 19.7069 39.0783C21.0129 39.0783 22.0753 38.0158 22.0753 36.7099C22.0753 36.6951 22.0744 36.6804 22.0742 36.6656H33.0826C33.0824 36.6804 33.0815 36.695 33.0815 36.7099C33.0815 38.0158 34.1439 39.0783 35.4499 39.0783C36.7558 39.0783 37.8183 38.0158 37.8183 36.7099C37.8183 36.6951 37.8174 36.6804 37.8171 36.6656H40.3125C40.5541 36.6656 40.75 36.4698 40.75 36.2281V30.6495C40.75 30.1583 40.6095 29.7264 40.3206 29.3292V29.3294ZM27.8237 19.6418C27.2487 19.1181 26.9219 18.3822 26.9219 17.5999C26.9219 16.0764 28.1613 14.837 29.6847 14.837C31.2082 14.837 32.4476 16.0764 32.4476 17.5999C32.4476 19.1233 31.2082 20.3628 29.6847 20.3628C29.5758 20.3628 29.4672 20.3562 29.3596 20.3436V20.0794C29.3596 19.8378 29.1637 19.6419 28.9221 19.6419H27.8237L27.8237 19.6418ZM24.9458 18.6879C24.8898 18.5526 24.7699 18.4544 24.6263 18.4261L23.8816 18.2793V16.9205L24.6263 16.7737C24.7698 16.7454 24.8897 16.6471 24.9458 16.5119L25.5645 15.0185C25.6205 14.8833 25.6052 14.7289 25.5237 14.6074L25.1009 13.9769L26.0617 13.0161L26.6921 13.4389C26.8137 13.5204 26.968 13.5357 27.1033 13.4797L28.5966 12.861C28.7319 12.805 28.8301 12.6851 28.8584 12.5415L29.0053 11.7968H30.3641L30.5109 12.5414C30.5392 12.6851 30.6374 12.8049 30.7726 12.861L32.266 13.4797C32.4012 13.5356 32.5555 13.5204 32.6771 13.4389L33.3076 13.0161L34.2684 13.9769L33.8456 14.6073C33.764 14.7289 33.7487 14.8832 33.8048 15.0184L34.4234 16.5119C34.4794 16.6471 34.5994 16.7453 34.743 16.7736L35.4877 16.9204V18.2793L34.743 18.4261C34.5994 18.4544 34.4795 18.5526 34.4234 18.6878L33.8048 20.1812C33.7488 20.3164 33.7641 20.4708 33.8456 20.5923L34.2684 21.2228L33.3076 22.1836L32.6771 21.7608C32.5555 21.6793 32.4012 21.664 32.2659 21.72L30.7726 22.3387C30.6373 22.3947 30.5391 22.5146 30.5108 22.6583L30.364 23.403H29.3595V21.2217C29.4675 21.2313 29.5759 21.2378 29.6846 21.2378C31.6906 21.2378 33.3225 19.6058 33.3225 17.5999C33.3225 15.5939 31.6906 13.962 29.6846 13.962C27.6787 13.962 26.0467 15.5939 26.0467 17.5999C26.0467 18.3391 26.2691 19.0463 26.6739 19.6418H25.341L24.9458 18.6879ZM21.3265 20.5168H24.0364V23.6748H21.3265V20.5168ZM16.8784 20.5168H20.4515V24.1123C20.4515 24.3539 20.6474 24.5498 20.889 24.5498H24.4739C24.7156 24.5498 24.9114 24.3539 24.9114 24.1123V20.5168H28.4845V32.123H16.8784L16.8784 20.5168ZM19.7069 38.2034C18.8835 38.2034 18.2136 37.5335 18.2136 36.71C18.2136 35.8865 18.8835 35.2166 19.7069 35.2166C20.5304 35.2166 21.2003 35.8865 21.2003 36.71C21.2003 37.5335 20.5304 38.2034 19.7069 38.2034ZM19.7069 34.3417C18.7268 34.3417 17.8839 34.9401 17.5243 35.7908H14.9096V32.998H30.8894V35.7908H21.8896C21.5299 34.9401 20.687 34.3417 19.7069 34.3417H19.7069ZM35.4499 38.2034C34.6264 38.2034 33.9565 37.5335 33.9565 36.71C33.9565 35.8865 34.6264 35.2166 35.4499 35.2166C36.2733 35.2166 36.9433 35.8865 36.9433 36.71C36.9433 37.5335 36.2733 38.2034 35.4499 38.2034ZM39.875 35.7908H37.6325C37.2729 34.9401 36.43 34.3416 35.4499 34.3416C34.4697 34.3416 33.6269 34.9401 33.2673 35.7908H31.7644V25.1937H35.8473C36.1011 25.1937 36.3056 25.2978 36.4549 25.503L39.6131 29.8441C39.7942 30.0931 39.875 30.3415 39.875 30.6496V35.7907V35.7908ZM36.1103 25.866C36.0279 25.7528 35.8964 25.6859 35.7565 25.6859H32.6941C32.4525 25.6859 32.2566 25.8818 32.2566 26.1234V30.391C32.2566 30.6326 32.4525 30.8285 32.6941 30.8285H38.8612C39.0258 30.8285 39.1764 30.7361 39.2511 30.5895C39.3258 30.4429 39.3119 30.2667 39.2151 30.1336L36.1103 25.866H36.1103ZM33.1316 29.9535V26.5609H35.5338L38.0019 29.9535H33.1316ZM9.49538 22.2083C9.49538 21.9667 9.69125 21.7708 9.93287 21.7708H14.1171C14.3588 21.7708 14.5546 21.9667 14.5546 22.2083C14.5546 22.4499 14.3588 22.6458 14.1171 22.6458H9.93287C9.69125 22.6458 9.49538 22.4499 9.49538 22.2083ZM14.3362 24.7014C14.5778 24.7014 14.7737 24.8973 14.7737 25.1389C14.7737 25.3805 14.5778 25.5764 14.3362 25.5764H11.3724C11.1308 25.5764 10.9349 25.3805 10.9349 25.1389C10.9349 24.8973 11.1308 24.7014 11.3724 24.7014H14.3362ZM12.0138 28.2215H9.6875C9.44588 28.2215 9.25 28.0256 9.25 27.784C9.25 27.5424 9.44588 27.3465 9.6875 27.3465H12.0138C12.2554 27.3465 12.4513 27.5424 12.4513 27.784C12.4513 28.0256 12.2554 28.2215 12.0138 28.2215ZM14.6684 30.7524H12.2671C12.0254 30.7524 11.8296 30.5566 11.8296 30.3149C11.8296 30.0733 12.0254 29.8774 12.2671 29.8774H14.6684C14.91 29.8774 15.1059 30.0733 15.1059 30.3149C15.1059 30.5566 14.9101 30.7524 14.6684 30.7524ZM34.291 31.9144C34.291 32.156 34.0951 32.3519 33.8535 32.3519H32.9931C32.7514 32.3519 32.5556 32.156 32.5556 31.9144C32.5556 31.6728 32.7514 31.4769 32.9931 31.4769H33.8535C34.0951 31.4769 34.291 31.6728 34.291 31.9144ZM27.4171 28.6544V29.5294H24.5729V28.6544H27.4171ZM24.5729 30.1616H27.4171V31.0366H24.5729V30.1616ZM36.0399 36.7101C36.0399 37.035 35.7749 37.3 35.45 37.3C35.1251 37.3 34.8601 37.035 34.8601 36.7101C34.8601 36.3851 35.1251 36.1201 35.45 36.1201C35.7749 36.1201 36.0399 36.3851 36.0399 36.7101ZM20.2969 36.7101C20.2969 37.035 20.0319 37.3 19.7071 37.3C19.3822 37.3 19.1171 37.035 19.1171 36.7101C19.1171 36.3851 19.3821 36.1201 19.7071 36.1201C20.032 36.1201 20.2969 36.3851 20.2969 36.7101Z" fill="#003CFF"/>
</svg>
