<svg width="50" height="50" viewBox="0 0 50 50" fill="none" xmlns="http://www.w3.org/2000/svg">
<circle cx="25" cy="25" r="24.5" stroke="#003CFF"/>
<g clip-path="url(#clip0_61672_119108)">
<path d="M34.5442 32.6834L34.4522 32.6661C33.2477 32.4431 32.2582 31.5824 31.871 30.4202C31.5941 29.5899 31.074 28.8783 30.3658 28.3626L28.3683 26.9082C27.8978 26.5658 27.7804 25.9172 28.1009 25.4316C28.4247 24.9398 29.0935 24.7968 29.5898 25.1126L33.6369 27.6818L34.0725 26.9959L30.0255 24.4266C29.1562 23.875 27.9894 24.1249 27.4225 24.9841C26.8623 25.8329 27.0678 26.9665 27.8899 27.5652L29.8874 29.0194C30.4579 29.435 30.8772 30.008 31.1002 30.6771C31.581 32.12 32.8089 33.1884 34.3042 33.4649L34.3958 33.4822C34.7818 33.5536 35.1492 33.6907 35.4876 33.889L36.5814 34.5311L36.9924 33.8305L35.8986 33.1882C35.4785 32.9418 35.023 32.772 34.5442 32.6834Z" fill="#003CFF"/>
<path d="M18.5625 14.8438C18.5625 14.1717 19.1092 13.625 19.7812 13.625H20.2236V14.7553C20.2236 15.8752 21.1349 16.7865 22.2549 16.7865H28.0911C29.2111 16.7865 30.1224 15.8752 30.1224 14.7553V13.625H30.5651C31.2372 13.625 31.7839 14.1717 31.7839 14.8438V24.3571H32.5964V19.7643C35.6854 21.0075 36.3641 23.6026 36.3927 23.7186L37.1826 23.5273C37.1497 23.3906 36.3428 20.2476 32.5964 18.8991V14.8438C32.5964 13.7238 31.6851 12.8125 30.5651 12.8125H19.7812C18.6613 12.8125 17.75 13.7238 17.75 14.8438V27.8941H18.5625V14.8438ZM29.3099 13.625V14.7553C29.3099 15.4273 28.7632 15.974 28.0911 15.974H22.2549C21.5828 15.974 21.0361 15.4273 21.0361 14.7553V13.625H29.3099Z" fill="#003CFF"/>
<path d="M31.7842 35.1562C31.7842 35.8283 31.2375 36.375 30.5654 36.375H20.7539V37.1875H30.5654C31.6854 37.1875 32.5967 36.2762 32.5967 35.1562V33.9226H31.7842V35.1562Z" fill="#003CFF"/>
<path d="M27.2539 14.3933H28.5433V15.2058H27.2539V14.3933Z" fill="#003CFF"/>
<path d="M21.8027 14.3933H26.434V15.2058H21.8027V14.3933Z" fill="#003CFF"/>
<path d="M28.878 23.1089L29.6017 22.7388C28.7463 21.067 27.0495 20.0283 25.173 20.0283C22.4316 20.0283 20.2012 22.2585 20.2012 24.9999C20.2012 27.7413 22.4316 29.9715 25.173 29.9715C26.1132 29.9715 27.0289 29.7077 27.8203 29.2084L27.3871 28.5213C26.7254 28.9384 25.9597 29.159 25.173 29.159C22.8795 29.159 21.0137 27.2932 21.0137 24.9999C21.0137 22.7066 22.8795 20.8408 25.173 20.8408C26.7428 20.8408 28.1627 21.7099 28.878 23.1089Z" fill="#003CFF"/>
<path d="M23.4277 34.2703H26.919V35.0828H23.4277V34.2703Z" fill="#003CFF"/>
<path d="M25.1731 23.1497C25.5797 23.1497 25.9106 23.4805 25.9106 23.8872H26.7231C26.7231 23.1739 26.2362 22.5779 25.5793 22.398V21.75H24.7668V22.398C24.1099 22.5779 23.623 23.1739 23.623 23.8872C23.623 24.7417 24.3185 25.437 25.1731 25.437C25.5797 25.437 25.9106 25.7679 25.9106 26.1745C25.9106 26.5812 25.5797 26.912 25.1731 26.912C24.7664 26.912 24.4355 26.5812 24.4355 26.1745H23.623C23.623 26.8878 24.1099 27.4838 24.7668 27.6637V28.25H25.5793V27.6637C26.2362 27.4838 26.7231 26.8878 26.7231 26.1745C26.7231 25.3198 26.0276 24.6245 25.1731 24.6245C24.7664 24.6245 24.4355 24.2938 24.4355 23.8872C24.4355 23.4805 24.7664 23.1497 25.1731 23.1497Z" fill="#003CFF"/>
<path d="M16.9277 28.969C14.662 28.969 12.8184 30.8124 12.8184 33.0781C12.8184 35.344 14.662 37.1874 16.9277 37.1874C19.1934 37.1874 21.037 35.344 21.037 33.0781C21.037 30.8124 19.1934 28.969 16.9277 28.969ZM16.9277 36.3749C15.1099 36.3749 13.6309 34.8959 13.6309 33.0781C13.6309 31.2603 15.1099 29.7815 16.9277 29.7815C18.7455 29.7815 20.2245 31.2603 20.2245 33.0781C20.2245 34.8959 18.7455 36.3749 16.9277 36.3749Z" fill="#003CFF"/>
<path d="M16.3301 33.6938L15.4299 32.7936L14.8555 33.3681L16.0429 34.5555C16.1222 34.6349 16.2262 34.6745 16.3301 34.6745C16.4341 34.6745 16.538 34.6349 16.6173 34.5555L18.9973 32.1755L18.4228 31.6011L16.3301 33.6938Z" fill="#003CFF"/>
</g>
<defs>
<clipPath id="clip0_61672_119108">
<rect width="26" height="26" fill="white" transform="translate(12 12)"/>
</clipPath>
</defs>
</svg>
