<svg width="24" height="24" viewBox="0 0 24 24" fill="none" xmlns="http://www.w3.org/2000/svg">
<path d="M21.1034 9.55945V9.51724C21.1034 6.99311 20.1007 4.57236 18.3159 2.78754C16.5311 1.00271 14.1103 0 11.5862 0C9.06208 0 6.64133 1.00271 4.8565 2.78754C3.07167 4.57236 2.06897 6.99311 2.06897 9.51724V9.76552C1.45874 10.0124 0.935957 10.4355 0.567423 10.981C0.198888 11.5264 0.00133341 12.1693 0 12.8276V15.3103C0 16.1883 0.348768 17.0303 0.969578 17.6511C1.59039 18.2719 2.43239 18.6207 3.31034 18.6207H4.96552C5.18501 18.6207 5.39551 18.5335 5.55071 18.3783C5.70591 18.2231 5.7931 18.0126 5.7931 17.7931V10.3448C5.7931 10.1253 5.70591 9.91484 5.55071 9.75964C5.39551 9.60443 5.18501 9.51724 4.96552 9.51724H4.55172C4.55172 7.65158 5.29285 5.86233 6.61208 4.54311C7.9313 3.22389 9.72055 2.48276 11.5862 2.48276C13.4519 2.48276 15.2411 3.22389 16.5603 4.54311C17.8796 5.86233 18.6207 7.65158 18.6207 9.51724H18.2069C17.9874 9.51724 17.7769 9.60443 17.6217 9.75964C17.4665 9.91484 17.3793 10.1253 17.3793 10.3448V17.7931C17.3793 18.0126 17.4665 18.2231 17.6217 18.3783C17.7769 18.5335 17.9874 18.6207 18.2069 18.6207H18.5206C18.3333 19.4423 17.8729 20.1761 17.2147 20.7022C16.5564 21.2283 15.7392 21.5157 14.8966 21.5172H12.4138C12.0846 21.5172 11.7688 21.648 11.536 21.8808C11.3032 22.1136 11.1724 22.4294 11.1724 22.7586C11.1724 23.0879 11.3032 23.4036 11.536 23.6364C11.7688 23.8692 12.0846 24 12.4138 24H14.8966C16.4044 23.9976 17.8599 23.4468 18.9916 22.4503C20.1233 21.4538 20.8539 20.0797 21.0472 18.5843C21.6361 18.4996 22.1749 18.2059 22.5651 17.7567C22.9554 17.3075 23.1709 16.7329 23.1724 16.1379V12C23.1706 11.4146 22.9621 10.8486 22.5835 10.402C22.2049 9.95544 21.6807 9.65702 21.1034 9.55945Z" fill="#003CFF"/>
</svg>
