<svg width="23" height="24" viewBox="0 0 23 24" fill="none" xmlns="http://www.w3.org/2000/svg">
<path d="M20.9464 9.55945V9.51724C20.9464 6.99311 19.9512 4.57236 18.1796 2.78754C16.4081 1.00271 14.0053 0 11.5 0C8.99465 0 6.59192 1.00271 4.82037 2.78754C3.04882 4.57236 2.05357 6.99311 2.05357 9.51724V9.76552C1.44788 10.0124 0.928993 10.4355 0.563201 10.981C0.197408 11.5264 0.00132349 12.1693 0 12.8276V15.3103C0 16.1883 0.346173 17.0303 0.962363 17.6511C1.57855 18.2719 2.41429 18.6207 3.28571 18.6207H4.92857C5.14643 18.6207 5.35536 18.5335 5.50941 18.3783C5.66346 18.2231 5.75 18.0126 5.75 17.7931V10.3448C5.75 10.1253 5.66346 9.91484 5.50941 9.75964C5.35536 9.60443 5.14643 9.51724 4.92857 9.51724H4.51786C4.51786 7.65158 5.25347 5.86233 6.56288 4.54311C7.87229 3.22389 9.64822 2.48276 11.5 2.48276C13.3518 2.48276 15.1277 3.22389 16.4371 4.54311C17.7465 5.86233 18.4821 7.65158 18.4821 9.51724H18.0714C17.8536 9.51724 17.6446 9.60443 17.4906 9.75964C17.3365 9.91484 17.25 10.1253 17.25 10.3448V17.7931C17.25 18.0126 17.3365 18.2231 17.4906 18.3783C17.6446 18.5335 17.8536 18.6207 18.0714 18.6207H18.3827C18.1969 19.4423 17.74 20.1761 17.0866 20.7022C16.4332 21.2283 15.6221 21.5157 14.7857 21.5172H12.3214C11.9946 21.5172 11.6812 21.648 11.4502 21.8808C11.2191 22.1136 11.0893 22.4294 11.0893 22.7586C11.0893 23.0879 11.2191 23.4036 11.4502 23.6364C11.6812 23.8692 11.9946 24 12.3214 24H14.7857C16.2824 23.9976 17.727 23.4468 18.8503 22.4503C19.9736 21.4538 20.6988 20.0797 20.8906 18.5843C21.4751 18.4996 22.0099 18.2059 22.3973 17.7567C22.7846 17.3075 22.9985 16.7329 23 16.1379V12C22.9982 11.4146 22.7912 10.8486 22.4155 10.402C22.0397 9.95544 21.5194 9.65702 20.9464 9.55945Z" fill="#003CFF"/>
</svg>
