<svg width="50" height="50" viewBox="0 0 50 50" fill="none" xmlns="http://www.w3.org/2000/svg">
<circle cx="25" cy="25" r="24.5" stroke="#003CFF"/>
<g clip-path="url(#clip0_61672_119127)">
<path d="M31.1296 27.4314C30.9316 26.842 30.5253 26.3542 29.982 26.0494C29.4386 25.7496 28.8089 25.6632 28.2046 25.8106C27.6359 25.9477 27.1534 26.2831 26.8183 26.7201C26.8132 26.7252 26.8081 26.7302 26.798 26.7404C26.7777 26.7658 26.7624 26.7912 26.7472 26.8166C26.3968 27.3247 26.2343 27.9649 26.3409 28.6102L27.3058 34.5958C27.3718 35.0124 27.6257 35.363 27.9964 35.5612C28.1945 35.6679 28.4077 35.7187 28.6261 35.7187C28.814 35.7187 29.0019 35.6781 29.1796 35.5968L31.0738 34.7279C31.0788 34.7279 31.0839 34.7228 31.0839 34.7228L32.1402 34.2401C32.7597 33.9556 33.0695 33.2544 32.8511 32.604L31.1296 27.4314ZM28.8749 34.921C28.7023 34.9972 28.5144 34.9921 28.3468 34.9057C28.1843 34.8194 28.0726 34.6618 28.0421 34.4738L27.0773 28.4883C27.0265 28.1631 27.0671 27.843 27.1839 27.5585L27.5089 27.8379C28.1538 28.3918 28.6464 29.1133 28.9308 29.9161L30.4593 34.1944L28.8749 34.921ZM31.8355 33.5643L31.1347 33.8844L29.6265 29.6671C29.2964 28.7424 28.7327 27.9192 27.9863 27.279L27.6003 26.9487C27.8136 26.7506 28.0726 26.6032 28.3722 26.5321C28.5042 26.5016 28.6413 26.4863 28.7734 26.4863C29.5046 26.4863 30.1851 26.9538 30.4238 27.6702L32.1503 32.8428C32.2519 33.1273 32.1148 33.4424 31.8355 33.5643Z" fill="#003CFF"/>
<path d="M37.8778 33.549L33.9067 23.8187C34.572 22.9702 34.4653 21.7355 33.6528 21.0139L30.0981 17.8637C29.2196 17.0812 27.8942 17.1371 27.0817 17.9958C26.8278 18.2651 26.4114 18.2854 26.127 18.0517L25.3247 17.3759C25.3247 17.3759 25.3247 17.3759 25.3196 17.3759L21.5618 14.312C21.5263 14.2815 21.4805 14.2561 21.4348 14.2459L14.1122 12.056C13.7516 11.9493 13.3708 11.995 13.0407 12.1779C12.7106 12.3659 12.477 12.6708 12.3805 13.0366L12.0454 14.317C11.8575 15.0436 12.2688 15.7804 12.9848 15.9938L19.754 18.0263L22.552 20.3483L25.5075 35.6678C25.6751 36.5367 26.2184 37.2633 27.0005 37.6749C27.4169 37.8934 27.8739 38.0001 28.3259 38.0001C28.722 38.0001 29.1231 37.9188 29.4989 37.7511L33.3938 36.0134C33.795 36.5164 34.4805 36.6993 35.0899 36.4503L36.9841 35.678C37.3903 35.5154 37.7052 35.2004 37.8727 34.799C38.0403 34.3976 38.0403 33.9555 37.8778 33.549ZM20.0384 17.3352L13.1981 15.2825C12.863 15.1808 12.67 14.8404 12.7614 14.505L13.0966 13.2195C13.1423 13.0519 13.2489 12.9096 13.4013 12.8232C13.4977 12.7673 13.6044 12.7419 13.7161 12.7419C13.777 12.7419 13.838 12.7521 13.8989 12.7673L21.1505 14.9217L24.5528 17.696L22.8466 19.6268L20.1653 17.4013C20.1298 17.3708 20.0891 17.3505 20.0384 17.3352ZM37.1872 34.5144C37.0958 34.7329 36.9231 34.9057 36.6997 34.9971L34.8055 35.7695C34.4755 35.9067 34.0997 35.7796 33.9118 35.4798C33.7747 35.2563 33.4852 35.1648 33.2415 35.2715L29.1942 37.0753C28.595 37.3395 27.9196 37.3192 27.3407 37.0194C26.7618 36.7145 26.3555 36.176 26.2337 35.5307L23.2884 20.2569L25.1266 18.1736L25.6497 18.6157C26.2286 19.1085 27.097 19.0577 27.62 18.5039C28.1532 17.9399 29.0266 17.8992 29.6106 18.4175L33.1653 21.5678C33.7036 22.0454 33.7544 22.8787 33.2821 23.4173C33.1399 23.5799 33.1044 23.7984 33.1856 23.9965L37.1973 33.8285C37.2837 34.052 37.2837 34.2959 37.1872 34.5144Z" fill="#003CFF"/>
<path d="M17.398 19.1948C17.2863 19.1948 17.1797 19.2456 17.1086 19.332C16.9004 19.5962 12 25.724 12 28.5999C12 31.5775 14.4223 34.0012 17.398 34.0012C20.3738 34.0012 22.7961 31.5775 22.7961 28.5999C22.7961 25.724 17.8957 19.5912 17.6875 19.332C17.6164 19.2456 17.5098 19.1948 17.398 19.1948ZM22.0547 28.5999C22.0547 31.171 19.9676 33.2593 17.398 33.2593C14.8285 33.2593 12.7414 31.171 12.7414 28.5999C12.7414 27.538 13.5895 25.6885 15.1891 23.2495C16.0676 21.9132 16.9563 20.7395 17.398 20.1653C17.8398 20.7344 18.7234 21.9081 19.602 23.2445C21.2066 25.6885 22.0547 27.538 22.0547 28.5999Z" fill="#003CFF"/>
<path d="M15.0259 31.049C15.097 31.1202 15.1935 31.1557 15.29 31.1557C15.3865 31.1557 15.4779 31.1202 15.5541 31.049L19.7689 26.8317C19.9111 26.6894 19.9111 26.4506 19.7689 26.3084C19.6267 26.1661 19.388 26.1661 19.2459 26.3084L15.031 30.5257C14.8837 30.673 14.8837 30.9068 15.0259 31.049Z" fill="#003CFF"/>
<path d="M15.9454 28.2952C16.5344 28.2952 17.0118 27.8176 17.0118 27.2282C17.0118 26.6388 16.5344 26.1611 15.9454 26.1611C15.3563 26.1611 14.8789 26.6388 14.8789 27.2282C14.8739 27.8125 15.3563 28.2952 15.9454 28.2952ZM15.9454 26.8979C16.1282 26.8979 16.2754 27.0452 16.2754 27.2282C16.2754 27.4111 16.1282 27.5584 15.9454 27.5584C15.7625 27.5584 15.6153 27.4111 15.6153 27.2282C15.6153 27.0452 15.7625 26.8979 15.9454 26.8979Z" fill="#003CFF"/>
<path d="M18.8496 29.0625C18.2605 29.0625 17.7832 29.5401 17.7832 30.1295C17.7832 30.7189 18.2605 31.1966 18.8496 31.1966C19.4387 31.1966 19.916 30.7189 19.916 30.1295C19.9211 29.5401 19.4387 29.0625 18.8496 29.0625ZM18.8496 30.4598C18.6668 30.4598 18.5195 30.3125 18.5195 30.1295C18.5195 29.9466 18.6668 29.7993 18.8496 29.7993C19.0324 29.7993 19.1797 29.9466 19.1797 30.1295C19.1797 30.3125 19.0324 30.4598 18.8496 30.4598Z" fill="#003CFF"/>
</g>
<defs>
<clipPath id="clip0_61672_119127">
<rect width="26" height="26" fill="white" transform="translate(12 12)"/>
</clipPath>
</defs>
</svg>
