<svg width="32" height="32" viewBox="0 0 32 32" fill="none" xmlns="http://www.w3.org/2000/svg">
<path d="M0.450004 0.000758635C0.194504 0.0265522 -0.000996171 0.244533 3.82878e-06 0.504492V13.1798C0.00100383 13.4595 0.225504 13.685 0.502004 13.684H13.0295C13.305 13.685 13.5305 13.4595 13.5315 13.1798V0.504492C13.5305 0.225315 13.305 -0.000252878 13.0295 0.000758635H0.502004C0.484504 -0.000252878 0.467004 -0.000252878 0.450004 0.000758635ZM18.92 0.000758635C18.665 0.0285753 18.4725 0.245545 18.4725 0.504492V13.1798C18.4735 13.4579 18.696 13.683 18.9715 13.684H31.502C31.7765 13.683 31.999 13.4579 32 13.1798V0.504492C31.999 0.226326 31.7765 0.00177015 31.502 0.000758635H18.9715C18.954 -0.000252878 18.9365 -0.000252878 18.92 0.000758635ZM0.450004 18.3167C0.194004 18.343 -0.000996171 18.5605 3.82878e-06 18.821V31.4963C0.00100383 31.7759 0.225504 32.0015 0.502004 32H13.0295C13.305 32.0015 13.5305 31.7759 13.5315 31.4963V18.821C13.5305 18.5413 13.305 18.3157 13.0295 18.3167H0.502004C0.484504 18.3162 0.467004 18.3162 0.450004 18.3167ZM18.92 18.3167C18.665 18.3451 18.4725 18.562 18.4725 18.821V31.4963C18.4735 31.7744 18.696 31.999 18.9715 32H31.502C31.7765 31.999 31.999 31.7744 32 31.4963V18.821C31.999 18.5428 31.7765 18.3178 31.502 18.3167H18.9715C18.954 18.3162 18.9365 18.3162 18.92 18.3167Z" fill="#003CFF"/>
</svg>
