<svg width="24" height="32" viewBox="0 0 24 32" fill="none" xmlns="http://www.w3.org/2000/svg">
<path d="M11.2926 17.0442V16.3369C10.4168 14.7537 9.67578 13.339 9.10314 12.059C8.26102 13.2716 7.58733 15.0232 7.2168 17.0442H11.2926Z" fill="#003CFF"/>
<path d="M6.84668 21.1199C6.84668 22.0294 6.91405 22.9389 7.0151 23.8146H11.3267V18.4252H7.0151C6.91405 19.2673 6.84668 20.1767 6.84668 21.1199Z" fill="#003CFF"/>
<path d="M17.1544 21.1201C17.1544 20.2443 17.087 19.3685 16.986 18.5601C16.447 19.2337 15.6722 19.638 14.7964 19.638C13.9543 19.638 13.2133 19.2674 12.6743 18.6611V23.8148H16.986C17.087 22.939 17.1544 22.0295 17.1544 21.1201Z" fill="#003CFF"/>
<path d="M12.6743 25.1621V32C14.527 31.4611 16.0765 28.7663 16.7502 25.1621H12.6743Z" fill="#003CFF"/>
<path d="M5.46541 21.1199C5.46541 20.1767 5.53278 19.301 5.63383 18.4252H1.3222C1.12009 19.301 0.985352 20.1767 0.985352 21.1199C0.985352 22.0631 1.12009 22.9389 1.3222 23.8146H5.60015C5.53278 22.9389 5.46541 22.0294 5.46541 21.1199Z" fill="#003CFF"/>
<path d="M11.3263 32V25.1621H7.2168C7.92417 28.7663 9.47367 31.4611 11.3263 32Z" fill="#003CFF"/>
<path d="M15.605 31.4947C18.6366 30.4505 21.0619 28.1263 22.2409 25.1621H18.1987C17.7271 27.8232 16.7839 30.0126 15.605 31.4947Z" fill="#003CFF"/>
<path d="M1.79346 25.1621C2.97242 28.1263 5.39771 30.4505 8.39565 31.4947C7.183 30.0126 6.27351 27.7895 5.80193 25.1621H1.79346Z" fill="#003CFF"/>
<path d="M22.6783 18.4252H18.4004C18.5014 19.301 18.5688 20.1767 18.5688 21.1199C18.5688 22.0631 18.5014 22.9389 18.4004 23.8146H22.6783C22.8804 22.9389 23.0152 22.0631 23.0152 21.1199C23.0152 20.1767 22.8804 19.2673 22.6783 18.4252Z" fill="#003CFF"/>
<path d="M18.0972 16.6737C18.1309 16.8085 18.1645 16.9095 18.1645 17.0443H22.2067C21.6677 15.6632 20.8256 14.4506 19.8151 13.4064C19.3435 14.4169 18.7709 15.4948 18.0972 16.6737Z" fill="#003CFF"/>
<path d="M8.39613 10.7117C5.36451 11.7559 2.93922 14.0801 1.76025 17.0443H5.80241C6.274 14.4169 7.21717 12.1938 8.39613 10.7117Z" fill="#003CFF"/>
<path d="M16.0429 17.5158C17.8619 14.3832 20.9946 8.62315 20.9946 6.19789C20.9946 2.79579 18.2324 0 14.7966 0C11.3608 0 8.63232 2.7621 8.63232 6.19789C8.63232 8.62315 11.765 14.3832 13.584 17.5158C14.1229 18.4589 15.504 18.4589 16.0429 17.5158ZM12.0008 6.19789C12.0008 4.64842 13.2471 3.4021 14.7966 3.4021C16.3461 3.4021 17.5924 4.64842 17.5924 6.19789C17.5924 7.74737 16.3461 8.99368 14.7966 8.99368C13.2471 8.99368 12.0008 7.71368 12.0008 6.19789Z" fill="#003CFF"/>
</svg>
