<svg width="31" height="31" viewBox="0 0 31 31" fill="none" xmlns="http://www.w3.org/2000/svg">
<rect width="30.311" height="30.9999" rx="15.1555" fill="#3B82F6" fill-opacity="0.2"/>
<path d="M16.4301 22.1334C16.3006 22.3568 16.1146 22.5422 15.8908 22.6711C15.667 22.8 15.4133 22.8679 15.155 22.8679C14.8968 22.8679 14.6431 22.8 14.4193 22.6711C14.1955 22.5422 14.0095 22.3568 13.8799 22.1334M19.5774 12.5516C19.5774 11.3788 19.1115 10.2539 18.2821 9.42455C17.4528 8.5952 16.3279 8.12927 15.155 8.12927C13.9821 8.12927 12.8573 8.5952 12.0279 9.42455C11.1986 10.2539 10.7327 11.3788 10.7327 12.5516C10.7327 17.7111 8.52148 19.1852 8.52148 19.1852H21.7886C21.7886 19.1852 19.5774 17.7111 19.5774 12.5516Z" stroke="#3B82F6" stroke-width="1.84265" stroke-linecap="round" stroke-linejoin="round"/>
</svg>
