<svg width="26" height="26" viewBox="0 0 26 26" fill="none" xmlns="http://www.w3.org/2000/svg">
<path d="M22.23 0.333374H3.79689C1.83535 0.333374 0.25 1.91873 0.25 3.88027V22.2865C0.25 24.248 1.83535 25.8334 3.79689 25.8334H22.2031C24.1646 25.8334 25.75 24.248 25.75 22.2865V3.88027C25.7769 1.91873 24.1915 0.333374 22.23 0.333374ZM13.5777 15.2464H11.1056V21.2923H8.25738V4.90134H13.5777C16.426 4.90134 18.7637 7.21219 18.7637 10.0873C18.7637 12.9625 16.426 15.2464 13.5777 15.2464Z" fill="#003CFF"/>
<path d="M13.5775 7.72278H11.1055V12.3982H13.5775C14.8673 12.3982 15.9153 11.3503 15.9153 10.0605C15.9153 8.77072 14.8673 7.72278 13.5775 7.72278Z" fill="#003CFF"/>
</svg>
