<svg width="32" height="32" viewBox="0 0 32 32" fill="none" xmlns="http://www.w3.org/2000/svg">
<path d="M30.244 12.5253L27.7373 12.2067C27.533 11.577 27.2793 10.9645 26.9787 10.3747L28.5267 8.38133C28.8291 7.99862 28.9798 7.51778 28.9498 7.0309C28.9197 6.54403 28.7112 6.08533 28.364 5.74267L26.264 3.64267C25.9212 3.2934 25.4615 3.08296 24.9731 3.05171C24.4846 3.02047 24.0019 3.1706 23.6173 3.47333L21.6267 5.02133C21.0365 4.72048 20.4235 4.46679 19.7933 4.26267L19.4747 1.76C19.4166 1.27515 19.183 0.828356 18.8179 0.504063C18.4529 0.179771 17.9816 0.00045214 17.4933 0L14.5067 0C13.4973 0 12.6453 0.756 12.5253 1.756L12.2067 4.26267C11.5763 4.46622 10.9632 4.71992 10.3733 5.02133L8.38133 3.47333C7.99839 3.17144 7.51767 3.02115 7.03096 3.05115C6.54425 3.08115 6.08563 3.28935 5.74267 3.636L3.64267 5.73467C3.29303 6.07757 3.08237 6.53753 3.05112 7.02625C3.01987 7.51498 3.17022 7.99802 3.47333 8.38267L5.02133 10.3747C4.72015 10.9642 4.46646 11.5768 4.26267 12.2067L1.76 12.5253C0.756 12.6453 0 13.4973 0 14.5067V17.4933C0 18.5027 0.756 19.3547 1.756 19.4747L4.26267 19.7933C4.46933 20.4293 4.724 21.0427 5.02133 21.6253L3.47333 23.6187C3.17087 24.0014 3.02023 24.4822 3.05024 24.9691C3.08026 25.456 3.28882 25.9147 3.636 26.2573L5.736 28.3573C6.07931 28.7059 6.53901 28.9157 7.02726 28.9467C7.5155 28.9777 7.99804 28.8277 8.38267 28.5253L10.3747 26.9773C10.9573 27.276 11.5707 27.5307 12.2067 27.736L12.5253 30.2373C12.6453 31.244 13.4973 32 14.5067 32H17.4933C18.5027 32 19.3547 31.244 19.4747 30.244L19.7933 27.7373C20.423 27.533 21.0355 27.2793 21.6253 26.9787L23.6187 28.5267C24.4253 29.1533 25.564 29.08 26.2573 28.364L28.3573 26.264C28.7066 25.9212 28.917 25.4615 28.9483 24.9731C28.9795 24.4846 28.8294 24.0019 28.5267 23.6173L26.9787 21.6253C27.2773 21.0427 27.532 20.4293 27.7373 19.7933L30.2387 19.4747C30.7235 19.4166 31.1703 19.183 31.4946 18.8179C31.8189 18.4529 31.9982 17.9816 31.9987 17.4933V14.5067C31.999 14.019 31.8206 13.5481 31.4973 13.1831C31.174 12.818 30.7281 12.584 30.244 12.5253ZM16 22.6667C12.324 22.6667 9.33333 19.676 9.33333 16C9.33333 12.324 12.324 9.33333 16 9.33333C19.676 9.33333 22.6667 12.324 22.6667 16C22.6667 19.676 19.676 22.6667 16 22.6667Z" fill="#003CFF"/>
</svg>
