<svg width="26" height="33" viewBox="0 0 26 33" fill="none" xmlns="http://www.w3.org/2000/svg">
<path d="M22.677 0.666748H3.32298C1.76711 0.675979 0.509096 1.95596 0.5 3.53907V29.7944C0.509072 31.3775 1.76707 32.6575 3.32298 32.6667H22.677C24.2329 32.6575 25.4909 31.3775 25.5 29.7944V3.53907C25.4909 1.956 24.2329 0.676003 22.677 0.666748ZM16.6289 10.1021C16.6289 9.42364 17.1702 8.87135 17.8385 8.87135C18.5068 8.87135 19.0481 9.42364 19.0481 10.1021V13.3852C19.0481 14.0637 18.5068 14.616 17.8385 14.616C17.1702 14.616 16.6289 14.0637 16.6289 13.3852V10.1021ZM11.7904 6.82059C11.7904 6.14058 12.3317 5.58983 13 5.58983C13.6683 5.58983 14.2096 6.14058 14.2096 6.82059V13.3852C14.2096 14.0637 13.6683 14.616 13 14.616C12.3317 14.616 11.7904 14.0637 11.7904 13.3852V6.82059ZM6.95186 8.46214C6.95186 7.78213 7.49316 7.23138 8.16149 7.23138C8.82982 7.23138 9.37112 7.78213 9.37112 8.46214V13.3852C9.37112 14.0637 8.82982 14.616 8.16149 14.616C7.49316 14.616 6.95186 14.0637 6.95186 13.3852V8.46214ZM19.4519 26.1021H6.54814C5.88131 26.1021 5.33851 25.5514 5.33851 24.8714C5.33851 24.1929 5.88131 23.6406 6.54814 23.6406H19.4519C20.1187 23.6406 20.6615 24.1929 20.6615 24.8714C20.6615 25.5514 20.1187 26.1021 19.4519 26.1021ZM19.4519 21.179H6.54814C5.88131 21.179 5.33851 20.6283 5.33851 19.9483C5.33851 19.2698 5.88131 18.7175 6.54814 18.7175H19.4519C20.1187 18.7175 20.6615 19.2698 20.6615 19.9483C20.6615 20.6283 20.1187 21.179 19.4519 21.179Z" fill="#003CFF"/>
</svg>
