<svg width="32" height="19" viewBox="0 0 32 19" fill="none" xmlns="http://www.w3.org/2000/svg">
<path d="M14.7171 4.53172C16.2323 4.63273 17.6802 5.03679 18.9934 5.64288C20.1719 4.73375 21.5187 3.7236 23.135 2.51143C20.5086 1.16457 17.5791 0.524812 14.7171 0.693169C10.4744 0.92887 6.46751 2.88182 3.80745 5.91225C1.58513 8.37027 0.271933 11.5354 0.0025601 14.7005C-0.0311115 15.0709 0.271933 15.4076 0.642321 15.4076C0.945366 15.4076 1.21474 15.1719 1.28208 14.9025C1.88817 12.0741 3.40339 9.48143 5.52471 7.66317C8.08375 5.37351 11.4846 4.29602 14.7171 4.53172Z" fill="#003CFF"/>
<path d="M27.31 5.60913C25.9968 7.32638 24.8857 8.80792 23.9429 10.0538C24.852 11.5353 25.3908 13.1852 25.5591 14.8351C25.5928 15.1382 25.8622 15.4075 26.1989 15.4075H31.3506C31.7547 15.4075 32.0577 15.0371 31.9904 14.6331C31.3506 11.1986 29.7007 7.99981 27.31 5.60913Z" fill="#003CFF"/>
<path d="M26.6371 3.25226C26.9064 2.88187 26.4687 2.44414 26.0983 2.71351C23.3036 4.83482 18.4212 8.50501 15.6601 10.66C15.3571 10.5926 15.054 10.5253 14.7173 10.5253C12.4613 10.559 10.6094 12.4109 10.6094 14.6669C10.6094 16.9229 12.4276 18.7748 14.7173 18.7748C17.007 18.7748 18.8253 16.9565 18.8253 14.6669C18.8253 14.3302 18.7916 14.0271 18.6906 13.7241C20.8455 10.9294 24.5158 6.08066 26.6371 3.25226Z" fill="#003CFF"/>
</svg>
