<svg width="35" height="36" viewBox="0 0 35 36" fill="none" xmlns="http://www.w3.org/2000/svg">
<path fill-rule="evenodd" clip-rule="evenodd" d="M19.1408 15.3233C18.6098 15.8787 18.1092 16.4028 17.6748 16.8965C17.5881 16.9947 17.4634 17.051 17.3333 17.051C17.2032 17.051 17.0784 16.9947 16.9917 16.8965C16.5566 16.4036 16.0568 15.8787 15.5258 15.3233C15.0473 14.822 14.5444 14.2941 14.0469 13.7448L5.08555 16.5945L17.3333 20.4887L29.578 16.5945L20.6196 13.7448C20.1221 14.2941 19.6193 14.822 19.1408 15.3233ZM11.36 6.9249C11.36 3.63171 14.0408 0.95166 17.3333 0.95166C20.6257 0.95166 23.3065 3.63095 23.3065 6.9249C23.3065 9.6369 20.6288 12.4402 18.4797 14.6935C18.0758 15.1164 17.6908 15.5219 17.3333 15.9121C16.9757 15.5211 16.5878 15.1164 16.1838 14.6935C14.037 12.4402 11.36 9.6369 11.36 6.9249ZM17.3333 10.1314C19.1005 10.1314 20.539 8.69283 20.539 6.9249C20.539 5.15697 19.1005 3.71843 17.3333 3.71843C15.5661 3.71843 14.1276 5.15697 14.1276 6.9249C14.1276 8.69283 15.5653 10.1314 17.3333 10.1314ZM0.33252 20.2947L3.6995 17.1111L16.4569 21.168L13.0899 24.3517L0.33252 20.2947ZM16.8761 35.6264V22.0276L13.5213 25.1999C13.4365 25.2799 13.3244 25.3245 13.2078 25.3246C13.1614 25.3246 13.115 25.3178 13.0679 25.3033L4.03575 22.4308V31.5428L16.8761 35.6264ZM28.5403 27.6563L24.9778 28.789V31.148L28.5403 30.0153V27.6563ZM21.5949 25.3033L30.6278 22.4308V31.5428L17.7897 35.6264V22.0276L21.1445 25.1999C21.2293 25.2799 21.3414 25.3245 21.458 25.3246C21.5044 25.3254 21.5508 25.3178 21.5949 25.3033ZM24.0642 31.7726V28.4558C24.0642 28.2572 24.1943 28.0815 24.3845 28.0207L28.8576 26.5981C28.9975 26.554 29.1497 26.5783 29.2676 26.6643C29.3855 26.7502 29.454 26.8872 29.454 27.0325V30.3492C29.454 30.5478 29.3239 30.7235 29.1337 30.7844L24.6606 32.2077C24.6142 32.2222 24.5678 32.229 24.5206 32.229C24.4278 32.229 24.3312 32.1993 24.2536 32.1408C24.1357 32.0548 24.0642 31.9179 24.0642 31.7726ZM30.9655 17.1111L34.3325 20.2947L21.5751 24.3517L18.2081 21.168L30.9655 17.1111Z" fill="#003CFF"/>
</svg>
