<svg width="30" height="30" viewBox="0 0 30 30" fill="none" xmlns="http://www.w3.org/2000/svg">
<path d="M12.3662 23.5119C10.7785 23.5119 9.4554 24.8019 9.4554 26.4226C9.4554 28.0434 10.7454 29.3334 12.3662 29.3334C13.9538 29.3334 15.2769 28.0434 15.2769 26.4226C15.2769 24.8019 13.9538 23.5119 12.3662 23.5119ZM23.2153 23.5119C21.6276 23.5119 20.3046 24.8019 20.3046 26.4226C20.3046 28.0434 21.5946 29.3334 23.2153 29.3334C24.803 29.3334 26.1261 28.0434 26.1261 26.4226C26.1261 24.8019 24.8361 23.5119 23.2153 23.5119ZM27.6476 15.9704L29.2684 9.28887C29.2684 8.49502 28.6068 7.80041 27.7799 7.76734L8.43002 6.04735L7.66926 3.00429C7.57003 2.57429 7.23926 2.21044 6.84234 2.07814L2.57544 0.4243C1.88083 0.159686 1.08699 0.490454 0.822371 1.18507C0.557757 1.87968 0.888525 2.67352 1.58314 2.93813L5.1885 4.32735L9.48848 21.6596C9.65386 22.2549 10.1831 22.6849 10.8115 22.6849H26.093C26.8538 22.6849 27.4491 22.0896 27.4491 21.3288C27.4491 20.568 26.8538 19.9727 26.093 19.9727H11.87L11.5392 18.6496L26.1592 17.4588C26.9861 17.4588 27.6476 16.7642 27.6476 15.9704Z" fill="#003CFF"/>
</svg>
