<svg width="31" height="31" viewBox="0 0 31 31" fill="none" xmlns="http://www.w3.org/2000/svg">
<circle cx="15.4061" cy="15.6874" r="14.7577" fill="#930AC5"/>
<path d="M14.7231 15.4638V15.0711C14.2368 14.192 13.8253 13.4065 13.5074 12.6958C13.0398 13.3691 12.6657 14.3417 12.46 15.4638H14.7231Z" fill="white"/>
<path d="M12.2544 17.7269C12.2544 18.2319 12.2918 18.7369 12.3479 19.2232H14.742V16.2307H12.3479C12.2918 16.6982 12.2544 17.2032 12.2544 17.7269Z" fill="white"/>
<path d="M17.9778 17.727C17.9778 17.2407 17.9404 16.7544 17.8843 16.3055C17.585 16.6796 17.1548 16.904 16.6686 16.904C16.201 16.904 15.7895 16.6983 15.4902 16.3616V19.2232H17.8843C17.9404 18.7369 17.9778 18.2319 17.9778 17.727Z" fill="white"/>
<path d="M15.4902 19.9713V23.7681C16.5189 23.4688 17.3793 21.9726 17.7534 19.9713H15.4902Z" fill="white"/>
<path d="M11.4876 17.7269C11.4876 17.2032 11.525 16.7169 11.5811 16.2307H9.18703C9.07481 16.7169 9 17.2032 9 17.7269C9 18.2506 9.07481 18.7369 9.18703 19.2232H11.5624C11.525 18.7369 11.4876 18.2319 11.4876 17.7269Z" fill="white"/>
<path d="M14.7418 23.7681V19.9713H12.46C12.8527 21.9726 13.7131 23.4688 14.7418 23.7681Z" fill="white"/>
<path d="M17.1177 23.4875C18.801 22.9077 20.1476 21.6172 20.8023 19.9713H18.5578C18.296 21.4489 17.7723 22.6646 17.1177 23.4875Z" fill="white"/>
<path d="M9.44873 19.9713C10.1034 21.6172 11.45 22.9077 13.1146 23.4875C12.4413 22.6646 11.9363 21.4302 11.6744 19.9713H9.44873Z" fill="white"/>
<path d="M21.0448 16.2307H18.6694C18.7255 16.7169 18.763 17.2032 18.763 17.7269C18.763 18.2506 18.7255 18.7369 18.6694 19.2232H21.0448C21.157 18.7369 21.2318 18.2506 21.2318 17.7269C21.2318 17.2032 21.157 16.6982 21.0448 16.2307Z" fill="white"/>
<path d="M18.5015 15.2581C18.5202 15.3329 18.5389 15.389 18.5389 15.4638H20.7833C20.484 14.697 20.0164 14.0237 19.4553 13.4439C19.1935 14.005 18.8755 14.6035 18.5015 15.2581Z" fill="white"/>
<path d="M13.1148 11.9477C11.4314 12.5275 10.0848 13.818 9.43018 15.4639H11.6746C11.9364 14.005 12.4601 12.7706 13.1148 11.9477Z" fill="white"/>
<path d="M17.3606 15.7257C18.3706 13.9863 20.11 10.788 20.11 9.4414C20.11 7.55237 18.5763 6 16.6686 6C14.7608 6 13.2458 7.53367 13.2458 9.4414C13.2458 10.788 14.9853 13.9863 15.9953 15.7257C16.2945 16.2494 17.0614 16.2494 17.3606 15.7257ZM15.1162 9.4414C15.1162 8.58105 15.8082 7.88903 16.6686 7.88903C17.5289 7.88903 18.221 8.58105 18.221 9.4414C18.221 10.3017 17.5289 10.9938 16.6686 10.9938C15.8082 10.9938 15.1162 10.283 15.1162 9.4414Z" fill="white"/>
</svg>
