<svg width="18" height="18" viewBox="0 0 18 18" fill="none" xmlns="http://www.w3.org/2000/svg">
<g clip-path="url(#clip0_59732_8055)">
<path d="M3.55078 11.8916H0.615234C0.421066 11.8916 0.263672 11.7342 0.263672 11.54V3.80566C0.263672 3.6115 0.421066 3.4541 0.615234 3.4541L5.09766 3.4541" stroke="#003CFF" stroke-width="0.6" stroke-miterlimit="10" stroke-linecap="round" stroke-linejoin="round"/>
<path d="M9.72233 11.8916H5.44824" stroke="#003CFF" stroke-width="0.6" stroke-miterlimit="10" stroke-linecap="round" stroke-linejoin="round"/>
<path d="M12.8848 8.49951V11.8917H9.19336" stroke="#003CFF" stroke-width="0.6" stroke-miterlimit="10" stroke-linecap="round" stroke-linejoin="round"/>
<path d="M4.79688 3.4541H12.5331C12.7273 3.4541 12.8847 3.6115 12.8847 3.80566V8.87695" stroke="#003CFF" stroke-width="0.6" stroke-miterlimit="10" stroke-linecap="round" stroke-linejoin="round"/>
<path d="M12.9023 6.14014H14.7147C14.925 6.14014 15.1243 6.23429 15.2578 6.39674L16.9339 8.43559C17.089 8.62431 17.1738 8.86105 17.1738 9.10535V11.8916" stroke="#003CFF" stroke-width="0.6" stroke-miterlimit="10" stroke-linecap="round" stroke-linejoin="round"/>
<path d="M2.98828 12.9463H1.2832C1.18614 12.9463 1.10742 12.8676 1.10742 12.7705V11.918" stroke="#003CFF" stroke-width="0.6" stroke-miterlimit="10" stroke-linecap="round" stroke-linejoin="round"/>
<path d="M12.6738 12.9463H5.99414" stroke="#003CFF" stroke-width="0.6" stroke-miterlimit="10" stroke-linecap="round" stroke-linejoin="round"/>
<path d="M15.1172 11.8916H17.5605C17.6576 11.8916 17.7363 11.9703 17.7363 12.0674V12.7705C17.7363 12.8676 17.6576 12.9463 17.5605 12.9463H15.6621" stroke="#003CFF" stroke-width="0.6" stroke-miterlimit="10" stroke-linecap="round" stroke-linejoin="round"/>
<path d="M13.9395 6.15234V8.37598C13.9395 8.57014 14.0968 8.72754 14.291 8.72754H17.0508" stroke="#003CFF" stroke-width="0.6" stroke-miterlimit="10" stroke-linecap="round" stroke-linejoin="round"/>
<path d="M17.1562 10.8369H16.5762C16.1878 10.8369 15.873 10.5221 15.873 10.1338V9.78223H17.1562" stroke="#003CFF" stroke-width="0.6" stroke-miterlimit="10" stroke-linecap="round" stroke-linejoin="round"/>
<path d="M4.5 14.5459C5.32519 14.5459 5.99414 13.8769 5.99414 13.0518C5.99414 12.2266 5.32519 11.5576 4.5 11.5576C3.67481 11.5576 3.00586 12.2266 3.00586 13.0518C3.00586 13.8769 3.67481 14.5459 4.5 14.5459Z" stroke="#003CFF" stroke-width="0.6" stroke-miterlimit="10" stroke-linecap="round" stroke-linejoin="round"/>
<path d="M4.5 13.6143C4.81066 13.6143 5.0625 13.3624 5.0625 13.0518C5.0625 12.7411 4.81066 12.4893 4.5 12.4893C4.18934 12.4893 3.9375 12.7411 3.9375 13.0518C3.9375 13.3624 4.18934 13.6143 4.5 13.6143Z" stroke="#003CFF" stroke-width="0.6" stroke-miterlimit="10" stroke-linecap="round" stroke-linejoin="round"/>
<path d="M14.168 14.5459C14.9932 14.5459 15.6621 13.8769 15.6621 13.0518C15.6621 12.2266 14.9932 11.5576 14.168 11.5576C13.3428 11.5576 12.6738 12.2266 12.6738 13.0518C12.6738 13.8769 13.3428 14.5459 14.168 14.5459Z" stroke="#003CFF" stroke-width="0.6" stroke-miterlimit="10" stroke-linecap="round" stroke-linejoin="round"/>
<path d="M14.168 13.6143C14.4786 13.6143 14.7305 13.3624 14.7305 13.0518C14.7305 12.7411 14.4786 12.4893 14.168 12.4893C13.8573 12.4893 13.6055 12.7411 13.6055 13.0518C13.6055 13.3624 13.8573 13.6143 14.168 13.6143Z" stroke="#003CFF" stroke-width="0.6" stroke-miterlimit="10" stroke-linecap="round" stroke-linejoin="round"/>
<path d="M12.8672 10.6611H0.28125" stroke="#003CFF" stroke-width="0.6" stroke-miterlimit="10" stroke-linecap="round" stroke-linejoin="round"/>
</g>
<defs>
<clipPath id="clip0_59732_8055">
<rect width="18" height="18" fill="white"/>
</clipPath>
</defs>
</svg>
