<svg width="31" height="30" viewBox="0 0 31 30" fill="none" xmlns="http://www.w3.org/2000/svg">
<path d="M24.5178 4.84424C21.8051 2.13164 18.1985 0.637695 14.3622 0.637695C10.5259 0.637695 6.91926 2.13164 4.20655 4.84424C1.49395 7.5569 0 11.1636 0 14.9999C0 18.8361 1.49395 22.4429 4.20655 25.1555C6.91926 27.8681 10.5259 29.3621 14.3622 29.3621C18.1985 29.3621 21.8051 27.8681 24.5178 25.1555C27.2304 22.4429 28.7244 18.8361 28.7244 14.9999C28.7244 11.1636 27.2304 7.5569 24.5178 4.84424ZM14.3622 27.679C10.9755 27.679 7.79148 26.3601 5.3967 23.9654C3.00192 21.5706 1.68307 18.3866 1.68307 14.9999C1.68307 11.6131 3.00192 8.42918 5.3967 6.0344C7.79148 3.63962 10.9755 2.32076 14.3622 2.32076C17.7489 2.32076 20.9329 3.63962 23.3277 6.0344C25.7224 8.42918 27.0413 11.6131 27.0413 14.9999C27.0413 18.3866 25.7224 21.5706 23.3277 23.9654C20.9329 26.3601 17.7489 27.679 14.3622 27.679Z" fill="#003CFF"/>
<path d="M18.1397 20.4738L12.9267 17.5618H13.2586C15.2906 17.5618 16.9907 16.1139 17.3816 14.1957H18.8513V12.5126H17.3816C17.255 11.8911 16.9908 11.319 16.6225 10.8296H18.8513V9.14648H13.2586H9.87498V10.8296H13.2587C14.3558 10.8296 15.2912 11.5331 15.6385 12.5126H9.87498V14.1957H15.6385C15.2911 15.1751 14.3557 15.8788 13.2586 15.8788H9.85742V17.7752L17.3189 21.9431L18.1397 20.4738Z" fill="#003CFF"/>
<path d="M28.4221 17.9201C27.1562 16.6542 25.4731 15.957 23.6828 15.957C21.8926 15.957 20.2095 16.6542 18.9435 17.9201C17.6776 19.186 16.9805 20.8691 16.9805 22.6594C16.9805 24.4496 17.6776 26.1328 18.9435 27.3987C20.2095 28.6646 21.8926 29.3617 23.6828 29.3617C25.4731 29.3617 27.1562 28.6646 28.4221 27.3987C29.688 26.1328 30.3852 24.4496 30.3852 22.6594C30.3852 20.8691 29.688 19.186 28.4221 17.9201Z" fill="#E31B25"/>
<g clip-path="url(#clip0_66564_13290)">
<path d="M23.4053 20.1344L20.9166 24.2891C20.8653 24.3779 20.8382 24.4787 20.8379 24.5813C20.8376 24.6839 20.8642 24.7848 20.915 24.8739C20.9658 24.9631 21.0391 25.0374 21.1275 25.0894C21.216 25.1414 21.3165 25.1694 21.4191 25.1705H26.3964C26.499 25.1694 26.5995 25.1414 26.688 25.0894C26.7764 25.0374 26.8497 24.9631 26.9005 24.8739C26.9513 24.7848 26.9779 24.6839 26.9776 24.5813C26.9773 24.4787 26.9502 24.3779 26.8989 24.2891L24.4102 20.1344C24.3578 20.0481 24.2841 19.9767 24.196 19.9271C24.108 19.8776 24.0087 19.8516 23.9077 19.8516C23.8068 19.8516 23.7075 19.8776 23.6195 19.9271C23.5314 19.9767 23.4577 20.0481 23.4053 20.1344Z" stroke="white" stroke-width="0.587644" stroke-linecap="round" stroke-linejoin="round"/>
<path d="M23.9082 21.6445V22.8198" stroke="white" stroke-width="0.587644" stroke-linecap="round" stroke-linejoin="round"/>
<path d="M23.9082 23.9951H23.9114" stroke="white" stroke-width="0.587644" stroke-linecap="round" stroke-linejoin="round"/>
</g>
<defs>
<clipPath id="clip0_66564_13290">
<rect width="7.05173" height="7.05173" fill="white" transform="translate(20.3828 19)"/>
</clipPath>
</defs>
</svg>
