<svg width="24" height="25" viewBox="0 0 24 25" fill="none" xmlns="http://www.w3.org/2000/svg">
<mask id="mask0_59792_13260" style="mask-type:alpha" maskUnits="userSpaceOnUse" x="0" y="0" width="24" height="25">
<rect y="0.926514" width="24" height="24" fill="#D9D9D9"/>
</mask>
<g mask="url(#mask0_59792_13260)">
</g>
<g clip-path="url(#clip0_59792_13260)">
<path d="M21.416 18.7426L19.9344 10.3565C19.6277 8.62074 18.1258 7.36094 16.3632 7.36094H14.2672C14.5841 6.91047 14.771 6.36223 14.771 5.77082C14.771 4.24301 13.5279 3 12.0001 3C10.4723 3 9.22924 4.24301 9.22924 5.77086C9.22924 6.36227 9.41607 6.91051 9.73299 7.36098H7.63697C5.87439 7.36098 4.37248 8.62078 4.0658 10.3565L2.58424 18.7426C2.39724 19.8012 2.68623 20.8805 3.37701 21.7041C4.06783 22.5277 5.08049 23 6.15545 23H17.8448C18.9198 23 19.9324 22.5277 20.6232 21.7041C21.314 20.8806 21.6029 19.8012 21.416 18.7426ZM12.0001 4.18074C12.8769 4.18074 13.5902 4.89406 13.5902 5.77086C13.5902 6.64766 12.8769 7.36098 12.0001 7.36098C11.1233 7.36098 10.41 6.64766 10.41 5.77086C10.41 4.89406 11.1233 4.18074 12.0001 4.18074ZM19.7186 20.9453C19.2527 21.5007 18.5697 21.8193 17.8448 21.8193H6.15545C5.43053 21.8193 4.74756 21.5007 4.2817 20.9453C3.81584 20.3899 3.62092 19.6619 3.74705 18.948L5.22861 10.562C5.43545 9.39137 6.44834 8.54168 7.63701 8.54168H16.3633C17.552 8.54168 18.5649 9.39129 18.7717 10.5619L20.2533 18.948C20.3794 19.6619 20.1844 20.3899 19.7186 20.9453Z" fill="#0369A1"/>
<path d="M10.0587 15.1805L11.5381 13.6518C11.7648 13.4176 11.7587 13.0438 11.5244 12.8171C11.29 12.5902 10.9163 12.5965 10.6895 12.8307L9.03503 14.5404V13.2413C9.03503 12.9152 8.77069 12.6509 8.44464 12.6509C8.11858 12.6509 7.85425 12.9152 7.85425 13.2413V17.1198C7.85425 17.4459 8.11858 17.7102 8.44464 17.7102C8.77069 17.7102 9.03503 17.4459 9.03503 17.1198V15.8207L10.6895 17.5304C10.8053 17.6501 10.9595 17.7102 11.1139 17.7102C11.2617 17.7102 11.4097 17.655 11.5244 17.5441C11.7587 17.3173 11.7648 16.9436 11.5381 16.7093L10.0587 15.1805Z" fill="#0369A1"/>
<path d="M15.5556 14.7569H14.6694C14.3433 14.7569 14.079 15.0212 14.079 15.3473C14.079 15.6733 14.3433 15.9377 14.6694 15.9377H14.9555C14.8993 16.273 14.607 16.5294 14.2558 16.5294C13.8647 16.5294 13.5464 16.2112 13.5464 15.82V14.541C13.5464 14.1498 13.8647 13.8316 14.2558 13.8316C14.4759 13.8316 14.6799 13.9313 14.8157 14.1052C15.0163 14.3621 15.3873 14.4079 15.6443 14.2073C15.9013 14.0066 15.9471 13.6356 15.7465 13.3787C15.3854 12.9162 14.8421 12.6509 14.2559 12.6509C13.2137 12.6509 12.3657 13.4988 12.3657 14.541V15.82C12.3657 16.8622 13.2137 17.7102 14.2559 17.7102C15.2981 17.7102 16.146 16.8622 16.146 15.82V15.3474C16.146 15.0212 15.8817 14.7569 15.5556 14.7569Z" fill="#0369A1"/>
</g>
<defs>
<clipPath id="clip0_59792_13260">
<rect width="20" height="20" fill="white" transform="translate(2 3)"/>
</clipPath>
</defs>
</svg>
