<svg width="24" height="25" viewBox="0 0 24 25" fill="none" xmlns="http://www.w3.org/2000/svg">
<path d="M3.98593 15.1113C4.05296 15.1772 4.25448 15.3756 4.55902 15.3756H4.56784C4.87252 15.3756 5.07409 15.1772 5.14093 15.1113L5.15274 15.0992C7.01227 13.1449 10.4736 9.50704 8.57462 5.89434L8.57265 5.89059C7.79982 4.44867 6.2664 3.5369 4.57112 3.51117H4.56329H4.55546C2.86004 3.5369 1.32676 4.44867 0.551962 5.89434C-1.3468 9.50733 2.11445 13.145 3.97384 15.0992L3.98593 15.1113ZM1.46312 6.37786C2.05796 5.268 3.2454 4.56525 4.56343 4.54256C5.88085 4.56525 7.06773 5.26725 7.66281 6.37617C9.06282 9.04336 6.83781 11.8144 4.56343 14.2218C2.28873 11.8138 0.0629617 9.04218 1.46312 6.37786Z" fill="black"/>
<path d="M7.09246 8.12291C7.09247 7.62269 6.94415 7.1337 6.66625 6.71778C6.38835 6.30186 5.99335 5.97769 5.53121 5.78625C5.06907 5.59482 4.56055 5.54473 4.06994 5.64231C3.57933 5.73989 3.12868 5.98077 2.77497 6.33447C2.42125 6.68818 2.18037 7.13883 2.08278 7.62943C1.98519 8.12004 2.03527 8.62857 2.2267 9.09071C2.41812 9.55285 2.74229 9.94785 3.1582 10.2258C3.57412 10.5037 4.0631 10.652 4.56332 10.652C5.23385 10.6512 5.8767 10.3845 6.35084 9.91041C6.82498 9.43628 7.09169 8.79344 7.09246 8.12291ZM3.06557 8.12291C3.06556 7.82667 3.1534 7.53708 3.31798 7.29076C3.48255 7.04444 3.71648 6.85246 3.99016 6.73909C4.26385 6.62572 4.56501 6.59605 4.85556 6.65384C5.14611 6.71163 5.413 6.85429 5.62247 7.06376C5.83194 7.27323 5.9746 7.54012 6.03239 7.83067C6.09018 8.12122 6.06051 8.42238 5.94714 8.69606C5.83377 8.96975 5.64179 9.20368 5.39547 9.36825C5.14915 9.53283 4.85956 9.62067 4.56332 9.62066C4.16625 9.62019 3.78557 9.46223 3.50481 9.18145C3.22404 8.90067 3.06611 8.51998 3.06567 8.12291H3.06557Z" fill="black"/>
<path d="M18.859 15.1113C18.926 15.1772 19.1275 15.3756 19.4321 15.3756H19.4409C19.7456 15.3756 19.9472 15.1772 20.014 15.1113L20.0258 15.0992C21.8853 13.145 25.3466 9.50733 23.4477 5.89434L23.4457 5.89059C22.6729 4.44867 21.1395 3.5369 19.4442 3.51117H19.4364H19.4285C17.7331 3.5369 16.1998 4.44867 15.425 5.89434C13.5262 9.50728 16.9875 13.1449 18.8469 15.0992L18.859 15.1113ZM16.3362 6.37786C16.931 5.268 18.1185 4.56525 19.4365 4.54256C20.7539 4.56525 21.9408 5.26725 22.5359 6.37617C23.9358 9.04336 21.7106 11.8144 19.4365 14.2218C17.1618 11.8138 14.936 9.04214 16.3362 6.37786Z" fill="black"/>
<path d="M21.9655 8.12291C21.9655 7.62269 21.8172 7.1337 21.5393 6.71778C21.2614 6.30185 20.8664 5.97768 20.4043 5.78625C19.9421 5.59482 19.4336 5.54473 18.943 5.64232C18.4524 5.7399 18.0017 5.98078 17.648 6.33449C17.2943 6.6882 17.0534 7.13885 16.9558 7.62946C16.8582 8.12007 16.9083 8.6286 17.0998 9.09074C17.2912 9.55289 17.6154 9.94788 18.0313 10.2258C18.4472 10.5037 18.9362 10.652 19.4364 10.652C20.1069 10.6512 20.7498 10.3845 21.2239 9.9104C21.698 9.43627 21.9647 8.79343 21.9655 8.12291ZM17.9386 8.12291C17.9386 7.82667 18.0264 7.53708 18.191 7.29076C18.3556 7.04445 18.5895 6.85246 18.8632 6.73909C19.1369 6.62572 19.438 6.59605 19.7286 6.65384C20.0191 6.71163 20.286 6.85427 20.4955 7.06374C20.705 7.27321 20.8476 7.54009 20.9054 7.83064C20.9632 8.12118 20.9336 8.42234 20.8202 8.69603C20.7068 8.96972 20.5149 9.20365 20.2686 9.36823C20.0222 9.53281 19.7327 9.62066 19.4364 9.62066C19.0394 9.62014 18.6587 9.46216 18.378 9.18138C18.0973 8.90061 17.9394 8.51995 17.9389 8.12291H17.9386Z" fill="black"/>
<path d="M20.1162 17.019C19.9015 16.9298 19.6714 16.8838 19.4389 16.8836C19.2064 16.8833 18.9761 16.9289 18.7612 17.0176C18.5464 17.1064 18.3511 17.2366 18.1865 17.4008C18.022 17.565 17.8914 17.7601 17.8022 17.9748C17.7798 18.0286 17.7602 18.0831 17.7434 18.1382H6.3613C6.34199 18.0709 6.31897 18.0047 6.29235 17.94C6.12717 17.54 5.82842 17.2097 5.447 17.0054C5.06559 16.801 4.62512 16.7352 4.20063 16.8192C3.77615 16.9032 3.39392 17.1318 3.11908 17.466C2.84424 17.8002 2.69379 18.2194 2.69336 18.6521C2.69294 19.0848 2.84256 19.5043 3.11675 19.8391C3.39093 20.1738 3.77271 20.4031 4.19703 20.488C4.62135 20.5728 5.06195 20.5079 5.44376 20.3043C5.82558 20.1006 6.12497 19.7709 6.29094 19.3713C6.31812 19.3055 6.3416 19.2382 6.36125 19.1697H17.7435C17.76 19.2237 17.7791 19.277 17.8008 19.3299C17.912 19.5989 18.0878 19.8364 18.3127 20.0213C18.5376 20.2061 18.8046 20.3327 19.09 20.3898C19.3755 20.4468 19.6706 20.4326 19.9493 20.3483C20.2279 20.2641 20.4815 20.1124 20.6876 19.9068C20.8936 19.7011 21.0458 19.4478 21.1305 19.1693C21.2153 18.8909 21.2301 18.5957 21.1736 18.3102C21.1171 18.0246 20.9911 17.7574 20.8066 17.5321C20.6222 17.3069 20.385 17.1306 20.1162 17.0189V17.019ZM5.33825 18.9755C5.26379 19.1547 5.1295 19.3026 4.95826 19.3938C4.78702 19.4851 4.58944 19.5142 4.39916 19.4761C4.20888 19.4381 4.03769 19.3352 3.91475 19.1851C3.7918 19.035 3.72471 18.8468 3.72491 18.6528C3.72511 18.4588 3.79258 18.2708 3.91583 18.1209C4.03908 17.971 4.21049 17.8685 4.40084 17.8308C4.59119 17.7932 4.78872 17.8227 4.95977 17.9143C5.13082 18.0059 5.26481 18.154 5.33891 18.3334C5.38128 18.4351 5.40304 18.5443 5.40292 18.6545C5.40281 18.7647 5.38083 18.8739 5.33825 18.9755ZM19.7192 19.3368C19.5841 19.3926 19.4355 19.407 19.2922 19.3784C19.1488 19.3497 19.0172 19.2792 18.914 19.1757C18.8108 19.0723 18.7405 18.9405 18.7121 18.7972C18.6838 18.6538 18.6986 18.5052 18.7546 18.3702C18.8107 18.2353 18.9055 18.12 19.0271 18.0389C19.1488 17.9578 19.2917 17.9146 19.4378 17.9148C19.584 17.9149 19.7268 17.9584 19.8483 18.0397C19.9697 18.121 20.0643 18.2366 20.1201 18.3717C20.1947 18.5528 20.1944 18.7562 20.1192 18.9371C20.0441 19.118 19.9002 19.2618 19.7192 19.3368Z" fill="black"/>
</svg>
