<svg width="32" height="33" viewBox="0 0 32 33" fill="none" xmlns="http://www.w3.org/2000/svg">
<path d="M27.6089 17.9046C28.4617 17.2451 29.144 16.3908 29.5986 15.4134C30.0533 14.436 30.2672 13.3638 30.2223 12.2868C30.2223 8.82011 28.0978 5.99344 25.4845 5.99344H22.0978V3.86011C22.1002 3.76991 22.0845 3.68015 22.0516 3.59612C22.0187 3.51209 21.9693 3.43551 21.9064 3.37088C21.8434 3.30626 21.7681 3.2549 21.685 3.21984C21.6018 3.18479 21.5125 3.16674 21.4223 3.16677H17.7778C17.6653 3.1658 17.5544 3.19293 17.455 3.24571C17.3557 3.29849 17.2711 3.37524 17.2089 3.469L15.5912 5.99344H9.44894C7.43117 5.99344 5.84005 8.75788 5.84005 12.2868C5.77924 14.033 6.25042 15.7565 7.19117 17.229H5.41339C3.36005 17.229 1.77783 19.9934 1.77783 23.5223C1.77783 27.0512 3.36005 29.8334 5.38672 29.8334H25.4845C28.0978 29.8334 30.2223 26.9979 30.2223 23.5223C30.2672 22.4453 30.0533 21.3731 29.5986 20.3957C29.144 19.4183 28.4617 18.5641 27.6089 17.9046ZM18.1689 4.57122H20.7378V6.57122C20.734 6.58879 20.734 6.60698 20.7378 6.62455C20.7378 6.71402 20.7556 6.8026 20.7901 6.88514C20.8246 6.96769 20.8752 7.04256 20.9388 7.10541C21.0025 7.16826 21.078 7.21783 21.161 7.25126C21.244 7.28468 21.3328 7.30128 21.4223 7.30011H25.4845C27.3512 7.30011 28.8712 9.52233 28.8712 12.2423C28.8712 14.9623 27.3512 17.1846 25.4845 17.1846H11.7156C12.5916 15.8217 13.0575 14.2358 13.0578 12.6157H21.4223C21.6014 12.6157 21.7733 12.5445 21.9 12.4178C22.0267 12.2911 22.0978 12.1193 22.0978 11.9401C22.0978 11.7609 22.0267 11.5891 21.9 11.4624C21.7733 11.3357 21.6014 11.2646 21.4223 11.2646H13.0223C12.931 9.86727 12.481 8.51712 11.7156 7.34455H16.0001C16.1114 7.33984 16.2203 7.31024 16.3188 7.25795C16.4172 7.20565 16.5027 7.13197 16.5689 7.04233L18.1689 4.57122ZM7.20005 12.2868C7.20005 9.389 8.38228 7.34455 9.44894 7.34455C10.5156 7.34455 11.7067 9.38011 11.7067 12.2868C11.7067 15.1934 10.5245 17.229 9.44894 17.229C8.37339 17.229 7.20005 15.2023 7.20005 12.2868ZM3.12894 23.5223C3.12894 20.6157 4.32005 18.5801 5.38672 18.5801C6.45339 18.5801 7.6445 20.6157 7.6445 23.5223C7.6445 26.429 6.45339 28.4646 5.38672 28.4646C4.32005 28.4646 3.12894 26.4379 3.12894 23.5223ZM25.4845 28.4646H7.65339C8.59413 26.9921 9.06531 25.2686 9.0045 23.5223C9.06531 21.7761 8.59413 20.0526 7.65339 18.5801H25.4845C27.2623 18.5801 28.6845 20.5446 28.8534 23.0246H18.2578C18.0787 23.0246 17.9068 23.0957 17.7801 23.2224C17.6535 23.3491 17.5823 23.5209 17.5823 23.7001C17.5823 23.8793 17.6535 24.0511 17.7801 24.1778C17.9068 24.3045 18.0787 24.3757 18.2578 24.3757H28.8089C28.5245 26.7046 27.1467 28.4646 25.4845 28.4646Z" fill="#0369A1"/>
<path d="M9.45788 10.9888C9.07566 10.9888 8.77344 11.5754 8.77344 12.2865C8.77344 12.9977 9.07566 13.5843 9.45788 13.5843C9.8401 13.5843 10.1334 13.0065 10.1334 12.2865C10.1334 11.5665 9.83122 10.9888 9.45788 10.9888Z" fill="#0369A1"/>
<path d="M6.07094 23.5221C6.07094 22.811 5.75983 22.2244 5.38649 22.2244C5.01316 22.2244 4.71094 22.811 4.71094 23.5221C4.71094 24.2333 5.01316 24.8199 5.38649 24.8199C5.75983 24.8199 6.07094 24.2421 6.07094 23.5221Z" fill="#0369A1"/>
<path d="M15.1113 23.051H13.7425C13.5633 23.051 13.3915 23.1222 13.2648 23.2489C13.1381 23.3756 13.0669 23.5474 13.0669 23.7266C13.0669 23.9057 13.1381 24.0776 13.2648 24.2043C13.3915 24.331 13.5633 24.4021 13.7425 24.4021H15.1113C15.2905 24.4021 15.4623 24.331 15.589 24.2043C15.7157 24.0776 15.7869 23.9057 15.7869 23.7266C15.7869 23.5474 15.7157 23.3756 15.589 23.2489C15.4623 23.1222 15.2905 23.051 15.1113 23.051Z" fill="#0369A1"/>
<path d="M24.1243 12.6599H25.4843C25.6635 12.6599 25.8353 12.5888 25.962 12.4621C26.0887 12.3354 26.1598 12.1636 26.1598 11.9844C26.1598 11.8052 26.0887 11.6334 25.962 11.5067C25.8353 11.38 25.6635 11.3088 25.4843 11.3088H24.1243C23.9451 11.3088 23.7733 11.38 23.6466 11.5067C23.5199 11.6334 23.4487 11.8052 23.4487 11.9844C23.4487 12.1636 23.5199 12.3354 23.6466 12.4621C23.7733 12.5888 23.9451 12.6599 24.1243 12.6599Z" fill="#0369A1"/>
</svg>
