<svg width="50" height="50" viewBox="0 0 50 50" fill="none" xmlns="http://www.w3.org/2000/svg">
<circle cx="25" cy="25" r="24.5" stroke="#003CFF"/>
<path d="M24.1645 36.8902L22.4063 36.1064V27.0469C22.4052 26.0899 22.0245 25.1725 21.3479 24.4959C20.6712 23.8192 19.7538 23.4386 18.7969 23.4375H15.7031C14.7462 23.4386 13.8288 23.8192 13.1521 24.4959C12.4755 25.1725 12.0949 26.0899 12.0938 27.0469V36.1064L10.3355 36.8902C10.2445 36.9301 10.1672 36.9959 10.1131 37.0792C10.0591 37.1626 10.0306 37.26 10.0313 37.3594V40.4531C10.0313 40.5899 10.0856 40.721 10.1823 40.8177C10.279 40.9144 10.4101 40.9688 10.5469 40.9688H23.9531C24.0899 40.9688 24.221 40.9144 24.3177 40.8177C24.4144 40.721 24.4688 40.5899 24.4688 40.4531V37.3594C24.4694 37.26 24.4409 37.1626 24.3869 37.0792C24.3328 36.9959 24.2555 36.9301 24.1645 36.8902ZM13.125 27.0469C13.125 26.3631 13.3966 25.7074 13.8801 25.2239C14.3636 24.7404 15.0194 24.4688 15.7031 24.4688H18.7969C19.1355 24.4688 19.4707 24.5354 19.7835 24.665C20.0963 24.7946 20.3805 24.9845 20.6199 25.2239C20.8593 25.4633 21.0492 25.7475 21.1788 26.0603C21.3083 26.3731 21.375 26.7083 21.375 27.0469V35.6475L19.5239 34.8277C19.4064 34.7765 19.274 34.771 19.1527 34.8122L18.9877 33.817C19.554 33.506 20.0265 33.0485 20.3557 32.4926C20.6849 31.9366 20.8589 31.3024 20.8594 30.6562V27.5625C20.8589 27.4776 20.8375 27.3941 20.7971 27.3194C20.7566 27.2447 20.6983 27.1812 20.6274 27.1345L19.0805 26.1033C19.023 26.064 18.9582 26.0369 18.8899 26.0237C18.8217 26.0104 18.7514 26.0111 18.6834 26.0259L14.0428 27.0572C13.9289 27.0843 13.8274 27.1488 13.7545 27.2404C13.6816 27.332 13.6415 27.4454 13.6406 27.5625V30.6562C13.6411 31.3024 13.8151 31.9366 14.1443 32.4926C14.4736 33.0485 14.946 33.506 15.5124 33.817L15.3474 34.8122C15.226 34.771 15.0936 34.7765 14.9761 34.8277L13.125 35.6475V27.0469ZM17.25 33.2344C16.5662 33.2344 15.9105 32.9628 15.427 32.4793C14.9435 31.9958 14.6719 31.34 14.6719 30.6562V27.975L18.6938 27.083L19.8281 27.8409V30.6562C19.8281 31.34 19.5565 31.9958 19.073 32.4793C18.5895 32.9628 17.9338 33.2344 17.25 33.2344ZM18.2452 35.6372L17.25 36.6323L16.2549 35.6372L16.4972 34.1831C16.993 34.2931 17.507 34.2931 18.0028 34.1831L18.2452 35.6372ZM23.4375 39.9375H11.0625V37.6945L15.0741 35.9105L16.8839 37.7255C16.9813 37.8221 17.1129 37.8763 17.25 37.8763C17.3872 37.8763 17.5187 37.8221 17.6161 37.7255L19.4259 35.9105L23.4375 37.6945V39.9375Z" fill="#003CFF"/>
<path d="M34.2656 29.1094H35.2969V30.1406H34.2656V29.1094Z" fill="#003CFF"/>
<path d="M32.2031 29.1094H33.2344V30.1406H32.2031V29.1094Z" fill="#003CFF"/>
<path d="M40.6645 36.8902L36.0239 34.8277C35.9064 34.7765 35.774 34.771 35.6527 34.8122L35.4877 33.817C36.054 33.506 36.5265 33.0485 36.8557 32.4926C37.1849 31.9366 37.3589 31.3024 37.3594 30.6562V28.4494C37.8357 28.1187 38.2251 27.6779 38.4944 27.1643C38.7638 26.6508 38.905 26.0799 38.9063 25.5V23.4375C38.9063 23.3007 38.8519 23.1696 38.7552 23.0729C38.6585 22.9762 38.5274 22.9219 38.3906 22.9219H32.2031C31.2462 22.923 30.3288 23.3036 29.6521 23.9802C28.9755 24.6569 28.5949 25.5743 28.5938 26.5312V27.5625C28.595 27.9724 28.7584 28.3651 29.0482 28.655C29.338 28.9448 29.7308 29.1082 30.1406 29.1094V30.6562C30.1411 31.3024 30.3151 31.9366 30.6443 32.4926C30.9736 33.0485 31.446 33.506 32.0124 33.817L31.8474 34.8122C31.726 34.771 31.5936 34.7765 31.4761 34.8277L26.8355 36.8902C26.7445 36.9301 26.6672 36.9959 26.6131 37.0792C26.5591 37.1626 26.5306 37.26 26.5313 37.3594V40.4531C26.5313 40.5899 26.5856 40.721 26.6823 40.8177C26.779 40.9144 26.9101 40.9688 27.0469 40.9688H40.4531C40.5899 40.9688 40.721 40.9144 40.8177 40.8177C40.9144 40.721 40.9688 40.5899 40.9688 40.4531V37.3594C40.9694 37.26 40.9409 37.1626 40.8869 37.0792C40.8328 36.9959 40.7555 36.9301 40.6645 36.8902ZM30.1406 27.5625V28.0781C30.0039 28.0781 29.8727 28.0238 29.776 27.9271C29.6793 27.8304 29.625 27.6993 29.625 27.5625V26.5312C29.625 25.8475 29.8966 25.1917 30.3801 24.7082C30.8636 24.2247 31.5194 23.9531 32.2031 23.9531H37.875V25.5C37.8738 26.1325 37.6387 26.7422 37.215 27.2119C37.1472 27.141 37.0618 27.0893 36.9675 27.0623L32.8425 26.0311C32.7229 26.0008 32.5963 26.0155 32.4867 26.0723L30.4242 27.1036C30.3387 27.1459 30.2668 27.2113 30.2167 27.2924C30.1666 27.3736 30.1402 27.4671 30.1406 27.5625ZM31.1719 30.6562V27.8822L32.7806 27.0778L36.3281 27.9647V30.6562C36.3281 31.34 36.0565 31.9958 35.573 32.4793C35.0895 32.9628 34.4338 33.2344 33.75 33.2344C33.0662 33.2344 32.4105 32.9628 31.927 32.4793C31.4435 31.9958 31.1719 31.34 31.1719 30.6562ZM34.7452 35.6372L33.75 36.6323L32.7549 35.6372L32.9972 34.1831C33.493 34.2931 34.007 34.2931 34.5028 34.1831L34.7452 35.6372ZM39.9375 39.9375H27.5625V37.6945L31.5741 35.9105L33.3839 37.7255C33.4813 37.8221 33.6129 37.8763 33.75 37.8763C33.8872 37.8763 34.0187 37.8221 34.1161 37.7255L35.9259 35.9105L39.9375 37.6945V39.9375Z" fill="#003CFF"/>
<path d="M17.7656 29.1094H18.7969V30.1406H17.7656V29.1094Z" fill="#003CFF"/>
<path d="M15.7031 29.1094H16.7344V30.1406H15.7031V29.1094Z" fill="#003CFF"/>
<path d="M26.9953 20.9233L27.15 19.6858L28.1364 20.4526C28.2356 20.5299 28.3597 20.5682 28.4852 20.5605C28.6108 20.5527 28.7292 20.4993 28.8181 20.4103L30.2066 19.0217C30.2956 18.9328 30.349 18.8144 30.3568 18.6889C30.3646 18.5633 30.3262 18.4393 30.2489 18.34L29.4806 17.3531L30.7181 17.1985C30.8439 17.1833 30.9597 17.1223 31.0434 17.0272C31.1271 16.9321 31.1728 16.8095 31.1719 16.6828V14.7235C31.1719 14.5978 31.1259 14.4765 31.0428 14.3823C30.9596 14.2881 30.8449 14.2275 30.7202 14.212L29.4827 14.0573L30.2474 13.0683C30.3247 12.9691 30.3631 12.845 30.3553 12.7195C30.3475 12.5939 30.2941 12.4755 30.2051 12.3866L28.8165 10.9981C28.7276 10.9091 28.6092 10.8557 28.4837 10.8479C28.3581 10.8401 28.2341 10.8785 28.1349 10.9558L27.15 11.7225L26.9953 10.485C26.9801 10.3592 26.9192 10.2435 26.8241 10.1598C26.729 10.0761 26.6064 10.0303 26.4797 10.0313H24.5203C24.3947 10.0313 24.2734 10.0772 24.1792 10.1604C24.085 10.2436 24.0244 10.3583 24.0088 10.483L23.8541 11.7205L22.8652 10.9558C22.7659 10.8785 22.6419 10.8401 22.5163 10.8479C22.3908 10.8557 22.2724 10.9091 22.1835 10.9981L20.7949 12.3866C20.706 12.4755 20.6525 12.5939 20.6448 12.7195C20.637 12.845 20.6753 12.9691 20.7527 13.0683L21.5194 14.0531L20.2819 14.2078C20.1561 14.223 20.0404 14.284 19.9567 14.3791C19.873 14.4742 19.8272 14.5968 19.8281 14.7235V16.6828C19.8282 16.8085 19.8741 16.9298 19.9573 17.024C20.0404 17.1182 20.1551 17.1787 20.2798 17.1943L21.5173 17.349L20.7527 18.338C20.6753 18.4372 20.637 18.5613 20.6448 18.6868C20.6525 18.8124 20.706 18.9307 20.7949 19.0196L22.1835 20.4082C22.2724 20.4972 22.3908 20.5506 22.5163 20.5584C22.6419 20.5662 22.7659 20.5278 22.8652 20.4505L23.85 19.6838L24.0047 20.9213C24.0199 21.047 24.0809 21.1628 24.176 21.2465C24.2711 21.3302 24.3936 21.3759 24.5203 21.375H26.4797C26.6061 21.376 26.7284 21.3305 26.8234 21.2473C26.9185 21.164 26.9797 21.0487 26.9953 20.9233ZM26.1796 19.1217L26.0249 20.3438H24.9736L24.8189 19.1217C24.8069 19.0262 24.7685 18.9359 24.7079 18.8611C24.6473 18.7863 24.567 18.7299 24.476 18.6984C24.3497 18.6543 24.2263 18.6027 24.1063 18.5437C24.0195 18.5011 23.9225 18.4837 23.8263 18.4935C23.7301 18.5034 23.6386 18.5401 23.5623 18.5994L22.5893 19.3563L21.8442 18.6113L22.6012 17.6383C22.6605 17.5619 22.6972 17.4705 22.7071 17.3743C22.7169 17.2781 22.6995 17.1811 22.6569 17.0943C22.5977 16.9749 22.546 16.852 22.5022 16.7261C22.4709 16.6348 22.4145 16.5541 22.3396 16.4932C22.2647 16.4323 22.1741 16.3937 22.0783 16.3817L20.8563 16.227V15.1767L22.0783 15.022C22.1741 15.01 22.2647 14.9714 22.3396 14.9105C22.4145 14.8496 22.4709 14.7689 22.5022 14.6776C22.546 14.5517 22.5977 14.4288 22.6569 14.3094C22.6995 14.2226 22.7169 14.1256 22.7071 14.0294C22.6972 13.9332 22.6605 13.8418 22.6012 13.7654L21.8458 12.794L22.5909 12.0489L23.5638 12.8058C23.6402 12.8652 23.7317 12.9019 23.8278 12.9117C23.924 12.9216 24.0211 12.9042 24.1078 12.8615C24.2272 12.8024 24.3502 12.7507 24.476 12.7068C24.5673 12.6755 24.648 12.6192 24.7089 12.5443C24.7698 12.4693 24.8085 12.3788 24.8204 12.283L24.9751 11.061H26.028L26.1827 12.283C26.1947 12.3788 26.2333 12.4693 26.2942 12.5443C26.3551 12.6192 26.4358 12.6755 26.5271 12.7068C26.653 12.7507 26.7759 12.8024 26.8953 12.8615C26.9821 12.9042 27.0791 12.9216 27.1753 12.9117C27.2715 12.9019 27.3629 12.8652 27.4393 12.8058L28.4123 12.0489L29.1573 12.794L28.3973 13.767C28.338 13.8433 28.3013 13.9348 28.2914 14.031C28.2816 14.1272 28.299 14.2242 28.3416 14.311C28.4008 14.4303 28.4525 14.5533 28.4963 14.6791C28.5276 14.7704 28.584 14.8512 28.6589 14.9121C28.7338 14.9729 28.8243 15.0116 28.9202 15.0235L30.1422 15.1782V16.2311L28.9202 16.3858C28.8243 16.3978 28.7338 16.4364 28.6589 16.4973C28.584 16.5582 28.5276 16.6389 28.4963 16.7303C28.4525 16.8561 28.4008 16.979 28.3416 17.0984C28.299 17.1852 28.2816 17.2822 28.2914 17.3784C28.3013 17.4746 28.338 17.5661 28.3973 17.6424L29.1542 18.6154L28.4092 19.3605L27.4362 18.6035C27.3599 18.5442 27.2684 18.5075 27.1722 18.4976C27.076 18.4878 26.979 18.5052 26.8922 18.5478C26.7722 18.6068 26.6487 18.6585 26.5225 18.7025C26.4321 18.7337 26.3521 18.7895 26.2916 18.8635C26.231 18.9375 26.1923 19.0269 26.1796 19.1217Z" fill="#003CFF"/>
<path d="M28.0781 15.7031C28.0781 15.1932 27.9269 14.6948 27.6436 14.2708C27.3603 13.8468 26.9577 13.5164 26.4866 13.3212C26.0155 13.1261 25.4971 13.0751 24.997 13.1745C24.4969 13.274 24.0375 13.5196 23.677 13.8801C23.3164 14.2407 23.0709 14.7001 22.9714 15.2002C22.8719 15.7003 22.923 16.2186 23.1181 16.6897C23.3133 17.1608 23.6437 17.5635 24.0677 17.8468C24.4916 18.13 24.9901 18.2813 25.5 18.2813C26.1835 18.2804 26.8388 18.0085 27.3221 17.5252C27.8054 17.0419 28.0773 16.3866 28.0781 15.7031ZM25.5 17.25C25.1941 17.25 24.895 17.1593 24.6406 16.9893C24.3862 16.8193 24.188 16.5777 24.0709 16.2951C23.9538 16.0124 23.9232 15.7014 23.9828 15.4013C24.0425 15.1013 24.1899 14.8257 24.4062 14.6093C24.6225 14.393 24.8982 14.2457 25.1982 14.186C25.4983 14.1263 25.8093 14.1569 26.092 14.274C26.3746 14.3911 26.6162 14.5893 26.7862 14.8437C26.9562 15.0981 27.0469 15.3972 27.0469 15.7031C27.0469 16.1134 26.8839 16.5068 26.5938 16.7969C26.3037 17.087 25.9103 17.25 25.5 17.25Z" fill="#003CFF"/>
<path d="M17.25 16.7344C17.25 16.5976 17.3043 16.4665 17.401 16.3698C17.4977 16.2731 17.6289 16.2188 17.7656 16.2188H18.7969V15.1875H17.7656C17.3554 15.1875 16.9619 15.3505 16.6718 15.6406C16.3817 15.9307 16.2188 16.3241 16.2188 16.7344V22.4062H17.25V16.7344Z" fill="#003CFF"/>
<path d="M33.75 16.7344V22.4062H34.7812V16.7344C34.7812 16.3241 34.6183 15.9307 34.3282 15.6406C34.0381 15.3505 33.6446 15.1875 33.2344 15.1875H32.2031V16.2188H33.2344C33.3711 16.2188 33.5023 16.2731 33.599 16.3698C33.6957 16.4665 33.75 16.5976 33.75 16.7344Z" fill="#003CFF"/>
</svg>
