<svg width="18" height="19" viewBox="0 0 18 19" fill="none" xmlns="http://www.w3.org/2000/svg">
<mask id="mask0_58169_35835" style="mask-type:alpha" maskUnits="userSpaceOnUse" x="0" y="0" width="18" height="19">
<rect y="0.926514" width="18" height="18" fill="#D9D9D9"/>
</mask>
<g mask="url(#mask0_58169_35835)">
<path d="M9 15.439C10.525 14.039 11.6563 12.7671 12.3938 11.6234C13.1313 10.4796 13.5 9.46401 13.5 8.57651C13.5 7.21401 13.0656 6.09839 12.1969 5.22964C11.3281 4.36089 10.2625 3.92651 9 3.92651C7.7375 3.92651 6.67188 4.36089 5.80313 5.22964C4.93438 6.09839 4.5 7.21401 4.5 8.57651C4.5 9.46401 4.86875 10.4796 5.60625 11.6234C6.34375 12.7671 7.475 14.039 9 15.439ZM9 16.9203C8.825 16.9203 8.65 16.889 8.475 16.8265C8.3 16.764 8.14375 16.6703 8.00625 16.5453C7.19375 15.7953 6.475 15.064 5.85 14.3515C5.225 13.639 4.70313 12.9484 4.28438 12.2796C3.86563 11.6109 3.54688 10.9671 3.32813 10.3484C3.10937 9.72964 3 9.13901 3 8.57651C3 6.70151 3.60313 5.20776 4.80938 4.09526C6.01563 2.98276 7.4125 2.42651 9 2.42651C10.5875 2.42651 11.9844 2.98276 13.1906 4.09526C14.3969 5.20776 15 6.70151 15 8.57651C15 9.13901 14.8906 9.72964 14.6719 10.3484C14.4531 10.9671 14.1344 11.6109 13.7156 12.2796C13.2969 12.9484 12.775 13.639 12.15 14.3515C11.525 15.064 10.8063 15.7953 9.99375 16.5453C9.85625 16.6703 9.7 16.764 9.525 16.8265C9.35 16.889 9.175 16.9203 9 16.9203ZM9 9.92651C9.4125 9.92651 9.76563 9.77964 10.0594 9.48589C10.3531 9.19214 10.5 8.83901 10.5 8.42651C10.5 8.01401 10.3531 7.66089 10.0594 7.36714C9.76563 7.07339 9.4125 6.92651 9 6.92651C8.5875 6.92651 8.23438 7.07339 7.94063 7.36714C7.64688 7.66089 7.5 8.01401 7.5 8.42651C7.5 8.83901 7.64688 9.19214 7.94063 9.48589C8.23438 9.77964 8.5875 9.92651 9 9.92651Z" fill="#E31B25"/>
</g>
</svg>
