<svg width="32" height="32" viewBox="0 0 32 32" fill="none" xmlns="http://www.w3.org/2000/svg">
<path d="M2.6665 24.0001C2.6665 21.9467 2.6665 20.9201 3.12917 20.1654C3.38784 19.7427 3.7425 19.3881 4.16517 19.1294C4.9185 18.6667 5.9465 18.6667 7.99984 18.6667C10.0532 18.6667 11.0798 18.6667 11.8345 19.1294C12.2572 19.3881 12.6118 19.7427 12.8705 20.1654C13.3332 20.9187 13.3332 21.9467 13.3332 24.0001C13.3332 26.0534 13.3332 27.0801 12.8705 27.8361C12.6118 28.2574 12.2572 28.6121 11.8345 28.8707C11.0812 29.3334 10.0532 29.3334 7.99984 29.3334C5.9465 29.3334 4.91984 29.3334 4.16517 28.8707C3.74297 28.6125 3.38794 28.258 3.12917 27.8361C2.6665 27.0801 2.6665 26.0534 2.6665 24.0001ZM18.6665 24.0001C18.6665 21.9467 18.6665 20.9201 19.1292 20.1654C19.3878 19.7427 19.7425 19.3881 20.1652 19.1294C20.9185 18.6667 21.9465 18.6667 23.9998 18.6667C26.0532 18.6667 27.0798 18.6667 27.8358 19.1294C28.2572 19.3881 28.6118 19.7427 28.8705 20.1654C29.3332 20.9187 29.3332 21.9467 29.3332 24.0001C29.3332 26.0534 29.3332 27.0801 28.8705 27.8361C28.6117 28.2575 28.2572 28.612 27.8358 28.8707C27.0798 29.3334 26.0532 29.3334 23.9998 29.3334C21.9465 29.3334 20.9198 29.3334 20.1652 28.8707C19.743 28.6125 19.3879 28.258 19.1292 27.8361C18.6665 27.0801 18.6665 26.0534 18.6665 24.0001ZM2.6665 8.00008C2.6665 5.94675 2.6665 4.92008 3.12917 4.16541C3.38784 3.74275 3.7425 3.38808 4.16517 3.12941C4.9185 2.66675 5.9465 2.66675 7.99984 2.66675C10.0532 2.66675 11.0798 2.66675 11.8345 3.12941C12.2572 3.38808 12.6118 3.74275 12.8705 4.16541C13.3332 4.91875 13.3332 5.94675 13.3332 8.00008C13.3332 10.0534 13.3332 11.0801 12.8705 11.8347C12.6118 12.2574 12.2572 12.6121 11.8345 12.8707C11.0812 13.3334 10.0532 13.3334 7.99984 13.3334C5.9465 13.3334 4.91984 13.3334 4.16517 12.8707C3.74282 12.6121 3.38778 12.2571 3.12917 11.8347C2.6665 11.0814 2.6665 10.0534 2.6665 8.00008ZM18.6665 8.00008C18.6665 5.94675 18.6665 4.92008 19.1292 4.16541C19.3878 3.74275 19.7425 3.38808 20.1652 3.12941C20.9185 2.66675 21.9465 2.66675 23.9998 2.66675C26.0532 2.66675 27.0798 2.66675 27.8358 3.12941C28.2572 3.38808 28.6118 3.74275 28.8705 4.16541C29.3332 4.91875 29.3332 5.94675 29.3332 8.00008C29.3332 10.0534 29.3332 11.0801 28.8705 11.8347C28.6118 12.2574 28.2572 12.6121 27.8358 12.8707C27.0798 13.3334 26.0532 13.3334 23.9998 13.3334C21.9465 13.3334 20.9198 13.3334 20.1652 12.8707C19.7428 12.6121 19.3878 12.2571 19.1292 11.8347C18.6665 11.0814 18.6665 10.0534 18.6665 8.00008Z" stroke="#0369A1" stroke-width="1.5" stroke-linecap="round" stroke-linejoin="round"/>
</svg>
