<svg width="18" height="19" viewBox="0 0 18 19" fill="none" xmlns="http://www.w3.org/2000/svg">
<mask id="mask0_58169_35832" style="mask-type:alpha" maskUnits="userSpaceOnUse" x="0" y="0" width="18" height="19">
<rect y="0.926514" width="18" height="18" fill="#D9D9D9"/>
</mask>
<g mask="url(#mask0_58169_35832)">
<path d="M8.25181 17.3889V16.6389C6.68931 16.4639 5.34868 15.817 4.22993 14.6982C3.11118 13.5795 2.46431 12.2389 2.28931 10.6764H1.53931C1.32681 10.6764 1.14868 10.6045 1.00493 10.4607C0.861182 10.317 0.789307 10.1389 0.789307 9.92637C0.789307 9.71387 0.861182 9.53574 1.00493 9.39199C1.14868 9.24824 1.32681 9.17637 1.53931 9.17637H2.28931C2.46431 7.61387 3.11118 6.27324 4.22993 5.15449C5.34868 4.03574 6.68931 3.38887 8.25181 3.21387V2.46387C8.25181 2.25137 8.32368 2.07324 8.46743 1.92949C8.61118 1.78574 8.78931 1.71387 9.00181 1.71387C9.21431 1.71387 9.39243 1.78574 9.53618 1.92949C9.67993 2.07324 9.75181 2.25137 9.75181 2.46387V3.21387C11.3143 3.38887 12.6549 4.03574 13.7737 5.15449C14.8924 6.27324 15.5393 7.61387 15.7143 9.17637H16.4643C16.6768 9.17637 16.8549 9.24824 16.9987 9.39199C17.1424 9.53574 17.2143 9.71387 17.2143 9.92637C17.2143 10.1389 17.1424 10.317 16.9987 10.4607C16.8549 10.6045 16.6768 10.6764 16.4643 10.6764H15.7143C15.5393 12.2389 14.8924 13.5795 13.7737 14.6982C12.6549 15.817 11.3143 16.4639 9.75181 16.6389V17.3889C9.75181 17.6014 9.67993 17.7795 9.53618 17.9232C9.39243 18.067 9.21431 18.1389 9.00181 18.1389C8.78931 18.1389 8.61118 18.067 8.46743 17.9232C8.32368 17.7795 8.25181 17.6014 8.25181 17.3889ZM9.00181 15.1764C10.4518 15.1764 11.6893 14.6639 12.7143 13.6389C13.7393 12.6139 14.2518 11.3764 14.2518 9.92637C14.2518 8.47637 13.7393 7.23887 12.7143 6.21387C11.6893 5.18887 10.4518 4.67637 9.00181 4.67637C7.55181 4.67637 6.31431 5.18887 5.28931 6.21387C4.26431 7.23887 3.75181 8.47637 3.75181 9.92637C3.75181 11.3764 4.26431 12.6139 5.28931 13.6389C6.31431 14.6639 7.55181 15.1764 9.00181 15.1764ZM9.00181 12.9264C8.17681 12.9264 7.47056 12.6326 6.88306 12.0451C6.29556 11.4576 6.00181 10.7514 6.00181 9.92637C6.00181 9.10137 6.29556 8.39512 6.88306 7.80762C7.47056 7.22012 8.17681 6.92637 9.00181 6.92637C9.82681 6.92637 10.5331 7.22012 11.1206 7.80762C11.7081 8.39512 12.0018 9.10137 12.0018 9.92637C12.0018 10.7514 11.7081 11.4576 11.1206 12.0451C10.5331 12.6326 9.82681 12.9264 9.00181 12.9264Z" fill="#018800"/>
</g>
</svg>
