<svg width="32" height="32" viewBox="0 0 32 32" fill="none" xmlns="http://www.w3.org/2000/svg">
<path d="M28.4599 22.39L26.6899 20.49C26.6672 20.468 26.6493 20.4416 26.6372 20.4123C26.6252 20.3831 26.6193 20.3516 26.6199 20.32V12.79C26.609 10.7863 25.8539 8.85806 24.5012 7.37974C23.1485 5.90142 21.2948 4.97845 19.2999 4.79001V4.59001C19.2999 4.15665 19.2146 3.72753 19.0487 3.32715C18.8829 2.92678 18.6398 2.56299 18.3334 2.25656C18.0269 1.95012 17.6632 1.70705 17.2628 1.54121C16.8624 1.37537 16.4333 1.29001 15.9999 1.29001C15.5666 1.29001 15.1375 1.37537 14.7371 1.54121C14.3367 1.70705 13.9729 1.95012 13.6665 2.25656C13.36 2.56299 13.117 2.92678 12.9511 3.32715C12.7853 3.72753 12.6999 4.15665 12.6999 4.59001V4.79001C10.705 4.97845 8.85132 5.90142 7.49866 7.37974C6.146 8.85806 5.39089 10.7863 5.37993 12.79V20.32C5.38058 20.3516 5.3747 20.3831 5.36266 20.4123C5.35061 20.4416 5.33266 20.468 5.30993 20.49L3.54993 22.39C3.14033 22.8236 2.88047 23.3771 2.80848 23.9692C2.73649 24.5613 2.85616 25.1609 3.14993 25.68C3.40307 26.1166 3.76835 26.4775 4.20792 26.7255C4.64749 26.9734 5.14535 27.0992 5.64993 27.09H11.6499C11.8211 28.1147 12.3501 29.0455 13.143 29.7169C13.9358 30.3882 14.941 30.7567 15.9799 30.7567C17.0188 30.7567 18.0241 30.3882 18.8169 29.7169C19.6097 29.0455 20.1388 28.1147 20.3099 27.09H26.3099C26.8608 27.1053 27.4038 26.9571 27.8706 26.6641C28.3373 26.3711 28.7068 25.9465 28.9325 25.4437C29.1582 24.941 29.2299 24.3827 29.1387 23.8392C29.0475 23.2958 28.7974 22.7915 28.4199 22.39H28.4599ZM15.9999 29.25C15.3595 29.248 14.7375 29.0354 14.2297 28.6451C13.722 28.2548 13.3566 27.7084 13.1899 27.09H18.8099C18.6432 27.7084 18.2779 28.2548 17.7701 28.6451C17.2624 29.0354 16.6404 29.248 15.9999 29.25ZM27.5299 25C27.4072 25.2006 27.2331 25.3648 27.0256 25.4755C26.8182 25.5863 26.5849 25.6396 26.3499 25.63H5.64993C5.39179 25.6436 5.13552 25.5794 4.91434 25.4456C4.69317 25.3118 4.51729 25.1146 4.40951 24.8797C4.30173 24.6447 4.26703 24.3828 4.3099 24.1279C4.35277 23.8729 4.47123 23.6368 4.64993 23.45L6.41993 21.55C6.7195 21.2258 6.88713 20.8014 6.88993 20.36V12.79C6.88993 11.0466 7.5818 9.37448 8.81363 8.14078C10.0455 6.90708 11.7165 6.21266 13.4599 6.21001C13.5588 6.21135 13.6569 6.19287 13.7485 6.15566C13.8401 6.11844 13.9233 6.06325 13.9933 5.99334C14.0632 5.92342 14.1184 5.84021 14.1556 5.74861C14.1928 5.657 14.2113 5.55887 14.2099 5.46001V4.55001C14.2099 4.07262 14.3996 3.61478 14.7371 3.27722C15.0747 2.93965 15.5325 2.75001 16.0099 2.75001C16.4873 2.75001 16.9452 2.93965 17.2827 3.27722C17.6203 3.61478 17.8099 4.07262 17.8099 4.55001V5.46001C17.8086 5.55887 17.8271 5.657 17.8643 5.74861C17.9015 5.84021 17.9567 5.92342 18.0266 5.99334C18.0965 6.06325 18.1797 6.11844 18.2713 6.15566C18.3629 6.19287 18.4611 6.21135 18.5599 6.21001C20.3033 6.21266 21.9744 6.90708 23.2062 8.14078C24.4381 9.37448 25.1299 11.0466 25.1299 12.79V20.32C25.1327 20.7614 25.3004 21.1858 25.5999 21.51L27.3699 23.42C27.569 23.6278 27.6929 23.8962 27.7219 24.1825C27.7509 24.4688 27.6833 24.7565 27.5299 25Z" fill="#2B2B2B"/>
</svg>
