<svg width="21" height="21" viewBox="0 0 21 21" fill="none" xmlns="http://www.w3.org/2000/svg">
<path fill-rule="evenodd" clip-rule="evenodd" d="M10.4991 2.24946C10.0292 2.24946 9.5966 2.36597 9.12358 2.5617C8.66609 2.75122 8.13481 3.03006 7.47383 3.37726L5.86757 4.22C5.0559 4.64564 4.40734 4.98662 3.9048 5.32139C3.38595 5.66858 2.98516 6.03364 2.69389 6.52841C2.4034 7.02162 2.27291 7.55601 2.21 8.19214C2.14941 8.80963 2.14941 9.56849 2.14941 10.5239V10.6745C2.14941 11.6299 2.14941 12.3888 2.21 13.0062C2.27291 13.6432 2.40418 14.1768 2.69389 14.67C2.98516 15.1648 3.38517 15.5298 3.90558 15.877C4.40656 16.2118 5.0559 16.5527 5.86757 16.9784L7.47383 17.8211C8.13481 18.1683 8.66609 18.4472 9.12358 18.6367C9.59738 18.8324 10.0292 18.9489 10.4991 18.9489C10.9691 18.9489 11.4017 18.8324 11.8747 18.6367C12.3322 18.4472 12.8635 18.1683 13.5245 17.8211L15.1307 16.9792C15.9424 16.5527 16.591 16.2118 17.0927 15.877C17.6131 15.5298 18.0131 15.1648 18.3044 14.67C18.5949 14.1768 18.7254 13.6424 18.7883 13.0062C18.8489 12.3888 18.8489 11.6299 18.8489 10.6753V10.5231C18.8489 9.56849 18.8489 8.80963 18.7883 8.19214C18.7254 7.55523 18.5941 7.02162 18.3044 6.52841C18.0131 6.03364 17.6131 5.66858 17.0927 5.32139C16.5917 4.98662 15.9424 4.64564 15.1307 4.22L13.5245 3.37726C12.8635 3.03006 12.3322 2.75122 11.8747 2.5617C11.4009 2.36597 10.9691 2.24946 10.4991 2.24946ZM7.99034 4.42117C8.68162 4.05844 9.1663 3.80523 9.56864 3.63901C9.9601 3.47668 10.2358 3.41454 10.4991 3.41454C10.7632 3.41454 11.0382 3.47668 11.4297 3.63901C11.832 3.80523 12.3159 4.05844 13.0072 4.42117L14.5606 5.23672C15.4072 5.68023 16.0014 5.99325 16.4465 6.28996C16.6655 6.43675 16.8372 6.57268 16.977 6.70938L14.3897 8.00262L7.78762 4.52758L7.99034 4.42117ZM6.57283 5.16527L6.43768 5.23672C5.59106 5.68023 4.99687 5.99325 4.55258 6.28996C4.36315 6.41305 4.18556 6.55346 4.02208 6.70938L10.4991 9.9483L13.1066 8.64341L6.73284 5.28954C6.67306 5.25715 6.61901 5.21516 6.57283 5.16527ZM3.46052 7.73077C3.42168 7.89699 3.39139 8.08573 3.36964 8.30554C3.31527 8.86012 3.31449 9.5615 3.31449 10.5534V10.6442C3.31449 11.6369 3.31449 12.3383 3.36964 12.8921C3.42323 13.4334 3.52498 13.7837 3.69819 14.0789C3.87062 14.3717 4.11995 14.6195 4.55258 14.9084C4.99687 15.2051 5.59106 15.5182 6.43768 15.9617L7.99112 16.7772C8.6824 17.1399 9.1663 17.3932 9.56864 17.5594C9.69498 17.6117 9.81097 17.6544 9.91661 17.6875V10.9588L3.46052 7.73077ZM11.0817 17.6868C11.1873 17.6541 11.3033 17.6117 11.4297 17.5594C11.832 17.3932 12.3159 17.1399 13.0072 16.7772L14.5606 15.9617C15.4072 15.5174 16.0014 15.2051 16.4465 14.9084C16.8783 14.6195 17.1277 14.3717 17.3009 14.0789C17.4741 13.7837 17.5751 13.4342 17.6287 12.8921C17.683 12.3383 17.6838 11.6369 17.6838 10.645V10.5541C17.6838 9.5615 17.6838 8.86012 17.6287 8.30632C17.6104 8.11302 17.58 7.92106 17.5378 7.73155L14.9653 9.01702V11.3759C14.9653 11.5304 14.9039 11.6786 14.7947 11.7878C14.6854 11.8971 14.5372 11.9585 14.3827 11.9585C14.2282 11.9585 14.0801 11.8971 13.9708 11.7878C13.8616 11.6786 13.8002 11.5304 13.8002 11.3759V9.60033L11.0817 10.9596V17.6868Z" fill="#003CFF"/>
</svg>
