<svg width="16" height="16" viewBox="0 0 16 16" fill="none" xmlns="http://www.w3.org/2000/svg">
<path d="M8 14L13.4207 11.1946C13.6313 11.0853 13.7367 11.0313 13.8133 10.9506C13.8812 10.8799 13.9327 10.7949 13.964 10.702C14 10.596 14 10.478 14 10.2406V5.02198M8 14L2.57933 11.1946C2.36867 11.0853 2.26333 11.0313 2.18667 10.9506C2.11876 10.8799 2.06732 10.7949 2.036 10.702C2 10.596 2 10.4773 2 10.2393V5.02198M8 14V7.95798M14 5.02198L8 7.95798M14 5.02198L11 3.46865M2 5.02198L7.51267 2.16932C7.69133 2.07732 7.78 2.03065 7.874 2.01265C7.95724 1.99663 8.04276 1.99663 8.126 2.01265C8.21933 2.03065 8.30867 2.07732 8.48667 2.16932L11 3.46865M2 5.02198L5 6.49065M8 7.95798L5 6.48998M11 3.46865L5 6.48998M5 6.48998V7.95798" stroke="#2B2B2B" stroke-linecap="round" stroke-linejoin="round"/>
</svg>
