<svg width="32" height="33" viewBox="0 0 32 33" fill="none" xmlns="http://www.w3.org/2000/svg">
<g clip-path="url(#clip0_59732_7887)">
<path d="M18.3464 27.0176L14 29.1909V17C14 16.7236 13.7761 16.5 13.5 16.5C13.2239 16.5 13 16.7236 13 17V29.1909L1 23.1909V8.30908L4.5 10.0591V15C4.5 15.1895 4.60693 15.3623 4.77637 15.4473L7.77637 16.9473C7.84692 16.9824 7.92358 17 8 17C8.09131 17 8.18262 16.9751 8.26294 16.9253C8.41016 16.834 8.5 16.6733 8.5 16.5V12.0591L13.2764 14.4473C13.3467 14.4824 13.4233 14.5 13.5 14.5C13.5767 14.5 13.6533 14.4824 13.7236 14.4473L26 8.30908V15.0649C26 15.3413 26.2239 15.5649 26.5 15.5649C26.7761 15.5649 27 15.3413 27 15.0649V7.5C27 7.31055 26.8931 7.1377 26.7236 7.05273L13.7236 0.552734C13.583 0.482422 13.417 0.482422 13.2764 0.552734L0.276367 7.05273C0.106934 7.1377 0 7.31055 0 7.5V23.5C0 23.6895 0.106934 23.8623 0.276367 23.9473L13.2764 30.4473C13.2807 30.4495 13.2859 30.4485 13.2903 30.4506C13.3545 30.4806 13.4244 30.5 13.5 30.5C13.5756 30.5 13.6455 30.4806 13.7097 30.4506C13.7141 30.4485 13.7193 30.4495 13.7236 30.4473L18.7937 27.9121C19.0408 27.7886 19.1409 27.4883 19.0173 27.2412C18.8938 26.9946 18.594 26.895 18.3464 27.0176ZM8 10.6909L6.11804 9.74994L18 3.80908L19.882 4.75006L8 10.6909ZM7.5 15.6909L5.5 14.6909V10.5591L7.5 11.5591V15.6909ZM13.5 13.4409L9.11816 11.25L21 5.30908L25.3818 7.5L13.5 13.4409ZM13.5 1.55908L16.8818 3.25L5 9.19092L1.61816 7.5L13.5 1.55908Z" fill="#003CFF"/>
<path d="M7.72363 21.0527C7.5686 20.9755 7.38428 20.9833 7.23706 21.0747C7.08984 21.166 7 21.3266 7 21.4999V24.4999C7 24.6894 7.10693 24.8622 7.27637 24.9472L11.2764 26.9472C11.3469 26.9824 11.4236 26.9999 11.5 26.9999C11.5913 26.9999 11.6826 26.975 11.7629 26.9252C11.9102 26.8339 12 26.6733 12 26.4999V23.4999C12 23.3105 11.8931 23.1376 11.7236 23.0527L7.72363 21.0527ZM11 25.6909L8 24.1909V22.309L11 23.809V25.6909Z" fill="#003CFF"/>
<path d="M25.5 16.5C21.9158 16.5 19 19.416 19 23C19 28.7212 24.9929 32.2832 25.248 32.4321C25.3259 32.4775 25.4128 32.5 25.5 32.5C25.5872 32.5 25.6741 32.4775 25.752 32.4321C26.0071 32.2832 32 28.7212 32 23C32 19.416 29.0842 16.5 25.5 16.5ZM25.5 31.4087C24.3899 30.6807 20 27.5151 20 23C20 19.9673 22.4673 17.5 25.5 17.5C28.5327 17.5 31 19.9673 31 23C31 27.5151 26.6101 30.6807 25.5 31.4087Z" fill="#003CFF"/>
<path d="M25.5 19.5C23.5701 19.5 22 21.0703 22 23C22 24.9297 23.5701 26.5 25.5 26.5C27.4299 26.5 29 24.9297 29 23C29 21.0703 27.4299 19.5 25.5 19.5ZM25.5 25.5C24.1216 25.5 23 24.3784 23 23C23 21.6216 24.1216 20.5 25.5 20.5C26.8784 20.5 28 21.6216 28 23C28 24.3784 26.8784 25.5 25.5 25.5Z" fill="#003CFF"/>
</g>
<defs>
<clipPath id="clip0_59732_7887">
<rect width="32" height="32" fill="white" transform="translate(0 0.5)"/>
</clipPath>
</defs>
</svg>
