<svg width="44" height="43" viewBox="0 0 44 43" fill="none" xmlns="http://www.w3.org/2000/svg">
<rect width="44" height="43" rx="21.5" fill="#0000FF"/>
<path d="M18.5638 25.2204C17.1732 23.8298 16.083 22.1799 15.2934 20.2707C14.5038 18.3615 14.1444 16.3227 14.2151 14.1542C14.2151 13.8713 14.3094 13.6356 14.4979 13.4471C14.6865 13.2585 14.9222 13.1642 15.205 13.1642L18.4224 13.1996C18.6817 13.1996 18.9026 13.2791 19.0853 13.4382C19.268 13.5973 19.377 13.8006 19.4123 14.0481L19.9073 17.6544C19.9309 17.8194 19.9191 17.9726 19.872 18.114C19.8248 18.2554 19.7423 18.385 19.6245 18.5029L17.6092 20.5182C17.9156 21.1074 18.2633 21.679 18.6522 22.2329C19.0411 22.7868 19.483 23.3112 19.978 23.8062C20.473 24.3012 20.9974 24.7431 21.5513 25.132C22.1052 25.5209 22.6768 25.8686 23.2661 26.175L25.2813 24.1598C25.3992 24.0419 25.5288 23.9594 25.6702 23.9123C25.8116 23.8651 25.9649 23.8533 26.1298 23.8769L29.7361 24.3719C29.9836 24.4072 30.1869 24.5163 30.346 24.6989C30.5051 24.8816 30.5846 25.1026 30.5846 25.3618L30.62 28.5792C30.62 28.862 30.5257 29.0977 30.3371 29.2863C30.1486 29.4748 29.9129 29.5691 29.63 29.5691C27.4733 29.6516 25.4375 29.2951 23.5224 28.4996C21.6073 27.7041 19.9544 26.6111 18.5638 25.2204Z" fill="white"/>
</svg>
