<svg width="50" height="50" viewBox="0 0 50 50" fill="none" xmlns="http://www.w3.org/2000/svg">
<circle cx="25" cy="25" r="24.5" stroke="#003CFF"/>
<path d="M33.5312 14.4375H16.4688C15.9302 14.4381 15.4139 14.6524 15.0332 15.0332C14.6524 15.4139 14.4381 15.9302 14.4375 16.4688V33.5312C14.4381 34.0698 14.6524 34.5861 15.0332 34.9668C15.4139 35.3476 15.9302 35.5619 16.4688 35.5625H33.5312C34.0698 35.5619 34.5861 35.3476 34.9668 34.9668C35.3476 34.5861 35.5619 34.0698 35.5625 33.5312V16.4688C35.5619 15.9302 35.3476 15.4139 34.9668 15.0332C34.5861 14.6524 34.0698 14.4381 33.5312 14.4375ZM27.8438 15.25V20.125C27.8438 20.2327 27.8009 20.3361 27.7248 20.4123C27.6486 20.4884 27.5452 20.5312 27.4375 20.5312H22.5625C22.4548 20.5312 22.3514 20.4884 22.2752 20.4123C22.1991 20.3361 22.1562 20.2327 22.1562 20.125V15.25H27.8438ZM34.75 33.5312C34.75 33.8545 34.6216 34.1645 34.393 34.393C34.1645 34.6216 33.8545 34.75 33.5312 34.75H16.4688C16.1455 34.75 15.8355 34.6216 15.607 34.393C15.3784 34.1645 15.25 33.8545 15.25 33.5312V16.4688C15.25 16.1455 15.3784 15.8355 15.607 15.607C15.8355 15.3784 16.1455 15.25 16.4688 15.25H21.3438V20.125C21.3438 20.4482 21.4722 20.7582 21.7007 20.9868C21.9293 21.2153 22.2393 21.3438 22.5625 21.3438H27.4375C27.7607 21.3438 28.0707 21.2153 28.2993 20.9868C28.5278 20.7582 28.6562 20.4482 28.6562 20.125V15.25H33.5312C33.8545 15.25 34.1645 15.3784 34.393 15.607C34.6216 15.8355 34.75 16.1455 34.75 16.4688V33.5312ZM22.1562 32.7188C22.1562 32.8265 22.1134 32.9298 22.0373 33.006C21.9611 33.0822 21.8577 33.125 21.75 33.125H17.2812C17.1735 33.125 17.0702 33.0822 16.994 33.006C16.9178 32.9298 16.875 32.8265 16.875 32.7188C16.875 32.611 16.9178 32.5077 16.994 32.4315C17.0702 32.3553 17.1735 32.3125 17.2812 32.3125H21.75C21.8577 32.3125 21.9611 32.3553 22.0373 32.4315C22.1134 32.5077 22.1562 32.611 22.1562 32.7188ZM22.1562 30.2812C22.1562 30.389 22.1134 30.4923 22.0373 30.5685C21.9611 30.6447 21.8577 30.6875 21.75 30.6875H17.2812C17.1735 30.6875 17.0702 30.6447 16.994 30.5685C16.9178 30.4923 16.875 30.389 16.875 30.2812C16.875 30.1735 16.9178 30.0702 16.994 29.994C17.0702 29.9178 17.1735 29.875 17.2812 29.875H21.75C21.8577 29.875 21.9611 29.9178 22.0373 29.994C22.1134 30.0702 22.1562 30.1735 22.1562 30.2812ZM31.9062 29.0625H30.2812C29.958 29.0625 29.648 29.1909 29.4195 29.4195C29.1909 29.648 29.0625 29.958 29.0625 30.2812V31.9062C29.0625 32.2295 29.1909 32.5395 29.4195 32.768C29.648 32.9966 29.958 33.125 30.2812 33.125H31.9062C32.2295 33.125 32.5395 32.9966 32.768 32.768C32.9966 32.5395 33.125 32.2295 33.125 31.9062V30.2812C33.125 29.958 32.9966 29.648 32.768 29.4195C32.5395 29.1909 32.2295 29.0625 31.9062 29.0625ZM32.3125 31.9062C32.3125 32.014 32.2697 32.1173 32.1935 32.1935C32.1173 32.2697 32.014 32.3125 31.9062 32.3125H30.2812C30.1735 32.3125 30.0702 32.2697 29.994 32.1935C29.9178 32.1173 29.875 32.014 29.875 31.9062V30.2812C29.875 30.1735 29.9178 30.0702 29.994 29.994C30.0702 29.9178 30.1735 29.875 30.2812 29.875H31.9062C32.014 29.875 32.1173 29.9178 32.1935 29.994C32.2697 30.0702 32.3125 30.1735 32.3125 30.2812V31.9062Z" fill="#003CFF"/>
</svg>
