<svg width="16" height="20" viewBox="0 0 16 20" fill="none" xmlns="http://www.w3.org/2000/svg">
<path d="M9.09854 14.1827H6.90197C5.82564 14.1827 4.95312 13.3101 4.95312 12.2338V8.22656H11.0474V12.2338C11.0474 13.3101 10.1749 14.1827 9.09854 14.1827Z" stroke="#003CFF" stroke-width="1.4" stroke-miterlimit="10" stroke-linecap="round" stroke-linejoin="round"/>
<path d="M9.72489 8.22636H6.27734V7.1769C6.27734 6.22486 7.04912 5.45312 8.00112 5.45312C8.95315 5.45312 9.72489 6.2249 9.72489 7.1769V8.22636Z" stroke="#003CFF" stroke-width="1.4" stroke-miterlimit="10" stroke-linecap="round" stroke-linejoin="round"/>
<path d="M13.2984 15.7429C14.0582 14.8397 14.4975 13.6833 14.4975 12.4579V5.23668C14.4975 4.62486 14.0684 4.09638 13.4685 3.96913C12.0384 3.66597 10.6791 3.09361 9.46294 2.28256L8.72286 1.78895C8.50899 1.64639 8.25771 1.57031 8.00068 1.57031C7.74366 1.57031 7.49238 1.64639 7.27851 1.78895L6.53843 2.2826C5.32226 3.09365 3.96294 3.66601 2.53291 3.96917C1.93294 4.09641 1.50391 4.62486 1.50391 5.23671V12.4579C1.50391 14.4595 2.67579 16.2769 4.50214 17.1075L7.46173 18.4535C7.63099 18.5305 7.81478 18.5703 8.00072 18.5703C8.18666 18.5703 8.37045 18.5305 8.53971 18.4535L10.2572 17.6724" stroke="#003CFF" stroke-width="1.4" stroke-miterlimit="10" stroke-linecap="round" stroke-linejoin="round"/>
</svg>
