<svg width="25" height="27" viewBox="0 0 25 27" fill="none" xmlns="http://www.w3.org/2000/svg">
<path d="M12.6538 1.02539C17.5303 1.02539 21.4837 4.97807 21.4839 9.85449V11.2568C22.2112 11.2709 22.8209 11.6789 23.2476 12.2412C23.6814 12.8131 23.9341 13.5541 23.9341 14.2354V18.0635C23.9341 18.685 23.7188 19.2174 23.3267 19.6055C22.9448 19.9834 22.4021 20.2163 21.7466 20.2715L21.1909 21.0908L21.188 21.0957C20.6112 21.8626 19.8628 22.4842 19.0034 22.9111C18.1687 23.3258 17.2511 23.5428 16.3198 23.5518C16.2189 24.0956 15.961 24.5985 15.5737 24.9951C14.9741 25.6087 14.1562 25.9607 13.2983 25.9746H13.2974C11.5628 25.9747 10.1518 24.5782 10.1343 22.8438V22.8418C10.146 21.3625 11.1907 20.0926 12.6401 19.7969C14.3075 19.4568 15.9341 20.5104 16.3159 22.1582C17.0275 22.1499 17.7286 21.9835 18.3667 21.667C19.0021 21.3518 19.5573 20.8971 19.9937 20.3389H19.48C19.4666 20.3383 19.4532 20.3374 19.4399 20.3359C19.1121 20.3009 18.8635 20.0386 18.8335 19.7227V12.0908C18.8335 11.8891 18.8918 11.6848 19.0005 11.5283C19.1099 11.3708 19.2758 11.2559 19.4849 11.2559H20.0591V9.85449C20.0589 5.7652 16.7431 2.4502 12.6538 2.4502C8.56455 2.45028 5.24969 5.76526 5.24951 9.85449V11.2559H5.82275C6.03178 11.2559 6.19772 11.3709 6.30713 11.5283C6.41579 11.6848 6.4741 11.8891 6.47412 12.0908V19.585L6.47705 19.625C6.49478 20.0012 6.20388 20.3212 5.82764 20.3389H3.55518C3.54434 20.3387 3.53316 20.3382 3.52197 20.3379C2.13096 20.3023 1.03155 19.146 1.06689 17.7549V13.9287C1.06696 12.5042 2.14476 11.2561 3.55615 11.2559H3.82373V9.85449C3.82394 4.97812 7.77735 1.02548 12.6538 1.02539ZM13.2661 21.1348C12.3232 21.1352 11.5587 21.8999 11.5591 22.8428C11.5917 23.7835 12.356 24.5331 13.2974 24.5488C13.5311 24.5472 13.7623 24.4988 13.9761 24.4043C14.19 24.3098 14.3819 24.1719 14.5405 24L14.5425 23.998C14.6901 23.8469 14.8052 23.6666 14.8794 23.4688C14.9536 23.2708 14.986 23.0587 14.9741 22.8477V22.8408C14.9736 21.8981 14.2088 21.1345 13.2661 21.1348ZM20.2583 18.9141H21.4448C21.6209 18.9141 21.8927 18.8832 22.1167 18.7607C22.3333 18.6423 22.5091 18.4371 22.5093 18.0645V14.2354C22.5093 13.9033 22.393 13.5077 22.1958 13.1973C21.997 12.8843 21.7319 12.6807 21.4448 12.6807H20.2583V18.9141ZM3.55615 12.6807C2.95425 12.6809 2.49271 13.2615 2.49268 13.9287V17.7627L2.4917 17.793C2.47712 18.3972 2.95478 18.8993 3.55908 18.9141H5.04932V12.6807H3.55615Z" fill="#2B2B2B" stroke="#2B2B2B" stroke-width="0.2"/>
</svg>
