<svg width="24" height="24" viewBox="0 0 24 24" fill="none" xmlns="http://www.w3.org/2000/svg">
<g clip-path="url(#clip0_57445_11997)">
<path d="M6.0927 12.5154V8.63108C6.10423 7.86756 6.26631 7.11381 6.56965 6.41304C6.87299 5.71226 7.31163 5.07823 7.86043 4.54727C8.40922 4.01631 9.0574 3.59885 9.76781 3.31882C10.4782 3.0388 11.2369 2.9017 12.0004 2.91539C12.7639 2.9017 13.5226 3.0388 14.233 3.31882C14.9434 3.59885 15.5916 4.01631 16.1404 4.54727C16.6892 5.07823 17.1278 5.71226 17.4311 6.41304C17.7345 7.11381 17.8965 7.86756 17.9081 8.63108V12.5154M14.9542 20.2692C15.7376 20.2692 16.489 19.958 17.0429 19.4041C17.5969 18.8501 17.9081 18.0988 17.9081 17.3154V13.9923M14.9542 20.2692C14.9542 20.7589 14.7597 21.2284 14.4135 21.5747C14.0673 21.9209 13.5977 22.1154 13.1081 22.1154H10.8927C10.4031 22.1154 9.93349 21.9209 9.58727 21.5747C9.24105 21.2284 9.04654 20.7589 9.04654 20.2692C9.04654 19.7796 9.24105 19.31 9.58727 18.9638C9.93349 18.6176 10.4031 18.4231 10.8927 18.4231H13.1081C13.5977 18.4231 14.0673 18.6176 14.4135 18.9638C14.7597 19.31 14.9542 19.7796 14.9542 20.2692ZM3.87731 10.3H5.35424C5.55009 10.3 5.73792 10.3778 5.87641 10.5163C6.0149 10.6548 6.0927 10.8426 6.0927 11.0385V15.4692C6.0927 15.6651 6.0149 15.8529 5.87641 15.9914C5.73792 16.1299 5.55009 16.2077 5.35424 16.2077H3.87731C3.48561 16.2077 3.10995 16.0521 2.83297 15.7751C2.55599 15.4981 2.40039 15.1225 2.40039 14.7308V11.7769C2.40039 11.3852 2.55599 11.0096 2.83297 10.7326C3.10995 10.4556 3.48561 10.3 3.87731 10.3ZM20.1235 16.2077H18.6465C18.4507 16.2077 18.2629 16.1299 18.1244 15.9914C17.9859 15.8529 17.9081 15.6651 17.9081 15.4692V11.0385C17.9081 10.8426 17.9859 10.6548 18.1244 10.5163C18.2629 10.3778 18.4507 10.3 18.6465 10.3H20.1235C20.5152 10.3 20.8908 10.4556 21.1678 10.7326C21.4448 11.0096 21.6004 11.3852 21.6004 11.7769V14.7308C21.6004 15.1225 21.4448 15.4981 21.1678 15.7751C20.8908 16.0521 20.5152 16.2077 20.1235 16.2077Z" stroke="#545759" stroke-width="1.5" stroke-linecap="round" stroke-linejoin="round"/>
</g>
<defs>
<clipPath id="clip0_57445_11997">
<rect width="24" height="24" fill="white"/>
</clipPath>
</defs>
</svg>
