<svg width="54" height="38" viewBox="0 0 54 38" fill="none" xmlns="http://www.w3.org/2000/svg">
<path d="M16.25 0.000244141H37.8162C41.6574 0.000244141 45.1591 2.20044 46.8258 5.66117L51.1603 14.6612C52.4808 17.4032 52.4808 20.5973 51.1603 23.3393L46.8258 32.3393C45.1591 35.8001 41.6574 38.0002 37.8162 38.0002H16.25V0.000244141Z" fill="#003CFF" fill-opacity="0.5"/>
<path d="M8.25 0.000244141H29.8162C33.6574 0.000244141 37.1591 2.20044 38.8258 5.66117L43.1603 14.6612C44.4808 17.4032 44.4808 20.5973 43.1603 23.3393L38.8258 32.3393C37.1591 35.8001 33.6574 38.0002 29.8162 38.0002H8.25V0.000244141Z" fill="#003CFF" fill-opacity="0.5"/>
<path d="M0.25 0.000244141H21.8162C25.6574 0.000244141 29.1591 2.20044 30.8258 5.66117L35.1603 14.6612C36.4808 17.4032 36.4808 20.5973 35.1603 23.3393L30.8258 32.3393C29.1591 35.8001 25.6574 38.0002 21.8162 38.0002H0.25V0.000244141Z" fill="#003CFF"/>
</svg>
