<svg width="25" height="25" viewBox="0 0 25 25" fill="none" xmlns="http://www.w3.org/2000/svg">
<g clip-path="url(#clip0_66358_3696)">
<path d="M8.23114 3.80136C8.12436 3.53441 7.86585 3.35938 7.57831 3.35938C7.29078 3.35938 7.03227 3.53441 6.92549 3.80136L4.11299 10.8326C3.96875 11.1932 4.14411 11.6024 4.50463 11.7466C4.86514 11.8909 5.27441 11.7154 5.4186 11.3549L6.08558 9.6875H9.071L9.73799 11.3549C9.84796 11.6298 10.112 11.7971 10.391 11.7971C10.8868 11.7971 11.2285 11.2948 11.0436 10.8326L8.23114 3.80136ZM6.64808 8.28125L7.57831 5.95573L8.50855 8.28125H6.64808Z" fill="#2B2B2B"/>
<path d="M23.7969 10.3906H14.6094V1.20312C14.6094 0.814812 14.2946 0.5 13.9062 0.5H1.20312C0.814812 0.5 0.5 0.814812 0.5 1.20312V13.8594C0.5 14.2477 0.814812 14.5625 1.20312 14.5625H9.03125V23.7969C9.03125 24.1852 9.34606 24.5 9.73438 24.5H23.7969C24.1852 24.5 24.5 24.1852 24.5 23.7969V11.0938C24.5 10.7054 24.1852 10.3906 23.7969 10.3906ZM1.90625 1.90625H13.2031V13.1562H1.90625V1.90625ZM23.0938 23.0938H10.4375V14.5625H13.9062C14.2946 14.5625 14.6094 14.2477 14.6094 13.8594V11.7969H23.0938V23.0938Z" fill="#2B2B2B"/>
<path d="M6.87498 20.2343H5.85934C4.8976 20.2343 4.06248 19.4656 4.06248 18.4162L4.26845 18.6221C4.54304 18.8967 4.98821 18.8967 5.2628 18.6221C5.5374 18.3476 5.5374 17.9024 5.2628 17.6278L3.85655 16.2215C3.58201 15.947 3.13679 15.947 2.8622 16.2215L1.45595 17.6278C1.18135 17.9023 1.18135 18.3475 1.45595 18.6221C1.73049 18.8967 2.17571 18.8967 2.4503 18.6221L2.65623 18.4162C2.65623 20.2551 4.13621 21.6406 5.85934 21.6406H6.87498C7.26329 21.6406 7.5781 21.3258 7.5781 20.9374C7.5781 20.5491 7.26329 20.2343 6.87498 20.2343Z" fill="#2B2B2B"/>
<path d="M16.7188 4.76562H17.7344C18.6961 4.76562 19.5312 5.53438 19.5312 6.58377L19.3253 6.3778C19.0507 6.10325 18.6055 6.10325 18.3309 6.3778C18.0563 6.65234 18.0563 7.09756 18.3309 7.37216L19.7372 8.77841C20.0118 9.053 20.4569 9.053 20.7315 8.77841L22.1378 7.37216C22.4124 7.09761 22.4124 6.65239 22.1378 6.3778C21.8632 6.10325 21.418 6.10325 21.1434 6.3778L20.9375 6.58377C20.9375 4.74481 19.4575 3.35938 17.7344 3.35938H16.7188C16.3304 3.35938 16.0156 3.67419 16.0156 4.0625C16.0156 4.45081 16.3304 4.76562 16.7188 4.76562Z" fill="#2B2B2B"/>
<path d="M16.7188 15.3125C17.4942 15.3125 18.125 15.9433 18.125 16.7188H12.5C12.137 16.7188 11.7969 16.9999 11.7969 17.4453C11.7969 19.5777 13.5317 21.3125 15.6641 21.3125C17.5647 21.3125 19.1494 19.9345 19.4715 18.125H20.2344V20.6094C20.2344 20.9977 20.5492 21.3125 20.9375 21.3125C21.3258 21.3125 21.6406 20.9977 21.6406 20.6094V14.6094C21.6406 14.2211 21.3258 13.9062 20.9375 13.9062C20.5492 13.9062 20.2344 14.2211 20.2344 14.6094V16.7188H19.5312C19.5312 15.1679 18.2696 13.9062 16.7188 13.9062C16.3304 13.9062 16.0156 14.2211 16.0156 14.6094C16.0156 14.9977 16.3304 15.3125 16.7188 15.3125ZM15.6641 19.9062C14.5428 19.9062 13.5943 19.1524 13.2986 18.125H18.0296C17.7338 19.1524 16.7853 19.9062 15.6641 19.9062Z" fill="#2B2B2B"/>
</g>
<defs>
<clipPath id="clip0_66358_3696">
<rect width="24" height="24" fill="white" transform="translate(0.5 0.5)"/>
</clipPath>
</defs>
</svg>
