<svg width="24" height="25" viewBox="0 0 24 25" fill="none" xmlns="http://www.w3.org/2000/svg">
<mask id="mask0_58169_35859" style="mask-type:alpha" maskUnits="userSpaceOnUse" x="0" y="0" width="24" height="25">
<rect y="0.926514" width="24" height="24" fill="#D9D9D9"/>
</mask>
<g mask="url(#mask0_58169_35859)">
<path d="M5.84394 20.4843C5.06327 20.4843 4.40052 20.2113 3.85569 19.6653C3.31086 19.1193 3.03844 18.4563 3.03844 17.6765H2.24994C1.99394 17.6765 1.77927 17.5899 1.60594 17.4168C1.43277 17.2434 1.34619 17.0288 1.34619 16.7728V7.23426C1.34619 6.7291 1.52119 6.30151 1.87119 5.95151C2.22119 5.60151 2.64869 5.42651 3.15369 5.42651H14.9614C15.4586 5.42651 15.8842 5.60351 16.2382 5.95751C16.5922 6.31151 16.7692 6.7371 16.7692 7.23426V9.23426H18.5192C18.8054 9.23426 19.0765 9.29826 19.3327 9.42626C19.5887 9.55426 19.7995 9.73126 19.9652 9.95726L22.4729 13.315C22.5333 13.3903 22.5785 13.4732 22.6087 13.5635C22.6387 13.654 22.6537 13.7519 22.6537 13.8573V16.7728C22.6537 17.0288 22.5671 17.2434 22.3939 17.4168C22.2206 17.5899 22.0059 17.6765 21.7499 17.6765H20.8462C20.8462 18.4563 20.5729 19.1193 20.0264 19.6653C19.4801 20.2113 18.8167 20.4843 18.0362 20.4843C17.2557 20.4843 16.5929 20.2113 16.0479 19.6653C15.5031 19.1193 15.2307 18.4563 15.2307 17.6765H8.65369C8.65369 18.4585 8.38052 19.1219 7.83419 19.6668C7.28786 20.2118 6.62444 20.4843 5.84394 20.4843ZM5.84619 18.9843C6.21286 18.9843 6.52244 18.8579 6.77494 18.6053C7.02744 18.3528 7.15369 18.0432 7.15369 17.6765C7.15369 17.3098 7.02744 17.0002 6.77494 16.7475C6.52244 16.495 6.21286 16.3688 5.84619 16.3688C5.47952 16.3688 5.16986 16.495 4.91719 16.7475C4.66469 17.0002 4.53844 17.3098 4.53844 17.6765C4.53844 18.0432 4.66469 18.3528 4.91719 18.6053C5.16986 18.8579 5.47952 18.9843 5.84619 18.9843ZM2.84619 16.1765H3.56919C3.78203 15.806 4.08936 15.4954 4.49119 15.2448C4.89319 14.9941 5.34486 14.8688 5.84619 14.8688C6.33452 14.8688 6.78286 14.9925 7.19119 15.24C7.59952 15.4875 7.91011 15.7997 8.12294 16.1765H15.2692V7.23426C15.2692 7.14443 15.2404 7.07068 15.1827 7.01301C15.125 6.95535 15.0513 6.92651 14.9614 6.92651H3.15369C3.07686 6.92651 3.00636 6.9586 2.94219 7.02276C2.87819 7.08676 2.84619 7.15726 2.84619 7.23426V16.1765ZM18.0384 18.9843C18.4051 18.9843 18.7147 18.8579 18.9672 18.6053C19.2199 18.3528 19.3462 18.0432 19.3462 17.6765C19.3462 17.3098 19.2199 17.0002 18.9672 16.7475C18.7147 16.495 18.4051 16.3688 18.0384 16.3688C17.6718 16.3688 17.3621 16.495 17.1094 16.7475C16.8569 17.0002 16.7307 17.3098 16.7307 17.6765C16.7307 18.0432 16.8569 18.3528 17.1094 18.6053C17.3621 18.8579 17.6718 18.9843 18.0384 18.9843ZM16.7692 14.1765H21.2499L18.7499 10.8593C18.7179 10.8208 18.6811 10.7903 18.6394 10.7678C18.5978 10.7454 18.5513 10.7343 18.4999 10.7343H16.7692V14.1765Z" fill="#0369A1"/>
</g>
</svg>
