<svg width="20" height="20" viewBox="0 0 20 20" fill="none" xmlns="http://www.w3.org/2000/svg">
<path d="M10 2C14.4184 2 18 5.58155 18 10C18 14.4184 14.4184 18 10 18C5.58155 18 2 14.4184 2 10C2 5.58155 5.58155 2 10 2ZM10 3.50588C6.86551 3.50588 4.24998 5.72649 3.64047 8.68009L6.85515 9.01833C7.27281 7.67863 8.52281 6.70586 10.0008 6.70586C11.4721 6.70586 12.7177 7.6713 13.1405 9.00215L16.3575 8.66317C15.7413 5.71767 13.1296 3.50515 10.0008 3.50515L10 3.50588ZM11.0353 16.4117C13.8955 15.9536 16.1323 13.6279 16.4536 10.7241L13.1102 11.0763C12.7757 12.0425 12.0065 12.8043 11.0345 13.1257V16.4117L11.0353 16.4117ZM10 11.2235C10.6757 11.2235 11.2235 10.6757 11.2235 10C11.2235 9.32427 10.6757 8.77647 10 8.77647C9.32427 8.77647 8.77647 9.32427 8.77647 10C8.77647 10.6757 9.32427 11.2235 10 11.2235ZM8.96471 16.4117V13.1256C7.99853 12.8058 7.23309 12.0514 6.89562 11.0933L3.54786 10.7411C3.87654 13.6367 6.11031 15.955 8.96471 16.4124V16.4117Z" fill="#003CFF"/>
</svg>
