<svg width="32" height="33" viewBox="0 0 32 33" fill="none" xmlns="http://www.w3.org/2000/svg">
<path d="M6.3125 21.6406H1.09375C0.748563 21.6406 0.46875 21.3608 0.46875 21.0156V7.26562C0.46875 6.92044 0.748563 6.64063 1.09375 6.64063L9.0625 6.64062" stroke="#003CFF" stroke-width="0.6" stroke-miterlimit="10" stroke-linecap="round" stroke-linejoin="round"/>
<path d="M17.2844 21.6406H9.68604" stroke="#003CFF" stroke-width="0.6" stroke-miterlimit="10" stroke-linecap="round" stroke-linejoin="round"/>
<path d="M22.9062 15.6101V21.6406H16.3438" stroke="#003CFF" stroke-width="0.6" stroke-miterlimit="10" stroke-linecap="round" stroke-linejoin="round"/>
<path d="M8.52783 6.64062H22.2811C22.6263 6.64062 22.9061 6.92044 22.9061 7.26562V16.2812" stroke="#003CFF" stroke-width="0.6" stroke-miterlimit="10" stroke-linecap="round" stroke-linejoin="round"/>
<path d="M22.9375 11.4158H26.1594C26.5333 11.4158 26.8876 11.5831 27.1251 11.872L30.1047 15.4966C30.3805 15.8321 30.5312 16.253 30.5312 16.6873V21.6405" stroke="#003CFF" stroke-width="0.6" stroke-miterlimit="10" stroke-linecap="round" stroke-linejoin="round"/>
<path d="M5.3125 23.5156H2.28125C2.10869 23.5156 1.96875 23.3757 1.96875 23.2031V21.6875" stroke="#003CFF" stroke-width="0.6" stroke-miterlimit="10" stroke-linecap="round" stroke-linejoin="round"/>
<path d="M22.5312 23.5156H10.6562" stroke="#003CFF" stroke-width="0.6" stroke-miterlimit="10" stroke-linecap="round" stroke-linejoin="round"/>
<path d="M26.875 21.6406H31.2188C31.3913 21.6406 31.5312 21.7806 31.5312 21.9531V23.2031C31.5312 23.3757 31.3913 23.5156 31.2188 23.5156H27.8438" stroke="#003CFF" stroke-width="0.6" stroke-miterlimit="10" stroke-linecap="round" stroke-linejoin="round"/>
<path d="M24.7812 11.4375V15.3906C24.7812 15.7358 25.0611 16.0156 25.4062 16.0156H30.3125" stroke="#003CFF" stroke-width="0.6" stroke-miterlimit="10" stroke-linecap="round" stroke-linejoin="round"/>
<path d="M30.5 19.7656H29.4688C28.7784 19.7656 28.2188 19.206 28.2188 18.5156V17.8906H30.5" stroke="#003CFF" stroke-width="0.6" stroke-miterlimit="10" stroke-linecap="round" stroke-linejoin="round"/>
<path d="M8 26.3594C9.46701 26.3594 10.6562 25.1701 10.6562 23.7031C10.6562 22.2361 9.46701 21.0469 8 21.0469C6.53299 21.0469 5.34375 22.2361 5.34375 23.7031C5.34375 25.1701 6.53299 26.3594 8 26.3594Z" stroke="#003CFF" stroke-width="0.6" stroke-miterlimit="10" stroke-linecap="round" stroke-linejoin="round"/>
<path d="M8 24.7031C8.55228 24.7031 9 24.2554 9 23.7031C9 23.1508 8.55228 22.7031 8 22.7031C7.44772 22.7031 7 23.1508 7 23.7031C7 24.2554 7.44772 24.7031 8 24.7031Z" stroke="#003CFF" stroke-width="0.6" stroke-miterlimit="10" stroke-linecap="round" stroke-linejoin="round"/>
<path d="M25.1875 26.3594C26.6545 26.3594 27.8438 25.1701 27.8438 23.7031C27.8438 22.2361 26.6545 21.0469 25.1875 21.0469C23.7205 21.0469 22.5312 22.2361 22.5312 23.7031C22.5312 25.1701 23.7205 26.3594 25.1875 26.3594Z" stroke="#003CFF" stroke-width="0.6" stroke-miterlimit="10" stroke-linecap="round" stroke-linejoin="round"/>
<path d="M25.1875 24.7031C25.7398 24.7031 26.1875 24.2554 26.1875 23.7031C26.1875 23.1508 25.7398 22.7031 25.1875 22.7031C24.6352 22.7031 24.1875 23.1508 24.1875 23.7031C24.1875 24.2554 24.6352 24.7031 25.1875 24.7031Z" stroke="#003CFF" stroke-width="0.6" stroke-miterlimit="10" stroke-linecap="round" stroke-linejoin="round"/>
<path d="M22.875 19.4531H0.5" stroke="#003CFF" stroke-width="0.6" stroke-miterlimit="10" stroke-linecap="round" stroke-linejoin="round"/>
<path d="M8.802 12.404C8.802 12.548 8.772 12.688 8.712 12.824C8.656 12.956 8.58 13.088 8.484 13.22C8.388 13.348 8.28 13.476 8.16 13.604C8.04 13.728 7.92 13.85 7.8 13.97C7.732 14.038 7.652 14.118 7.56 14.21C7.472 14.302 7.388 14.398 7.308 14.498C7.228 14.598 7.16 14.694 7.104 14.786C7.052 14.878 7.026 14.958 7.026 15.026H8.94V15.5H6.42C6.416 15.476 6.414 15.452 6.414 15.428C6.414 15.404 6.414 15.382 6.414 15.362C6.414 15.174 6.444 15 6.504 14.84C6.568 14.676 6.65 14.522 6.75 14.378C6.85 14.234 6.962 14.098 7.086 13.97C7.21 13.842 7.332 13.718 7.452 13.598C7.552 13.502 7.646 13.408 7.734 13.316C7.826 13.22 7.906 13.126 7.974 13.034C8.046 12.938 8.102 12.84 8.142 12.74C8.186 12.64 8.208 12.534 8.208 12.422C8.208 12.302 8.188 12.2 8.148 12.116C8.112 12.032 8.062 11.962 7.998 11.906C7.934 11.85 7.858 11.81 7.77 11.786C7.686 11.758 7.596 11.744 7.5 11.744C7.384 11.744 7.278 11.76 7.182 11.792C7.086 11.824 7 11.862 6.924 11.906C6.848 11.946 6.784 11.99 6.732 12.038C6.68 12.082 6.64 12.116 6.612 12.14L6.336 11.744C6.372 11.704 6.426 11.656 6.498 11.6C6.57 11.54 6.656 11.484 6.756 11.432C6.856 11.38 6.968 11.336 7.092 11.3C7.216 11.264 7.35 11.246 7.494 11.246C7.93 11.246 8.256 11.348 8.472 11.552C8.692 11.752 8.802 12.036 8.802 12.404ZM12.1887 12.404C12.1887 12.548 12.1587 12.688 12.0987 12.824C12.0427 12.956 11.9667 13.088 11.8707 13.22C11.7747 13.348 11.6667 13.476 11.5467 13.604C11.4267 13.728 11.3067 13.85 11.1867 13.97C11.1187 14.038 11.0387 14.118 10.9467 14.21C10.8587 14.302 10.7747 14.398 10.6947 14.498C10.6147 14.598 10.5467 14.694 10.4907 14.786C10.4387 14.878 10.4127 14.958 10.4127 15.026H12.3267V15.5H9.80672C9.80272 15.476 9.80072 15.452 9.80072 15.428C9.80072 15.404 9.80072 15.382 9.80072 15.362C9.80072 15.174 9.83072 15 9.89072 14.84C9.95472 14.676 10.0367 14.522 10.1367 14.378C10.2367 14.234 10.3487 14.098 10.4727 13.97C10.5967 13.842 10.7187 13.718 10.8387 13.598C10.9387 13.502 11.0327 13.408 11.1207 13.316C11.2127 13.22 11.2927 13.126 11.3607 13.034C11.4327 12.938 11.4887 12.84 11.5287 12.74C11.5727 12.64 11.5947 12.534 11.5947 12.422C11.5947 12.302 11.5747 12.2 11.5347 12.116C11.4987 12.032 11.4487 11.962 11.3847 11.906C11.3207 11.85 11.2447 11.81 11.1567 11.786C11.0727 11.758 10.9827 11.744 10.8867 11.744C10.7707 11.744 10.6647 11.76 10.5687 11.792C10.4727 11.824 10.3867 11.862 10.3107 11.906C10.2347 11.946 10.1707 11.99 10.1187 12.038C10.0667 12.082 10.0267 12.116 9.99872 12.14L9.72272 11.744C9.75872 11.704 9.81272 11.656 9.88472 11.6C9.95672 11.54 10.0427 11.484 10.1427 11.432C10.2427 11.38 10.3547 11.336 10.4787 11.3C10.6027 11.264 10.7367 11.246 10.8807 11.246C11.3167 11.246 11.6427 11.348 11.8587 11.552C12.0787 11.752 12.1887 12.036 12.1887 12.404ZM14.4714 10.844C14.6354 10.844 14.7754 10.856 14.8914 10.88C15.0114 10.904 15.0954 10.926 15.1434 10.946L15.0414 11.426C14.9934 11.402 14.9254 11.38 14.8374 11.36C14.7494 11.336 14.6414 11.324 14.5134 11.324C14.2534 11.324 14.0714 11.396 13.9674 11.54C13.8634 11.68 13.8114 11.87 13.8114 12.11V12.38H15.0114V12.848H13.8114V15.5H13.2534V12.098C13.2534 11.698 13.3514 11.39 13.5474 11.174C13.7434 10.954 14.0514 10.844 14.4714 10.844ZM16.0899 12.38H17.2719V12.848H16.0899V14.288C16.0899 14.444 16.1019 14.574 16.1259 14.678C16.1499 14.778 16.1859 14.858 16.2339 14.918C16.2819 14.974 16.3419 15.014 16.4139 15.038C16.4859 15.062 16.5699 15.074 16.6659 15.074C16.8339 15.074 16.9679 15.056 17.0679 15.02C17.1719 14.98 17.2439 14.952 17.2839 14.936L17.3919 15.398C17.3359 15.426 17.2379 15.46 17.0979 15.5C16.9579 15.544 16.7979 15.566 16.6179 15.566C16.4059 15.566 16.2299 15.54 16.0899 15.488C15.9539 15.432 15.8439 15.35 15.7599 15.242C15.6759 15.134 15.6159 15.002 15.5799 14.846C15.5479 14.686 15.5319 14.502 15.5319 14.294V11.51L16.0899 11.414V12.38Z" fill="#003CFF"/>
</svg>
