<svg width="32" height="33" viewBox="0 0 32 33" fill="none" xmlns="http://www.w3.org/2000/svg">
<path d="M6.3125 21.6406H1.09375C0.748563 21.6406 0.46875 21.3608 0.46875 21.0156V7.26562C0.46875 6.92044 0.748563 6.64063 1.09375 6.64063L9.0625 6.64062" stroke="#0369A1" stroke-width="0.6" stroke-miterlimit="10" stroke-linecap="round" stroke-linejoin="round"/>
<path d="M17.2844 21.6406H9.68604" stroke="#0369A1" stroke-width="0.6" stroke-miterlimit="10" stroke-linecap="round" stroke-linejoin="round"/>
<path d="M22.9062 15.6101V21.6406H16.3438" stroke="#0369A1" stroke-width="0.6" stroke-miterlimit="10" stroke-linecap="round" stroke-linejoin="round"/>
<path d="M8.52783 6.64062H22.2811C22.6263 6.64062 22.9061 6.92044 22.9061 7.26562V16.2812" stroke="#0369A1" stroke-width="0.6" stroke-miterlimit="10" stroke-linecap="round" stroke-linejoin="round"/>
<path d="M22.9375 11.4158H26.1594C26.5333 11.4158 26.8876 11.5831 27.1251 11.872L30.1047 15.4966C30.3805 15.8321 30.5312 16.253 30.5312 16.6873V21.6405" stroke="#0369A1" stroke-width="0.6" stroke-miterlimit="10" stroke-linecap="round" stroke-linejoin="round"/>
<path d="M5.3125 23.5156H2.28125C2.10869 23.5156 1.96875 23.3757 1.96875 23.2031V21.6875" stroke="#0369A1" stroke-width="0.6" stroke-miterlimit="10" stroke-linecap="round" stroke-linejoin="round"/>
<path d="M22.5312 23.5156H10.6562" stroke="#0369A1" stroke-width="0.6" stroke-miterlimit="10" stroke-linecap="round" stroke-linejoin="round"/>
<path d="M26.875 21.6406H31.2188C31.3913 21.6406 31.5312 21.7806 31.5312 21.9531V23.2031C31.5312 23.3757 31.3913 23.5156 31.2188 23.5156H27.8438" stroke="#0369A1" stroke-width="0.6" stroke-miterlimit="10" stroke-linecap="round" stroke-linejoin="round"/>
<path d="M24.7812 11.4375V15.3906C24.7812 15.7358 25.0611 16.0156 25.4062 16.0156H30.3125" stroke="#0369A1" stroke-width="0.6" stroke-miterlimit="10" stroke-linecap="round" stroke-linejoin="round"/>
<path d="M30.5 19.7656H29.4688C28.7784 19.7656 28.2188 19.206 28.2188 18.5156V17.8906H30.5" stroke="#0369A1" stroke-width="0.6" stroke-miterlimit="10" stroke-linecap="round" stroke-linejoin="round"/>
<path d="M8 26.3594C9.46701 26.3594 10.6562 25.1701 10.6562 23.7031C10.6562 22.2361 9.46701 21.0469 8 21.0469C6.53299 21.0469 5.34375 22.2361 5.34375 23.7031C5.34375 25.1701 6.53299 26.3594 8 26.3594Z" stroke="#0369A1" stroke-width="0.6" stroke-miterlimit="10" stroke-linecap="round" stroke-linejoin="round"/>
<path d="M8 24.7031C8.55228 24.7031 9 24.2554 9 23.7031C9 23.1508 8.55228 22.7031 8 22.7031C7.44772 22.7031 7 23.1508 7 23.7031C7 24.2554 7.44772 24.7031 8 24.7031Z" stroke="#0369A1" stroke-width="0.6" stroke-miterlimit="10" stroke-linecap="round" stroke-linejoin="round"/>
<path d="M25.1875 26.3594C26.6545 26.3594 27.8438 25.1701 27.8438 23.7031C27.8438 22.2361 26.6545 21.0469 25.1875 21.0469C23.7205 21.0469 22.5312 22.2361 22.5312 23.7031C22.5312 25.1701 23.7205 26.3594 25.1875 26.3594Z" stroke="#0369A1" stroke-width="0.6" stroke-miterlimit="10" stroke-linecap="round" stroke-linejoin="round"/>
<path d="M25.1875 24.7031C25.7398 24.7031 26.1875 24.2554 26.1875 23.7031C26.1875 23.1508 25.7398 22.7031 25.1875 22.7031C24.6352 22.7031 24.1875 23.1508 24.1875 23.7031C24.1875 24.2554 24.6352 24.7031 25.1875 24.7031Z" stroke="#0369A1" stroke-width="0.6" stroke-miterlimit="10" stroke-linecap="round" stroke-linejoin="round"/>
<path d="M22.875 19.4531H0.5" stroke="#0369A1" stroke-width="0.6" stroke-miterlimit="10" stroke-linecap="round" stroke-linejoin="round"/>
<path d="M8.802 12.404C8.802 12.548 8.772 12.688 8.712 12.824C8.656 12.956 8.58 13.088 8.484 13.22C8.388 13.348 8.28 13.476 8.16 13.604C8.04 13.728 7.92 13.85 7.8 13.97C7.732 14.038 7.652 14.118 7.56 14.21C7.472 14.302 7.388 14.398 7.308 14.498C7.228 14.598 7.16 14.694 7.104 14.786C7.052 14.878 7.026 14.958 7.026 15.026H8.94V15.5H6.42C6.416 15.476 6.414 15.452 6.414 15.428C6.414 15.404 6.414 15.382 6.414 15.362C6.414 15.174 6.444 15 6.504 14.84C6.568 14.676 6.65 14.522 6.75 14.378C6.85 14.234 6.962 14.098 7.086 13.97C7.21 13.842 7.332 13.718 7.452 13.598C7.552 13.502 7.646 13.408 7.734 13.316C7.826 13.22 7.906 13.126 7.974 13.034C8.046 12.938 8.102 12.84 8.142 12.74C8.186 12.64 8.208 12.534 8.208 12.422C8.208 12.302 8.188 12.2 8.148 12.116C8.112 12.032 8.062 11.962 7.998 11.906C7.934 11.85 7.858 11.81 7.77 11.786C7.686 11.758 7.596 11.744 7.5 11.744C7.384 11.744 7.278 11.76 7.182 11.792C7.086 11.824 7 11.862 6.924 11.906C6.848 11.946 6.784 11.99 6.732 12.038C6.68 12.082 6.64 12.116 6.612 12.14L6.336 11.744C6.372 11.704 6.426 11.656 6.498 11.6C6.57 11.54 6.656 11.484 6.756 11.432C6.856 11.38 6.968 11.336 7.092 11.3C7.216 11.264 7.35 11.246 7.494 11.246C7.93 11.246 8.256 11.348 8.472 11.552C8.692 11.752 8.802 12.036 8.802 12.404ZM9.68672 13.418C9.68672 12.722 9.80872 12.186 10.0527 11.81C10.3007 11.434 10.6427 11.246 11.0787 11.246C11.5147 11.246 11.8547 11.434 12.0987 11.81C12.3467 12.186 12.4707 12.722 12.4707 13.418C12.4707 14.114 12.3467 14.65 12.0987 15.026C11.8547 15.402 11.5147 15.59 11.0787 15.59C10.6427 15.59 10.3007 15.402 10.0527 15.026C9.80872 14.65 9.68672 14.114 9.68672 13.418ZM11.8827 13.418C11.8827 13.19 11.8687 12.974 11.8407 12.77C11.8167 12.566 11.7727 12.388 11.7087 12.236C11.6487 12.084 11.5667 11.964 11.4627 11.876C11.3587 11.784 11.2307 11.738 11.0787 11.738C10.9267 11.738 10.7987 11.784 10.6947 11.876C10.5907 11.964 10.5067 12.084 10.4427 12.236C10.3827 12.388 10.3387 12.566 10.3107 12.77C10.2867 12.974 10.2747 13.19 10.2747 13.418C10.2747 13.646 10.2867 13.862 10.3107 14.066C10.3387 14.27 10.3827 14.448 10.4427 14.6C10.5067 14.752 10.5907 14.874 10.6947 14.966C10.7987 15.054 10.9267 15.098 11.0787 15.098C11.2307 15.098 11.3587 15.054 11.4627 14.966C11.5667 14.874 11.6487 14.752 11.7087 14.6C11.7727 14.448 11.8167 14.27 11.8407 14.066C11.8687 13.862 11.8827 13.646 11.8827 13.418ZM14.4714 10.844C14.6354 10.844 14.7754 10.856 14.8914 10.88C15.0114 10.904 15.0954 10.926 15.1434 10.946L15.0414 11.426C14.9934 11.402 14.9254 11.38 14.8374 11.36C14.7494 11.336 14.6414 11.324 14.5134 11.324C14.2534 11.324 14.0714 11.396 13.9674 11.54C13.8634 11.68 13.8114 11.87 13.8114 12.11V12.38H15.0114V12.848H13.8114V15.5H13.2534V12.098C13.2534 11.698 13.3514 11.39 13.5474 11.174C13.7434 10.954 14.0514 10.844 14.4714 10.844ZM16.0899 12.38H17.2719V12.848H16.0899V14.288C16.0899 14.444 16.1019 14.574 16.1259 14.678C16.1499 14.778 16.1859 14.858 16.2339 14.918C16.2819 14.974 16.3419 15.014 16.4139 15.038C16.4859 15.062 16.5699 15.074 16.6659 15.074C16.8339 15.074 16.9679 15.056 17.0679 15.02C17.1719 14.98 17.2439 14.952 17.2839 14.936L17.3919 15.398C17.3359 15.426 17.2379 15.46 17.0979 15.5C16.9579 15.544 16.7979 15.566 16.6179 15.566C16.4059 15.566 16.2299 15.54 16.0899 15.488C15.9539 15.432 15.8439 15.35 15.7599 15.242C15.6759 15.134 15.6159 15.002 15.5799 14.846C15.5479 14.686 15.5319 14.502 15.5319 14.294V11.51L16.0899 11.414V12.38Z" fill="#0369A1"/>
</svg>
