<svg width="133" height="34" viewBox="0 0 133 34" fill="none" xmlns="http://www.w3.org/2000/svg">
<circle cx="17" cy="17" r="16" fill="white" stroke="#003CFF" stroke-width="2"/>
<path d="M19.5374 17.8472H22.8159" stroke="#003CFF" stroke-width="0.75" stroke-linecap="round" stroke-linejoin="round"/>
<path d="M19.5374 18.7285H22.8159" stroke="#003CFF" stroke-width="0.75" stroke-linecap="round" stroke-linejoin="round"/>
<path d="M18.6833 21.3042V21.8429C18.6833 22.0165 18.6169 22.1831 18.4987 22.3058C18.3804 22.4286 18.2201 22.4976 18.0528 22.4976C17.8856 22.4976 17.7253 22.4286 17.607 22.3058C17.4888 22.1831 17.4224 22.0165 17.4224 21.8429V21.3042" stroke="#003CFF" stroke-width="0.75" stroke-linecap="round" stroke-linejoin="round"/>
<path d="M24.9321 21.3042V21.8429C24.9321 22.0165 24.8657 22.1831 24.7474 22.3058C24.6292 22.4286 24.4688 22.4976 24.3016 22.4976C24.1344 22.4976 23.974 22.4286 23.8558 22.3058C23.7376 22.1831 23.6711 22.0165 23.6711 21.8429V21.3042" stroke="#003CFF" stroke-width="0.75" stroke-linecap="round" stroke-linejoin="round"/>
<path d="M18.3987 16.2057C18.3987 15.6557 18.84 15.2192 19.7395 15.2192C20.639 15.2192 20.8155 15.7169 20.8155 16.2057" stroke="#003CFF" stroke-width="0.75" stroke-linecap="round" stroke-linejoin="round"/>
<path d="M26.7337 19.9508V18.1176C26.7337 17.4628 26.5927 16.9092 26.1452 16.651C25.8256 16.4516 25.5911 16.1331 25.4895 15.7605C25.4139 15.5597 24.9852 14.5122 24.7497 13.9622C24.6206 13.7232 24.4407 13.518 24.2236 13.3622C24.0066 13.2063 23.7581 13.104 23.4972 13.063C23.1609 13.0281 22.5388 12.9932 21.177 12.9932C19.8152 12.9932 19.1929 13.0281 18.8569 13.063C18.5959 13.104 18.3475 13.2063 18.1304 13.3622C17.9134 13.518 17.7334 13.7232 17.6043 13.9622C17.369 14.5122 16.9402 15.5597 16.8645 15.7605C16.7629 16.1331 16.5285 16.4515 16.2088 16.651C15.7612 16.9092 15.6204 17.4628 15.6204 18.1176V19.9508" stroke="#003CFF" stroke-width="0.75" stroke-linecap="round" stroke-linejoin="round"/>
<path d="M25.6901 16.2061H21.1769H16.6633" stroke="#003CFF" stroke-width="0.75" stroke-linecap="round" stroke-linejoin="round"/>
<path d="M24.9686 18.5014C25.3168 18.5014 25.5991 18.2082 25.5991 17.8466C25.5991 17.485 25.3168 17.1919 24.9686 17.1919C24.6204 17.1919 24.3381 17.485 24.3381 17.8466C24.3381 18.2082 24.6204 18.5014 24.9686 18.5014Z" stroke="#003CFF" stroke-width="0.75" stroke-linecap="round" stroke-linejoin="round"/>
<path d="M17.3856 18.5014C17.7338 18.5014 18.0161 18.2082 18.0161 17.8466C18.0161 17.485 17.7338 17.1919 17.3856 17.1919C17.0374 17.1919 16.7551 17.485 16.7551 17.8466C16.7551 18.2082 17.0374 18.5014 17.3856 18.5014Z" stroke="#003CFF" stroke-width="0.75" stroke-linecap="round" stroke-linejoin="round"/>
<path d="M21.1769 21.3039H26.0947C26.2931 21.3039 26.4834 21.222 26.6237 21.0763C26.764 20.9306 26.8429 20.733 26.8429 20.5269C26.8428 20.3209 26.764 20.1233 26.6237 19.9776C26.4834 19.8319 26.2931 19.75 26.0947 19.75H16.2591C16.1609 19.75 16.0636 19.7701 15.9728 19.8091C15.8821 19.8482 15.7996 19.9054 15.7301 19.9776C15.6606 20.0497 15.6055 20.1353 15.5679 20.2296C15.5303 20.3239 15.511 20.4249 15.511 20.5269C15.511 20.733 15.5898 20.9306 15.7301 21.0763C15.8704 21.222 16.0607 21.3039 16.2591 21.3039H21.1769Z" stroke="#003CFF" stroke-width="0.75" stroke-linecap="round" stroke-linejoin="round"/>
<path d="M23.9554 16.2057C23.9554 15.6557 23.5141 15.2192 22.6146 15.2192C21.7151 15.2192 21.5386 15.7169 21.5386 16.2057" stroke="#003CFF" stroke-width="0.75" stroke-linecap="round" stroke-linejoin="round"/>
<path d="M21.177 12.9933V8.4017C21.177 8.07139 21.0506 7.7546 20.8257 7.52103C20.6008 7.28747 20.2957 7.15625 19.9776 7.15625H12.3558C12.0377 7.15625 11.7327 7.28747 11.5078 7.52103C11.2829 7.7546 11.1565 8.07139 11.1565 8.4017V24.5983C11.1565 24.7619 11.1875 24.9238 11.2478 25.0749C11.3081 25.226 11.3964 25.3633 11.5078 25.479C11.6191 25.5946 11.7513 25.6864 11.8969 25.7489C12.0424 25.8115 12.1983 25.8437 12.3558 25.8437H19.9776C20.1351 25.8437 20.2911 25.8115 20.4366 25.7489C20.5821 25.6864 20.7143 25.5946 20.8257 25.479C20.9371 25.3633 21.0254 25.226 21.0857 25.0749C21.1459 24.9238 21.177 24.7619 21.177 24.5983V21.304" stroke="#003CFF" stroke-width="0.75" stroke-linecap="round" stroke-linejoin="round"/>
<path d="M28.5 5H125.315C129.219 5 132.083 8.66833 131.136 12.4552L128.136 24.4552C127.468 27.1262 125.068 29 122.315 29H28.5L31.5 23.5L33.5 16.5L31.5 10L28.5 5Z" fill="#003CFF"/>
<path d="M45.752 12.684C45.448 13.564 45.156 14.38 44.876 15.132C44.604 15.876 44.336 16.584 44.072 17.256C43.808 17.928 43.544 18.572 43.28 19.188C43.024 19.796 42.76 20.4 42.488 21H41.396C41.124 20.4 40.856 19.796 40.592 19.188C40.336 18.572 40.072 17.928 39.8 17.256C39.536 16.584 39.264 15.876 38.984 15.132C38.704 14.38 38.416 13.564 38.12 12.684H39.404C39.836 13.948 40.26 15.164 40.676 16.332C41.092 17.5 41.52 18.596 41.96 19.62C42.4 18.604 42.828 17.512 43.244 16.344C43.66 15.168 44.08 13.948 44.504 12.684H45.752ZM51.7247 21C51.5887 20.64 51.4607 20.288 51.3407 19.944C51.2207 19.592 51.0967 19.236 50.9687 18.876H47.2007L46.4447 21H45.2327C45.5527 20.12 45.8527 19.308 46.1327 18.564C46.4127 17.812 46.6847 17.1 46.9487 16.428C47.2207 15.756 47.4887 15.116 47.7527 14.508C48.0167 13.892 48.2927 13.284 48.5807 12.684H49.6487C49.9367 13.284 50.2127 13.892 50.4767 14.508C50.7407 15.116 51.0047 15.756 51.2687 16.428C51.5407 17.1 51.8167 17.812 52.0967 18.564C52.3767 19.308 52.6767 20.12 52.9967 21H51.7247ZM50.6327 17.916C50.3767 17.22 50.1207 16.548 49.8647 15.9C49.6167 15.244 49.3567 14.616 49.0847 14.016C48.8047 14.616 48.5367 15.244 48.2807 15.9C48.0327 16.548 47.7847 17.22 47.5367 17.916H50.6327ZM59.3578 12.684H60.5218V21H59.3578V17.16H55.2898V21H54.1258V12.684H55.2898V16.152H59.3578V12.684ZM68.1427 21C68.0067 20.64 67.8787 20.288 67.7587 19.944C67.6387 19.592 67.5147 19.236 67.3867 18.876H63.6187L62.8627 21H61.6507C61.9707 20.12 62.2707 19.308 62.5507 18.564C62.8307 17.812 63.1027 17.1 63.3667 16.428C63.6387 15.756 63.9067 15.116 64.1707 14.508C64.4347 13.892 64.7107 13.284 64.9987 12.684H66.0667C66.3547 13.284 66.6307 13.892 66.8947 14.508C67.1587 15.116 67.4227 15.756 67.6867 16.428C67.9587 17.1 68.2347 17.812 68.5147 18.564C68.7947 19.308 69.0947 20.12 69.4147 21H68.1427ZM67.0507 17.916C66.7947 17.22 66.5387 16.548 66.2827 15.9C66.0347 15.244 65.7747 14.616 65.5027 14.016C65.2227 14.616 64.9547 15.244 64.6987 15.9C64.4507 16.548 64.2027 17.22 63.9547 17.916H67.0507ZM76.2437 21C76.0677 20.704 75.8637 20.372 75.6317 20.004C75.4077 19.636 75.1637 19.256 74.8997 18.864C74.6357 18.464 74.3597 18.06 74.0717 17.652C73.7917 17.244 73.5117 16.852 73.2317 16.476C72.9517 16.092 72.6797 15.732 72.4157 15.396C72.1517 15.06 71.9077 14.764 71.6837 14.508V21H70.5437V12.684H71.4677C71.8437 13.084 72.2437 13.552 72.6677 14.088C73.0997 14.616 73.5237 15.164 73.9397 15.732C74.3637 16.292 74.7597 16.844 75.1277 17.388C75.5037 17.932 75.8197 18.416 76.0757 18.84V12.684H77.2157V21H76.2437ZM86.8515 14.76C86.5395 15.928 86.1715 17.048 85.7475 18.12C85.3315 19.192 84.9275 20.152 84.5355 21H83.5275C83.1355 20.152 82.7275 19.192 82.3035 18.12C81.8875 17.048 81.5235 15.928 81.2115 14.76H82.4115C82.5075 15.152 82.6195 15.572 82.7475 16.02C82.8835 16.46 83.0235 16.9 83.1675 17.34C83.3195 17.772 83.4715 18.192 83.6235 18.6C83.7755 19.008 83.9195 19.372 84.0555 19.692C84.1915 19.372 84.3355 19.008 84.4875 18.6C84.6395 18.192 84.7875 17.772 84.9315 17.34C85.0835 16.9 85.2235 16.46 85.3515 16.02C85.4875 15.572 85.6035 15.152 85.6995 14.76H86.8515ZM87.4909 17.892C87.4909 17.34 87.5709 16.86 87.7309 16.452C87.8909 16.036 88.1029 15.692 88.3669 15.42C88.6309 15.148 88.9349 14.944 89.2789 14.808C89.6229 14.672 89.9749 14.604 90.3349 14.604C91.1749 14.604 91.8189 14.868 92.2669 15.396C92.7149 15.916 92.9389 16.712 92.9389 17.784C92.9389 17.832 92.9389 17.896 92.9389 17.976C92.9389 18.048 92.9349 18.116 92.9269 18.18H88.6549C88.7029 18.828 88.8909 19.32 89.2189 19.656C89.5469 19.992 90.0589 20.16 90.7549 20.16C91.1469 20.16 91.4749 20.128 91.7389 20.064C92.0109 19.992 92.2149 19.924 92.3509 19.86L92.5069 20.796C92.3709 20.868 92.1309 20.944 91.7869 21.024C91.4509 21.104 91.0669 21.144 90.6349 21.144C90.0909 21.144 89.6189 21.064 89.2189 20.904C88.8269 20.736 88.5029 20.508 88.2469 20.22C87.9909 19.932 87.7989 19.592 87.6709 19.2C87.5509 18.8 87.4909 18.364 87.4909 17.892ZM91.7749 17.28C91.7829 16.776 91.6549 16.364 91.3909 16.044C91.1349 15.716 90.7789 15.552 90.3229 15.552C90.0669 15.552 89.8389 15.604 89.6389 15.708C89.4469 15.804 89.2829 15.932 89.1469 16.092C89.0109 16.252 88.9029 16.436 88.8229 16.644C88.7509 16.852 88.7029 17.064 88.6789 17.28H91.7749ZM96.846 14.628C96.942 14.628 97.05 14.636 97.17 14.652C97.298 14.66 97.422 14.676 97.542 14.7C97.662 14.716 97.77 14.736 97.866 14.76C97.97 14.776 98.046 14.792 98.094 14.808L97.902 15.78C97.814 15.748 97.666 15.712 97.458 15.672C97.258 15.624 96.998 15.6 96.678 15.6C96.47 15.6 96.262 15.624 96.054 15.672C95.854 15.712 95.722 15.74 95.658 15.756V21H94.542V15.024C94.806 14.928 95.134 14.84 95.526 14.76C95.918 14.672 96.358 14.628 96.846 14.628ZM100.287 21H99.1709V14.76H100.287V21ZM99.7229 13.632C99.5229 13.632 99.3509 13.568 99.2069 13.44C99.0709 13.304 99.0029 13.124 99.0029 12.9C99.0029 12.676 99.0709 12.5 99.2069 12.372C99.3509 12.236 99.5229 12.168 99.7229 12.168C99.9229 12.168 100.091 12.236 100.227 12.372C100.371 12.5 100.443 12.676 100.443 12.9C100.443 13.124 100.371 13.304 100.227 13.44C100.091 13.568 99.9229 13.632 99.7229 13.632ZM104.642 11.688C104.97 11.688 105.25 11.712 105.482 11.76C105.722 11.808 105.89 11.852 105.986 11.892L105.782 12.852C105.686 12.804 105.55 12.76 105.374 12.72C105.198 12.672 104.982 12.648 104.726 12.648C104.206 12.648 103.842 12.792 103.634 13.08C103.426 13.36 103.322 13.74 103.322 14.22V14.76H105.722V15.696H103.322V21H102.206V14.196C102.206 13.396 102.402 12.78 102.794 12.348C103.186 11.908 103.802 11.688 104.642 11.688ZM107.951 21H106.835V14.76H107.951V21ZM107.387 13.632C107.187 13.632 107.015 13.568 106.871 13.44C106.735 13.304 106.667 13.124 106.667 12.9C106.667 12.676 106.735 12.5 106.871 12.372C107.015 12.236 107.187 12.168 107.387 12.168C107.587 12.168 107.755 12.236 107.891 12.372C108.035 12.5 108.107 12.676 108.107 12.9C108.107 13.124 108.035 13.304 107.891 13.44C107.755 13.568 107.587 13.632 107.387 13.632ZM109.522 17.892C109.522 17.34 109.602 16.86 109.762 16.452C109.922 16.036 110.134 15.692 110.398 15.42C110.662 15.148 110.966 14.944 111.31 14.808C111.654 14.672 112.006 14.604 112.366 14.604C113.206 14.604 113.85 14.868 114.298 15.396C114.746 15.916 114.97 16.712 114.97 17.784C114.97 17.832 114.97 17.896 114.97 17.976C114.97 18.048 114.966 18.116 114.958 18.18H110.686C110.734 18.828 110.922 19.32 111.25 19.656C111.578 19.992 112.09 20.16 112.786 20.16C113.178 20.16 113.506 20.128 113.77 20.064C114.042 19.992 114.246 19.924 114.382 19.86L114.538 20.796C114.402 20.868 114.162 20.944 113.818 21.024C113.482 21.104 113.098 21.144 112.666 21.144C112.122 21.144 111.65 21.064 111.25 20.904C110.858 20.736 110.534 20.508 110.278 20.22C110.022 19.932 109.83 19.592 109.702 19.2C109.582 18.8 109.522 18.364 109.522 17.892ZM113.806 17.28C113.814 16.776 113.686 16.364 113.422 16.044C113.166 15.716 112.81 15.552 112.354 15.552C112.098 15.552 111.87 15.604 111.67 15.708C111.478 15.804 111.314 15.932 111.178 16.092C111.042 16.252 110.934 16.436 110.854 16.644C110.782 16.852 110.734 17.064 110.71 17.28H113.806ZM120.605 16.08C120.469 15.968 120.273 15.86 120.017 15.756C119.761 15.652 119.481 15.6 119.177 15.6C118.857 15.6 118.581 15.66 118.349 15.78C118.125 15.892 117.941 16.052 117.797 16.26C117.653 16.46 117.549 16.7 117.485 16.98C117.421 17.26 117.389 17.56 117.389 17.88C117.389 18.608 117.569 19.172 117.929 19.572C118.289 19.964 118.769 20.16 119.369 20.16C119.673 20.16 119.925 20.148 120.125 20.124C120.333 20.092 120.493 20.06 120.605 20.028V16.08ZM120.605 11.88L121.721 11.688V20.82C121.465 20.892 121.137 20.964 120.737 21.036C120.337 21.108 119.877 21.144 119.357 21.144C118.877 21.144 118.445 21.068 118.061 20.916C117.677 20.764 117.349 20.548 117.077 20.268C116.805 19.988 116.593 19.648 116.441 19.248C116.297 18.84 116.225 18.384 116.225 17.88C116.225 17.4 116.285 16.96 116.405 16.56C116.533 16.16 116.717 15.816 116.957 15.528C117.197 15.24 117.489 15.016 117.833 14.856C118.185 14.696 118.585 14.616 119.033 14.616C119.393 14.616 119.709 14.664 119.981 14.76C120.261 14.856 120.469 14.948 120.605 15.036V11.88Z" fill="white"/>
</svg>
