<svg width="14" height="16" viewBox="0 0 14 16" fill="none" xmlns="http://www.w3.org/2000/svg">
<path d="M5.23242 1.5802C6.14202 0.71519 7.57689 0.662175 8.5498 1.49719L8.7334 1.672C9.55108 2.53172 9.64188 3.85965 8.94434 4.82434H10.54L10.6699 4.83704C10.961 4.89452 11.1843 5.14196 11.2041 5.44739L12.9795 14.3702L12.9814 14.381H12.9805C12.9822 14.4008 12.9818 14.4207 12.9805 14.4406H12.9814C12.9814 14.8085 12.6824 15.1075 12.3145 15.1075H1.56738C1.20223 15.1075 0.907756 14.8134 0.90332 14.4493L0.901367 14.4503C0.899128 14.427 0.899107 14.4033 0.901367 14.38L0.902344 14.3702L1.00098 14.3898L0.90332 14.3702L2.66992 5.44641C2.69293 5.09712 2.98241 4.82431 3.33398 4.82434H4.92871C4.26473 3.90491 4.30723 2.63822 5.05762 1.76379L5.23242 1.5802ZM1.66211 14.3654H12.2119L10.4697 5.58801H3.4043L1.66211 14.3654ZM6.75879 1.67688C5.88428 1.76693 5.20281 2.50632 5.2041 3.40442C5.20545 3.69376 5.27838 3.97856 5.41699 4.23254C5.55138 4.47872 5.74396 4.68763 5.97656 4.84387H7.90039C8.13426 4.68777 8.32741 4.47782 8.46191 4.23059C8.60063 3.97555 8.67319 3.68986 8.67285 3.39954L8.66406 3.2218C8.5739 2.34751 7.83351 1.66591 6.93555 1.66711L6.75879 1.67688Z" fill="black" stroke="black" stroke-width="0.2"/>
<path d="M6.93848 2.12054C7.64021 2.12071 8.20898 2.68926 8.20898 3.39105C8.20888 4.09263 7.64013 4.6614 6.93848 4.66156C6.24248 4.66156 5.67605 4.10155 5.66797 3.4057V3.39105C5.66797 2.68919 6.2367 2.12054 6.93848 2.12054ZM6.93066 2.86273H6.92578C6.63425 2.86917 6.40305 3.11032 6.40918 3.40179L6.42188 3.50726C6.47496 3.74359 6.68603 3.91929 6.9375 3.91937L7.04395 3.90863C7.28508 3.85971 7.46659 3.64696 7.4668 3.39105L7.45605 3.28461C7.407 3.0436 7.19383 2.8619 6.93848 2.86176C6.934 2.86176 6.93195 2.86267 6.93066 2.86273Z" fill="black" stroke="black" stroke-width="0.2"/>
</svg>
