<svg width="114" height="227" viewBox="0 0 114 227" fill="none" xmlns="http://www.w3.org/2000/svg">
<path d="M70.0566 36.1588L70.0566 21.1304C69.8595 5.24542 63.3706 -2.92258e-07 61.1291 -3.90235e-07L52.5207 -7.66519e-07C50.2796 -8.64481e-07 43.3206 5.65003 43.7252 18.8548L43.6908 36.1588L70.0566 36.1588Z" fill="#FF0000"/>
<path d="M65.3284 155.079C62.5321 155.079 60.2651 153.416 60.2651 151.364C60.2651 149.312 62.5321 147.648 65.3284 147.648L76.9324 147.648C79.7295 147.648 81.9961 149.312 81.9961 151.364C81.9961 153.416 79.7291 155.079 76.9324 155.079L65.3284 155.079Z" fill="#6A6B6A"/>
<path d="M38.9627 155.079C36.1665 155.079 33.8994 153.416 33.8994 151.364C33.8994 149.312 36.1665 147.648 38.9627 147.648L50.5676 147.648C53.3638 147.648 55.6309 149.312 55.6309 151.364C55.6309 153.416 53.3638 155.079 50.5676 155.079L38.9627 155.079Z" fill="#6A6B6A"/>
<path d="M67.4786 22.9359L67.6816 21.219C67.6816 18.2366 65.3871 15.8193 62.5562 15.8193L51.8311 15.8193C48.9993 15.8193 46.7047 18.2366 46.7047 21.219L46.9095 22.9359L67.4786 22.9359Z" fill="#FFFCE6"/>
<path d="M57.4904 42.9014L58.3555 22.6545C58.3555 22.6545 51.5357 22.3914 43.1603 24.9837C36.6738 26.9921 29.5852 31.2574 21.9176 35.2409L24.5837 38.2029C24.5837 38.2029 37.3958 34.693 40.0619 37.1147C42.728 39.5359 52.3804 43.7483 57.4904 42.9014Z" fill="#FF0000"/>
<path d="M9.61769 24.9187C14.7614 24.254 18.7978 22.4641 18.6338 20.9196C18.469 19.3746 14.166 18.6606 9.02226 19.3253C3.87856 19.9892 -0.158719 21.7794 0.00613164 23.3244C0.170094 24.8689 4.47399 25.583 9.61769 24.9187Z" fill="#878888"/>
<path d="M9.61769 24.9186C4.47398 25.5829 0.170093 24.8693 0.00613045 23.3243C-0.00586679 23.2159 0.00611484 23.1066 0.0345528 22.9964C1.0281 24.1637 4.89212 24.6409 9.40219 24.0588C14.1851 23.4412 18.0087 21.85 18.3899 20.3877C18.5299 20.5517 18.6139 20.7294 18.6338 20.9196C18.7978 22.4641 14.7614 24.2535 9.61769 24.9186Z" fill="#626362"/>
<path d="M9.09768 19.285C9.10523 18.9162 9.22829 18.6261 9.46424 18.4226C9.95968 17.9951 10.7764 18.0995 11.1692 18.1502C11.2261 18.1577 11.2696 18.164 11.2936 18.1644C11.3611 18.1644 12.0405 18.2435 14.6871 18.5545C19.4717 19.1175 28.3772 20.1644 29.4001 20.1653C31.0131 20.1666 31.2153 21.2393 31.2233 21.2855L35.0312 36.5126L34.5998 36.6202L30.7882 21.3765C30.7789 21.3321 30.6238 20.611 29.4001 20.6096C28.351 20.6087 19.7645 19.5992 14.6351 18.9958C12.8226 18.7825 11.3905 18.6145 11.2865 18.6087C11.2594 18.6087 11.1967 18.6016 11.1123 18.591C10.8093 18.5519 10.1001 18.4612 9.7544 18.7589C9.61621 18.878 9.54645 19.0535 9.54156 19.2939L9.09768 19.285Z" fill="#797A79"/>
<path d="M8.13093 43.3147C7.5364 43.484 6.92988 43.1787 6.77436 42.6335L6.04297 40.0585C5.88834 39.5142 6.24516 38.9357 6.8388 38.7664L23.5634 34.0164C24.1579 33.8484 24.7653 34.1532 24.92 34.698L25.6514 37.273C25.806 37.8177 25.4501 38.3962 24.8555 38.5651L8.13093 43.3147Z" fill="#313030"/>
<path d="M25.8782 39.2245C25.5841 39.3107 25.2992 39.2245 25.2428 39.0312L23.5583 33.2641C23.5019 33.0708 23.6956 32.845 23.9907 32.7588C24.2857 32.6731 24.5705 32.7588 24.6269 32.9521L26.3105 38.7188C26.367 38.9125 26.1733 39.1387 25.8782 39.2245Z" fill="#0C2518"/>
<path d="M56.8745 42.9007L58.356 22.6538C58.356 22.6538 63.3828 22.2379 70.2657 24.5387C76.2936 26.5538 83.628 30.979 91.8301 35.2403L89.164 38.2023C89.164 38.2023 76.3518 34.6924 73.6858 37.1141C71.0197 39.5353 61.9845 43.7477 56.8745 42.9007Z" fill="#FF0000"/>
<path d="M104.134 24.8968C98.9899 24.232 94.9534 22.4422 95.1174 20.8972C95.2823 19.3523 99.5853 18.6387 104.729 19.3034C109.873 19.9673 113.91 21.7575 113.745 23.302C113.581 24.8466 109.277 25.5606 104.134 24.8968Z" fill="#878888"/>
<path d="M104.134 24.8972C109.278 25.561 113.581 24.8474 113.745 23.3024C113.757 23.1945 113.745 23.0851 113.717 22.9749C112.723 24.1422 108.859 24.6195 104.349 24.0374C99.566 23.4193 95.7424 21.8281 95.3612 20.3662C95.2216 20.5302 95.1372 20.7075 95.1172 20.8976C94.9533 22.4422 98.9897 24.2324 104.134 24.8972Z" fill="#626362"/>
<path d="M77.4781 36.4963L82.5352 21.2309C82.5352 21.2162 82.7378 20.1449 84.3499 20.144C85.3728 20.1427 94.2752 19.0963 99.0581 18.5338C101.709 18.2218 102.388 18.1427 102.457 18.1427C102.481 18.1423 102.524 18.1356 102.581 18.1285C102.974 18.0783 103.79 17.9734 104.285 18.4009C104.522 18.6044 104.645 18.895 104.652 19.2638L104.208 19.2727C104.203 19.0319 104.134 18.8572 103.995 18.7373C103.649 18.4395 102.94 18.5306 102.637 18.5693C102.553 18.58 102.49 18.5871 102.456 18.5871C102.359 18.5929 100.925 18.7613 99.1092 18.975C93.9814 19.578 85.3985 20.5871 84.3499 20.5884C83.1071 20.5893 82.9662 21.3309 82.9649 21.3384L77.8998 36.6367L77.4781 36.4963Z" fill="#797A79"/>
<path d="M105.618 43.3147C106.213 43.484 106.819 43.1787 106.975 42.6335L107.706 40.0585C107.861 39.5142 107.504 38.9357 106.91 38.7664L90.1857 34.0164C89.5912 33.8484 88.9838 34.1532 88.8291 34.698L88.0977 37.273C87.9431 37.8177 88.299 38.3962 88.8936 38.5651L105.618 43.3147Z" fill="#313030"/>
<path d="M87.8676 39.2245C88.1618 39.3107 88.4466 39.2245 88.503 39.0312L90.1875 33.2641C90.2439 33.0708 90.0502 32.845 89.7552 32.7588C89.4601 32.6731 89.1753 32.7588 89.1189 32.9521L87.4352 38.7188C87.3788 38.9125 87.5726 39.1387 87.8676 39.2245Z" fill="#0C2518"/>
<path d="M40.4019 168.804C39.5541 168.804 38.8676 167.522 38.8676 165.941C38.8676 164.361 39.5541 163.079 40.4019 163.079L73.4579 163.079C74.3057 163.079 74.9922 164.361 74.9922 165.941C74.9922 167.523 74.3057 168.804 73.4579 168.804L40.4019 168.804Z" fill="#FF0000"/>
<path d="M63.2339 180.506C62.7478 180.506 62.3542 179.818 62.3542 178.968C62.3542 178.119 62.7483 177.43 63.2339 177.43L75.4889 177.43C75.975 177.43 76.3691 178.119 76.3691 178.968C76.3691 179.818 75.975 180.506 75.4889 180.506L63.2339 180.506Z" fill="#FF0000"/>
<path d="M74.9936 188.211C73.7254 188.211 72.6981 187.183 72.6981 185.915L72.6981 179.605C72.6981 178.337 73.7259 177.309 74.9936 177.309C76.2617 177.309 77.2891 178.337 77.2891 179.605L77.2891 185.915C77.2891 187.183 76.2617 188.211 74.9936 188.211Z" fill="#FF0000"/>
<path d="M80.4659 188.182C80.4659 188.182 78.7223 196.228 73.4213 194.749C70.6526 193.976 68.0994 185.368 69.679 182.519C70.35 181.309 77.2391 181.11 79.6741 182.222C80.9405 182.8 81.0204 185.904 80.4659 188.182Z" fill="#FF0000"/>
<path d="M79.6744 182.223C80.5796 182.636 80.8764 184.341 80.7706 186.113L69.2533 186.113C69.1129 184.653 69.2222 183.344 69.6794 182.52C70.3499 181.31 77.239 181.111 79.6744 182.223Z" fill="#A8A7A1"/>
<path d="M75.9451 194.721C79.2915 193.591 80.4659 188.182 80.4659 188.182C81.0204 185.903 80.9404 182.8 79.6745 182.222C78.8231 181.834 77.4284 181.605 75.9451 181.525L75.9451 194.721Z" fill="#FF0000"/>
<path d="M52.2116 180.506C52.6977 180.506 53.0918 179.818 53.0918 178.968C53.0918 178.119 52.6977 177.43 52.2116 177.43L39.9566 177.43C39.4705 177.43 39.0759 178.119 39.0759 178.968C39.0759 179.818 39.4709 180.506 39.9566 180.506L52.2116 180.506Z" fill="#FF0000"/>
<path d="M40.4526 188.211C41.7207 188.211 42.748 187.183 42.748 185.915L42.748 179.605C42.748 178.337 41.7203 177.309 40.4526 177.309C39.1844 177.309 38.1562 178.337 38.1562 179.605L38.1562 185.915C38.1562 187.183 39.1844 188.211 40.4526 188.211Z" fill="#FF0000"/>
<path d="M34.9805 188.182C34.9805 188.182 36.7241 196.228 42.0242 194.749C44.7929 193.976 47.347 185.368 45.7673 182.519C45.0955 181.309 38.2073 181.11 35.7723 182.222C34.5055 182.8 34.4255 185.904 34.9805 188.182Z" fill="#FF0000"/>
<path d="M35.7718 182.223C34.8658 182.636 34.5699 184.341 34.6756 186.113L46.193 186.113C46.333 184.653 46.2241 183.344 45.7669 182.52C45.095 181.31 38.2068 181.111 35.7718 182.223Z" fill="#A8A7A1"/>
<path d="M39.502 194.721C36.1556 193.591 34.9812 188.182 34.9812 188.182C34.4267 185.903 34.5067 182.8 35.7726 182.222C36.6231 181.834 38.0187 181.605 39.502 181.525L39.502 194.721Z" fill="#FF0000"/>
<path d="M73.8808 171.811C71.0116 171.811 68.6868 169.486 68.6868 166.617C68.6868 163.749 71.0116 161.424 73.8808 161.424C76.749 161.424 79.0742 163.749 79.0742 166.617C79.0742 169.486 76.7494 171.811 73.8808 171.811Z" fill="#FF0000"/>
<path d="M42.371 171.811C39.5027 171.811 37.1766 169.486 37.1766 166.617C37.1766 163.749 39.5023 161.424 42.371 161.424C45.2396 161.424 47.5645 163.749 47.5645 166.617C47.5645 169.486 45.2392 171.811 42.371 171.811Z" fill="#FF0000"/>
<path d="M56.503 226.836C53.0246 226.836 50.2048 223.604 50.2048 219.617L50.2048 159.358C50.2048 155.372 53.0247 145.389 56.503 145.389L59.9031 145.389C63.3814 145.389 66.2012 155.816 66.2012 159.803L66.2012 219.617C66.2012 223.604 63.3814 226.836 59.9031 226.836L56.503 226.836L56.503 226.836Z" fill="#FF0000"/>
<path d="M66.6523 213.521L66.6523 196.97L49.7553 196.97L49.7553 213.521L66.6523 213.521Z" fill="#FF0000"/>
<path d="M66.6523 203.563L66.6523 196.97L49.7553 196.97L49.7553 203.563L66.6523 203.563Z" fill="#A8A7A1"/>
<path d="M66.6523 213.521L66.6523 196.97L62.3538 196.97L62.3538 213.521L66.6523 213.521Z" fill="#FF0000"/>
<path d="M72.9473 202.588L72.9473 161.308C72.9473 157.946 70.1275 155.22 66.6492 155.22L49.757 155.22C46.2796 155.22 43.4598 157.946 43.4598 161.308L43.4598 202.588C43.4598 205.95 46.2796 208.676 49.757 208.676L66.6492 208.676C70.1275 208.676 72.9473 205.95 72.9473 202.588ZM51.0554 206.899C48.0699 206.899 45.6504 204.394 45.6504 201.302L45.6504 163.355C45.6504 160.264 48.0699 157.758 51.0554 157.758L65.5538 157.758C68.5385 157.758 70.9588 160.264 70.9588 163.355L70.9588 201.302C70.9588 204.394 68.5385 206.899 65.5538 206.899L51.0554 206.899Z" fill="#C4C4C3"/>
<path d="M44.7941 171.681C44.0574 171.681 43.461 171.084 43.461 170.348C43.461 169.612 44.0574 169.015 44.7941 169.015L71.0303 169.015C71.7661 169.015 72.3633 169.612 72.3633 170.348C72.3633 171.084 71.7661 171.681 71.0303 171.681L44.7941 171.681Z" fill="#C4C4C3"/>
<path d="M44.7941 184.548C44.0574 184.548 43.461 183.951 43.461 183.215C43.461 182.479 44.0574 181.882 44.7941 181.882L71.0303 181.882C71.7661 181.882 72.3633 182.479 72.3633 183.215C72.3633 183.951 71.7661 184.548 71.0303 184.548L44.7941 184.548Z" fill="#C4C4C3"/>
<path d="M44.7941 197.415C44.0574 197.415 43.461 196.817 43.461 196.082C43.461 195.346 44.0574 194.749 44.7941 194.749L71.0303 194.749C71.7661 194.749 72.3633 195.346 72.3633 196.082C72.3633 196.817 71.7661 197.415 71.0303 197.415L44.7941 197.415Z" fill="#C4C4C3"/>
<path d="M53.07 119.735C54.0342 119.736 54.9985 119.739 55.9627 119.735C58.4012 119.723 60.8513 119.817 63.2881 119.733C63.6707 119.72 64.0693 119.704 64.4483 119.711C64.6331 119.715 64.8215 119.797 65.0082 119.763C66.3665 119.517 65.1521 116.826 64.9482 115.946C64.6816 114.799 64.411 113.655 64.1341 112.511C64.0022 111.967 63.8657 111.425 63.7298 110.881C63.6533 110.83 63.576 110.778 63.5005 110.734C63.4623 110.712 63.4223 110.693 63.3832 110.672C63.2886 110.717 63.1775 110.716 63.0628 110.662C62.9788 110.621 62.8718 110.528 62.8051 110.418L52.9358 110.418C52.9056 110.469 52.862 110.515 52.7927 110.547C52.4559 110.707 52.2 110.981 52.0663 111.34C51.9641 111.887 51.8605 112.435 51.7597 112.983C51.5495 114.123 51.3242 115.257 51.0878 116.389C50.9714 116.945 50.8518 117.501 50.7292 118.056C50.6452 118.44 50.4186 118.971 50.639 119.334C50.667 119.38 50.6981 119.421 50.7328 119.459C51.2469 120.017 52.4799 119.734 53.07 119.735Z" fill="#7A5435"/>
<path d="M52.6495 108.446C52.614 108.801 52.6104 109.326 52.9535 109.526C52.9997 109.553 53.0454 109.585 53.0881 109.624L62.4322 109.624C62.6952 109.642 62.8654 109.565 63.0058 109.324C63.0894 109.181 63.1569 109.029 63.2227 108.876C62.9467 107.788 62.669 106.701 62.3793 105.618C62.0798 104.498 61.9998 102.45 60.6477 102.45C58.9614 102.45 57.2734 102.472 55.588 102.467C55.0508 102.465 54.5407 102.356 54.1194 102.852C53.6671 103.385 53.5311 104.274 53.3809 104.978C53.1379 106.12 52.8855 107.26 52.6442 108.404C52.6451 108.419 52.6513 108.431 52.6495 108.446Z" fill="#7A5435"/>
<path d="M69.1555 138.155C69.3905 137.911 69.4767 137.57 69.4785 137.218C68.4241 132.048 67.3652 126.879 66.2415 121.732C65.9291 121.211 65.5092 120.884 64.9676 120.623L51.1312 120.623C50.8215 120.753 50.5291 120.931 50.2834 121.19C50.1305 121.35 50.003 121.531 49.891 121.723C49.4058 123.762 48.8948 125.795 48.3478 127.834C47.5467 130.822 46.7762 133.82 46.0244 136.826C46.0323 137.279 46.111 137.756 46.3829 137.962C46.6042 138.131 46.8691 138.196 47.1361 138.231L69.0573 138.231C69.0893 138.203 69.1257 138.186 69.1555 138.155Z" fill="#7A5435"/>
<path d="M43.6317 156.078L72.8289 156.078C73.1169 155.799 73.2817 155.381 73.3262 154.9C72.2673 150.19 71.2764 145.46 70.3051 140.721C70.1305 140.222 69.887 139.73 69.5066 139.445C69.2698 139.268 69.0014 139.184 68.7254 139.12L46.4208 139.12C46.0564 139.303 45.717 139.563 45.4837 139.891C45.4099 139.995 45.3499 140.107 45.2935 140.222C44.1871 144.781 43.1509 149.364 42.1987 153.973C42.0867 155.287 42.763 155.859 43.6317 156.078Z" fill="#7A5435"/>
<ellipse cx="57.2518" cy="80.2274" rx="24.8592" ry="36.5355" fill="#FF0000"/>
<path d="M74.3332 134.364C68.6357 124.227 68.4957 121.893 66.3509 111.118C64.2057 100.343 57.9247 102.659 57.9247 102.659L57.8892 103.061L57.8545 102.659C57.8545 102.659 51.5735 100.343 49.4283 111.118C47.2831 121.893 47.1435 124.226 41.4453 134.364C36.782 142.66 35.5542 157.898 52.3494 159.548L52.9951 159.548L62.784 159.548L63.4297 159.548C80.2246 157.898 78.9972 142.66 74.3332 134.364Z" fill="#6E4C30"/>
</svg>
